<svg width="48" height="49" viewBox="0 0 48 49" fill="none" xmlns="http://www.w3.org/2000/svg">
<path d="M24 0.698486C36.9787 0.698486 47.5 11.2198 47.5 24.1985C47.5 37.1772 36.9787 47.6985 24 47.6985C11.0213 47.6985 0.5 37.1772 0.5 24.1985C0.5 11.2198 11.0213 0.698486 24 0.698486Z" fill="#97EAD2"/>
<path d="M24 0.698486C36.9787 0.698486 47.5 11.2198 47.5 24.1985C47.5 37.1772 36.9787 47.6985 24 47.6985C11.0213 47.6985 0.5 37.1772 0.5 24.1985C0.5 11.2198 11.0213 0.698486 24 0.698486Z" stroke="#E4E4E4"/>
<path d="M16 23.4485C15.5858 23.4485 15.25 23.7843 15.25 24.1985C15.25 24.6127 15.5858 24.9485 16 24.9485L16 23.4485ZM32 24.9485C32.4142 24.9485 32.75 24.6127 32.75 24.1985C32.75 23.7843 32.4142 23.4485 32 23.4485V24.9485ZM28.528 18.6658C28.2338 18.3742 27.7589 18.3763 27.4673 18.6705C27.1757 18.9647 27.1778 19.4396 27.472 19.7312L28.528 18.6658ZM29.763 20.9458L29.235 21.4785L29.763 20.9458ZM29.763 27.4512L30.2909 27.9839L29.763 27.4512ZM27.472 28.6658C27.1778 28.9574 27.1757 29.4322 27.4673 29.7264C27.7589 30.0206 28.2338 30.0228 28.528 29.7312L27.472 28.6658ZM31.9801 23.8852L32.7241 23.7903V23.7903L31.9801 23.8852ZM31.9801 24.5118L32.7241 24.6066V24.6066L31.9801 24.5118ZM16 24.1985L16 24.9485L32 24.9485V24.1985V23.4485L16 23.4485L16 24.1985ZM28 19.1985L27.472 19.7312L29.235 21.4785L29.763 20.9458L30.2909 20.4131L28.528 18.6658L28 19.1985ZM29.763 27.4512L29.235 26.9185L27.472 28.6658L28 29.1985L28.528 29.7312L30.2909 27.9839L29.763 27.4512ZM29.763 20.9458L29.235 21.4785C29.9505 22.1876 30.4413 22.6757 30.7734 23.0892C31.096 23.4909 31.2067 23.7489 31.2361 23.98L31.9801 23.8852L32.7241 23.7903C32.6453 23.1722 32.3504 22.6573 31.9429 22.1499C31.545 21.6545 30.9814 21.0974 30.2909 20.4131L29.763 20.9458ZM29.763 27.4512L30.2909 27.9839C30.9814 27.2996 31.545 26.7425 31.9429 26.247C32.3504 25.7397 32.6453 25.2248 32.7241 24.6066L31.9801 24.5118L31.2361 24.417C31.2067 24.6481 31.096 24.9061 30.7734 25.3078C30.4413 25.7213 29.9505 26.2093 29.235 26.9185L29.763 27.4512ZM31.9801 23.8852L31.2361 23.98C31.2546 24.1251 31.2546 24.2719 31.2361 24.417L31.9801 24.5118L32.7241 24.6066C32.7586 24.3356 32.7586 24.0614 32.7241 23.7903L31.9801 23.8852Z" fill="#2F1258"/>
</svg>
