<svg width="26" height="26" viewBox="0 0 26 26" fill="none" xmlns="http://www.w3.org/2000/svg">
<rect width="26" height="26" rx="4" fill="#3D65CA"/>
<path opacity="0.2" d="M6.84697 19.5589L9.02666 13.1809C9.07098 13.0587 9.07098 12.9248 9.02666 12.8026L6.84697 6.44143C6.80851 6.33361 6.80386 6.21662 6.83364 6.10609C6.86343 5.99556 6.92623 5.89675 7.01365 5.82285C7.10108 5.74895 7.20897 5.70349 7.32291 5.69253C7.43686 5.68156 7.55144 5.70563 7.65135 5.76151L19.4638 12.501C19.5518 12.5496 19.6251 12.6209 19.6761 12.7075C19.7271 12.794 19.754 12.8927 19.754 12.9931C19.754 13.0936 19.7271 13.1923 19.6761 13.2788C19.6251 13.3654 19.5518 13.4367 19.4638 13.4853L7.65135 20.2417C7.5512 20.298 7.43619 20.3223 7.3218 20.3114C7.2074 20.3004 7.09912 20.2547 7.0115 20.1803C6.92389 20.1059 6.86116 20.0065 6.83174 19.8954C6.80233 19.7843 6.80764 19.6669 6.84697 19.5589Z" fill="#EEEEEE" fill-opacity="0.9"/>
<path d="M7.93119 20.7273L19.7374 13.9738C19.9113 13.8759 20.0561 13.7335 20.1569 13.5612C20.2577 13.3889 20.3108 13.1929 20.3108 12.9933C20.3108 12.7936 20.2577 12.5976 20.1569 12.4253C20.0561 12.253 19.9113 12.1106 19.7374 12.0128L7.92486 5.27049C7.72553 5.15881 7.49692 5.11048 7.26945 5.13192C7.04198 5.15335 6.82643 5.24354 6.65147 5.39048C6.47651 5.53743 6.35044 5.73416 6.29003 5.95451C6.22962 6.17486 6.23774 6.40838 6.3133 6.624L8.49299 12.9852L8.49299 12.9922L8.49299 12.9985L6.3133 19.3745C6.2368 19.5908 6.22825 19.8253 6.2888 20.0465C6.34936 20.2678 6.47611 20.4653 6.65208 20.6125C6.82805 20.7597 7.04481 20.8496 7.27331 20.8701C7.5018 20.8906 7.73111 20.8408 7.93049 20.7273L7.93119 20.7273ZM7.37994 19.7429L9.49424 13.5624L13.5625 13.5624C13.7117 13.5624 13.8548 13.5032 13.9603 13.3977C14.0658 13.2922 14.125 13.1491 14.125 12.9999C14.125 12.8508 14.0658 12.7077 13.9603 12.6022C13.8548 12.4967 13.7117 12.4374 13.5625 12.4374L9.49986 12.4374L7.37924 6.25838L7.37502 6.24994L19.1875 12.9901L7.37502 19.7499L7.37994 19.7429Z" fill="#EEEEEE" fill-opacity="0.933333"/>
</svg>
