<svg width="24" height="25" viewBox="0 0 24 25" fill="none" xmlns="http://www.w3.org/2000/svg">
<path d="M4 11.4485C3.58579 11.4485 3.25 11.7843 3.25 12.1985C3.25 12.6127 3.58579 12.9485 4 12.9485L4 11.4485ZM20 12.9485C20.4142 12.9485 20.75 12.6127 20.75 12.1985C20.75 11.7843 20.4142 11.4485 20 11.4485V12.9485ZM16.528 6.6658C16.2338 6.37421 15.7589 6.37633 15.4673 6.67053C15.1757 6.96472 15.1778 7.43959 15.472 7.73118L16.528 6.6658ZM17.763 8.94579L17.235 9.47848L17.763 8.94579ZM17.763 15.4512L18.2909 15.9839L17.763 15.4512ZM15.472 16.6658C15.1778 16.9574 15.1757 17.4322 15.4673 17.7264C15.7589 18.0206 16.2338 18.0228 16.528 17.7312L15.472 16.6658ZM19.9801 11.8852L20.7241 11.7903V11.7903L19.9801 11.8852ZM19.9801 12.5118L20.7241 12.6066V12.6066L19.9801 12.5118ZM4 12.1985L4 12.9485L20 12.9485V12.1985V11.4485L4 11.4485L4 12.1985ZM16 7.19849L15.472 7.73118L17.235 9.47848L17.763 8.94579L18.2909 8.4131L16.528 6.6658L16 7.19849ZM17.763 15.4512L17.235 14.9185L15.472 16.6658L16 17.1985L16.528 17.7312L18.2909 15.9839L17.763 15.4512ZM17.763 8.94579L17.235 9.47848C17.9505 10.1876 18.4413 10.6757 18.7734 11.0892C19.096 11.4909 19.2067 11.7489 19.2361 11.98L19.9801 11.8852L20.7241 11.7903C20.6453 11.1722 20.3504 10.6573 19.9429 10.1499C19.545 9.65445 18.9814 9.09741 18.2909 8.4131L17.763 8.94579ZM17.763 15.4512L18.2909 15.9839C18.9814 15.2996 19.545 14.7425 19.9429 14.247C20.3504 13.7397 20.6453 13.2248 20.7241 12.6066L19.9801 12.5118L19.2361 12.417C19.2067 12.6481 19.096 12.9061 18.7734 13.3078C18.4413 13.7213 17.9505 14.2093 17.235 14.9185L17.763 15.4512ZM19.9801 11.8852L19.2361 11.98C19.2546 12.1251 19.2546 12.2719 19.2361 12.417L19.9801 12.5118L20.7241 12.6066C20.7586 12.3356 20.7586 12.0614 20.7241 11.7903L19.9801 11.8852Z" fill="#2F1258"/>
</svg>
