<svg width="56" height="56" viewBox="0 0 56 56" fill="none" xmlns="http://www.w3.org/2000/svg">
<rect width="56" height="56" rx="28" fill="#F9F5FF"/>
<path d="M16.0338 21.4728L16.7011 21.8151L16.0338 21.4728ZM16.3644 20.9002L16.9945 21.307L16.3644 20.9002ZM21.6497 39.0001L21.2747 39.6496L21.6497 39.0001ZM16.3644 35.0999L16.9945 34.6932L16.3644 35.0999ZM16.0338 34.5273L16.7011 34.185L16.0338 34.5273ZM34.3514 39.0001L34.7264 39.6496L34.3514 39.0001ZM28.3311 41.6272L28.3683 42.3763L28.3311 41.6272ZM27.67 41.6272L27.6328 42.3763L27.67 41.6272ZM39.9673 34.5273L39.2999 34.185L39.9673 34.5273ZM39.6367 35.0999L39.0066 34.6932L39.6367 35.0999ZM39.6367 20.9002L39.0066 21.307L39.6367 20.9002ZM39.9673 21.4728L39.2999 21.8151L39.9673 21.4728ZM28.3311 14.3729L28.3683 13.6239L28.3311 14.3729ZM27.67 14.3729L27.6328 13.6239L27.67 14.3729ZM37.1152 37.1505L36.3961 37.3633L36.4019 37.3829L36.4087 37.4021L37.1152 37.1505ZM18.8764 37.1825L18.156 36.9742L18.1463 37.0077L18.1397 37.042L18.8764 37.1825ZM18.8477 37.3333L18.4421 37.9642L18.8477 37.3333ZM33.3339 24.0001H32.5839C32.5839 26.5314 30.5318 28.5834 28.0005 28.5834V29.3334V30.0834C31.3603 30.0834 34.0839 27.3598 34.0839 24.0001H33.3339ZM28.0005 29.3334V28.5834C25.4692 28.5834 23.4172 26.5314 23.4172 24.0001H22.6672H21.9172C21.9172 27.3598 24.6408 30.0834 28.0005 30.0834V29.3334ZM22.6672 24.0001H23.4172C23.4172 21.4688 25.4692 19.4167 28.0005 19.4167V18.6667V17.9167C24.6408 17.9167 21.9172 20.6403 21.9172 24.0001H22.6672ZM28.0005 18.6667V19.4167C30.5318 19.4167 32.5839 21.4688 32.5839 24.0001H33.3339H34.0839C34.0839 20.6403 31.3603 17.9167 28.0005 17.9167V18.6667ZM15.2988 28.0001H16.0488C16.0488 26.2887 16.0495 25.054 16.1377 24.0668C16.2247 23.094 16.3932 22.4154 16.7011 21.8151L16.0338 21.4728L15.3665 21.1305C14.9395 21.9629 14.7405 22.8498 14.6437 23.9333C14.5481 25.0025 14.5488 26.315 14.5488 28.0001H15.2988ZM21.6497 17.0001L21.2747 16.3506C19.8154 17.1931 18.6784 17.8487 17.8002 18.4661C16.9103 19.0917 16.2416 19.7075 15.7343 20.4935L16.3644 20.9002L16.9945 21.307C17.3604 20.7401 17.8638 20.2549 18.6628 19.6932C19.4736 19.1232 20.5426 18.5053 22.0247 17.6496L21.6497 17.0001ZM16.0338 21.4728L16.7011 21.8151C16.7905 21.641 16.8884 21.4714 16.9945 21.307L16.3644 20.9002L15.7343 20.4935C15.6012 20.6996 15.4785 20.9122 15.3665 21.1305L16.0338 21.4728ZM15.2988 28.0001H14.5488C14.5488 29.6851 14.5481 30.9976 14.6437 32.0668C14.7405 33.1503 14.9395 34.0373 15.3665 34.8697L16.0338 34.5273L16.7011 34.185C16.3932 33.5847 16.2247 32.9062 16.1377 31.9333C16.0495 30.9462 16.0488 29.7114 16.0488 28.0001H15.2988ZM16.3644 35.0999L16.9945 34.6932C16.8884 34.5288 16.7905 34.3592 16.7011 34.185L16.0338 34.5273L15.3665 34.8697C15.4785 35.088 15.6012 35.3006 15.7343 35.5067L16.3644 35.0999ZM34.3514 39.0001L33.9764 38.3506C32.4943 39.2062 31.4247 39.823 30.5256 40.2402C29.6396 40.6514 28.9678 40.8447 28.2939 40.8781L28.3311 41.6272L28.3683 42.3763C29.3027 42.3299 30.1703 42.0587 31.157 41.6008C32.1308 41.149 33.2671 40.4921 34.7264 39.6496L34.3514 39.0001ZM21.6497 39.0001L21.2747 39.6496C22.734 40.4921 23.8703 41.149 24.844 41.6008C25.8308 42.0587 26.6984 42.3299 27.6328 42.3763L27.67 41.6272L27.7071 40.8781C27.0333 40.8447 26.3614 40.6514 25.4754 40.2402C24.5764 39.823 23.5067 39.2062 22.0247 38.3506L21.6497 39.0001ZM28.3311 41.6272L28.2939 40.8781C28.0985 40.8878 27.9026 40.8878 27.7071 40.8781L27.67 41.6272L27.6328 42.3763C27.8778 42.3884 28.1233 42.3884 28.3683 42.3763L28.3311 41.6272ZM40.7022 28.0001H39.9522C39.9522 29.7114 39.9516 30.9462 39.8633 31.9333C39.7764 32.9062 39.6079 33.5847 39.2999 34.185L39.9673 34.5273L40.6346 34.8697C41.0616 34.0373 41.2606 33.1503 41.3574 32.0668C41.4529 30.9976 41.4522 29.6851 41.4522 28.0001H40.7022ZM39.9673 34.5273L39.2999 34.185C39.2106 34.3592 39.1127 34.5288 39.0066 34.6932L39.6367 35.0999L40.2668 35.5067C40.3999 35.3006 40.5226 35.088 40.6346 34.8697L39.9673 34.5273ZM34.3514 17.0001L33.9764 17.6496C35.4584 18.5053 36.5274 19.1232 37.3382 19.6932C38.1373 20.2549 38.6407 20.7401 39.0066 21.307L39.6367 20.9002L40.2668 20.4935C39.7594 19.7075 39.0908 19.0917 38.2009 18.4661C37.3227 17.8487 36.1857 17.1931 34.7264 16.3506L34.3514 17.0001ZM40.7022 28.0001H41.4522C41.4522 26.315 41.4529 25.0025 41.3574 23.9333C41.2606 22.8498 41.0616 21.9629 40.6346 21.1305L39.9673 21.4728L39.2999 21.8151C39.6079 22.4154 39.7764 23.094 39.8633 24.0668C39.9516 25.054 39.9522 26.2887 39.9522 28.0001H40.7022ZM39.6367 20.9002L39.0066 21.307C39.1127 21.4714 39.2106 21.641 39.2999 21.8151L39.9673 21.4728L40.6346 21.1305C40.5226 20.9122 40.3999 20.6996 40.2668 20.4935L39.6367 20.9002ZM34.3514 17.0001L34.7264 16.3506C33.2671 15.508 32.1308 14.8512 31.157 14.3993C30.1703 13.9414 29.3027 13.6703 28.3683 13.6239L28.3311 14.3729L28.2939 15.122C28.9678 15.1555 29.6396 15.3488 30.5256 15.76C31.4247 16.1771 32.4943 16.7939 33.9764 17.6496L34.3514 17.0001ZM21.6497 17.0001L22.0247 17.6496C23.5067 16.7939 24.5764 16.1771 25.4754 15.76C26.3614 15.3488 27.0333 15.1555 27.7071 15.122L27.67 14.3729L27.6328 13.6239C26.6984 13.6703 25.8308 13.9414 24.844 14.3993C23.8703 14.8512 22.734 15.508 21.2747 16.3506L21.6497 17.0001ZM28.3311 14.3729L28.3683 13.6239C28.1233 13.6117 27.8778 13.6117 27.6328 13.6239L27.67 14.3729L27.7071 15.122C27.9026 15.1123 28.0985 15.1123 28.2939 15.122L28.3311 14.3729ZM24.0005 33.3334V34.0834H32.0005V33.3334V32.5834H24.0005V33.3334ZM32.0005 33.3334V34.0834C34.0781 34.0834 35.8345 35.4663 36.3961 37.3633L37.1152 37.1505L37.8344 36.9376C37.0894 34.4209 34.7605 32.5834 32.0005 32.5834V33.3334ZM34.3514 39.0001L34.7264 39.6496C35.8689 38.99 36.8109 38.4463 37.5816 37.9496L37.1753 37.3192L36.7691 36.6888C36.036 37.1612 35.13 37.6845 33.9764 38.3506L34.3514 39.0001ZM37.1753 37.3192L37.5816 37.9496C38.7885 37.1719 39.6484 36.4647 40.2668 35.5067L39.6367 35.0999L39.0066 34.6932C38.5601 35.3848 37.9111 35.9528 36.7691 36.6888L37.1753 37.3192ZM37.1152 37.1505L36.4087 37.4021L36.4688 37.5708L37.1753 37.3192L37.8819 37.0676L37.8218 36.8988L37.1152 37.1505ZM24.0005 33.3334V32.5834C21.2272 32.5834 18.8891 34.4386 18.156 36.9742L18.8764 37.1825L19.5969 37.3908C20.1495 35.4797 21.9129 34.0834 24.0005 34.0834V33.3334ZM21.6497 39.0001L22.0247 38.3506C20.8824 37.691 19.9828 37.1714 19.2533 36.7025L18.8477 37.3333L18.4421 37.9642C19.2084 38.4568 20.1432 38.9963 21.2747 39.6496L21.6497 39.0001ZM18.8477 37.3333L19.2533 36.7025C18.098 35.9598 17.4438 35.3892 16.9945 34.6932L16.3644 35.0999L15.7343 35.5067C16.3565 36.4706 17.2233 37.1807 18.4421 37.9642L18.8477 37.3333ZM18.8764 37.1825L18.1397 37.042L18.111 37.1928L18.8477 37.3333L19.5844 37.4738L19.6132 37.323L18.8764 37.1825Z" fill="#DFB400"/>
</svg>
