<svg width="49" height="48" viewBox="0 0 49 48" fill="none" xmlns="http://www.w3.org/2000/svg">
<path d="M24.5376 7.66003C26.4936 11.0087 28.4497 14.3198 30.3334 17.6685C27.2476 23.1235 24.1619 28.6188 20.9635 34.0362C19.7212 36.105 18.5539 38.214 17.3143 40.2828C13.3646 40.3204 9.41216 40.3204 5.5 40.2828C5.6127 40.0199 5.72539 39.7569 5.87565 39.4939C12.1195 28.8817 18.3661 18.3098 24.5376 7.66003Z" fill="#AE285D"/>
<path d="M24.5371 27.9801C28.4868 27.9801 32.4392 27.9425 36.389 28.0177C38.7583 32.1203 41.1678 36.1827 43.4995 40.323C39.5498 40.3605 35.5974 40.323 31.6477 40.323C29.316 36.1827 26.8688 32.1176 24.5371 27.9801Z" fill="#AE285D"/>
</svg>
