<svg width="32" height="32" viewBox="0 0 32 32" fill="none" xmlns="http://www.w3.org/2000/svg">
<path d="M16 0.5C24.5604 0.5 31.5 7.43959 31.5 16C31.5 24.5604 24.5604 31.5 16 31.5C7.43959 31.5 0.5 24.5604 0.5 16C0.5 7.43959 7.43959 0.5 16 0.5Z" fill="#F2F2F2"/>
<path d="M16 0.5C24.5604 0.5 31.5 7.43959 31.5 16C31.5 24.5604 24.5604 31.5 16 31.5C7.43959 31.5 0.5 24.5604 0.5 16C0.5 7.43959 7.43959 0.5 16 0.5Z" stroke="#5F25B0"/>
<path d="M20.6673 16H11.334" stroke="#5F25B0" stroke-width="1.5" stroke-linecap="round" stroke-linejoin="round"/>
<path d="M16.0007 20.6667L11.334 16L16.0007 11.3334" stroke="#5F25B0" stroke-width="1.5" stroke-linecap="round" stroke-linejoin="round"/>
</svg>
