<svg width="20" height="21" viewBox="0 0 20 21" fill="none" xmlns="http://www.w3.org/2000/svg">
<path d="M18.25 16.376H1.75C1.19772 16.376 0.75 16.8237 0.75 17.376V18.376C0.75 18.9283 1.19772 19.376 1.75 19.376H18.25C18.8023 19.376 19.25 18.9283 19.25 18.376V17.376C19.25 16.8237 18.8023 16.376 18.25 16.376Z" stroke="#252525" stroke-width="1.5" stroke-linecap="round" stroke-linejoin="round"/>
<path d="M3.25 7.874V16.384M16.75 7.874V16.384M12.5 7.874V16.384M7.5 7.874V16.384M9.04 1.15L1.27 5.4C1.11263 5.48611 0.981324 5.61296 0.889836 5.76725C0.798347 5.92155 0.750048 6.09762 0.75 6.277V7.274C0.75 7.43313 0.813214 7.58575 0.925736 7.69827C1.03826 7.81079 1.19087 7.874 1.35 7.874H18.65C18.8091 7.874 18.9617 7.81079 19.0743 7.69827C19.1868 7.58575 19.25 7.43313 19.25 7.274V6.277C19.25 6.09762 19.2017 5.92155 19.1102 5.76725C19.0187 5.61296 18.8874 5.48611 18.73 5.4L10.96 1.15C10.6657 0.988953 10.3355 0.904541 10 0.904541C9.66448 0.904541 9.33434 0.988953 9.04 1.15Z" stroke="#252525" stroke-width="1.5" stroke-linecap="round" stroke-linejoin="round"/>
</svg>
