<svg width="63" height="27" viewBox="0 0 63 27" fill="none" xmlns="http://www.w3.org/2000/svg">
<g clip-path="url(#clip0_1017_13175)">
<path d="M11.7704 7.75272C11.7704 8.00175 11.7629 8.24586 11.7492 8.48015C11.7355 8.71446 11.6885 9.02247 11.6112 9.40581C11.5324 9.78752 11.4293 10.1398 11.3018 10.4609C11.1745 10.7804 10.985 11.1179 10.7362 11.4685C10.4875 11.8207 10.1919 12.114 9.84916 12.3483C9.50794 12.5825 9.07274 12.7775 8.54657 12.9348C8.01883 13.0904 7.42894 13.1691 6.77385 13.1691H1.57255C1.1889 13.1691 0.876517 12.8267 0.876517 12.4056V10.2545H0.87955C1.68325 10.2545 2.6947 10.2545 3.75467 10.2528H6.91488C7.31976 10.2528 7.62456 10.0333 7.7762 9.63681C7.92633 9.24689 7.85506 8.86184 7.57452 8.55223C6.58126 7.45782 5.5774 6.36012 4.64177 5.33452C4.42644 5.0986 4.15803 5.00193 3.86537 5.05436C3.50901 5.1199 3.26184 5.34763 3.14811 5.71462C3.03134 6.09635 3.10868 6.45023 3.37102 6.74022C3.75467 7.16291 4.14135 7.58561 4.54472 8.02468L4.7646 8.26716H0.876517L0.875 2.88683C0.876516 2.46578 1.18738 2.125 1.56952 2.125H6.77082C8.18108 2.125 9.36691 2.62961 10.3268 3.63719C11.2897 4.64641 11.7704 6.01771 11.7704 7.75272Z" fill="#3C67B1"/>
<path d="M11.7704 19.1832C11.7704 19.4322 11.7629 19.6764 11.7492 19.9106C11.7355 20.145 11.6885 20.4529 11.6112 20.8363C11.5324 21.218 11.4293 21.5702 11.3018 21.8914C11.1745 22.2109 10.985 22.5484 10.7362 22.899C10.4875 23.2512 10.1919 23.5445 9.84916 23.7788C9.50794 24.013 9.07274 24.208 8.54657 24.3653C8.01883 24.5209 7.42894 24.5996 6.77385 24.5996H1.57255C1.1889 24.5996 0.876517 24.2572 0.876517 23.8361V22.745L0.875 14.3189C0.876516 13.8979 1.18738 13.5571 1.56952 13.5571H6.77082C8.18108 13.5571 9.36691 14.0618 10.3268 15.0694C10.7393 15.5035 11.0653 16.0032 11.3003 16.57C10.5679 16.57 9.66107 16.57 8.70276 16.5717H5.24531C4.84042 16.5717 4.53562 16.7896 4.38247 17.1877C4.23385 17.5776 4.30513 17.9643 4.58415 18.2723C5.56982 19.3585 6.5752 20.4611 7.51538 21.49C7.6928 21.685 7.9051 21.7849 8.1371 21.7849C8.18866 21.7849 8.23871 21.78 8.29178 21.7702C8.64816 21.7046 8.89534 21.4769 9.00903 21.1083C9.12578 20.7282 9.04847 20.3743 8.78613 20.0843C8.40247 19.66 8.01579 19.2389 7.61091 18.7982L7.39254 18.5573H11.7477C11.7629 18.7589 11.7704 18.9686 11.7704 19.1832Z" fill="#3C67B1"/>
<path d="M13.5742 2.125H17.3077C19.4215 2.125 20.4694 3.28986 20.4694 4.86431C20.4694 6.14878 19.7172 6.87128 18.7649 7.11212V7.21534C19.8036 7.27268 20.85 8.21145 20.85 9.80881C20.85 11.4537 19.7551 12.6874 17.5215 12.6874H13.5742V2.125ZM17.0878 6.6157C18.0067 6.6157 18.7027 6.03737 18.7027 5.11007C18.7027 4.29581 18.1644 3.70273 17.1272 3.70273H15.3408V6.61734H17.0878V6.6157ZM17.2409 11.0884C18.5223 11.0884 19.0546 10.5003 19.0546 9.65972C19.0546 8.71608 18.3782 7.99356 17.2879 7.99356H15.3408V11.0884H17.2409Z" fill="#F26727"/>
<path d="M23.4976 12.6858H21.7734V2.125H23.4597V6.11109H23.5445C23.8827 5.21328 24.597 4.66116 25.7207 4.66116C27.2401 4.66116 28.2394 5.72936 28.2394 7.64131V12.6858H26.5152V7.9313C26.5152 6.86309 25.9814 6.23888 25.0777 6.23888C24.1542 6.23888 23.4961 6.89914 23.4961 8.04435V12.6858H23.4976Z" fill="#F26727"/>
<path d="M29.1133 10.4638C29.1133 8.67968 30.4704 8.22096 31.8898 8.05548C33.1803 7.9064 33.6989 7.88019 33.6989 7.34445V7.31331C33.6989 6.5351 33.2606 6.09111 32.4615 6.09111C31.6184 6.09111 31.1331 6.55476 30.9618 7.09706L29.3528 6.84967C29.7334 5.40628 30.9147 4.66248 32.4524 4.66248C33.8475 4.66248 35.4246 5.29159 35.4246 7.38541V12.6871H33.7671V11.5992H33.7095C33.3956 12.2644 32.7102 12.8476 31.5623 12.8476C30.1656 12.846 29.1133 12.0203 29.1133 10.4638ZM33.7034 9.84456V8.91067C33.479 9.1073 32.5752 9.23015 32.1233 9.29734C31.3515 9.41532 30.7753 9.71513 30.7753 10.4327C30.7753 11.1192 31.2893 11.4747 32.0081 11.4747C33.0468 11.4747 33.7034 10.726 33.7034 9.84456Z" fill="#F26727"/>
<path d="M36.6242 4.76441H38.2952V6.08492H38.3711C38.638 5.16744 39.3386 4.65137 40.1756 4.65137C40.3666 4.65137 40.6381 4.67266 40.7943 4.70215V6.42077C40.6472 6.36998 40.2848 6.31265 39.9936 6.31265C39.0459 6.31265 38.3453 7.02369 38.3453 8.02963V12.6874H36.6211V4.76441H36.6242Z" fill="#F26727"/>
<path d="M40.9238 10.4638C40.9238 8.67968 42.281 8.22096 43.7004 8.05548C44.9908 7.9064 45.5094 7.88019 45.5094 7.34445V7.31331C45.5094 6.5351 45.0712 6.09111 44.2721 6.09111C43.4289 6.09111 42.9437 6.55476 42.7723 7.09706L41.1634 6.84967C41.544 5.40628 42.7253 4.66248 44.2629 4.66248C45.658 4.66248 47.2351 5.29159 47.2351 7.38541V12.6871H45.5761V11.5992H45.5186C45.2047 12.2644 44.5192 12.8476 43.3713 12.8476C41.9762 12.846 40.9238 12.0203 40.9238 10.4638ZM45.514 9.84456V8.91067C45.2895 9.1073 44.3857 9.23015 43.9339 9.29734C43.162 9.41532 42.5858 9.71513 42.5858 10.4327C42.5858 11.1192 43.0999 11.4747 43.8186 11.4747C44.8574 11.4747 45.514 10.726 45.514 9.84456Z" fill="#F26727"/>
<path d="M52.0883 6.20916H50.6462V10.3034C50.6462 11.057 50.9934 11.2208 51.4271 11.2208C51.6409 11.2208 51.8366 11.175 51.9321 11.1488L52.2233 12.6086C52.0382 12.6757 51.7001 12.779 51.2088 12.7937C49.9137 12.8346 48.9129 12.1023 48.9235 10.6114V6.20916H47.8848V4.76578H48.9235V2.86694H50.6477V4.76415H52.0898V6.20916H52.0883Z" fill="#F26727"/>
<path d="M20.0629 17.5566C19.8674 16.3524 18.9832 15.661 17.8551 15.661C16.3356 15.661 15.265 16.9242 15.265 19.1933C15.265 21.5017 16.3447 22.7256 17.8505 22.7256C18.962 22.7256 19.8506 22.0621 20.0629 20.8841L21.7598 20.8939C21.5005 22.814 20.0372 24.3623 17.8278 24.3623C15.3787 24.3623 13.5742 22.4422 13.5742 19.1949C13.5742 15.9428 15.4015 14.0276 17.8278 14.0276C19.887 14.0276 21.4747 15.3251 21.7598 17.5598H20.0629V17.5566Z" fill="#F26727"/>
<path d="M22.4219 20.4795C22.4219 18.1415 23.7184 16.5786 25.7595 16.5786C27.8006 16.5786 29.0971 18.1415 29.0971 20.4795C29.0971 22.8125 27.8006 24.3706 25.7595 24.3706C23.7184 24.3706 22.4219 22.8125 22.4219 20.4795ZM27.4321 20.4746C27.4321 19.0935 26.8786 17.9892 25.7671 17.9892C24.6374 17.9892 24.0838 19.0951 24.0838 20.4746C24.0838 21.8541 24.6374 22.9452 25.7671 22.9452C26.8786 22.9452 27.4321 21.8541 27.4321 20.4746Z" fill="#F26727"/>
<path d="M31.6149 24.2215H29.9727V16.6768H31.5422V17.9597H31.624C31.941 17.1192 32.6582 16.5786 33.7015 16.5786C35.139 16.5786 36.0914 17.6107 36.0868 19.4178V24.2215H34.4446V19.6931C34.4446 18.6855 33.9365 18.0826 33.0889 18.0826C32.223 18.0826 31.6149 18.7117 31.6149 19.8012V24.2215Z" fill="#F26727"/>
<path d="M38.8903 24.2215H37.248V16.6768H38.8175V17.9597H38.8994C39.2164 17.1192 39.9336 16.5786 40.9769 16.5786C42.4144 16.5786 43.3668 17.6107 43.3622 19.4178V24.2215H41.7199V19.6931C41.7199 18.6855 41.2119 18.0826 40.3643 18.0826C39.4983 18.0826 38.8903 18.7117 38.8903 19.8012V24.2215Z" fill="#F26727"/>
<path d="M44.2246 20.4942C44.2246 18.1662 45.5257 16.5786 47.5213 16.5786C49.2364 16.5786 50.7058 17.7434 50.7058 20.391V20.9366H45.8533C45.8669 22.2292 46.5705 22.9845 47.6305 22.9845C48.3386 22.9845 48.8815 22.6503 49.1045 22.0113L50.6375 22.1981C50.3479 23.5105 49.2318 24.3689 47.6077 24.3689C45.509 24.3689 44.2246 22.8617 44.2246 20.4942ZM49.1317 19.7373C49.1226 18.71 48.4872 17.9647 47.5441 17.9647C46.5644 17.9647 45.9063 18.7756 45.8578 19.7373H49.1317Z" fill="#F26727"/>
<path d="M51.2852 20.4795C51.2852 18.176 52.5726 16.5786 54.6137 16.5786C56.3136 16.5786 57.4934 17.655 57.6071 19.29H56.0376C55.9102 18.5627 55.425 18.0121 54.6364 18.0121C53.6249 18.0121 52.9487 18.9263 52.9487 20.4484C52.9487 21.9917 53.6114 22.919 54.6364 22.919C55.3568 22.919 55.8965 22.4521 56.0376 21.6411H57.6071C57.4888 23.2418 56.3742 24.3673 54.6228 24.3673C52.5408 24.3689 51.2852 22.7634 51.2852 20.4795Z" fill="#F26727"/>
<path d="M61.9247 18.0519H60.5509V21.9528C60.5509 22.6704 60.8815 22.8277 61.2955 22.8277C61.5002 22.8277 61.6852 22.7835 61.7762 22.7589L62.0521 24.1499C61.8747 24.2137 61.5533 24.3121 61.0862 24.3268C59.8534 24.3661 58.8995 23.6682 58.9086 22.2494V18.0535H57.9199V16.6773H58.9086V14.8702H60.5509V16.6773H61.9247V18.0519Z" fill="#F26727"/>
</g>
<defs>
<clipPath id="clip0_1017_13175">
<rect width="62" height="26" fill="white" transform="translate(0.875 0.5)"/>
</clipPath>
</defs>
</svg>
