<svg width="24" height="24" viewBox="0 0 24 24" fill="none" xmlns="http://www.w3.org/2000/svg">
<path d="M20.569 9.86621L21.5 11.5667L19.543 13.2704L20.569 9.86621Z" fill="#2B8B4B"/>
<path d="M19.9166 9.86621L20.8476 11.5667L18.8906 13.2704L19.9166 9.86621Z" fill="#D9782D"/>
<path d="M7.04954 13.1564C7.14137 13.0899 7.20154 13.0107 7.23004 12.9157L7.54037 11.896C7.56887 11.8042 7.5562 11.725 7.50237 11.6617C7.44854 11.5984 7.37254 11.5667 7.26804 11.5667C7.36937 11.5667 7.46754 11.535 7.55937 11.4685C7.6512 11.4052 7.71137 11.326 7.7367 11.231L8.04704 10.2114C8.07554 10.1132 8.06604 10.0309 8.01537 9.96438C7.9647 9.89788 7.88554 9.86621 7.78104 9.86621H3.7467L2.7207 13.245H6.7582C6.85954 13.2545 6.9577 13.2229 7.04954 13.1564ZM4.2787 10.5344H6.2072H6.81204H6.9387C7.01154 10.5502 7.0717 10.5945 7.10654 10.6547C7.1192 10.6959 7.12554 10.7402 7.12554 10.7845C7.12554 10.8099 7.12237 10.832 7.1192 10.8542L7.11287 10.8764L7.08754 10.9619C7.01787 11.1107 6.86904 11.2184 6.68854 11.2374H6.56504H4.06654L4.2787 10.5344ZM6.6727 12.3362C6.59987 12.4755 6.45737 12.5737 6.2832 12.5959H6.15654H3.65487L3.86704 11.8992H5.79554H6.39087H6.5207C6.61887 11.9214 6.6917 11.991 6.71387 12.0797C6.71704 12.0987 6.7202 12.1209 6.7202 12.1399C6.7202 12.1494 6.7202 12.162 6.71704 12.1715V12.1842L6.6727 12.3362ZM13.0029 9.87888L11.9959 13.2482H11.2707L11.676 11.896H8.7627L8.35737 13.2482H7.63537L8.64237 9.87888H9.36754L8.9622 11.2374H11.8755L12.2809 9.87888H13.0029ZM13.215 13.2577H12.4867L13.5 9.89154H14.2284L13.215 13.2577ZM19.2982 9.88521L18.9974 10.8859L18.2912 13.2419H17.566L18.0442 11.6332L16.1315 13.245L14.9757 11.4242L14.431 13.2419H13.7059L14.4849 10.6484L14.7129 9.88204H14.7255L15.2132 10.6262L16.2677 12.238L19.2982 9.88521Z" fill="#6D6E71"/>
<path d="M2.5 14.1602L2.62983 13.663H2.7755C2.81667 13.663 2.84833 13.663 2.86417 13.6694C2.88317 13.6725 2.899 13.6789 2.9085 13.6884C2.92433 13.701 2.93383 13.7137 2.937 13.7327C2.94333 13.7517 2.94333 13.7707 2.937 13.7929C2.93067 13.8182 2.918 13.8404 2.899 13.8594C2.88 13.8784 2.85783 13.891 2.82933 13.8974C2.861 13.9005 2.88317 13.9164 2.899 13.9385C2.91167 13.9607 2.91483 13.9892 2.90533 14.0209C2.899 14.0399 2.89267 14.0589 2.87683 14.0779C2.86417 14.0969 2.84833 14.1127 2.82933 14.1254C2.81033 14.138 2.78817 14.1475 2.76283 14.1539C2.7375 14.1602 2.6995 14.1634 2.6425 14.1634H2.5V14.1602ZM2.60767 14.0937H2.63933C2.671 14.0937 2.69633 14.0937 2.71217 14.0905C2.728 14.0874 2.74383 14.0842 2.75333 14.0779C2.766 14.0715 2.77867 14.062 2.78817 14.0525C2.79767 14.0399 2.804 14.0304 2.80717 14.0145C2.81033 13.9987 2.81033 13.986 2.80717 13.9734C2.804 13.9607 2.7945 13.9512 2.78183 13.9449C2.77233 13.9417 2.76283 13.9385 2.75333 13.9354C2.74067 13.9354 2.728 13.9322 2.709 13.9322H2.6805H2.64883L2.60767 14.0937ZM2.66467 13.872H2.6995C2.74383 13.872 2.7755 13.8657 2.79767 13.8562C2.81983 13.8467 2.8325 13.8277 2.83883 13.8024C2.84517 13.7739 2.842 13.7549 2.82933 13.7454C2.8135 13.7359 2.785 13.7295 2.7375 13.7295H2.70267L2.66467 13.872ZM3.298 14.1602L3.36133 13.9195H3.64317L3.57983 14.1602H3.67167L3.8015 13.663H3.70967L3.66217 13.8467H3.38033L3.42783 13.663H3.336L3.20617 14.1602H3.298ZM4.4285 14.1602L4.39683 14.0304H4.16883L4.07067 14.1602H3.9725L4.38417 13.6409L4.52667 14.1602H4.4285ZM4.2195 13.9639H4.381L4.3525 13.8499C4.3525 13.8435 4.34933 13.834 4.34933 13.8245C4.34933 13.815 4.34617 13.8055 4.34617 13.7929C4.33983 13.8024 4.3335 13.815 4.32717 13.8245C4.32083 13.834 4.3145 13.8435 4.30817 13.8499L4.2195 13.9639ZM4.96683 13.9385L4.90983 14.1602H4.82117L4.951 13.663H5.08083C5.11883 13.663 5.14733 13.6662 5.1695 13.6694C5.1885 13.6725 5.20433 13.682 5.217 13.6915C5.23283 13.7042 5.24233 13.72 5.2455 13.739C5.24867 13.758 5.24867 13.7802 5.24233 13.8024C5.23283 13.8435 5.21383 13.872 5.18533 13.8974C5.15683 13.9195 5.122 13.9354 5.07767 13.9385L5.217 14.1665H5.1125L4.9795 13.9449H4.96683V13.9385ZM4.989 13.8752H5.00483C5.05233 13.8752 5.08717 13.8689 5.10617 13.8594C5.12517 13.8499 5.13783 13.8309 5.14417 13.8055C5.1505 13.777 5.14733 13.758 5.13467 13.7485C5.11883 13.7359 5.09033 13.7327 5.04283 13.7327H5.027L4.989 13.8752ZM5.8915 14.1602L5.85983 14.0304H5.63183L5.5305 14.1602H5.43233L5.844 13.6409L5.9865 14.1602H5.8915ZM5.68567 13.9639H5.84717L5.81867 13.8499C5.8155 13.8435 5.8155 13.834 5.8155 13.8245C5.8155 13.815 5.81233 13.8055 5.81233 13.7929C5.806 13.8024 5.79967 13.815 5.7965 13.8245C5.79017 13.834 5.78383 13.8435 5.7775 13.8499L5.68567 13.9639ZM6.69267 13.7295L6.71167 13.6599H6.31267L6.29367 13.7295H6.44567L6.33483 14.1602H6.42667L6.5375 13.7295H6.69267ZM7.47483 14.1602L7.60467 13.663H7.50967L7.37983 14.1602H7.47483ZM7.93717 14.1602L8.029 13.815C8.03533 13.8245 8.04167 13.834 8.048 13.8435C8.05433 13.853 8.06383 13.8625 8.07017 13.8689L8.3615 14.1792L8.49767 13.663H8.41217L8.3235 14.0082C8.314 13.9955 8.30767 13.986 8.30133 13.9734C8.295 13.9639 8.2855 13.9544 8.27917 13.9449L7.99417 13.6409L7.858 14.1602H7.93717ZM9.188 13.7295L9.20383 13.6599H8.808L8.789 13.7295H8.941L8.83017 14.1602H8.92517L9.036 13.7295H9.188ZM9.7105 14.1602L9.7295 14.0874H9.5015L9.54267 13.9259H9.77067L9.78967 13.8562H9.56167L9.59333 13.7295H9.82133L9.84033 13.6599H9.51733L9.3875 14.157H9.7105V14.1602ZM10.2045 13.9385L10.1475 14.1602H10.0588L10.1887 13.663H10.3185C10.3565 13.663 10.385 13.6662 10.404 13.6694C10.423 13.6725 10.4388 13.682 10.4515 13.6915C10.4673 13.7042 10.4768 13.72 10.48 13.739C10.4832 13.758 10.4832 13.7802 10.4768 13.8024C10.4673 13.8435 10.4483 13.872 10.4198 13.8974C10.3913 13.9195 10.3565 13.9354 10.3122 13.9385L10.4515 14.1665H10.347L10.214 13.9449H10.2045V13.9385ZM10.2267 13.8752H10.2425C10.2932 13.8752 10.3248 13.8689 10.3438 13.8594C10.3628 13.8499 10.3755 13.8309 10.3818 13.8055C10.3882 13.777 10.385 13.758 10.3723 13.7485C10.3565 13.7359 10.328 13.7327 10.2805 13.7327H10.2647L10.2267 13.8752ZM10.8442 14.1602L10.9043 13.9259H11.1323L11.1513 13.8562H10.9233L10.955 13.7327H11.183L11.202 13.663H10.8822L10.7523 14.1602H10.8442ZM11.7657 14.1602L11.734 14.0304H11.506L11.4047 14.1602H11.3065L11.7182 13.6409L11.8607 14.1602H11.7657ZM11.5567 13.9639H11.7182L11.6897 13.8499C11.6865 13.8435 11.6865 13.834 11.6865 13.8245C11.6865 13.815 11.6833 13.8055 11.6833 13.7929C11.677 13.8024 11.6707 13.815 11.6643 13.8245C11.658 13.834 11.6517 13.8435 11.6485 13.8499L11.5567 13.9639ZM12.7315 13.701C12.7062 13.6852 12.6808 13.6725 12.6523 13.663C12.6238 13.6535 12.5922 13.6504 12.5573 13.6504C12.5162 13.6504 12.475 13.6567 12.4338 13.6694C12.3927 13.682 12.3547 13.701 12.323 13.7264C12.2882 13.7517 12.2597 13.7802 12.2343 13.8119C12.2122 13.8435 12.1932 13.8784 12.1837 13.9132C12.1742 13.9512 12.1742 13.9829 12.1805 14.0177C12.1868 14.0494 12.2027 14.0779 12.2217 14.1032C12.2438 14.1285 12.2723 14.1444 12.3072 14.157C12.342 14.1697 12.38 14.176 12.4243 14.176C12.4592 14.176 12.4908 14.1729 12.5225 14.1634C12.5542 14.157 12.5858 14.1444 12.6143 14.1285L12.6365 14.0367C12.6017 14.0589 12.57 14.0747 12.5352 14.0842C12.5003 14.0937 12.4687 14.1 12.4338 14.1C12.3768 14.1 12.3325 14.081 12.304 14.0462C12.2755 14.0114 12.266 13.967 12.2818 13.9132C12.2977 13.8562 12.3293 13.8119 12.3768 13.777C12.4243 13.7422 12.4813 13.7232 12.5447 13.7232C12.5763 13.7232 12.608 13.7295 12.6333 13.739C12.6587 13.7485 12.684 13.7644 12.7062 13.7834L12.7315 13.701ZM13.2857 14.1602L13.3047 14.0874H13.0767L13.1178 13.9259H13.3458L13.3648 13.8562H13.1368L13.1685 13.7295H13.3965L13.4155 13.6599H13.0957L12.9658 14.157H13.2857V14.1602ZM14.2135 14.1602L14.2737 13.9259H14.5017L14.5207 13.8562H14.2927L14.3243 13.7327H14.5523L14.5713 13.663H14.2515L14.1217 14.1602H14.2135ZM15.4358 13.9132C15.4263 13.948 15.4105 13.9829 15.3852 14.0145C15.363 14.0462 15.3313 14.0747 15.2965 14.1C15.2617 14.1254 15.2237 14.1444 15.1825 14.157C15.1413 14.1697 15.1002 14.176 15.0622 14.176C15.021 14.176 14.983 14.1697 14.9482 14.157C14.9133 14.1444 14.8848 14.1254 14.8627 14.1C14.8405 14.0747 14.8247 14.0462 14.8183 14.0177C14.812 13.986 14.812 13.9512 14.8215 13.9164C14.831 13.8815 14.8468 13.8467 14.869 13.815C14.8912 13.7834 14.9228 13.7549 14.9577 13.7295C14.9925 13.7042 15.0305 13.6852 15.0717 13.6725C15.1128 13.6599 15.154 13.6535 15.1952 13.6535C15.2363 13.6535 15.2743 13.6599 15.3092 13.6725C15.344 13.6852 15.3693 13.7042 15.3947 13.7295C15.4168 13.7549 15.4327 13.7834 15.439 13.815C15.4453 13.8435 15.4453 13.8784 15.4358 13.9132ZM15.3377 13.9132C15.344 13.8879 15.344 13.8625 15.3408 13.8404C15.3377 13.8182 15.3282 13.796 15.3123 13.7802C15.2965 13.7612 15.2775 13.7485 15.2553 13.739C15.2332 13.7295 15.2078 13.7264 15.1793 13.7264C15.1508 13.7264 15.1223 13.7295 15.097 13.739C15.0685 13.7485 15.0432 13.7612 15.0178 13.7802C14.9925 13.796 14.9735 13.8182 14.9577 13.8404C14.9418 13.8625 14.9292 13.8879 14.9228 13.9132C14.9165 13.9385 14.9165 13.9639 14.9197 13.986C14.9228 14.0082 14.9355 14.0304 14.9482 14.0462C14.964 14.0652 14.983 14.0779 15.0052 14.0874C15.0273 14.0969 15.0527 14.1 15.0812 14.1C15.1097 14.1 15.1382 14.0937 15.1635 14.0874C15.192 14.0779 15.2173 14.0652 15.2427 14.0462C15.268 14.0272 15.287 14.0082 15.306 13.986C15.3187 13.9607 15.3313 13.9385 15.3377 13.9132ZM15.8665 13.9385L15.8095 14.1602H15.7208L15.8507 13.663H15.9805C16.0185 13.663 16.047 13.6662 16.0692 13.6694C16.0882 13.6725 16.104 13.682 16.1167 13.6915C16.1325 13.7042 16.142 13.72 16.1452 13.739C16.1483 13.758 16.1483 13.7802 16.142 13.8024C16.1325 13.8435 16.1135 13.872 16.085 13.8974C16.0565 13.9195 16.0217 13.9354 15.9773 13.9385L16.1167 14.1665H16.0122L15.8792 13.9449H15.8665V13.9385ZM15.8887 13.8752H15.9045C15.9552 13.8752 15.9868 13.8689 16.0058 13.8594C16.0248 13.8499 16.0375 13.8309 16.0438 13.8055C16.0502 13.777 16.047 13.758 16.0343 13.7485C16.0185 13.7359 15.99 13.7327 15.9425 13.7327H15.9267L15.8887 13.8752ZM17.4277 14.1602H17.5132L17.51 13.6409L17.263 13.9544L17.2535 13.967C17.2345 13.9892 17.2218 14.0082 17.2123 14.0209C17.2092 14.005 17.206 13.9892 17.2028 13.9765C17.1997 13.9639 17.1997 13.9575 17.1965 13.9512L17.111 13.6377L16.8387 14.157H16.9242L17.0508 13.91C17.0572 13.8974 17.0635 13.8847 17.0667 13.8752C17.0698 13.8625 17.0762 13.853 17.0793 13.8435C17.0793 13.853 17.0825 13.8657 17.0825 13.8752C17.0857 13.8847 17.0857 13.8974 17.0888 13.9069L17.168 14.1792L17.3865 13.9132C17.396 13.9005 17.4055 13.891 17.4118 13.8784C17.4182 13.8657 17.4245 13.8562 17.4308 13.8435C17.4308 13.853 17.4277 13.8657 17.4277 13.8784C17.4245 13.8974 17.4245 13.9069 17.4245 13.91V14.1602H17.4277ZM18.4853 13.9132C18.4758 13.948 18.46 13.9829 18.4378 14.0145C18.4157 14.0462 18.384 14.0747 18.3492 14.1C18.3143 14.1254 18.2763 14.1444 18.2352 14.157C18.194 14.1697 18.1528 14.176 18.1117 14.176C18.0705 14.176 18.0325 14.1697 17.9977 14.157C17.9628 14.1444 17.9343 14.1254 17.9122 14.1C17.89 14.0747 17.8742 14.0462 17.8678 14.0177C17.8615 13.986 17.8615 13.9512 17.871 13.9164C17.8805 13.8815 17.8963 13.8467 17.9185 13.815C17.9407 13.7834 17.9723 13.7549 18.0072 13.7295C18.042 13.7042 18.08 13.6852 18.1212 13.6725C18.1623 13.6599 18.2035 13.6535 18.2447 13.6535C18.2858 13.6535 18.3238 13.6599 18.3555 13.6725C18.3903 13.6852 18.4188 13.7042 18.441 13.7295C18.4632 13.7549 18.479 13.7834 18.4853 13.815C18.4948 13.8435 18.4948 13.8784 18.4853 13.9132ZM18.3872 13.9132C18.3935 13.8879 18.3935 13.8625 18.3903 13.8404C18.3872 13.8182 18.3745 13.796 18.3618 13.7802C18.346 13.7612 18.327 13.7485 18.3048 13.739C18.2827 13.7295 18.2573 13.7264 18.2288 13.7264C18.2003 13.7264 18.1718 13.7295 18.1433 13.739C18.1148 13.7485 18.0895 13.7612 18.0642 13.7802C18.0388 13.796 18.0198 13.8182 18.004 13.8404C17.9882 13.8625 17.9755 13.8879 17.9692 13.9132C17.9628 13.9385 17.9628 13.9639 17.966 13.986C17.9723 14.0082 17.9818 14.0304 17.9945 14.0462C18.0103 14.0652 18.0293 14.0779 18.0515 14.0874C18.0737 14.0969 18.099 14.1 18.1275 14.1C18.156 14.1 18.1845 14.0937 18.213 14.0874C18.2415 14.0779 18.2668 14.0652 18.2922 14.0462C18.3175 14.0272 18.3365 14.0082 18.3523 13.986C18.3682 13.9607 18.3808 13.9385 18.3872 13.9132ZM18.8558 14.1602L18.9445 13.815C18.9508 13.8245 18.9572 13.834 18.9635 13.8435C18.9698 13.853 18.9762 13.8625 18.9857 13.8689L19.277 14.1792L19.4132 13.663H19.3277L19.239 14.0082C19.2295 13.9955 19.2232 13.986 19.2137 13.9734C19.2073 13.9639 19.1978 13.9544 19.1915 13.9449L18.9065 13.6409L18.7703 14.1602H18.8558ZM19.9768 14.1602L19.9958 14.0874H19.7678L19.809 13.9259H20.037L20.056 13.8562H19.828L19.8597 13.7295H20.0877L20.1067 13.6599H19.7868L19.657 14.157H19.9768V14.1602ZM20.5437 14.1602L20.6038 13.9322L20.873 13.663H20.778L20.6102 13.8309C20.6038 13.8372 20.5975 13.8435 20.5912 13.8499C20.5848 13.8562 20.5785 13.8657 20.5722 13.872C20.569 13.8625 20.569 13.8562 20.5658 13.8499C20.5627 13.8435 20.5595 13.8372 20.5595 13.834L20.4835 13.6662H20.3853L20.5088 13.9354L20.4487 14.1634H20.5437V14.1602Z" fill="#6D6E71"/>
</svg>
