<svg width="30" height="30" viewBox="0 0 24 24" fill="none" xmlns="http://www.w3.org/2000/svg">
<path d="M9.52539 3.78149C11.0107 3.33584 12.589 3.30107 14.0928 3.67993C15.5965 4.05883 16.9696 4.83758 18.0664 5.93384H18.0674C19.2571 7.11964 20.0682 8.63176 20.3994 10.2786L20.4805 10.6799H21.5V14.4543L18.21 17.4768L13.5801 16.9534V16.2297H18.1436L18.2939 16.05L19.1035 15.0803L19.1533 15.0217L19.1826 14.9504C19.5572 14.0408 19.7597 13.0661 19.7598 12.0002C19.7598 11.2293 19.6423 10.4912 19.4395 9.80786L19.3057 9.35669L18.8477 9.46313C18.2345 9.60464 17.592 9.67993 16.9199 9.67993C15.5461 9.68141 14.1918 9.35234 12.9717 8.72095C11.7516 8.08951 10.7004 7.17442 9.9082 6.052L9.38477 5.30884L9.03809 6.14966C8.19071 8.20227 6.58967 9.85297 4.56445 10.7639L4.31934 10.8743L4.27637 11.1409C4.22896 11.4372 4.23047 11.7485 4.23047 12.0002C4.23051 13.0205 4.43085 14.0313 4.82129 14.9739C5.21176 15.9164 5.78444 16.773 6.50586 17.4944C7.963 18.9515 9.93934 19.7698 12 19.7698C12.9563 19.7698 13.8806 19.5902 14.7344 19.2668C14.8791 19.5468 14.9973 19.7768 15.0879 19.9583C13.7281 20.3836 12.6985 20.5803 12 20.5803C9.71143 20.5803 7.52968 19.6818 5.9248 18.0676L5.92285 18.0657L5.74219 17.8801C4.85567 16.9424 4.19385 15.814 3.80762 14.5803L3.69727 14.2297H2.5V10.6799H3.49805L3.58008 10.2805C3.89217 8.7615 4.60951 7.35537 5.65625 6.21118C6.70302 5.06697 8.04003 4.2272 9.52539 3.78149ZM9.26953 12.2698C9.43648 12.2698 9.59484 12.3368 9.70801 12.4553L9.71484 12.4622C9.833 12.5813 9.89941 12.7426 9.89941 12.9104C9.89929 13.078 9.83289 13.2387 9.71484 13.3577C9.5993 13.4724 9.43707 13.5403 9.26953 13.5403C8.91029 13.54 8.63013 13.2582 8.62988 12.9104C8.62988 12.5567 8.91589 12.27 9.26953 12.2698ZM14.7197 12.2698C15.0679 12.2698 15.3496 12.5508 15.3496 12.9104C15.3494 13.264 15.0734 13.5403 14.7197 13.5403C14.3604 13.5401 14.0803 13.2582 14.0801 12.9104C14.0801 12.7407 14.1476 12.5773 14.2676 12.4573C14.3875 12.3374 14.5501 12.2698 14.7197 12.2698Z" fill="white" stroke="white"/>
</svg>
