<svg width="20" height="20" viewBox="0 0 20 20" fill="none" xmlns="http://www.w3.org/2000/svg">
<path d="M13.334 2.70825H6.66732C5.86732 2.70825 5.20898 3.36659 5.20898 4.16659V15.8333C5.20898 16.6333 5.86732 17.2916 6.66732 17.2916H13.334C14.134 17.2916 14.7923 16.6333 14.7923 15.8333V4.16659C14.7923 3.36659 14.134 2.70825 13.334 2.70825ZM13.5423 15.8333C13.5423 15.9499 13.4507 16.0416 13.334 16.0416H6.66732C6.55065 16.0416 6.45898 15.9499 6.45898 15.8333V4.16659C6.45898 4.04992 6.55065 3.95825 6.66732 3.95825H13.334C13.4507 3.95825 13.5423 4.04992 13.5423 4.16659V15.8333ZM10.834 13.3333C10.834 13.7916 10.459 14.1666 10.0007 14.1666C9.54232 14.1666 9.16732 13.7916 9.16732 13.3333C9.16732 12.8749 9.54232 12.4999 10.0007 12.4999C10.459 12.4999 10.834 12.8749 10.834 13.3333Z" fill="#250E45"/>
</svg>
