<svg width="24" height="24" viewBox="0 0 24 24" fill="none" xmlns="http://www.w3.org/2000/svg">
<g clip-path="url(#clip0_946_16435)">
<g clip-path="url(#clip1_946_16435)">
<path d="M20.7364 4.37977C19.2013 4.01036 16.7263 3.51075 16.0348 5.22935C13.9215 9.58285 12.7082 14.1392 11.7949 16.0942C11.8908 16.1601 16.1001 19.0647 16.3979 19.2365C17.3442 19.7827 18.9241 19.5369 19.5971 18.0932C21.4642 14.0882 20.9896 15.1309 22.9735 11.0443C24.2554 8.40342 22.6526 4.84085 20.7364 4.37977Z" fill="#EA4335"/>
<path d="M7.45564 22.0537C6.4249 20.6512 5.6688 17.8454 6.5745 16.274C9.22033 10.8235 11.3384 7.52391 13.0041 4.21655C13.8874 4.82312 17.4266 7.21074 17.6622 7.45675C18.453 8.28172 19.108 9.85806 18.3933 11.2731C16.4105 15.1988 15.597 16.9754 13.5817 21.1269C12.2995 23.7685 8.74331 23.8057 7.45564 22.0537Z" fill="#FDBD00"/>
<path d="M16.9452 1.60097C14.8833 0.167942 13.8234 0.355754 12.7146 0.567259C11.7065 0.866977 10.3434 1.7383 9.76878 2.8577C8.31923 5.68144 6.94627 8.47562 5.16765 12.2621C4.61984 13.4283 5.02647 14.8611 5.53202 15.4297C5.87463 15.8153 8.39553 17.4695 8.86066 17.7073C9.51861 18.0437 10.5042 17.8097 11.0987 17.0819C11.2629 16.8808 15.0236 9.19823 16.0827 6.93229C16.5297 5.9761 16.9324 5.44693 17.6009 4.93686C18.8923 4.13086 19.9006 4.02689 21.445 4.69856C21.445 4.69856 18.0837 2.38132 16.9452 1.60097Z" fill="#2DA94F"/>
<path d="M3.67792 19.6308C1.60339 18.2235 1.2102 17.038 0.809766 15.79C0.524015 14.6019 0.476921 12.7622 1.00472 11.6105C2.33619 8.70579 2.32662 8.69107 4.19449 4.96576C4.76977 3.81842 6.01644 3.52088 6.68329 3.75723C7.13527 3.91732 9.60017 5.68676 10.0059 6.04698C10.5799 6.55647 10.9023 7.68864 10.6696 8.66496C10.6053 8.93455 8.24897 13.8529 7.12869 16.0768C6.65582 17.0153 6.4719 17.6946 6.43476 18.6381C6.49356 20.3713 6.92194 21.4619 8.18331 22.7169C8.18331 22.7169 4.81531 20.4132 3.67792 19.6308Z" fill="#297AEC"/>
</g>
</g>
<defs>
<clipPath id="clip0_946_16435">
<rect width="24" height="24" fill="white"/>
</clipPath>
<clipPath id="clip1_946_16435">
<rect width="24" height="24" fill="white" transform="translate(0 -0.29126)"/>
</clipPath>
</defs>
</svg>
