<svg width="49" height="48" viewBox="0 0 49 48" fill="none" xmlns="http://www.w3.org/2000/svg">
<path fill-rule="evenodd" clip-rule="evenodd" d="M16.9017 13.2528C25.5935 4.62507 36.1135 2.41202 40.3151 8.28141C44.5167 14.1829 40.8282 26.0179 32.1364 34.6135C23.4446 43.2412 12.9246 45.4542 8.72301 39.5848C4.5535 33.7154 8.20984 21.8804 16.9017 13.2528Z" fill="#F99D28"/>
<path fill-rule="evenodd" clip-rule="evenodd" d="M22.6741 8.66632C21.744 9.37193 20.7497 10.2058 19.7876 11.136C12.1541 18.6411 9.01097 28.9686 12.7635 34.1324C16.6444 39.2962 26.0097 37.4039 33.7394 29.8025C37.9089 25.7613 40.7313 21.0145 41.886 16.6205C42.2388 13.3811 41.7577 10.5266 40.3144 8.34559C36.9788 3.75913 29.8265 4.11193 22.6741 8.66632Z" fill="#AF2A30"/>
<path fill-rule="evenodd" clip-rule="evenodd" d="M26.972 38.9113C22.8987 41.9583 18.6972 43.4978 14.5918 42.8563C16.3237 42.9525 17.7029 41.0281 18.8575 38.4623C20.0122 35.8323 20.7178 33.3947 21.263 31.1175C22.0648 27.4933 22.129 24.9274 21.712 24.3822C21.0064 23.452 19.4348 23.7086 17.6387 24.735C16.7728 25.2161 15.6502 24.8953 16.9973 23.2596C18.3764 21.6239 23.7647 17.6468 25.7212 17.0374C27.8701 16.428 30.3076 17.2619 29.4737 19.6033C28.8964 21.2711 21.3913 40.964 26.972 38.9113ZM33.098 8.40973C34.1244 9.43607 33.4829 11.6491 31.783 13.3811C30.0511 15.113 27.7739 15.7224 26.7796 14.7281C25.7212 13.7339 26.3626 11.4887 28.0946 9.72473C29.8586 7.9607 32.1358 7.41547 33.098 8.40973Z" fill="white"/>
</svg>
