<svg width="33" height="33" viewBox="0 0 33 33" fill="none" xmlns="http://www.w3.org/2000/svg">
<path d="M16.6243 15.8333H7.29102V14.5H16.6243V15.8333ZM7.29102 13.1666H16.6243V11.8333H7.29102V13.1666ZM16.6243 18.5H7.29102V17.1666H16.6243V18.5ZM7.29102 21.1666H16.6243V19.8333H7.29102V21.1666ZM19.291 18.7933C19.2909 18.596 19.3346 18.4011 19.419 18.2228C19.5033 18.0444 19.6262 17.887 19.7788 17.7619C19.9313 17.6367 20.1097 17.547 20.3011 17.4992C20.4926 17.4514 20.6922 17.4466 20.8857 17.4853L22.363 17.7813C22.5355 17.8158 22.7132 17.8158 22.8857 17.7813L24.363 17.4853C24.5565 17.4466 24.7561 17.4514 24.9476 17.4992C25.139 17.547 25.3174 17.6367 25.4699 17.7619C25.6225 17.887 25.7454 18.0444 25.8297 18.2228C25.9141 18.4011 25.9578 18.596 25.9577 18.7933V21.8333H19.291V18.7933ZM22.6243 16.5C23.3316 16.5 24.0099 16.219 24.51 15.7189C25.0101 15.2188 25.291 14.5405 25.291 13.8333C25.291 13.126 25.0101 12.4478 24.51 11.9477C24.0099 11.4476 23.3316 11.1666 22.6243 11.1666C21.9171 11.1666 21.2388 11.4476 20.7387 11.9477C20.2386 12.4478 19.9577 13.126 19.9577 13.8333C19.9577 14.5405 20.2386 15.2188 20.7387 15.7189C21.2388 16.219 21.9171 16.5 22.6243 16.5Z" fill="#3F1976"/>
<path fill-rule="evenodd" clip-rule="evenodd" d="M5.29102 7.16663C4.76058 7.16663 4.25187 7.37734 3.8768 7.75241C3.50173 8.12748 3.29102 8.63619 3.29102 9.16663V23.8333C3.29102 24.3637 3.50173 24.8724 3.8768 25.2475C4.25187 25.6226 4.76058 25.8333 5.29102 25.8333H27.9577C28.4881 25.8333 28.9968 25.6226 29.3719 25.2475C29.747 24.8724 29.9577 24.3637 29.9577 23.8333V9.16663C29.9577 8.63619 29.747 8.12748 29.3719 7.75241C28.9968 7.37734 28.4881 7.16663 27.9577 7.16663H5.29102ZM27.9577 8.49996H5.29102C5.1142 8.49996 4.94464 8.5702 4.81961 8.69522C4.69459 8.82025 4.62435 8.98982 4.62435 9.16663V23.8333C4.62435 24.0101 4.69459 24.1797 4.81961 24.3047C4.94464 24.4297 5.1142 24.5 5.29102 24.5H27.9577C28.1345 24.5 28.3041 24.4297 28.4291 24.3047C28.5541 24.1797 28.6243 24.0101 28.6243 23.8333V9.16663C28.6243 8.98982 28.5541 8.82025 28.4291 8.69522C28.3041 8.5702 28.1345 8.49996 27.9577 8.49996Z" fill="#3F1976"/>
</svg>
