<svg width="39" height="34" viewBox="0 0 39 34" fill="none" xmlns="http://www.w3.org/2000/svg">
<path fill-rule="evenodd" clip-rule="evenodd" d="M19.5 33.3365C9.0339 33.3365 0.5 25.9929 0.5 16.9932C0.5 7.99355 9.0339 0.650024 19.5 0.650024C29.9604 0.650024 38.5 7.99355 38.5 16.9932C38.5 25.9929 29.9661 33.3365 19.5 33.3365Z" fill="#004A8F"/>
<path fill-rule="evenodd" clip-rule="evenodd" d="M31.6908 18.6494L33.8127 18.7414C32.5534 27.5456 24.1977 28.1897 19.9883 19.6615L20.5403 18.7414C24.8993 21.5075 30.0001 22.5483 31.6908 18.6494Z" fill="white"/>
<path fill-rule="evenodd" clip-rule="evenodd" d="M17.3148 5.83718L21.553 4.45703L21.737 28.4198L17.125 29.984L17.3148 5.83718Z" fill="#ED1C24"/>
<path fill-rule="evenodd" clip-rule="evenodd" d="M31.7833 15.4232H33.7212C32.9736 11.392 30.9322 8.85602 26.993 8.51099C23.7037 8.57424 20.9089 10.4777 18.6086 14.2271C17.0847 16.5331 14.6522 20.1617 11.6907 20.593C8.12528 21.1106 6.05506 17.9707 7.59622 15.2679C8.53357 13.6233 11.0581 12.9332 12.8293 13.1C12.8408 13.1 12.8523 13.1 12.858 13.1057C14.4797 13.2667 15.9691 13.6808 17.2515 14.4629L17.2802 11.0643C16.4752 10.3799 15.8196 9.69561 14.8822 9.22981C13.6056 8.59149 12.3577 8.38447 11.1501 8.60875C5.77328 9.78762 4.78992 14.1811 5.80203 20.0352C7.8895 26.8267 14.4049 27.3442 18.1543 22.9853C20.7076 19.9087 27.0793 9.5346 31.7833 15.4232Z" fill="white"/>
</svg>
