<svg width="56" height="56" viewBox="0 0 56 56" fill="none" xmlns="http://www.w3.org/2000/svg">
<rect width="56" height="56" rx="28" fill="#F9F5FF"/>
<path d="M20.6066 41.0071L20.8383 40.2938L20.6066 41.0071ZM16.3263 36.7269L17.0396 36.4951L16.3263 36.7269ZM39.6737 36.7269L38.9604 36.4951L39.6737 36.7269ZM35.3934 41.0071L35.1617 40.2938L35.3934 41.0071ZM35.3934 22.993L35.1617 23.7063L35.3934 22.993ZM39.6737 27.2733L38.9604 27.5051L39.6737 27.2733ZM20.6066 22.993L20.8383 23.7063L20.6066 22.993ZM16.3263 27.2733L17.0396 27.5051L16.3263 27.2733ZM31.5501 16.5997C31.8813 16.8485 32.3515 16.7817 32.6003 16.4506C32.8491 16.1194 32.7823 15.6493 32.4512 15.4005L31.5501 16.5997ZM27.25 37.3334C27.25 37.7476 27.5858 38.0834 28 38.0834C28.4142 38.0834 28.75 37.7476 28.75 37.3334H27.25ZM25.3333 22.6667V23.4167H30.6667V22.6667V21.9167H25.3333V22.6667ZM30.6667 41.3334V40.5834H25.3333V41.3334V42.0834H30.6667V41.3334ZM25.3333 41.3334V40.5834C22.7933 40.5834 21.7011 40.5742 20.8383 40.2938L20.6066 41.0071L20.3748 41.7204C21.5205 42.0927 22.91 42.0834 25.3333 42.0834V41.3334ZM16 32.0001H15.25C15.25 34.4234 15.2407 35.813 15.613 36.9586L16.3263 36.7269L17.0396 36.4951C16.7593 35.6323 16.75 34.5402 16.75 32.0001H16ZM20.6066 41.0071L20.8383 40.2938C19.0371 39.7086 17.6248 38.2964 17.0396 36.4951L16.3263 36.7269L15.613 36.9586C16.3466 39.2165 18.1169 40.9868 20.3748 41.7204L20.6066 41.0071ZM40 32.0001H39.25C39.25 34.5402 39.2408 35.6323 38.9604 36.4951L39.6737 36.7269L40.387 36.9586C40.7593 35.813 40.75 34.4234 40.75 32.0001H40ZM30.6667 41.3334V42.0834C33.09 42.0834 34.4795 42.0927 35.6252 41.7204L35.3934 41.0071L35.1617 40.2938C34.2989 40.5742 33.2068 40.5834 30.6667 40.5834V41.3334ZM39.6737 36.7269L38.9604 36.4951C38.3752 38.2964 36.9629 39.7086 35.1617 40.2938L35.3934 41.0071L35.6252 41.7204C37.8831 40.9868 39.6534 39.2165 40.387 36.9586L39.6737 36.7269ZM30.6667 22.6667V23.4167C33.2068 23.4167 34.2989 23.426 35.1617 23.7063L35.3934 22.993L35.6252 22.2797C34.4795 21.9075 33.09 21.9167 30.6667 21.9167V22.6667ZM40 32.0001H40.75C40.75 29.5767 40.7593 28.1872 40.387 27.0415L39.6737 27.2733L38.9604 27.5051C39.2408 28.3678 39.25 29.46 39.25 32.0001H40ZM35.3934 22.993L35.1617 23.7063C36.9629 24.2916 38.3752 25.7038 38.9604 27.5051L39.6737 27.2733L40.387 27.0415C39.6534 24.7836 37.8831 23.0134 35.6252 22.2797L35.3934 22.993ZM16 32.0001H16.75C16.75 29.46 16.7593 28.3678 17.0396 27.5051L16.3263 27.2733L15.613 27.0415C15.2407 28.1872 15.25 29.5767 15.25 32.0001H16ZM20.6066 22.993L20.3748 22.2797C18.1169 23.0134 16.3466 24.7836 15.613 27.0415L16.3263 27.2733L17.0396 27.5051C17.6248 25.7038 19.0371 24.2916 20.8383 23.7063L20.6066 22.993ZM28 14.6667V13.9167C23.9039 13.9167 20.5833 17.2373 20.5833 21.3334H21.3333H22.0833C22.0833 18.0657 24.7323 15.4167 28 15.4167V14.6667ZM28 14.6667V15.4167C29.3331 15.4167 30.5613 15.8567 31.5501 16.5997L32.0007 16.0001L32.4512 15.4005C31.2114 14.469 29.6691 13.9167 28 13.9167V14.6667ZM25.3333 22.6667V21.9167C23.4413 21.9167 22.1861 21.9141 21.2087 22.0788L21.3333 22.8184L21.4579 23.5579C22.2805 23.4194 23.3809 23.4167 25.3333 23.4167V22.6667ZM21.3333 22.8184L21.2087 22.0788C20.9156 22.1282 20.6408 22.1933 20.3748 22.2797L20.6066 22.993L20.8383 23.7063C21.0251 23.6456 21.2272 23.5968 21.4579 23.5579L21.3333 22.8184ZM21.3333 22.8184H22.0833V21.3334H21.3333H20.5833V22.8184H21.3333ZM28 32.0001H27.25V37.3334H28H28.75V32.0001H28ZM25.3333 29.3334H24.5833C24.5833 31.2204 26.113 32.7501 28 32.7501V32.0001V31.2501C26.9415 31.2501 26.0833 30.392 26.0833 29.3334H25.3333ZM28 32.0001V32.7501C29.887 32.7501 31.4167 31.2204 31.4167 29.3334H30.6667H29.9167C29.9167 30.392 29.0585 31.2501 28 31.2501V32.0001ZM30.6667 29.3334H31.4167C31.4167 27.4464 29.887 25.9167 28 25.9167V26.6667V27.4167C29.0585 27.4167 29.9167 28.2749 29.9167 29.3334H30.6667ZM28 26.6667V25.9167C26.113 25.9167 24.5833 27.4464 24.5833 29.3334H25.3333H26.0833C26.0833 28.2749 26.9415 27.4167 28 27.4167V26.6667Z" fill="#D00416"/>
</svg>
