<svg width="49" height="50" viewBox="0 0 49 50" fill="none" xmlns="http://www.w3.org/2000/svg">
<g filter="url(#filter0_d_1579_13935)">
<path d="M22.5847 4.93444C23.5976 3.87925 25.2852 3.87925 26.2981 4.93444L26.4977 5.1424C27.1284 5.79941 28.0593 6.07419 28.9457 5.86496L29.2213 5.79991C30.6389 5.46527 32.0515 6.37279 32.3365 7.80126L32.4028 8.13389C32.5794 9.01922 33.207 9.74728 34.0566 10.0525L34.3669 10.164C35.7273 10.6527 36.4184 12.1658 35.8972 13.5141L35.7616 13.8648C35.4385 14.7008 35.5735 15.6446 36.118 16.3565L36.3448 16.653C37.2211 17.7987 36.985 19.4408 35.8213 20.293L35.534 20.5034C34.809 21.0344 34.4135 21.9051 34.4906 22.8005L34.5217 23.1625C34.6461 24.608 33.5517 25.8706 32.1032 25.9527L31.8012 25.9698C30.8954 26.0212 30.0835 26.5457 29.6644 27.3503L29.5206 27.6263C28.8456 28.922 27.2286 29.3967 25.9603 28.6713L25.7192 28.5334C24.9275 28.0806 23.9553 28.0806 23.1637 28.5334L22.9225 28.6713C21.6542 29.3967 20.0372 28.922 19.3622 27.6263L19.2184 27.3503C18.7993 26.5457 17.9874 26.0212 17.0816 25.9698L16.7796 25.9527C15.3311 25.8706 14.2367 24.608 14.3611 23.1625L14.3923 22.8005C14.4693 21.9051 14.0738 21.0344 13.3488 20.5034L13.0615 20.293C11.8978 19.4408 11.6617 17.7987 12.538 16.653L12.7648 16.3565C13.3094 15.6446 13.4443 14.7008 13.1212 13.8648L12.9856 13.5141C12.4644 12.1658 13.1555 10.6527 14.516 10.164L14.8262 10.0525C15.6758 9.74728 16.3034 9.01922 16.48 8.13389L16.5463 7.80126C16.8313 6.37279 18.2439 5.46527 19.6615 5.79991L19.9371 5.86496C20.8235 6.07419 21.7544 5.79941 22.3851 5.14241L22.5847 4.93444Z" fill="url(#paint0_linear_1579_13935)"/>
<path d="M22.5847 4.93444C23.5976 3.87925 25.2852 3.87925 26.2981 4.93444L26.4977 5.1424C27.1284 5.79941 28.0593 6.07419 28.9457 5.86496L29.2213 5.79991C30.6389 5.46527 32.0515 6.37279 32.3365 7.80126L32.4028 8.13389C32.5794 9.01922 33.207 9.74728 34.0566 10.0525L34.3669 10.164C35.7273 10.6527 36.4184 12.1658 35.8972 13.5141L35.7616 13.8648C35.4385 14.7008 35.5735 15.6446 36.118 16.3565L36.3448 16.653C37.2211 17.7987 36.985 19.4408 35.8213 20.293L35.534 20.5034C34.809 21.0344 34.4135 21.9051 34.4906 22.8005L34.5217 23.1625C34.6461 24.608 33.5517 25.8706 32.1032 25.9527L31.8012 25.9698C30.8954 26.0212 30.0835 26.5457 29.6644 27.3503L29.5206 27.6263C28.8456 28.922 27.2286 29.3967 25.9603 28.6713L25.7192 28.5334C24.9275 28.0806 23.9553 28.0806 23.1637 28.5334L22.9225 28.6713C21.6542 29.3967 20.0372 28.922 19.3622 27.6263L19.2184 27.3503C18.7993 26.5457 17.9874 26.0212 17.0816 25.9698L16.7796 25.9527C15.3311 25.8706 14.2367 24.608 14.3611 23.1625L14.3923 22.8005C14.4693 21.9051 14.0738 21.0344 13.3488 20.5034L13.0615 20.293C11.8978 19.4408 11.6617 17.7987 12.538 16.653L12.7648 16.3565C13.3094 15.6446 13.4443 14.7008 13.1212 13.8648L12.9856 13.5141C12.4644 12.1658 13.1555 10.6527 14.516 10.164L14.8262 10.0525C15.6758 9.74728 16.3034 9.01922 16.48 8.13389L16.5463 7.80126C16.8313 6.37279 18.2439 5.46527 19.6615 5.79991L19.9371 5.86496C20.8235 6.07419 21.7544 5.79941 22.3851 5.14241L22.5847 4.93444Z" fill="url(#paint1_linear_1579_13935)" fill-opacity="0.1"/>
<path d="M24.4424 8.28381C29.0809 8.28402 32.8408 12.0447 32.8408 16.6832V16.8756C32.8407 21.514 29.0808 25.2738 24.4424 25.274C19.8038 25.274 16.0431 21.5141 16.043 16.8756V16.6832C16.043 12.0446 19.8037 8.28381 24.4424 8.28381Z" fill="black" fill-opacity="0.04"/>
<path d="M24.4424 8.28381C29.0809 8.28402 32.8408 12.0447 32.8408 16.6832V16.8756C32.8407 21.514 29.0808 25.2738 24.4424 25.274C19.8038 25.274 16.0431 21.5141 16.043 16.8756V16.6832C16.043 12.0446 19.8037 8.28381 24.4424 8.28381Z" stroke="url(#paint2_radial_1579_13935)" stroke-width="1.9219"/>
<path d="M24.4424 8.28381C29.0809 8.28402 32.8408 12.0447 32.8408 16.6832V16.8756C32.8407 21.514 29.0808 25.2738 24.4424 25.274C19.8038 25.274 16.0431 21.5141 16.043 16.8756V16.6832C16.043 12.0446 19.8037 8.28381 24.4424 8.28381Z" stroke="url(#paint3_radial_1579_13935)" stroke-width="1.9219"/>
<path d="M24.4424 8.28381C29.0809 8.28402 32.8408 12.0447 32.8408 16.6832V16.8756C32.8407 21.514 29.0808 25.2738 24.4424 25.274C19.8038 25.274 16.0431 21.5141 16.043 16.8756V16.6832C16.043 12.0446 19.8037 8.28381 24.4424 8.28381Z" stroke="url(#paint4_radial_1579_13935)" stroke-width="1.9219"/>
<path d="M24.4424 8.28381C29.0809 8.28402 32.8408 12.0447 32.8408 16.6832V16.8756C32.8407 21.514 29.0808 25.2738 24.4424 25.274C19.8038 25.274 16.0431 21.5141 16.043 16.8756V16.6832C16.043 12.0446 19.8037 8.28381 24.4424 8.28381Z" stroke="white" stroke-opacity="0.3" stroke-width="1.9219"/>
<path opacity="0.8" d="M22.8997 18.4879L21.1025 16.6722C21.0057 16.5742 20.8743 16.5191 20.7373 16.5191C20.6003 16.5191 20.469 16.5742 20.3722 16.6722C20.1702 16.8762 20.1702 17.2059 20.3722 17.41L22.5371 19.5972C22.7391 19.8012 23.0654 19.8012 23.2674 19.5972L28.7471 14.0611C28.9491 13.8571 28.9491 13.5274 28.7471 13.3233C28.6504 13.2254 28.519 13.1703 28.382 13.1703C28.245 13.1703 28.1136 13.2254 28.0168 13.3233L22.8997 18.4879Z" fill="white" stroke="#FDFDFD" stroke-width="0.38438"/>
<path d="M24.4416 8.35494C24.4416 7.81562 24.8799 7.37321 25.4164 7.42863C27.1101 7.60358 28.7321 8.2321 30.1074 9.25621C31.7447 10.4755 32.9451 12.1904 33.5301 14.1462C34.1152 16.102 34.0537 18.1944 33.3549 20.1125C32.656 22.0306 31.357 23.672 29.6509 24.7931C27.9448 25.9141 25.9226 26.4549 23.8847 26.335C21.8468 26.2152 19.9019 25.4412 18.3389 24.1279C16.7759 22.8146 15.6783 21.0322 15.2091 19.0454C14.8149 17.3766 14.8818 15.6384 15.3935 14.0144C15.5555 13.5 16.1356 13.2733 16.6306 13.4873C17.1256 13.7014 17.3467 14.2753 17.1984 14.7938C16.8456 16.0277 16.8124 17.337 17.1098 18.5965C17.4825 20.1743 18.3541 21.5897 19.5953 22.6326C20.8365 23.6755 22.381 24.2902 23.9993 24.3854C25.6177 24.4805 27.2236 24.0511 28.5785 23.1609C29.9333 22.2706 30.9648 20.9671 31.5198 19.4439C32.0748 17.9207 32.1236 16.2591 31.659 14.7059C31.1944 13.1527 30.2412 11.7909 28.9409 10.8227C27.9029 10.0497 26.688 9.56055 25.4154 9.39465C24.8806 9.32494 24.4416 8.89425 24.4416 8.35494Z" fill="white" fill-opacity="0.5"/>
</g>
<defs>
<filter id="filter0_d_1579_13935" x="-1.05859" y="-1" width="51" height="51" filterUnits="userSpaceOnUse" color-interpolation-filters="sRGB">
<feFlood flood-opacity="0" result="BackgroundImageFix"/>
<feColorMatrix in="SourceAlpha" type="matrix" values="0 0 0 0 0 0 0 0 0 0 0 0 0 0 0 0 0 0 127 0" result="hardAlpha"/>
<feOffset dy="8"/>
<feGaussianBlur stdDeviation="6"/>
<feComposite in2="hardAlpha" operator="out"/>
<feColorMatrix type="matrix" values="0 0 0 0 0.917647 0 0 0 0 0.690196 0 0 0 0 0.12549 0 0 0 0.4 0"/>
<feBlend mode="normal" in2="BackgroundImageFix" result="effect1_dropShadow_1579_13935"/>
<feBlend mode="normal" in="SourceGraphic" in2="effect1_dropShadow_1579_13935" result="shape"/>
</filter>
<linearGradient id="paint0_linear_1579_13935" x1="15.6822" y1="5.52867" x2="30.4916" y2="28.8715" gradientUnits="userSpaceOnUse">
<stop stop-color="#FFE092"/>
<stop offset="1" stop-color="#E3A302"/>
</linearGradient>
<linearGradient id="paint1_linear_1579_13935" x1="6.30458" y1="0.890869" x2="26.8147" y2="37.4996" gradientUnits="userSpaceOnUse">
<stop stop-color="white"/>
<stop offset="1" stop-color="white" stop-opacity="0"/>
</linearGradient>
<radialGradient id="paint2_radial_1579_13935" cx="0" cy="0" r="1" gradientUnits="userSpaceOnUse" gradientTransform="translate(5.11447 9.25767) rotate(35.3875) scale(21.6556 12.8364)">
<stop stop-color="white"/>
<stop offset="1" stop-color="white" stop-opacity="0.06"/>
</radialGradient>
<radialGradient id="paint3_radial_1579_13935" cx="0" cy="0" r="1" gradientUnits="userSpaceOnUse" gradientTransform="translate(39.2825 19.9802) rotate(161.161) scale(15.6619 10.6943)">
<stop stop-color="#FFD770"/>
<stop offset="1" stop-color="#D88100" stop-opacity="0"/>
</radialGradient>
<radialGradient id="paint4_radial_1579_13935" cx="0" cy="0" r="1" gradientUnits="userSpaceOnUse" gradientTransform="translate(24.6458 3.0005) rotate(47.5817) scale(10.5194 7.55288)">
<stop stop-color="#CD7B00"/>
<stop offset="1" stop-color="white" stop-opacity="0"/>
</radialGradient>
</defs>
</svg>
