<svg width="24" height="24" viewBox="0 0 24 24" fill="none" xmlns="http://www.w3.org/2000/svg">
<path fill-rule="evenodd" clip-rule="evenodd" d="M19.9454 1.67705C19.8781 1.4795 19.7506 1.30798 19.5809 1.18652C19.4111 1.06506 19.2077 0.999756 18.9989 0.999756C18.7902 0.999756 18.5867 1.06506 18.417 1.18652C18.2473 1.30798 18.1198 1.4795 18.0524 1.67705L17.9234 2.05505C17.7753 2.48891 17.5298 2.88306 17.2056 3.20723C16.8815 3.53139 16.4873 3.77695 16.0534 3.92505L15.6764 4.05405C15.4793 4.12162 15.3081 4.24913 15.1869 4.41875C15.0658 4.58836 15.0006 4.7916 15.0006 5.00005C15.0006 5.2085 15.0658 5.41174 15.1869 5.58136C15.3081 5.75097 15.4793 5.87848 15.6764 5.94605L16.0544 6.07605C16.4882 6.22405 16.8823 6.46946 17.2064 6.79344C17.5306 7.11743 17.7762 7.51138 17.9244 7.94505L18.0524 8.32305C18.1198 8.5206 18.2473 8.69213 18.417 8.81358C18.5867 8.93504 18.7902 9.00035 18.9989 9.00035C19.2077 9.00035 19.4111 8.93504 19.5809 8.81358C19.7506 8.69213 19.8781 8.5206 19.9454 8.32305L20.0754 7.94505C20.2234 7.5113 20.4689 7.11722 20.7928 6.79306C21.1168 6.4689 21.5108 6.22328 21.9444 6.07505L22.3224 5.94605C22.5196 5.87848 22.6908 5.75097 22.812 5.58136C22.9331 5.41174 22.9983 5.2085 22.9983 5.00005C22.9983 4.7916 22.9331 4.58836 22.812 4.41875C22.6908 4.24913 22.5196 4.12162 22.3224 4.05405L21.9444 3.92405C21.5107 3.77606 21.1166 3.53065 20.7925 3.20666C20.4683 2.88268 20.2227 2.48873 20.0744 2.05505L19.9454 1.67705ZM18.1954 5.00005C18.4941 4.76339 18.7621 4.49539 18.9994 4.19605C19.2361 4.49472 19.5041 4.76272 19.8034 5.00005C19.5058 5.23661 19.236 5.50635 18.9994 5.80405C18.7629 5.50635 18.4931 5.23661 18.1954 5.00005ZM11.9994 2.00005C10.6734 2.00005 9.4016 2.52684 8.46391 3.46452C7.52623 4.4022 6.99945 5.67397 6.99945 7.00005V12.0001C6.99945 13.3261 7.52623 14.5979 8.46391 15.5356C9.4016 16.4733 10.6734 17.0001 11.9994 17.0001C13.3255 17.0001 14.5973 16.4733 15.535 15.5356C16.4727 14.5979 16.9994 13.3261 16.9994 12.0001V10.0001C16.9994 9.73484 16.8941 9.48048 16.7066 9.29295C16.519 9.10541 16.2647 9.00005 15.9994 9.00005C15.7342 9.00005 15.4799 9.10541 15.2923 9.29295C15.1048 9.48048 14.9994 9.73484 14.9994 10.0001V12.0001C14.9994 12.7957 14.6834 13.5588 14.1208 14.1214C13.5582 14.684 12.7951 15.0001 11.9994 15.0001C11.2038 15.0001 10.4407 14.684 9.87813 14.1214C9.31552 13.5588 8.99945 12.7957 8.99945 12.0001V7.00005C8.99926 6.54209 9.10391 6.09017 9.3054 5.67891C9.50688 5.26766 9.79984 4.90799 10.1618 4.62747C10.5238 4.34695 10.9452 4.15303 11.3938 4.06057C11.8423 3.96811 12.306 3.97956 12.7494 4.09405C12.8776 4.13015 13.0117 4.1403 13.1439 4.12388C13.276 4.10746 13.4035 4.06482 13.519 3.99846C13.6344 3.93209 13.7354 3.84334 13.8161 3.73741C13.8968 3.63147 13.9555 3.51049 13.9888 3.38157C14.0221 3.25264 14.0293 3.11836 14.01 2.98661C13.9907 2.85485 13.9453 2.72828 13.8764 2.61432C13.8076 2.50035 13.7166 2.40129 13.609 2.32294C13.5013 2.24459 13.3791 2.18853 13.2494 2.15805C12.8411 2.05289 12.4211 1.9998 11.9994 2.00005ZM12.9994 19.9381C14.7375 19.7186 16.3556 18.9349 17.6055 17.7073C18.8553 16.4797 19.6678 14.8759 19.9184 13.1421C19.9561 12.8795 19.8879 12.6127 19.7289 12.4004C19.5699 12.1881 19.333 12.0477 19.0704 12.0101C18.8079 11.9724 18.5411 12.0406 18.3288 12.1996C18.1165 12.3586 17.9761 12.5955 17.9384 12.8581C17.7301 14.2845 17.0154 15.5883 15.9249 16.5311C14.8344 17.4739 13.441 17.9927 11.9994 17.9927C10.5579 17.9927 9.1645 17.4739 8.07401 16.5311C6.98351 15.5883 6.26877 14.2845 6.06045 12.8581C6.02279 12.5955 5.88237 12.3586 5.67008 12.1996C5.45778 12.0406 5.19101 11.9724 4.92845 12.0101C4.66588 12.0477 4.42903 12.1881 4.27 12.4004C4.11097 12.6127 4.04279 12.8795 4.08045 13.1421C4.33105 14.8759 5.1436 16.4797 6.39344 17.7073C7.64327 18.9349 9.26136 19.7186 10.9994 19.9381V21.0001C10.9994 21.2653 11.1048 21.5196 11.2923 21.7072C11.4799 21.8947 11.7342 22.0001 11.9994 22.0001C12.2647 22.0001 12.519 21.8947 12.7066 21.7072C12.8941 21.5196 12.9994 21.2653 12.9994 21.0001V19.9381Z" fill="#A2A2A2"/>
</svg>
