<svg width="30" height="24" viewBox="0 0 30 24" fill="none" xmlns="http://www.w3.org/2000/svg">
<g clip-path="url(#clip0_946_16437)">
<path d="M28.9047 9.65939C28.6505 8.83183 27.9578 8.23757 27.1444 8.23757H27.1273C26.5985 8.23757 26.1218 8.48821 25.7825 8.89064C25.4427 8.48821 24.9661 8.23757 24.4378 8.23757H24.4207C23.9558 8.23757 23.5309 8.43145 23.2045 8.75224V8.5891C23.1933 8.4266 23.076 8.29893 22.931 8.29893H21.6831C21.5305 8.29893 21.4073 8.43936 21.4073 8.61372V16.3313C21.4073 16.5058 21.5306 16.6461 21.6831 16.6461H22.931C23.0701 16.6461 23.1846 16.5278 23.2029 16.3747L23.2023 10.8344C23.2023 10.815 23.2029 10.797 23.2046 10.7789C23.2246 10.5316 23.3836 10.3284 23.6349 10.3029H23.865C23.9701 10.3136 24.0588 10.3557 24.1285 10.4192C24.2372 10.5174 24.2975 10.6686 24.2975 10.8344L24.3022 16.3474C24.3022 16.5219 24.4261 16.663 24.5781 16.663H25.826C25.9733 16.663 26.0931 16.5293 26.1002 16.3628L26.0996 10.8271C26.0991 10.6452 26.173 10.4808 26.3027 10.3832C26.3666 10.3364 26.4436 10.305 26.5322 10.2956H26.7622C27.0322 10.3224 27.1954 10.5557 27.1949 10.8271L27.1996 16.3327C27.1996 16.5072 27.3234 16.6475 27.4754 16.6475H28.7233C28.8753 16.6475 28.9992 16.5071 28.9992 16.3327V10.4114C28.9992 10.0076 28.9593 9.83579 28.9047 9.65939ZM20.4565 8.31908H19.7427V6.99816C19.7427 6.83974 19.6301 6.71143 19.4909 6.71143C19.4745 6.71143 19.4587 6.7141 19.4433 6.71742C18.6521 6.96474 18.8105 8.21283 17.3661 8.31908H17.2257C17.2046 8.31908 17.1846 8.3224 17.1653 8.32711H17.1641L17.1653 8.32775C17.042 8.35913 16.9492 8.48349 16.9492 8.63324V10.0545C16.9492 10.2276 17.0731 10.3687 17.2256 10.3687H17.9787L17.9776 16.3951C17.9776 16.5669 18.0997 16.7059 18.2505 16.7059H19.4843C19.6346 16.7059 19.7567 16.5669 19.7567 16.3951L19.7573 10.3687H20.4564C20.6084 10.3687 20.7322 10.2276 20.7322 10.0545V8.63336C20.7325 8.46015 20.6086 8.31908 20.4565 8.31908Z" fill="#54C1F0"/>
<path d="M15.9675 8.3191H14.7196C14.5676 8.3191 14.4443 8.46017 14.4443 8.63326V11.5719C14.4413 11.7538 14.3122 11.8995 14.1519 11.8995H13.6296C13.4676 11.8995 13.3367 11.7511 13.3367 11.5666L13.332 8.63326C13.332 8.46017 13.2081 8.3191 13.0561 8.3191H11.8081C11.6555 8.3191 11.5323 8.46017 11.5323 8.63326V11.8541C11.5323 13.0774 12.2982 13.9497 13.373 13.9497C13.373 13.9497 14.1795 13.9497 14.2041 13.9551C14.3497 13.9738 14.463 14.1129 14.463 14.284C14.463 14.4532 14.352 14.5916 14.2082 14.6122C14.2011 14.6135 14.1946 14.6155 14.187 14.6169L12.3621 14.6243C12.2094 14.6243 12.0862 14.7654 12.0862 14.9385V16.359C12.0862 16.5329 12.2095 16.6732 12.3621 16.6732H14.4024C15.4777 16.6732 16.2431 15.8015 16.2431 14.5775V8.63339C16.2433 8.46017 16.1201 8.3191 15.9675 8.3191ZM3.99824 8.31885H1.27059C1.12096 8.31885 1 8.45711 1 8.62701V10.0195C1 10.0222 1.00056 10.0248 1.00056 10.0275C1.00056 10.0342 1 10.0409 1 10.0469V16.3492C1 16.5204 1.11267 16.66 1.25245 16.664H2.52387C2.67586 16.664 2.79973 16.5236 2.79973 16.3498L2.80443 14.19H3.99835C4.99739 14.19 5.69358 13.4006 5.69358 12.2581V10.2534C5.69347 9.11094 4.99728 8.31885 3.99824 8.31885ZM3.88848 11.8002C3.88848 11.984 3.75755 12.1338 3.59616 12.1338L2.80432 12.1344V10.377H3.59616C3.75755 10.377 3.88848 10.5254 3.88848 10.7099V11.8002ZM8.86789 8.32688H7.13637C6.98315 8.32688 6.85928 8.45928 6.85928 8.62165V9.17446C6.85928 9.17778 6.85984 9.18186 6.85984 9.18517C6.85984 9.18913 6.85928 9.19321 6.85928 9.19716V9.95456C6.85928 10.1264 6.99077 10.2667 7.15272 10.2667H8.80158C8.93184 10.29 9.03522 10.3983 9.04989 10.5674V10.7506C9.03522 10.9117 8.93307 11.0293 8.80864 11.0427H7.99216C6.90621 11.0427 6.13262 11.8643 6.13262 13.0181V14.6705C6.13262 15.8176 6.79768 16.6338 7.8759 16.6338H10.1388C10.545 16.6338 10.8743 16.2835 10.8743 15.8523V10.46C10.8743 9.15252 10.2826 8.32688 8.86789 8.32688ZM9.06635 14.4816C9.06635 14.4997 9.064 14.5171 9.06165 14.5338C9.05871 14.5495 9.05478 14.5649 9.04989 14.5799C9.01114 14.7043 8.90194 14.7945 8.77224 14.7945H8.25278C8.09083 14.7945 7.95867 14.6541 7.95867 14.4816V14.2135C7.95867 14.2102 7.95811 14.2069 7.95811 14.2034L7.95867 13.4901V13.2669L7.95923 13.2649C7.95979 13.0931 8.09072 12.9541 8.25267 12.9541H8.77213C8.93475 12.9541 9.06624 13.0937 9.06624 13.2669V14.4816H9.06635Z" fill="#233266"/>
</g>
<defs>
<clipPath id="clip0_946_16437">
<rect width="28" height="10" fill="white" transform="translate(1 6.70874)"/>
</clipPath>
</defs>
</svg>
