<svg width="24" height="24" viewBox="0 0 24 24" fill="none" xmlns="http://www.w3.org/2000/svg">
<path d="M12 22C17.5228 22 22 17.5228 22 12C22 6.47715 17.5228 2 12 2C6.47715 2 2 6.47715 2 12C2 17.5228 6.47715 22 12 22Z" fill="#5F259F"/>
<path d="M16.5382 9.39025C16.5382 8.99933 16.2029 8.66409 15.812 8.66409H14.4713L11.3988 5.14468C11.1196 4.80944 10.6727 4.69779 10.2258 4.80944L9.16439 5.14468C8.99677 5.20065 8.9408 5.42395 9.05274 5.53559L12.4045 8.72006H7.32028C7.15266 8.72006 7.04102 8.83171 7.04102 8.99933V9.55787C7.04102 9.94878 7.37625 10.284 7.76717 10.284H8.54929V12.9656C8.54929 14.9768 9.61069 16.1501 11.3985 16.1501C11.9571 16.1501 12.4042 16.0941 12.9628 15.8708V17.6587C12.9628 18.1615 13.3537 18.5524 13.8565 18.5524H14.6387C14.8063 18.5524 14.9739 18.3848 14.9739 18.2172V10.2283H16.2589C16.4265 10.2283 16.5382 10.1167 16.5382 9.94908V9.39025ZM12.9628 14.1946C12.6275 14.3623 12.1806 14.4182 11.8454 14.4182C10.9516 14.4182 10.5048 13.9713 10.5048 12.9656V10.284H12.9628V14.1946Z" fill="white"/>
</svg>
