<svg width="67" height="48" viewBox="0 0 67 48" fill="none" xmlns="http://www.w3.org/2000/svg">
<path d="M32.5 0.5H34.5C47.4787 0.500001 58 11.0213 58 24C58 36.9787 47.4787 47.5 34.5 47.5H32.5C19.5213 47.5 9 36.9787 9 24C9 11.0213 19.5213 0.5 32.5 0.5Z" fill="#F8F8F8"/>
<path d="M32.5 0.5H34.5C47.4787 0.500001 58 11.0213 58 24C58 36.9787 47.4787 47.5 34.5 47.5H32.5C19.5213 47.5 9 36.9787 9 24C9 11.0213 19.5213 0.5 32.5 0.5Z" stroke="#E4E4E4" stroke-linecap="round"/>
<path d="M25.5 24H41.5M33.5 32V24L33.5 16" stroke="#2D264B" stroke-width="2" stroke-linecap="round"/>
</svg>
