<svg width="56" height="56" viewBox="0 0 56 56" fill="none" xmlns="http://www.w3.org/2000/svg">
<rect width="56" height="56" rx="28" fill="#F9F5FF"/>
<path d="M39.7071 30.4994L40.3163 30.9368L39.7071 30.4994ZM39.7071 25.5005L39.0978 25.9378L39.7071 25.5005ZM16.2955 30.4994L16.9048 30.062L16.2955 30.4994ZM16.2955 25.5005L15.6863 25.0631L16.2955 25.5005ZM15.1172 27.9999H14.3672H15.1172ZM16.2955 30.4994L15.6863 30.9368C16.8374 32.5402 18.5455 34.6399 20.6287 36.3455C22.7033 38.0442 25.2292 39.4166 28.0013 39.4166V38.6666V37.9166C25.7244 37.9166 23.5291 36.7817 21.5789 35.1849C19.6373 33.5952 18.017 31.6112 16.9048 30.062L16.2955 30.4994ZM28.0013 38.6666V39.4166C30.7734 39.4166 33.2993 38.0442 35.374 36.3455C37.4572 34.6399 39.1652 32.5402 40.3163 30.9368L39.7071 30.4994L39.0978 30.062C37.9857 31.6112 36.3653 33.5952 34.4237 35.1849C32.4735 36.7817 30.2782 37.9166 28.0013 37.9166V38.6666ZM39.7071 25.5005L40.3163 25.0631C39.1652 23.4596 37.4572 21.36 35.374 19.6543C33.2993 17.9557 30.7734 16.5833 28.0013 16.5833V17.3333V18.0833C30.2782 18.0833 32.4735 19.2181 34.4237 20.8149C36.3653 22.4047 37.9856 24.3886 39.0978 25.9378L39.7071 25.5005ZM28.0013 17.3333V16.5833C25.2292 16.5833 22.7033 17.9557 20.6287 19.6543C18.5455 21.36 16.8374 23.4596 15.6863 25.0631L16.2955 25.5005L16.9048 25.9378C18.017 24.3886 19.6373 22.4047 21.5789 20.8149C23.5291 19.2181 25.7244 18.0833 28.0013 18.0833V17.3333ZM39.7071 30.4994L40.3163 30.9368C41.0671 29.891 41.6354 29.143 41.6354 27.9999H40.8854H40.1354C40.1354 28.573 39.9182 28.9193 39.0978 30.062L39.7071 30.4994ZM39.7071 25.5005L39.0978 25.9378C39.9182 27.0806 40.1354 27.4269 40.1354 27.9999H40.8854H41.6354C41.6354 26.8568 41.0671 26.1089 40.3163 25.0631L39.7071 25.5005ZM16.2955 30.4994L16.9048 30.062C16.0844 28.9193 15.8672 28.573 15.8672 27.9999H15.1172H14.3672C14.3672 29.143 14.9355 29.891 15.6863 30.9368L16.2955 30.4994ZM16.2955 25.5005L15.6863 25.0631C14.9355 26.1089 14.3672 26.8568 14.3672 27.9999H15.1172H15.8672C15.8672 27.4269 16.0844 27.0806 16.9048 25.9378L16.2955 25.5005ZM24.0013 27.9999H23.2513C23.2513 30.6233 25.378 32.7499 28.0013 32.7499V31.9999V31.2499C26.2064 31.2499 24.7513 29.7948 24.7513 27.9999H24.0013ZM28.0013 31.9999V32.7499C30.6247 32.7499 32.7513 30.6233 32.7513 27.9999H32.0013H31.2513C31.2513 29.7948 29.7962 31.2499 28.0013 31.2499V31.9999ZM32.0013 27.9999H32.7513C32.7513 25.3766 30.6247 23.2499 28.0013 23.2499V23.9999V24.7499C29.7962 24.7499 31.2513 26.205 31.2513 27.9999H32.0013ZM28.0013 23.9999V23.2499C25.378 23.2499 23.2513 25.3766 23.2513 27.9999H24.0013H24.7513C24.7513 26.205 26.2064 24.7499 28.0013 24.7499V23.9999Z" fill="#3D65CA"/>
</svg>
