<svg width="20" height="20" viewBox="0 0 20 20" fill="none" xmlns="http://www.w3.org/2000/svg">
<path d="M12.0839 6.24996C4.16725 11.25 1.66725 18.75 1.66725 18.75M14.3831 4.31496C15.0818 3.10579 16.5981 2.51454 17.931 2.93163L18.6418 3.15454C18.7014 3.17322 18.756 3.20504 18.8016 3.24765C18.8472 3.29027 18.8827 3.34259 18.9054 3.40075C18.9281 3.45891 18.9374 3.52142 18.9327 3.58367C18.9279 3.64592 18.9093 3.70631 18.8781 3.76038L18.5056 4.40538C17.8072 5.61454 16.2906 6.20579 14.9581 5.78871L13.7506 5.40996L14.3831 4.31496ZM12.7039 8.18371C13.9435 7.13371 15.8306 7.42746 16.7268 8.78788C16.7535 8.82815 16.7778 8.86538 16.7997 8.89954C16.8864 9.03288 16.8781 9.18871 16.7572 9.29121C15.5177 10.3412 13.6306 10.0475 12.7343 8.68704L12.6614 8.57538C12.5752 8.44204 12.5831 8.28621 12.7039 8.18371ZM12.4806 1.25371C10.7181 1.16788 9.49433 2.63454 9.85558 4.36163L9.886 4.50329C9.92225 4.67163 10.0485 4.79788 10.2206 4.80621C11.9831 4.89163 13.2068 3.42538 12.8456 1.69788L12.8152 1.55621C12.7789 1.38829 12.6527 1.26204 12.4806 1.25371ZM8.95475 11.032C10.3181 9.83454 12.3318 10.0841 13.2477 11.5404L13.3227 11.6604C13.4102 11.8029 13.3968 11.9741 13.2639 12.0908C11.9002 13.2879 9.88641 13.0383 8.97058 11.5825L8.89558 11.4625C8.80808 11.32 8.82141 11.1487 8.95475 11.032ZM7.39641 3.64996C8.66808 5.04538 8.29225 7.05329 6.62225 7.93246L6.48475 8.00371C6.32141 8.08829 6.13058 8.07038 6.00683 7.93413C4.73516 6.53913 5.111 4.53121 6.781 3.65204L6.9185 3.58038C7.08225 3.49621 7.27266 3.51371 7.39641 3.64996ZM2.95141 7.00121C4.63183 7.93746 4.91933 9.99913 3.59016 11.3895L3.48058 11.5029C3.34975 11.6375 3.15975 11.682 2.996 11.5904C1.31558 10.6545 1.02808 8.59246 2.35766 7.20204C2.39683 7.16093 2.43336 7.12315 2.46725 7.08871C2.59766 6.95413 2.78766 6.90954 2.95141 7.00121ZM6.00683 14.5225C7.306 13.1041 9.3785 13.3012 10.4235 14.9158C10.4546 14.9633 10.4831 15.0075 10.5089 15.0483C10.6097 15.2066 10.6089 15.4016 10.4822 15.54C9.18308 16.9583 7.11058 16.7616 6.06516 15.147L5.97975 15.0137C5.87933 14.8558 5.87975 14.6608 6.00683 14.5225Z" stroke="#250E45" stroke-width="1.5" stroke-linecap="round" stroke-linejoin="round"/>
</svg>
