<svg width="49" height="48" viewBox="0 0 49 48" fill="none" xmlns="http://www.w3.org/2000/svg">
<g clip-path="url(#clip0_1747_14245)">
<path fill-rule="evenodd" clip-rule="evenodd" d="M39.0216 4.53584H9.9783C8.65843 4.54913 7.39742 5.08406 6.47056 6.02384C5.54371 6.96361 5.0263 8.23191 5.03129 9.55184V38.4668C5.02621 39.7868 5.54361 41.0552 6.4705 41.995C7.39739 42.9348 8.65848 43.4697 9.97841 43.4829H39.0217C40.3433 43.4738 41.6071 42.9403 42.5354 41.9997C43.4637 41.0591 43.9804 39.7883 43.972 38.4668V9.54258C43.9805 8.22098 43.4638 6.95011 42.5355 6.00942C41.6072 5.06872 40.3432 4.53523 39.0216 4.52625" fill="#9F1A45"/>
<path d="M39.0215 43.9815H9.9782C8.52196 43.9724 7.12879 43.386 6.10435 42.3509C5.07991 41.3159 4.50787 39.9168 4.51373 38.4605V9.54264C4.50703 8.08583 5.0787 6.6859 6.10323 5.65019C7.12776 4.61449 8.52141 4.02766 9.9782 4.01855H39.0214C40.4782 4.02769 41.8718 4.61453 42.8964 5.65023C43.9209 6.68592 44.4926 8.08584 44.4859 9.54264V38.4574C44.4918 39.9136 43.9197 41.3128 42.8953 42.3478C41.8708 43.3828 40.4777 43.9692 39.0214 43.9783M9.9782 5.05009C8.79498 5.0592 7.66369 5.53734 6.83259 6.37959C6.0015 7.22184 5.53848 8.3594 5.54516 9.54264V38.4574C5.53854 39.6406 6.00157 40.7781 6.83265 41.6204C7.66373 42.4627 8.79498 42.9408 9.9782 42.95H39.0214C40.2046 42.9408 41.3359 42.4627 42.167 41.6204C42.9981 40.7781 43.4611 39.6406 43.4545 38.4574V9.54264C43.4602 8.35967 42.9969 7.22263 42.166 6.38056C41.3351 5.53849 40.2044 5.06004 39.0214 5.04998L9.9782 5.05009Z" fill="#9F1A45"/>
<path fill-rule="evenodd" clip-rule="evenodd" d="M24.7427 12.5908C25.9271 12.6093 27.0797 12.9775 28.0556 13.649C29.0315 14.3206 29.7871 15.2655 30.2276 16.3652C30.6681 17.4649 30.7738 18.6702 30.5314 19.8297C30.289 20.9893 29.7093 22.0513 28.8652 22.8825C28.0211 23.7136 26.9502 24.2767 25.787 24.5011C24.6239 24.7255 23.4203 24.6011 22.3276 24.1436C21.2349 23.6861 20.3018 22.9159 19.6454 21.9297C18.9891 20.9436 18.6389 19.7854 18.6387 18.6008C18.6441 17.8052 18.8063 17.0184 19.1161 16.2855C19.4259 15.5526 19.8772 14.888 20.4441 14.3297C21.0111 13.7715 21.6826 13.3306 22.4202 13.0322C23.1578 12.7338 23.947 12.5837 24.7427 12.5908ZM31.8061 9.62193H38.8976V38.3924H31.8029V30.2412C25.5579 32.5236 19.7204 32.7242 14.3499 27.4697C12.1303 25.1593 10.8795 22.0085 11.403 16.5158C11.4939 15.6757 11.0895 11.7787 10.1113 9.61865H16.3972C19.3473 14.3025 15.4786 20.2779 19.9994 24.0965C26.1566 28.0843 31.5302 23.3158 31.7904 19.0114L31.8061 9.62193Z" fill="#FEBD30"/>
</g>
<defs>
<clipPath id="clip0_1747_14245">
<rect width="40" height="40" fill="white" transform="translate(4.5 4)"/>
</clipPath>
</defs>
</svg>
