<svg width="56" height="56" viewBox="0 0 56 56" fill="none" xmlns="http://www.w3.org/2000/svg">
<rect width="56" height="56" rx="28" fill="#F9F5FF"/>
<path d="M24.0013 24.0001L24.4484 22.6589C25.3865 19.8445 29.0994 19.242 30.8793 21.6153C31.922 23.0055 31.8493 24.9357 30.7049 26.2435L29.4793 27.6442C28.5265 28.7332 28.0013 30.131 28.0013 31.5779V32.0001M41.3346 28.0001C41.3346 35.3639 35.3651 41.3334 28.0013 41.3334C20.6375 41.3334 14.668 35.3639 14.668 28.0001C14.668 20.6363 20.6375 14.6667 28.0013 14.6667C35.3651 14.6667 41.3346 20.6363 41.3346 28.0001Z" stroke="#54219D" stroke-width="1.5" stroke-linecap="round"/>
<path d="M29.3346 36.0001C29.3346 36.7365 28.7377 37.3334 28.0013 37.3334C27.2649 37.3334 26.668 36.7365 26.668 36.0001C26.668 35.2637 27.2649 34.6667 28.0013 34.6667C28.7377 34.6667 29.3346 35.2637 29.3346 36.0001Z" fill="#54219D"/>
</svg>
