<svg width="20" height="20" viewBox="0 0 20 20" fill="none" xmlns="http://www.w3.org/2000/svg">
<path d="M10.8334 14.1667C10.8334 14.0573 10.8119 13.9491 10.7701 13.8481C10.7282 13.7471 10.6669 13.6553 10.5896 13.578C10.5123 13.5007 10.4205 13.4394 10.3195 13.3975C10.2185 13.3557 10.1103 13.3342 10.0009 13.3342C9.89161 13.3342 9.78335 13.3557 9.68235 13.3975C9.58135 13.4394 9.48957 13.5007 9.41227 13.578C9.33496 13.6553 9.27364 13.7471 9.2318 13.8481C9.18997 13.9491 9.16843 14.0573 9.16843 14.1667C9.17527 14.3828 9.26594 14.5878 9.42124 14.7382C9.57654 14.8887 9.78428 14.9728 10.0005 14.9728C10.2168 14.9728 10.4245 14.8887 10.5798 14.7382C10.7351 14.5878 10.8258 14.3828 10.8326 14.1667M10.6159 7.6225C10.5943 7.46555 10.514 7.32266 10.391 7.22272C10.2681 7.12279 10.1118 7.07327 9.95375 7.08417C9.7957 7.09507 9.64769 7.16559 9.53965 7.28146C9.43161 7.39733 9.3716 7.54991 9.37177 7.70833L9.3751 11.4592L9.38093 11.5442C9.40253 11.7011 9.48292 11.844 9.60585 11.9439C9.72878 12.0439 9.88507 12.0934 10.0431 12.0825C10.2012 12.0716 10.3492 12.0011 10.4572 11.8852C10.5653 11.7693 10.6253 11.6168 10.6251 11.4583L10.6218 7.70666L10.6159 7.6225ZM11.6409 3.04916C10.9268 1.75917 9.0726 1.75917 8.35927 3.04916L1.9051 14.7167C1.21343 15.9667 2.1176 17.5 3.54677 17.5H16.4551C17.8834 17.5 18.7876 15.9667 18.0959 14.7167L11.6409 3.04916ZM9.4526 3.65417C9.50662 3.55638 9.58586 3.47485 9.68208 3.41808C9.77829 3.36131 9.88797 3.33136 9.99968 3.33136C10.1114 3.33136 10.2211 3.36131 10.3173 3.41808C10.4135 3.47485 10.4928 3.55638 10.5468 3.65417L17.0018 15.3225C17.0544 15.4177 17.0813 15.525 17.0798 15.6338C17.0783 15.7425 17.0484 15.849 16.9931 15.9427C16.9378 16.0364 16.859 16.114 16.7645 16.1679C16.67 16.2218 16.5631 16.2501 16.4543 16.25H3.54677C3.43798 16.2501 3.33105 16.2218 3.23656 16.1679C3.14206 16.114 3.06326 16.0364 3.00796 15.9427C2.95266 15.849 2.92277 15.7425 2.92125 15.6338C2.91972 15.525 2.94662 15.4177 2.99927 15.3225L9.4526 3.65417Z" fill="#250E45"/>
</svg>
