<svg width="101" height="53" viewBox="0 0 101 53" fill="none" xmlns="http://www.w3.org/2000/svg">
<path d="M4.04 53C1.80877 53 -0.0152887 51.1888 0.14667 48.9635C0.552619 43.3857 1.79812 37.9017 3.84409 32.7178C6.38195 26.2875 10.1018 20.4448 14.7911 15.5233C19.4805 10.6018 25.0476 6.69788 31.1745 4.03438C37.3014 1.37088 43.8682 -9.12701e-07 50.5 0C57.1318 9.12702e-07 63.6986 1.37089 69.8255 4.03439C75.9525 6.69789 81.5195 10.6018 86.2089 15.5233C90.8983 20.4448 94.618 26.2875 97.1559 32.7178C99.2019 37.9017 100.447 43.3857 100.853 48.9635C101.015 51.1889 99.1912 53 96.96 53C94.7288 53 92.9382 51.1879 92.7454 48.965C92.3584 44.5018 91.3307 40.1177 89.691 35.9629C87.5592 30.5615 84.4345 25.6537 80.4955 21.5196C76.5564 17.3855 71.8801 14.1062 66.7334 11.8689C61.5868 9.63155 56.0707 8.48 50.5 8.48C44.9293 8.48 39.4132 9.63154 34.2666 11.8689C29.1199 14.1062 24.4436 17.3855 20.5045 21.5196C16.5655 25.6537 13.4408 30.5615 11.309 35.9629C9.66927 40.1176 8.64162 44.5018 8.25459 48.965C8.06183 51.1879 6.27123 53 4.04 53Z" fill="#FFF7E8"/>
</svg>
