<svg width="19" height="23" viewBox="0 0 19 23" fill="none" xmlns="http://www.w3.org/2000/svg">
<path fill-rule="evenodd" clip-rule="evenodd" d="M15.9454 0.677052C15.8781 0.479503 15.7506 0.307979 15.5809 0.18652C15.4111 0.0650617 15.2077 -0.000244141 14.9989 -0.000244141C14.7902 -0.000244141 14.5867 0.0650617 14.417 0.18652C14.2473 0.307979 14.1198 0.479503 14.0524 0.677052L13.9234 1.05505C13.7753 1.48891 13.5298 1.88306 13.2056 2.20723C12.8815 2.53139 12.4873 2.77695 12.0534 2.92505L11.6764 3.05405C11.4793 3.12162 11.3081 3.24913 11.1869 3.41875C11.0658 3.58836 11.0006 3.7916 11.0006 4.00005C11.0006 4.2085 11.0658 4.41174 11.1869 4.58136C11.3081 4.75097 11.4793 4.87848 11.6764 4.94605L12.0544 5.07605C12.4882 5.22405 12.8823 5.46946 13.2064 5.79344C13.5306 6.11743 13.7762 6.51138 13.9244 6.94505L14.0524 7.32305C14.1198 7.5206 14.2473 7.69213 14.417 7.81358C14.5867 7.93504 14.7902 8.00035 14.9989 8.00035C15.2077 8.00035 15.4111 7.93504 15.5809 7.81358C15.7506 7.69213 15.8781 7.5206 15.9454 7.32305L16.0754 6.94505C16.2234 6.5113 16.4689 6.11722 16.7928 5.79306C17.1168 5.4689 17.5108 5.22328 17.9444 5.07505L18.3224 4.94605C18.5196 4.87848 18.6908 4.75097 18.812 4.58136C18.9331 4.41174 18.9983 4.2085 18.9983 4.00005C18.9983 3.7916 18.9331 3.58836 18.812 3.41875C18.6908 3.24913 18.5196 3.12162 18.3224 3.05405L17.9444 2.92405C17.5107 2.77606 17.1166 2.53065 16.7925 2.20666C16.4683 1.88268 16.2227 1.48873 16.0744 1.05505L15.9454 0.677052ZM14.1954 4.00005C14.4941 3.76339 14.7621 3.49539 14.9994 3.19605C15.2361 3.49472 15.5041 3.76272 15.8034 4.00005C15.5057 4.23661 15.236 4.50635 14.9994 4.80405C14.7629 4.50635 14.4931 4.23661 14.1954 4.00005ZM7.99945 1.00005C6.67337 1.00005 5.4016 1.52684 4.46391 2.46452C3.52623 3.4022 2.99945 4.67397 2.99945 6.00005V11.0001C2.99945 12.3261 3.52623 13.5979 4.46391 14.5356C5.4016 15.4733 6.67337 16.0001 7.99945 16.0001C9.32553 16.0001 10.5973 15.4733 11.535 14.5356C12.4727 13.5979 12.9994 12.3261 12.9994 11.0001V9.00005C12.9994 8.73484 12.8941 8.48048 12.7066 8.29295C12.519 8.10541 12.2647 8.00005 11.9994 8.00005C11.7342 8.00005 11.4799 8.10541 11.2923 8.29295C11.1048 8.48048 10.9994 8.73484 10.9994 9.00005V11.0001C10.9994 11.7957 10.6834 12.5588 10.1208 13.1214C9.55816 13.684 8.7951 14.0001 7.99945 14.0001C7.2038 14.0001 6.44074 13.684 5.87813 13.1214C5.31552 12.5588 4.99945 11.7957 4.99945 11.0001V6.00005C4.99926 5.54209 5.10391 5.09017 5.3054 4.67891C5.50688 4.26766 5.79984 3.90799 6.16183 3.62747C6.52382 3.34695 6.94523 3.15303 7.39376 3.06057C7.84229 2.96811 8.30603 2.97956 8.74945 3.09405C8.87762 3.13015 9.01171 3.1403 9.14385 3.12388C9.27599 3.10746 9.40353 3.06482 9.51897 2.99846C9.63441 2.93209 9.73543 2.84334 9.81611 2.73741C9.89679 2.63147 9.95551 2.51049 9.9888 2.38157C10.0221 2.25264 10.0293 2.11836 10.01 1.98661C9.99072 1.85485 9.94531 1.72828 9.87644 1.61432C9.80757 1.50035 9.71664 1.40129 9.60897 1.32294C9.5013 1.24459 9.37907 1.18853 9.24945 1.15805C8.84111 1.05289 8.42111 0.9998 7.99945 1.00005ZM8.99945 18.9381C10.7375 18.7186 12.3556 17.9349 13.6055 16.7073C14.8553 15.4797 15.6678 13.8759 15.9184 12.1421C15.9561 11.8795 15.8879 11.6127 15.7289 11.4004C15.5699 11.1881 15.333 11.0477 15.0704 11.0101C14.8079 10.9724 14.5411 11.0406 14.3288 11.1996C14.1165 11.3586 13.9761 11.5955 13.9384 11.8581C13.7301 13.2845 13.0154 14.5883 11.9249 15.5311C10.8344 16.4739 9.441 16.9927 7.99945 16.9927C6.5579 16.9927 5.1645 16.4739 4.07401 15.5311C2.98351 14.5883 2.26877 13.2845 2.06045 11.8581C2.02279 11.5955 1.88237 11.3586 1.67008 11.1996C1.45778 11.0406 1.19101 10.9724 0.928449 11.0101C0.665884 11.0477 0.429035 11.1881 0.270004 11.4004C0.110973 11.6127 0.0427878 11.8795 0.0804486 12.1421C0.331051 13.8759 1.1436 15.4797 2.39344 16.7073C3.64327 17.9349 5.26136 18.7186 6.99945 18.9381V20.0001C6.99945 20.2653 7.10481 20.5196 7.29234 20.7072C7.47988 20.8947 7.73423 21.0001 7.99945 21.0001C8.26467 21.0001 8.51902 20.8947 8.70656 20.7072C8.89409 20.5196 8.99945 20.2653 8.99945 20.0001V18.9381Z" fill="#A2A2A2"/>
</svg>
