<svg width="56" height="56" viewBox="0 0 56 56" fill="none" xmlns="http://www.w3.org/2000/svg">
<rect width="56" height="56" rx="28" fill="#F9F5FF"/>
<path d="M32.0011 25.3334L29.3058 28.6785C28.2377 30.004 27.7037 30.6667 27.0011 30.6667C26.2985 30.6667 25.7645 30.004 24.6964 28.6785L24.0011 27.8155M37.1865 33.3334C39.3222 29.4412 39.8704 24.9998 39.9784 22.1826C40.0402 20.5688 38.7071 19.3334 37.0921 19.3334H36.3063C35.0176 19.3334 33.9729 18.2887 33.9729 17.0001C33.9729 15.7114 32.9283 14.6667 31.6396 14.6667H24.7516C23.2482 14.6667 22.0294 15.8855 22.0294 17.389C22.0294 18.8924 20.8106 20.1112 19.3072 20.1112H18.8953C17.2845 20.1112 15.9536 21.3362 16.0348 22.945C16.1661 25.5461 16.7441 29.5578 18.8158 33.3334C19.3793 34.3603 20.1446 35.3908 20.9945 36.3727C23.6344 39.4227 24.9544 40.9477 28.0012 40.9477C31.048 40.9477 32.3679 39.4227 35.0078 36.3727C35.8577 35.3908 36.623 34.3603 37.1865 33.3334Z" stroke="#1FC16B" stroke-width="1.5" stroke-linecap="round"/>
</svg>
