<svg width="20" height="20" viewBox="0 0 20 20" fill="none" xmlns="http://www.w3.org/2000/svg">
<path d="M1.66602 8.33332V11.6667C1.66602 13.3333 2.49935 14.1667 4.16602 14.1667H5.35768C5.66602 14.1667 5.97435 14.2583 6.24102 14.4167L8.67435 15.9417C10.7743 17.2583 12.4993 16.3 12.4993 13.825V6.17499C12.4993 3.69165 10.7743 2.74165 8.67435 4.05832L6.24102 5.58332C5.97435 5.74165 5.66602 5.83332 5.35768 5.83332H4.16602C2.49935 5.83332 1.66602 6.66665 1.66602 8.33332Z" stroke="black" stroke-width="1.5"/>
<path d="M15 6.66663C16.4833 8.64163 16.4833 11.3583 15 13.3333" stroke="black" stroke-width="1.5" stroke-linecap="round" stroke-linejoin="round"/>
<path d="M16.5254 4.58337C18.9337 7.79171 18.9337 12.2084 16.5254 15.4167" stroke="black" stroke-width="1.5" stroke-linecap="round" stroke-linejoin="round"/>
</svg>
