<svg width="33" height="33" viewBox="0 0 33 33" fill="none" xmlns="http://www.w3.org/2000/svg">
<path d="M27.3743 25.0013H5.37435C4.63797 25.0013 4.04102 25.5983 4.04102 26.3347V27.668C4.04102 28.4044 4.63797 29.0013 5.37435 29.0013H27.3743C28.1107 29.0013 28.7077 28.4044 28.7077 27.668V26.3347C28.7077 25.5983 28.1107 25.0013 27.3743 25.0013Z" stroke="#3F1976" stroke-width="1.5" stroke-linecap="round" stroke-linejoin="round"/>
<path d="M7.37435 13.6653V25.012M25.3743 13.6653V25.012M19.7077 13.6653V25.012M13.041 13.6653V25.012M15.0943 4.69996L4.73435 10.3666C4.52453 10.4814 4.34945 10.6506 4.22746 10.8563C4.10548 11.062 4.04108 11.2968 4.04102 11.536V12.8653C4.04102 13.0775 4.1253 13.281 4.27533 13.431C4.42536 13.581 4.62884 13.6653 4.84102 13.6653H27.9077C28.1199 13.6653 28.3233 13.581 28.4734 13.431C28.6234 13.281 28.7077 13.0775 28.7077 12.8653V11.536C28.7076 11.2968 28.6432 11.062 28.5212 10.8563C28.3993 10.6506 28.2242 10.4814 28.0143 10.3666L17.6543 4.69996C17.2619 4.48523 16.8217 4.37268 16.3743 4.37268C15.927 4.37268 15.4868 4.48523 15.0943 4.69996Z" stroke="#3F1976" stroke-width="1.5" stroke-linecap="round" stroke-linejoin="round"/>
</svg>
