<svg width="33" height="21" viewBox="0 0 33 21" fill="none" xmlns="http://www.w3.org/2000/svg">
<g clip-path="url(#clip0_1017_13027)">
<path fill-rule="evenodd" clip-rule="evenodd" d="M4.91939 13.6577H5.09757L4.93072 14.3828C4.90528 14.4894 4.91094 14.5722 4.94483 14.6255C4.97882 14.6788 5.04093 14.7054 5.13424 14.7054C5.22467 14.7054 5.30099 14.6788 5.36042 14.6255C5.41974 14.5721 5.45939 14.4893 5.48483 14.3828L5.65158 13.6577H5.83254L5.66291 14.4006C5.62614 14.5604 5.56115 14.6818 5.46505 14.7617C5.37174 14.8416 5.24733 14.8831 5.09469 14.8831C4.94205 14.8831 4.83741 14.8446 4.78086 14.7646C4.72432 14.6847 4.71299 14.5634 4.74976 14.4036L4.91939 13.6578V13.6577ZM26.376 14.8504L26.6473 13.6577H27.2664L27.2297 13.8234H26.7915L26.7237 14.1223H27.1619L27.1222 14.2911H26.6841L26.5964 14.6757H27.0347L26.9951 14.8503H26.376V14.8504ZM26.359 13.9477C26.3194 13.9005 26.2714 13.8649 26.2205 13.8441C26.1695 13.8205 26.1131 13.8087 26.048 13.8087C25.9265 13.8087 25.819 13.8501 25.7229 13.933C25.6268 14.0159 25.5646 14.1254 25.5335 14.2585C25.5052 14.3858 25.5165 14.4924 25.5732 14.5782C25.6268 14.661 25.7116 14.7025 25.8247 14.7025C25.8897 14.7025 25.9548 14.6906 26.0197 14.664C26.0848 14.6404 26.1498 14.6018 26.2176 14.5515L26.1667 14.7705C26.1102 14.8089 26.0509 14.8357 25.9886 14.8534C25.9264 14.8711 25.8641 14.8801 25.7964 14.8801C25.7116 14.8801 25.6352 14.8652 25.5702 14.8356C25.5051 14.806 25.4515 14.7616 25.409 14.7025C25.3667 14.6462 25.3412 14.5782 25.3299 14.5013C25.3187 14.4243 25.3215 14.3415 25.3441 14.2527C25.3639 14.1639 25.3978 14.0838 25.4431 14.0069C25.4883 13.93 25.5476 13.8619 25.6155 13.8057C25.6833 13.7465 25.7568 13.7022 25.836 13.6726C25.9151 13.643 25.9942 13.6283 26.0763 13.6283C26.1413 13.6283 26.2006 13.6371 26.2573 13.6578C26.3109 13.6786 26.3618 13.7081 26.407 13.7496L26.359 13.9477ZM24.6006 14.3799H24.9087L24.8578 14.1075C24.855 14.0899 24.8521 14.0691 24.8521 14.0483C24.8492 14.0247 24.8492 14.001 24.8492 13.9744C24.8379 14.001 24.8267 14.0246 24.8125 14.0483C24.8011 14.072 24.7899 14.0928 24.7786 14.1106L24.6005 14.3799H24.6006ZM24.9935 14.8504L24.937 14.5427H24.496L24.298 14.8504H24.1087L24.9284 13.6105L25.1828 14.8504H24.9935ZM23.5009 14.8504L23.7723 13.6577H24.3914L24.3546 13.8234H23.9164L23.8486 14.1194H24.2867L24.2471 14.2881H23.809L23.6818 14.8474H23.5008V14.8504H23.5009ZM22.9666 14.1638H23.0005C23.0966 14.1638 23.1617 14.152 23.1984 14.1282C23.2351 14.1045 23.2606 14.0631 23.2747 14.0009C23.2888 13.9358 23.2832 13.8885 23.2549 13.8618C23.2267 13.8352 23.1672 13.8203 23.0768 13.8203H23.0428L22.9665 14.1637L22.9666 14.1638ZM22.9214 14.3148L22.7997 14.8474H22.6301L22.9016 13.6548H23.1532C23.2267 13.6548 23.2832 13.6607 23.32 13.6697C23.3594 13.6786 23.3906 13.6963 23.4132 13.7199C23.4415 13.7496 23.4584 13.785 23.4668 13.8324C23.4754 13.8769 23.4725 13.9271 23.4612 13.9833C23.4386 14.0781 23.4018 14.1551 23.3453 14.2082C23.2888 14.2615 23.218 14.2941 23.1332 14.3059L23.3905 14.8473H23.1869L22.941 14.3147H22.9212L22.9214 14.3148ZM21.8047 14.8504L22.0762 13.6577H22.6981L22.6614 13.8234H22.2232L22.1554 14.1223H22.5935L22.5541 14.2911H22.1158L22.0283 14.6757H22.4664L22.4268 14.8503H21.8048L21.8047 14.8504ZM21.6097 13.8205L21.3751 14.8474H21.1942L21.4289 13.8205H21.1348L21.1716 13.6548H21.9405L21.9039 13.8205H21.6098H21.6097ZM19.7694 14.8504L20.0521 13.6105L20.5892 14.3385C20.6035 14.3592 20.6175 14.38 20.6316 14.4036C20.6457 14.4272 20.6599 14.454 20.6768 14.4834L20.8663 13.6577H21.0331L20.7503 14.8949L20.2019 14.152C20.1878 14.1313 20.1736 14.1106 20.1596 14.0898C20.1454 14.0661 20.1341 14.0453 20.1256 14.0187L19.9363 14.8473H19.7695V14.8503L19.7694 14.8504ZM19.3284 14.8504L19.5998 13.6577H19.7806L19.5093 14.8504H19.3284ZM17.9969 14.6107L18.158 14.5397C18.1607 14.593 18.1749 14.6344 18.2061 14.661C18.2372 14.6876 18.2795 14.7025 18.336 14.7025C18.3897 14.7025 18.435 14.6876 18.4746 14.6552C18.5141 14.6226 18.5397 14.5812 18.5509 14.5279C18.5679 14.4569 18.5283 14.3947 18.4322 14.3415C18.4181 14.3326 18.4097 14.3266 18.401 14.3237C18.2936 14.2586 18.2258 14.2024 18.1975 14.1491C18.1693 14.0959 18.1635 14.0337 18.1806 13.9598C18.2032 13.8621 18.2513 13.7851 18.3275 13.723C18.4039 13.6638 18.4887 13.6313 18.5905 13.6313C18.6725 13.6313 18.7374 13.6491 18.7855 13.6815C18.8336 13.7142 18.859 13.7644 18.8675 13.8266L18.7093 13.9036C18.6951 13.8651 18.6781 13.8385 18.6555 13.8207C18.633 13.803 18.6046 13.7941 18.5707 13.7941C18.5226 13.7941 18.4802 13.8089 18.4463 13.8355C18.4124 13.8621 18.3898 13.8977 18.3785 13.945C18.3616 14.0161 18.4097 14.084 18.5198 14.1462C18.5283 14.1522 18.5339 14.1552 18.5397 14.158C18.6357 14.2113 18.7007 14.2646 18.729 14.3179C18.7573 14.371 18.7629 14.4333 18.7461 14.5132C18.7205 14.6256 18.6669 14.7144 18.5848 14.7825C18.5029 14.8475 18.4067 14.8832 18.2936 14.8832C18.2004 14.8832 18.1269 14.8594 18.076 14.812C18.0194 14.7647 17.994 14.6966 17.9969 14.6108V14.6107ZM17.8075 13.8205L17.5728 14.8474H17.392L17.6266 13.8205H17.3326L17.3692 13.6548H18.1382L18.1014 13.8205H17.8075ZM15.9671 14.8504L16.2498 13.6105L16.787 14.3385C16.8011 14.3592 16.8153 14.38 16.8294 14.4036C16.8434 14.4272 16.8576 14.454 16.8746 14.4834L17.064 13.6577H17.2308L16.9482 14.8949L16.3997 14.152C16.3855 14.1313 16.3715 14.1106 16.3573 14.0898C16.3432 14.0661 16.3318 14.0453 16.3234 14.0187L16.134 14.8473H15.9672V14.8503L15.9671 14.8504ZM15.1416 14.8504L15.413 13.6577H16.0321L15.9954 13.8234H15.5572L15.4894 14.1223H15.9275L15.8879 14.2911H15.4498L15.3622 14.6757H15.8004L15.7607 14.8503H15.1416V14.8504ZM14.842 14.2615C14.842 14.2527 14.8448 14.2259 14.8505 14.1845C14.8534 14.149 14.8561 14.1224 14.859 14.0987C14.8477 14.1254 14.8364 14.152 14.8223 14.1815C14.8081 14.2082 14.7911 14.2378 14.7714 14.2644L14.336 14.9007L14.1947 14.2527C14.189 14.226 14.1834 14.1994 14.1805 14.1757C14.1777 14.1521 14.1748 14.1254 14.1748 14.1017C14.1692 14.1254 14.1607 14.152 14.1523 14.1815C14.1437 14.2082 14.1325 14.2378 14.1183 14.2674L13.8639 14.8534H13.6971L14.2427 13.6105L14.3982 14.3621C14.401 14.374 14.4039 14.3947 14.4068 14.4213C14.4095 14.448 14.4152 14.4835 14.4209 14.5249C14.4407 14.4894 14.4661 14.448 14.5001 14.3947C14.5085 14.38 14.517 14.371 14.5199 14.3621L15.0118 13.6105L14.9948 14.8534H14.828L14.8422 14.2615H14.842ZM13.1205 14.8504L13.2449 14.3059L13.0187 13.6607H13.208L13.3493 14.0662C13.3522 14.078 13.355 14.0899 13.3607 14.1075C13.3663 14.1254 13.3692 14.1431 13.3748 14.1608C13.3861 14.1431 13.3974 14.1253 13.4088 14.1075C13.4201 14.0899 13.4314 14.075 13.4426 14.0602L13.7735 13.6607H13.9543L13.4257 14.3029L13.3013 14.8473H13.1204V14.8503L13.1205 14.8504ZM12.2808 14.3799H12.5889L12.538 14.1075C12.5352 14.0899 12.5324 14.0691 12.5324 14.0483C12.5295 14.0247 12.5295 14.001 12.5295 13.9744C12.5182 14.001 12.5068 14.0246 12.4927 14.0483C12.4814 14.072 12.4702 14.0928 12.4587 14.1106L12.2807 14.3799H12.2808ZM12.6709 14.8504L12.6144 14.5427H12.1733L11.9755 14.8504H11.7861L12.6059 13.6105L12.8603 14.8504H12.6709ZM11.5373 14.155H11.5825C11.6815 14.155 11.7522 14.1431 11.7917 14.1194C11.8313 14.0958 11.8567 14.0544 11.8709 13.9951C11.8849 13.933 11.8765 13.8856 11.8483 13.862C11.8172 13.8354 11.755 13.8235 11.6617 13.8235H11.6165L11.5373 14.1551V14.155ZM11.4892 14.3148L11.3677 14.8504H11.1981L11.4695 13.6577H11.7436C11.8256 13.6577 11.8822 13.6636 11.9189 13.6725C11.9557 13.6813 11.984 13.6962 12.0066 13.7198C12.0348 13.7464 12.0546 13.7849 12.0631 13.8323C12.0716 13.8797 12.0688 13.93 12.0575 13.9861C12.0433 14.0424 12.0236 14.0957 11.9925 14.143C11.9614 14.1904 11.9246 14.2288 11.885 14.2555C11.8512 14.2762 11.8144 14.2939 11.7748 14.3028C11.7353 14.3117 11.6731 14.3177 11.5939 14.3177H11.4893V14.3147L11.4892 14.3148ZM9.80156 14.6728H9.9542C10.0362 14.6728 10.1012 14.6669 10.1465 14.6552C10.1917 14.6434 10.2313 14.6226 10.268 14.596C10.3189 14.5575 10.3613 14.5101 10.3952 14.4509C10.4292 14.3947 10.4546 14.3266 10.4715 14.2497C10.4884 14.1728 10.4941 14.1076 10.4857 14.0516C10.4772 13.9952 10.4574 13.9449 10.4234 13.9064C10.398 13.8769 10.3669 13.8591 10.3246 13.8472C10.2821 13.8354 10.2171 13.8296 10.1238 13.8296H9.99385L9.80156 14.6729V14.6728ZM9.58105 14.8504L9.85253 13.6577H10.0956C10.2539 13.6577 10.3642 13.6666 10.4234 13.6843C10.4829 13.7021 10.5337 13.7288 10.5733 13.7702C10.6242 13.8234 10.6582 13.8916 10.6723 13.9714C10.6864 14.0543 10.6807 14.1489 10.6582 14.2526C10.6326 14.3591 10.596 14.4507 10.5451 14.5336C10.4942 14.6165 10.4292 14.6816 10.3529 14.7349C10.2963 14.7764 10.2341 14.803 10.1663 14.8207C10.1013 14.8385 10.0023 14.8473 9.87221 14.8473H9.58105V14.8503V14.8504ZM8.75276 14.8504L9.02415 13.6577H9.64325L9.60649 13.8234H9.16825L9.10038 14.1223H9.53861L9.49906 14.2911H9.06082L8.97318 14.6757H9.41142L9.37186 14.8503H8.75276V14.8504ZM8.31452 14.8504L8.58591 13.6577H8.76678L8.49538 14.8504H8.31443H8.31452ZM7.49468 14.8504L7.76607 13.6577H8.38518L8.34841 13.8234H7.91027L7.84239 14.1194H8.28054L8.24099 14.2881H7.80275L7.67555 14.8474H7.49459V14.8504H7.49468ZM7.05644 14.8504L7.32784 13.6577H7.5087L7.23731 14.8504H7.05635H7.05644ZM5.80701 14.8504L6.08963 13.6105L6.62675 14.3385C6.64086 14.3592 6.65497 14.38 6.66918 14.4036C6.68329 14.4272 6.6974 14.454 6.7144 14.4834L6.9038 13.6577H7.07056L6.78793 14.8949L6.23949 14.152C6.22537 14.1313 6.21126 14.1106 6.19705 14.0898C6.18294 14.0661 6.17161 14.0453 6.16317 14.0187L5.97376 14.8473H5.80701V14.8503V14.8504Z" fill="#3A3734"/>
<path fill-rule="evenodd" clip-rule="evenodd" d="M23.0855 12.6189H21.8445L23.5689 6.09924H24.8099L23.0855 12.6189ZM12.7728 12.2105C12.7049 12.468 12.4788 12.6485 12.2244 12.6485H5.82703C5.65173 12.6485 5.52175 12.5863 5.43688 12.462C5.35211 12.3376 5.33234 12.1838 5.38322 12.0003L6.9437 6.11703H8.18478L6.79106 11.3729H11.7552L13.1488 6.11703H14.3899L12.7729 12.2105H12.7728ZM22.4409 6.30346C22.3562 6.17914 22.2232 6.11703 22.0424 6.11703H15.2238L14.8874 7.39548H21.0897L20.7279 8.75985H15.7667V8.75684H14.5257L13.4966 12.6486H14.7376L15.4274 10.0383H21.005C21.1803 10.0383 21.3442 9.97609 21.4969 9.85187C21.6495 9.72756 21.7514 9.57369 21.7994 9.39018L22.4891 6.78002C22.5428 6.58475 22.5259 6.42787 22.441 6.30356L22.4409 6.30346Z" fill="#716D6A"/>
<path fill-rule="evenodd" clip-rule="evenodd" d="M26.9527 6.11121L28.5217 9.37843L25.2227 12.6456L25.615 11.1636L27.4192 9.37843L26.5609 7.59105L26.9527 6.11121Z" fill="#0E8635"/>
<path fill-rule="evenodd" clip-rule="evenodd" d="M25.8502 6.11121L27.4191 9.37843L24.1172 12.6456L25.8502 6.11121Z" fill="#E97208"/>
<path d="M3.63603 0.5H29.6137C30.4423 0.5 31.1952 0.85456 31.7407 1.4256C32.2862 1.99673 32.6249 2.78494 32.6249 3.65225V17.3477C32.6249 18.215 32.2861 19.0032 31.7407 19.5743C31.1951 20.1453 30.4422 20.5 29.6138 20.5H3.63613C2.80775 20.5 2.05473 20.1454 1.50916 19.5743C0.963687 19.0033 0.625 18.2152 0.625 17.3477V3.65225C0.625 2.78484 0.963687 1.99663 1.50916 1.4256C2.05463 0.85456 2.80765 0.5 3.63623 0.5H3.63603ZM29.6137 1.58649H3.63603C3.09392 1.58649 2.60068 1.81915 2.24279 2.19381C1.8849 2.56847 1.66266 3.08483 1.66266 3.65235V17.3478C1.66266 17.9153 1.8849 18.4316 2.24279 18.8063C2.60077 19.1811 3.09402 19.4137 3.63603 19.4137H29.6137C30.1556 19.4137 30.6488 19.1811 31.0068 18.8063C31.3647 18.4315 31.587 17.9152 31.587 17.3479V3.65245C31.587 3.08514 31.3648 2.56867 31.0069 2.19391C30.649 1.81925 30.1557 1.58659 29.6137 1.58659V1.58649Z" fill="#808080"/>
</g>
<defs>
<clipPath id="clip0_1017_13027">
<rect width="32" height="20" fill="white" transform="translate(0.625 0.5)"/>
</clipPath>
</defs>
</svg>
