<svg width="56" height="56" viewBox="0 0 56 56" fill="none" xmlns="http://www.w3.org/2000/svg">
<rect width="56" height="56" rx="28" fill="#F9F5FF"/>
<path fill-rule="evenodd" clip-rule="evenodd" d="M16.2944 33.0524H16.4726L16.3057 34.2125C16.2803 34.3831 16.2859 34.5156 16.3198 34.6009C16.3538 34.6861 16.4159 34.7287 16.5092 34.7287C16.5997 34.7287 16.676 34.6861 16.7354 34.6009C16.7947 34.5155 16.8344 34.383 16.8598 34.2125L17.0266 33.0524H17.2075L17.0379 34.241C17.0011 34.4967 16.9362 34.6909 16.8401 34.8188C16.7467 34.9466 16.6223 35.013 16.4697 35.013C16.317 35.013 16.2124 34.9514 16.1559 34.8234C16.0993 34.6956 16.088 34.5015 16.1248 34.2458L16.2944 33.0525V33.0524ZM37.751 34.9607L38.0223 33.0524H38.6414L38.6047 33.3175H38.1665L38.0987 33.7958H38.5369L38.4972 34.0657H38.0591L37.9714 34.6811H38.4097L38.3701 34.9606H37.751V34.9607ZM37.734 33.5164C37.6944 33.4409 37.6464 33.3839 37.5955 33.3507C37.5445 33.3129 37.4881 33.2939 37.423 33.2939C37.3015 33.2939 37.194 33.3601 37.0979 33.4928C37.0018 33.6255 36.9396 33.8007 36.9085 34.0136C36.8802 34.2174 36.8915 34.3878 36.9482 34.5251C37.0018 34.6576 37.0866 34.724 37.1997 34.724C37.2647 34.724 37.3298 34.7051 37.3947 34.6625C37.4598 34.6247 37.5248 34.5629 37.5926 34.4825L37.5417 34.8329C37.4852 34.8943 37.4259 34.9371 37.3636 34.9656C37.3014 34.9939 37.2392 35.0082 37.1714 35.0082C37.0866 35.0082 37.0102 34.9844 36.9452 34.9369C36.8801 34.8897 36.8265 34.8186 36.784 34.724C36.7417 34.634 36.7162 34.5251 36.7049 34.4021C36.6937 34.279 36.6965 34.1465 36.7191 34.0043C36.7389 33.8623 36.7728 33.7342 36.8181 33.6112C36.8633 33.488 36.9226 33.3791 36.9905 33.2892C37.0583 33.1945 37.1318 33.1236 37.211 33.0762C37.2901 33.0289 37.3692 33.0053 37.4513 33.0053C37.5163 33.0053 37.5756 33.0194 37.6323 33.0525C37.6859 33.0858 37.7368 33.1329 37.782 33.1994L37.734 33.5164ZM35.9756 34.2079H36.2837L36.2328 33.7721C36.23 33.7438 36.2271 33.7105 36.2271 33.6774C36.2242 33.6396 36.2242 33.6017 36.2242 33.5591C36.2129 33.6017 36.2017 33.6395 36.1875 33.6774C36.1761 33.7152 36.1649 33.7485 36.1536 33.7769L35.9755 34.2079H35.9756ZM36.3685 34.9607L36.312 34.4684H35.871L35.673 34.9607H35.4837L36.3034 32.9768L36.5578 34.9607H36.3685ZM34.8759 34.9607L35.1473 33.0524H35.7664L35.7297 33.3175H35.2914L35.2236 33.7911H35.6617L35.6221 34.0611H35.184L35.0568 34.9559H34.8758V34.9607H34.8759ZM34.3416 33.8622H34.3755C34.4716 33.8622 34.5367 33.8432 34.5734 33.8052C34.6101 33.7673 34.6356 33.701 34.6497 33.6015C34.6638 33.4973 34.6582 33.4216 34.6299 33.379C34.6017 33.3364 34.5422 33.3126 34.4518 33.3126H34.4178L34.3415 33.862L34.3416 33.8622ZM34.2964 34.1037L34.1747 34.9559H34.0051L34.2766 33.0477H34.5282C34.6017 33.0477 34.6582 33.0572 34.695 33.0715C34.7344 33.0858 34.7656 33.1141 34.7882 33.1519C34.8165 33.1994 34.8334 33.2561 34.8418 33.3318C34.8504 33.4031 34.8475 33.4835 34.8362 33.5734C34.8136 33.725 34.7768 33.8482 34.7203 33.9332C34.6638 34.0185 34.593 34.0706 34.5082 34.0895L34.7655 34.9558H34.5619L34.316 34.1035H34.2962L34.2964 34.1037ZM33.1797 34.9607L33.4512 33.0524H34.0731L34.0364 33.3175H33.5982L33.5304 33.7958H33.9685L33.9291 34.0657H33.4908L33.4033 34.6811H33.8414L33.8018 34.9606H33.1798L33.1797 34.9607ZM32.9847 33.3129L32.7501 34.9559H32.5692L32.8039 33.3129H32.5098L32.5466 33.0477H33.3155L33.2789 33.3129H32.9848H32.9847ZM31.1444 34.9607L31.4271 32.9768L31.9642 34.1416C31.9785 34.1748 31.9925 34.208 32.0066 34.2458C32.0207 34.2836 32.0349 34.3264 32.0518 34.3735L32.2413 33.0524H32.4081L32.1253 35.0318L31.5769 33.8432C31.5628 33.8101 31.5486 33.7769 31.5346 33.7437C31.5204 33.7059 31.5091 33.6726 31.5006 33.63L31.3113 34.9558H31.1445V34.9606L31.1444 34.9607ZM30.7034 34.9607L30.9748 33.0524H31.1556L30.8843 34.9607H30.7034ZM29.3719 34.5772L29.533 34.4635C29.5357 34.5488 29.5499 34.615 29.5811 34.6576C29.6122 34.7002 29.6545 34.724 29.711 34.724C29.7647 34.724 29.81 34.7002 29.8496 34.6483C29.8891 34.5962 29.9147 34.53 29.9259 34.4447C29.9429 34.3311 29.9033 34.2315 29.8072 34.1465C29.7931 34.1321 29.7847 34.1227 29.776 34.118C29.6686 34.0138 29.6008 33.9239 29.5725 33.8387C29.5443 33.7535 29.5385 33.6539 29.5556 33.5357C29.5782 33.3794 29.6263 33.2563 29.7025 33.1569C29.7789 33.0622 29.8637 33.0101 29.9655 33.0101C30.0475 33.0101 30.1124 33.0386 30.1605 33.0905C30.2086 33.1428 30.234 33.2231 30.2425 33.3227L30.0843 33.4459C30.0701 33.3843 30.0531 33.3417 30.0305 33.3132C30.008 33.2849 29.9796 33.2706 29.9457 33.2706C29.8976 33.2706 29.8552 33.2942 29.8213 33.3368C29.7874 33.3794 29.7648 33.4364 29.7535 33.5121C29.7366 33.6258 29.7847 33.7345 29.8948 33.834C29.9033 33.8435 29.9089 33.8483 29.9147 33.8528C30.0107 33.9381 30.0757 34.0234 30.104 34.1087C30.1323 34.1937 30.1379 34.2933 30.1211 34.4211C30.0955 34.601 30.0419 34.743 29.9598 34.852C29.8779 34.9561 29.7817 35.0132 29.6686 35.0132C29.5754 35.0132 29.5019 34.975 29.451 34.8993C29.3944 34.8236 29.369 34.7146 29.3719 34.5774V34.5772ZM29.1825 33.3129L28.9478 34.9559H28.767L29.0016 33.3129H28.7076L28.7442 33.0477H29.5132L29.4764 33.3129H29.1825ZM27.3421 34.9607L27.6248 32.9768L28.162 34.1416C28.1761 34.1748 28.1903 34.208 28.2044 34.2458C28.2184 34.2836 28.2326 34.3264 28.2496 34.3735L28.439 33.0524H28.6058L28.3232 35.0318L27.7747 33.8432C27.7605 33.8101 27.7465 33.7769 27.7323 33.7437C27.7182 33.7059 27.7069 33.6726 27.6984 33.63L27.509 34.9558H27.3422V34.9606L27.3421 34.9607ZM26.5166 34.9607L26.788 33.0524H27.4071L27.3704 33.3175H26.9322L26.8644 33.7958H27.3025L27.2629 34.0657H26.8248L26.7372 34.6811H27.1754L27.1357 34.9606H26.5166V34.9607ZM26.217 34.0185C26.217 34.0043 26.2198 33.9615 26.2255 33.8953C26.2284 33.8385 26.2311 33.7959 26.234 33.758C26.2227 33.8007 26.2114 33.8432 26.1973 33.8905C26.1831 33.9332 26.1661 33.9805 26.1464 34.0231L25.711 35.0411L25.5697 34.0043C25.564 33.9617 25.5584 33.9191 25.5555 33.8811C25.5527 33.8433 25.5498 33.8007 25.5498 33.7628C25.5442 33.8007 25.5357 33.8432 25.5273 33.8905C25.5187 33.9332 25.5075 33.9805 25.4933 34.0279L25.2389 34.9656H25.0721L25.6177 32.9768L25.7732 34.1794C25.776 34.1984 25.7789 34.2315 25.7818 34.2741C25.7845 34.3169 25.7902 34.3737 25.7959 34.4399C25.8157 34.3831 25.8411 34.3169 25.8751 34.2315C25.8835 34.208 25.892 34.1937 25.8949 34.1794L26.3868 32.9768L26.3698 34.9656H26.203L26.2172 34.0185H26.217ZM24.4955 34.9607L24.6199 34.0895L24.3937 33.0572H24.583L24.7243 33.706C24.7272 33.7248 24.73 33.7438 24.7357 33.7721C24.7413 33.8007 24.7442 33.829 24.7498 33.8573C24.7611 33.829 24.7724 33.8006 24.7838 33.7721C24.7951 33.7438 24.8064 33.72 24.8176 33.6964L25.1485 33.0572H25.3293L24.8007 34.0847L24.6763 34.9558H24.4954V34.9606L24.4955 34.9607ZM23.6558 34.2079H23.9639L23.913 33.7721C23.9102 33.7438 23.9074 33.7105 23.9074 33.6774C23.9045 33.6396 23.9045 33.6017 23.9045 33.5591C23.8932 33.6017 23.8818 33.6395 23.8677 33.6774C23.8564 33.7152 23.8452 33.7485 23.8337 33.7769L23.6557 34.2079H23.6558ZM24.0459 34.9607L23.9894 34.4684H23.5483L23.3505 34.9607H23.1611L23.9809 32.9768L24.2353 34.9607H24.0459ZM22.9123 33.848H22.9575C23.0565 33.848 23.1272 33.829 23.1667 33.7911C23.2063 33.7533 23.2317 33.6871 23.2459 33.5922C23.2599 33.4928 23.2515 33.4171 23.2233 33.3793C23.1922 33.3367 23.13 33.3177 23.0367 33.3177H22.9915L22.9123 33.8482V33.848ZM22.8642 34.1037L22.7427 34.9607H22.5731L22.8445 33.0524H23.1186C23.2006 33.0524 23.2572 33.0619 23.2939 33.076C23.3307 33.0902 23.359 33.114 23.3816 33.1518C23.4098 33.1944 23.4296 33.256 23.4381 33.3317C23.4466 33.4076 23.4438 33.488 23.4325 33.5779C23.4183 33.6679 23.3986 33.7531 23.3675 33.8289C23.3364 33.9046 23.2996 33.9662 23.26 34.0088C23.2262 34.0419 23.1894 34.0702 23.1498 34.0845C23.1103 34.0987 23.0481 34.1083 22.9689 34.1083H22.8643V34.1035L22.8642 34.1037ZM21.1766 34.6766H21.3292C21.4112 34.6766 21.4762 34.6671 21.5215 34.6483C21.5667 34.6295 21.6063 34.5962 21.643 34.5536C21.6939 34.492 21.7363 34.4163 21.7702 34.3216C21.8042 34.2315 21.8296 34.1227 21.8465 33.9996C21.8634 33.8765 21.8691 33.7723 21.8607 33.6826C21.8522 33.5923 21.8324 33.5119 21.7984 33.4504C21.773 33.4031 21.7419 33.3746 21.6996 33.3556C21.6571 33.3367 21.5921 33.3273 21.4988 33.3273H21.3688L21.1766 34.6768V34.6766ZM20.956 34.9607L21.2275 33.0524H21.4706C21.6289 33.0524 21.7392 33.0665 21.7984 33.095C21.8579 33.1235 21.9087 33.1661 21.9483 33.2323C21.9992 33.3175 22.0332 33.4266 22.0473 33.5542C22.0614 33.6869 22.0557 33.8384 22.0332 34.0041C22.0076 34.1746 21.971 34.3212 21.9201 34.4537C21.8692 34.5864 21.8042 34.6906 21.7279 34.7758C21.6713 34.8422 21.6091 34.8848 21.5413 34.9131C21.4763 34.9416 21.3773 34.9558 21.2472 34.9558H20.956V34.9606V34.9607ZM20.1278 34.9607L20.3992 33.0524H21.0183L20.9815 33.3175H20.5432L20.4754 33.7958H20.9136L20.8741 34.0657H20.4358L20.3482 34.6811H20.7864L20.7469 34.9606H20.1278V34.9607ZM19.6895 34.9607L19.9609 33.0524H20.1418L19.8704 34.9607H19.6894H19.6895ZM18.8697 34.9607L19.1411 33.0524H19.7602L19.7234 33.3175H19.2853L19.2174 33.7911H19.6555L19.616 34.0611H19.1777L19.0505 34.9559H18.8696V34.9607H18.8697ZM18.4314 34.9607L18.7028 33.0524H18.8837L18.6123 34.9607H18.4313H18.4314ZM17.182 34.9607L17.4646 32.9768L18.0017 34.1416C18.0159 34.1748 18.03 34.208 18.0442 34.2458C18.0583 34.2836 18.0724 34.3264 18.0894 34.3735L18.2788 33.0524H18.4456L18.1629 35.0318L17.6145 33.8432C17.6004 33.8101 17.5863 33.7769 17.5721 33.7437C17.5579 33.7059 17.5466 33.6726 17.5382 33.63L17.3488 34.9558H17.182V34.9606V34.9607Z" fill="#3A3734"/>
<path fill-rule="evenodd" clip-rule="evenodd" d="M34.4605 31.3905H33.2195L34.9439 20.959H36.1849L34.4605 31.3905ZM24.1478 30.737C24.0799 31.1489 23.8538 31.4377 23.5994 31.4377H17.202C17.0267 31.4377 16.8967 31.3382 16.8119 31.1395C16.7271 30.9404 16.7073 30.6942 16.7582 30.4007L18.3187 20.9874H19.5598L18.1661 29.3969H23.1302L24.5238 20.9874H25.7649L24.1479 30.737H24.1478ZM33.8159 21.2857C33.7312 21.0868 33.5982 20.9874 33.4174 20.9874H26.5988L26.2624 23.033H32.4647L32.1029 25.216H27.1417V25.2111H25.9007L24.8716 31.4379H26.1126L26.8024 27.2615H32.38C32.5553 27.2615 32.7192 27.1619 32.8719 26.9632C33.0245 26.7643 33.1264 26.5181 33.1744 26.2245L33.8641 22.0482C33.9178 21.7358 33.9009 21.4848 33.816 21.2859L33.8159 21.2857Z" fill="#716D6A"/>
<path fill-rule="evenodd" clip-rule="evenodd" d="M38.3277 20.9778L39.8967 26.2053L36.5977 31.4329L36.99 29.0616L38.7942 26.2053L37.9359 23.3455L38.3277 20.9778Z" fill="#0E8635"/>
<path fill-rule="evenodd" clip-rule="evenodd" d="M37.2252 20.9778L38.7941 26.2053L35.4922 31.4329L37.2252 20.9778Z" fill="#E97208"/>
<path d="M15.011 12H40.9887C41.8173 12 42.5702 12.5673 43.1157 13.481C43.6612 14.3948 43.9999 15.6559 43.9999 17.0436V38.9564C43.9999 40.3439 43.6611 41.6051 43.1157 42.5189C42.5701 43.4325 41.8172 44 40.9888 44H15.0111C14.1827 44 13.4297 43.4327 12.8842 42.5189C12.3387 41.6052 12 40.3443 12 38.9564V17.0436C12 15.6558 12.3387 14.3946 12.8842 13.481C13.4296 12.5673 14.1827 12 15.0112 12H15.011ZM40.9887 13.7384H15.011C14.4689 13.7384 13.9757 14.1106 13.6178 14.7101C13.2599 15.3096 13.0377 16.1357 13.0377 17.0438V38.9566C13.0377 39.8644 13.2599 40.6906 13.6178 41.2901C13.9758 41.8897 14.469 42.2619 15.011 42.2619H40.9887C41.5306 42.2619 42.0238 41.8897 42.3818 41.2901C42.7397 40.6905 42.9621 39.8643 42.9621 38.9567V17.0439C42.9621 16.1362 42.7398 15.3099 42.3819 14.7103C42.024 14.1108 41.5307 13.7386 40.9887 13.7386V13.7384Z" fill="#808080"/>
</svg>
