<svg width="327" height="184" viewBox="0 0 327 184" fill="none" xmlns="http://www.w3.org/2000/svg">
<rect width="327" height="184" rx="20" fill="#FFA500"/>
<mask id="mask0_1953_19478" style="mask-type:alpha" maskUnits="userSpaceOnUse" x="0" y="0" width="327" height="184">
<rect width="327" height="184" rx="20" fill="#2567F9"/>
</mask>
<g mask="url(#mask0_1953_19478)">
<path d="M331.184 -12.1307C331.184 -2.8427 337.884 4.68688 346.15 4.68688C354.415 4.68688 361.116 -2.8427 361.116 -12.1307V-31.1346" stroke="white" stroke-opacity="0.1" stroke-width="12" stroke-linecap="round" stroke-linejoin="round"/>
<path d="M358.871 244.796C362.185 244.796 364.871 242.11 364.871 238.796C364.871 235.482 362.185 232.796 358.871 232.796V244.796ZM332.586 290.39C335.9 290.39 338.586 287.704 338.586 284.39C338.586 281.076 335.9 278.39 332.586 278.39V290.39ZM282.504 369.742C285.818 369.742 288.504 367.055 288.504 363.742C288.504 360.428 285.818 357.742 282.504 357.742V369.742ZM338.719 308.064C338.719 304.75 336.033 302.064 332.719 302.064C329.405 302.064 326.719 304.75 326.719 308.064H338.719ZM294.221 133.14C294.221 129.827 291.534 127.14 288.221 127.14C284.907 127.14 282.221 129.827 282.221 133.14H294.221ZM352.871 214.684C352.871 217.997 355.557 220.684 358.871 220.684C362.184 220.684 364.871 217.997 364.871 214.684H352.871ZM358.871 238.796V232.796H314.113V238.796V244.796H358.871V238.796ZM314.113 238.796V232.796C298.915 232.796 287.686 246.325 287.686 261.593H293.686H299.686C299.686 251.68 306.747 244.796 314.113 244.796V238.796ZM293.686 261.593H287.686C287.686 276.861 298.915 290.39 314.113 290.39V284.39V278.39C306.747 278.39 299.686 271.506 299.686 261.593H293.686ZM314.113 284.39V290.39H332.586V284.39V278.39H314.113V284.39ZM282.504 363.742V357.742H279.836V363.742V369.742H282.504V363.742ZM279.836 363.742V357.742C275.914 357.742 271.582 353.933 271.582 347.733H265.582H259.582C259.582 359.211 268.013 369.742 279.836 369.742V363.742ZM265.582 347.733H271.582C271.582 341.528 275.915 337.72 279.836 337.72V331.72V325.72C268.013 325.72 259.582 336.251 259.582 347.733H265.582ZM279.836 331.72V337.72H311.659V331.72V325.72H279.836V331.72ZM311.659 331.72V337.72C327.24 337.72 338.719 323.769 338.719 308.064H332.719H326.719C326.719 318.491 319.34 325.72 311.659 325.72V331.72ZM288.221 133.14H282.221V151.131H288.221H294.221V133.14H288.221ZM288.221 151.131H282.221C282.221 175.684 300.086 196.809 323.546 196.809V190.809V184.809C307.986 184.809 294.221 170.406 294.221 151.131H288.221ZM323.546 190.809V196.809H337.615V190.809V184.809H323.546V190.809ZM337.615 190.809V196.809C345.404 196.809 352.871 204.137 352.871 214.684H358.871H364.871C364.871 198.859 353.305 184.809 337.615 184.809V190.809Z" fill="white" fill-opacity="0.1"/>
<path fill-rule="evenodd" clip-rule="evenodd" d="M337.669 89.763C343.179 89.763 347.646 84.7511 347.646 78.5687C347.646 72.3863 343.179 67.3745 337.669 67.3745C332.158 67.3745 327.691 72.3863 327.691 78.5687C327.691 84.7511 332.158 89.763 337.669 89.763Z" stroke="white" stroke-opacity="0.1" stroke-width="12" stroke-linecap="round" stroke-linejoin="round"/>
<path fill-rule="evenodd" clip-rule="evenodd" d="M236.896 58.1391C245.575 58.1391 252.611 50.2455 252.611 40.5082C252.611 30.7709 245.575 22.8773 236.896 22.8773C228.217 22.8773 221.182 30.7709 221.182 40.5082C221.182 50.2455 228.217 58.1391 236.896 58.1391Z" stroke="white" stroke-opacity="0.1" stroke-width="12" stroke-linecap="round" stroke-linejoin="round"/>
<path d="M237.02 78.8485C256.376 78.8485 272.066 61.4951 272.066 40.0885C272.066 18.6819 256.376 1.32849 237.02 1.32849C217.665 1.32849 201.975 18.6819 201.975 40.0885" stroke="white" stroke-opacity="0.1" stroke-width="12" stroke-linecap="round" stroke-linejoin="round"/>
<path d="M272.94 84.4456C265.019 84.4456 258.598 91.6499 258.598 100.537C258.598 109.425 265.019 116.629 272.94 116.629C280.862 116.629 287.283 109.425 287.283 100.537V84.4456" stroke="white" stroke-opacity="0.1" stroke-width="12" stroke-linecap="round" stroke-linejoin="round"/>
<path d="M277.305 -9.72568C277.305 2.09809 285.792 11.6833 296.262 11.6833C306.732 11.6833 315.219 2.09809 315.219 -9.72568C315.219 -21.5495 306.732 -31.1346 296.262 -31.1346H277.305" stroke="white" stroke-opacity="0.1" stroke-width="12" stroke-linecap="round" stroke-linejoin="round"/>
<path d="M208.834 211.103C199.673 211.103 192.246 202.86 192.246 192.691C192.246 182.523 199.673 174.279 208.834 174.279C217.995 174.279 225.421 182.523 225.421 192.691V249.001" stroke="white" stroke-opacity="0.1" stroke-width="12" stroke-linecap="round" stroke-linejoin="round"/>
<path d="M206.589 127.741C198.667 127.741 192.246 134.839 192.246 143.594C192.246 152.349 198.667 159.447 206.589 159.447C214.51 159.447 220.931 152.349 220.931 143.594V78.8484" stroke="white" stroke-opacity="0.1" stroke-width="12" stroke-linecap="round" stroke-linejoin="round"/>
<path d="M362.788 78.8483C362.788 62.9288 351.47 50.0232 337.507 50.0232C323.545 50.0232 312.227 62.9288 312.227 78.8483C312.227 94.7679 323.545 107.673 337.507 107.673H403.77" stroke="white" stroke-opacity="0.1" stroke-width="12" stroke-linecap="round" stroke-linejoin="round"/>
<path fill-rule="evenodd" clip-rule="evenodd" d="M257.474 212.34C249.278 212.34 242.633 204.897 242.633 195.716V148.365C242.633 139.184 249.278 131.741 257.474 131.741V131.741C265.671 131.741 272.316 139.184 272.316 148.365V195.716C272.316 204.897 265.671 212.34 257.474 212.34V212.34Z" stroke="white" stroke-opacity="0.1" stroke-width="12" stroke-linecap="round" stroke-linejoin="round"/>
<path d="M337.169 164.764H324.9C316.66 164.764 309.98 157.246 309.98 147.973C309.98 138.699 316.66 131.181 324.9 131.181H349.438C357.678 131.181 364.358 138.699 364.358 147.973V149.464C364.358 157.914 358.271 164.764 350.763 164.764" stroke="white" stroke-opacity="0.1" stroke-width="12" stroke-linecap="round" stroke-linejoin="round"/>
<path d="M359.37 25.3962H325.776C304.517 25.3962 287.283 44.817 287.283 68.7739" stroke="white" stroke-opacity="0.1" stroke-width="12" stroke-linecap="round" stroke-linejoin="round"/>
<path d="M202.099 59.8184C202.099 62.4247 202.099 95.2334 202.099 111.312" stroke="white" stroke-opacity="0.1" stroke-width="12" stroke-linecap="round" stroke-linejoin="round"/>
</g>
<path d="M24.0795 120H23.0227C22.9602 119.696 22.8509 119.429 22.6946 119.199C22.5412 118.969 22.3537 118.776 22.1321 118.619C21.9134 118.46 21.6705 118.341 21.4034 118.261C21.1364 118.182 20.858 118.142 20.5682 118.142C20.0398 118.142 19.5611 118.276 19.1321 118.543C18.706 118.81 18.3665 119.203 18.1136 119.723C17.8636 120.243 17.7386 120.881 17.7386 121.636C17.7386 122.392 17.8636 123.03 18.1136 123.55C18.3665 124.07 18.706 124.463 19.1321 124.73C19.5611 124.997 20.0398 125.131 20.5682 125.131C20.858 125.131 21.1364 125.091 21.4034 125.011C21.6705 124.932 21.9134 124.814 22.1321 124.658C22.3537 124.499 22.5412 124.304 22.6946 124.074C22.8509 123.841 22.9602 123.574 23.0227 123.273H24.0795C24 123.719 23.8551 124.118 23.6449 124.47C23.4347 124.822 23.1733 125.122 22.8608 125.369C22.5483 125.614 22.1974 125.8 21.8082 125.928C21.4219 126.055 21.0085 126.119 20.5682 126.119C19.8239 126.119 19.1619 125.938 18.5824 125.574C18.0028 125.21 17.5469 124.693 17.2145 124.023C16.8821 123.352 16.7159 122.557 16.7159 121.636C16.7159 120.716 16.8821 119.92 17.2145 119.25C17.5469 118.58 18.0028 118.062 18.5824 117.699C19.1619 117.335 19.8239 117.153 20.5682 117.153C21.0085 117.153 21.4219 117.217 21.8082 117.345C22.1974 117.473 22.5483 117.661 22.8608 117.908C23.1733 118.152 23.4347 118.45 23.6449 118.803C23.8551 119.152 24 119.551 24.0795 120ZM28.7771 126.153C28.3623 126.153 27.9859 126.075 27.6478 125.919C27.3097 125.76 27.0413 125.531 26.8424 125.233C26.6435 124.932 26.5441 124.568 26.5441 124.142C26.5441 123.767 26.618 123.463 26.7657 123.23C26.9134 122.994 27.1109 122.81 27.358 122.676C27.6052 122.543 27.8779 122.443 28.1762 122.378C28.4773 122.31 28.7799 122.256 29.0839 122.216C29.4816 122.165 29.804 122.126 30.0512 122.101C30.3012 122.072 30.483 122.026 30.5967 121.96C30.7131 121.895 30.7714 121.781 30.7714 121.619V121.585C30.7714 121.165 30.6563 120.838 30.4262 120.605C30.1989 120.372 29.8538 120.256 29.3907 120.256C28.9106 120.256 28.5342 120.361 28.2614 120.571C27.9887 120.781 27.7969 121.006 27.6862 121.244L26.7316 120.903C26.9021 120.506 27.1293 120.196 27.4134 119.974C27.7004 119.75 28.0129 119.594 28.3509 119.506C28.6918 119.415 29.0271 119.369 29.3566 119.369C29.5668 119.369 29.8083 119.395 30.081 119.446C30.3566 119.494 30.6222 119.595 30.8779 119.749C31.1364 119.902 31.3509 120.134 31.5214 120.443C31.6918 120.753 31.7771 121.168 31.7771 121.688V126H30.7714V125.114H30.7202C30.6521 125.256 30.5384 125.408 30.3793 125.57C30.2202 125.732 30.0086 125.869 29.7444 125.983C29.4802 126.097 29.1577 126.153 28.7771 126.153ZM28.9305 125.25C29.3282 125.25 29.6634 125.172 29.9362 125.016C30.2117 124.859 30.4191 124.658 30.5583 124.411C30.7004 124.163 30.7714 123.903 30.7714 123.631V122.71C30.7288 122.761 30.635 122.808 30.4901 122.851C30.3481 122.891 30.1833 122.926 29.9958 122.957C29.8112 122.986 29.6308 123.011 29.4546 123.034C29.2813 123.054 29.1407 123.071 29.0327 123.085C28.7714 123.119 28.5271 123.175 28.2998 123.251C28.0754 123.325 27.8935 123.437 27.7543 123.588C27.618 123.736 27.5498 123.937 27.5498 124.193C27.5498 124.543 27.679 124.807 27.9376 124.986C28.1989 125.162 28.5299 125.25 28.9305 125.25ZM34.8126 126V119.455H35.7842V120.443H35.8524C35.9717 120.119 36.1876 119.857 36.5001 119.655C36.8126 119.453 37.1649 119.352 37.557 119.352C37.6308 119.352 37.7232 119.354 37.8339 119.357C37.9447 119.359 38.0286 119.364 38.0854 119.369V120.392C38.0513 120.384 37.9732 120.371 37.851 120.354C37.7317 120.334 37.6053 120.324 37.4717 120.324C37.1536 120.324 36.8695 120.391 36.6195 120.524C36.3723 120.655 36.1763 120.837 36.0314 121.07C35.8893 121.3 35.8183 121.562 35.8183 121.858V126H34.8126ZM42.7499 126.136C42.2044 126.136 41.7229 125.999 41.3053 125.723C40.8876 125.445 40.5609 125.053 40.3251 124.547C40.0893 124.038 39.9714 123.438 39.9714 122.744C39.9714 122.057 40.0893 121.46 40.3251 120.955C40.5609 120.449 40.8891 120.058 41.3095 119.783C41.73 119.507 42.2158 119.369 42.7669 119.369C43.193 119.369 43.5297 119.44 43.7768 119.582C44.0268 119.722 44.2172 119.881 44.3479 120.06C44.4814 120.236 44.5851 120.381 44.6589 120.494H44.7442V117.273H45.7499V126H44.7783V124.994H44.6589C44.5851 125.114 44.48 125.264 44.3436 125.446C44.2072 125.625 44.0126 125.786 43.7598 125.928C43.507 126.067 43.1703 126.136 42.7499 126.136ZM42.8862 125.233C43.2896 125.233 43.6305 125.128 43.9089 124.918C44.1874 124.705 44.399 124.411 44.5439 124.036C44.6888 123.658 44.7612 123.222 44.7612 122.727C44.7612 122.239 44.6902 121.811 44.5482 121.445C44.4061 121.075 44.1959 120.788 43.9175 120.584C43.6391 120.376 43.2953 120.273 42.8862 120.273C42.4601 120.273 42.105 120.382 41.8209 120.601C41.5396 120.817 41.328 121.111 41.1859 121.483C41.0467 121.852 40.9771 122.267 40.9771 122.727C40.9771 123.193 41.0482 123.616 41.1902 123.997C41.3351 124.375 41.5482 124.676 41.8294 124.901C42.1135 125.122 42.4658 125.233 42.8862 125.233ZM60.5632 117.273V126H59.5405L54.7848 119.148H54.6996V126H53.6428V117.273H54.6655L59.4382 124.142H59.5234V117.273H60.5632ZM65.6677 126.153C65.2529 126.153 64.8765 126.075 64.5384 125.919C64.2004 125.76 63.9319 125.531 63.733 125.233C63.5342 124.932 63.4347 124.568 63.4347 124.142C63.4347 123.767 63.5086 123.463 63.6563 123.23C63.804 122.994 64.0015 122.81 64.2487 122.676C64.4958 122.543 64.7685 122.443 65.0668 122.378C65.368 122.31 65.6705 122.256 65.9745 122.216C66.3722 122.165 66.6947 122.126 66.9418 122.101C67.1918 122.072 67.3737 122.026 67.4873 121.96C67.6038 121.895 67.662 121.781 67.662 121.619V121.585C67.662 121.165 67.5469 120.838 67.3168 120.605C67.0896 120.372 66.7444 120.256 66.2813 120.256C65.8012 120.256 65.4248 120.361 65.1521 120.571C64.8793 120.781 64.6876 121.006 64.5768 121.244L63.6222 120.903C63.7927 120.506 64.02 120.196 64.304 119.974C64.591 119.75 64.9035 119.594 65.2415 119.506C65.5825 119.415 65.9177 119.369 66.2472 119.369C66.4575 119.369 66.6989 119.395 66.9717 119.446C67.2472 119.494 67.5129 119.595 67.7685 119.749C68.0271 119.902 68.2415 120.134 68.412 120.443C68.5825 120.753 68.6677 121.168 68.6677 121.688V126H67.662V125.114H67.6109C67.5427 125.256 67.429 125.408 67.27 125.57C67.1109 125.732 66.8992 125.869 66.635 125.983C66.3708 126.097 66.0484 126.153 65.6677 126.153ZM65.8211 125.25C66.2188 125.25 66.554 125.172 66.8268 125.016C67.1023 124.859 67.3097 124.658 67.4489 124.411C67.591 124.163 67.662 123.903 67.662 123.631V122.71C67.6194 122.761 67.5256 122.808 67.3808 122.851C67.2387 122.891 67.0739 122.926 66.8864 122.957C66.7018 122.986 66.5214 123.011 66.3452 123.034C66.1719 123.054 66.0313 123.071 65.9234 123.085C65.662 123.119 65.4177 123.175 65.1904 123.251C64.966 123.325 64.7842 123.437 64.645 123.588C64.5086 123.736 64.4404 123.937 64.4404 124.193C64.4404 124.543 64.5697 124.807 64.8282 124.986C65.0896 125.162 65.4205 125.25 65.8211 125.25ZM71.7033 126V119.455H72.6749V120.477H72.7601C72.8965 120.128 73.1166 119.857 73.4206 119.663C73.7246 119.467 74.0896 119.369 74.5158 119.369C74.9476 119.369 75.307 119.467 75.5939 119.663C75.8837 119.857 76.1095 120.128 76.2715 120.477H76.3396C76.5072 120.139 76.7587 119.871 77.0939 119.672C77.4291 119.47 77.8311 119.369 78.2999 119.369C78.8851 119.369 79.3638 119.553 79.7359 119.919C80.1081 120.283 80.2942 120.849 80.2942 121.619V126H79.2885V121.619C79.2885 121.136 79.1564 120.791 78.8922 120.584C78.628 120.376 78.3169 120.273 77.959 120.273C77.4987 120.273 77.1422 120.412 76.8893 120.69C76.6365 120.966 76.5101 121.315 76.5101 121.739V126H75.4874V121.517C75.4874 121.145 75.3666 120.845 75.1251 120.618C74.8837 120.388 74.5726 120.273 74.1919 120.273C73.9305 120.273 73.6862 120.342 73.459 120.482C73.2345 120.621 73.0527 120.814 72.9135 121.061C72.7771 121.305 72.709 121.588 72.709 121.909V126H71.7033ZM86.0773 126.136C85.4466 126.136 84.9026 125.997 84.4452 125.719C83.9906 125.438 83.6398 125.045 83.3926 124.543C83.1483 124.037 83.0261 123.449 83.0261 122.778C83.0261 122.108 83.1483 121.517 83.3926 121.006C83.6398 120.491 83.9835 120.091 84.4239 119.804C84.867 119.514 85.3841 119.369 85.975 119.369C86.3159 119.369 86.6526 119.426 86.9849 119.54C87.3173 119.653 87.6199 119.838 87.8926 120.094C88.1653 120.347 88.3827 120.682 88.5446 121.099C88.7065 121.517 88.7875 122.031 88.7875 122.642V123.068H83.742V122.199H87.7648C87.7648 121.83 87.6909 121.5 87.5432 121.21C87.3983 120.92 87.1909 120.692 86.921 120.524C86.654 120.357 86.3386 120.273 85.975 120.273C85.5744 120.273 85.2278 120.372 84.9352 120.571C84.6455 120.767 84.4224 121.023 84.2662 121.338C84.1099 121.653 84.0318 121.991 84.0318 122.352V122.932C84.0318 123.426 84.117 123.845 84.2875 124.189C84.4608 124.53 84.7009 124.79 85.0077 124.969C85.3145 125.145 85.671 125.233 86.0773 125.233C86.3415 125.233 86.5801 125.196 86.7932 125.122C87.0091 125.045 87.1952 124.932 87.3514 124.781C87.5077 124.628 87.6284 124.437 87.7136 124.21L88.6852 124.483C88.583 124.812 88.4111 125.102 88.1696 125.352C87.9281 125.599 87.6298 125.793 87.2747 125.932C86.9196 126.068 86.5205 126.136 86.0773 126.136Z" fill="white"/>
<path d="M18.3864 155.325C18.0426 155.325 17.7287 155.241 17.4446 155.073C17.1605 154.903 16.9332 154.675 16.7628 154.391C16.5952 154.107 16.5114 153.793 16.5114 153.45C16.5114 153.103 16.5952 152.789 16.7628 152.508C16.9332 152.224 17.1605 151.998 17.4446 151.83C17.7287 151.66 18.0426 151.575 18.3864 151.575C18.733 151.575 19.0469 151.66 19.3281 151.83C19.6122 151.998 19.8381 152.224 20.0057 152.508C20.1761 152.789 20.2614 153.103 20.2614 153.45C20.2614 153.793 20.1761 154.107 20.0057 154.391C19.8381 154.675 19.6122 154.903 19.3281 155.073C19.0469 155.241 18.733 155.325 18.3864 155.325ZM26.0025 155.325C25.6588 155.325 25.3448 155.241 25.0608 155.073C24.7767 154.903 24.5494 154.675 24.3789 154.391C24.2113 154.107 24.1275 153.793 24.1275 153.45C24.1275 153.103 24.2113 152.789 24.3789 152.508C24.5494 152.224 24.7767 151.998 25.0608 151.83C25.3448 151.66 25.6588 151.575 26.0025 151.575C26.3491 151.575 26.663 151.66 26.9443 151.83C27.2284 151.998 27.4542 152.224 27.6218 152.508C27.7923 152.789 27.8775 153.103 27.8775 153.45C27.8775 153.793 27.7923 154.107 27.6218 154.391C27.4542 154.675 27.2284 154.903 26.9443 155.073C26.663 155.241 26.3491 155.325 26.0025 155.325ZM33.6187 155.325C33.2749 155.325 32.961 155.241 32.6769 155.073C32.3928 154.903 32.1656 154.675 31.9951 154.391C31.8275 154.107 31.7437 153.793 31.7437 153.45C31.7437 153.103 31.8275 152.789 31.9951 152.508C32.1656 152.224 32.3928 151.998 32.6769 151.83C32.961 151.66 33.2749 151.575 33.6187 151.575C33.9653 151.575 34.2792 151.66 34.5604 151.83C34.8445 151.998 35.0704 152.224 35.238 152.508C35.4084 152.789 35.4937 153.103 35.4937 153.45C35.4937 153.793 35.4084 154.107 35.238 154.391C35.0704 154.675 34.8445 154.903 34.5604 155.073C34.2792 155.241 33.9653 155.325 33.6187 155.325ZM41.2348 155.325C40.8911 155.325 40.5772 155.241 40.2931 155.073C40.009 154.903 39.7817 154.675 39.6113 154.391C39.4436 154.107 39.3598 153.793 39.3598 153.45C39.3598 153.103 39.4436 152.789 39.6113 152.508C39.7817 152.224 40.009 151.998 40.2931 151.83C40.5772 151.66 40.8911 151.575 41.2348 151.575C41.5814 151.575 41.8953 151.66 42.1766 151.83C42.4607 151.998 42.6865 152.224 42.8542 152.508C43.0246 152.789 43.1098 153.103 43.1098 153.45C43.1098 153.793 43.0246 154.107 42.8542 154.391C42.6865 154.675 42.4607 154.903 42.1766 155.073C41.8953 155.241 41.5814 155.325 41.2348 155.325Z" fill="white"/>
<path d="M55.3864 155.325C55.0426 155.325 54.7287 155.241 54.4446 155.073C54.1605 154.903 53.9332 154.675 53.7628 154.391C53.5952 154.107 53.5114 153.793 53.5114 153.45C53.5114 153.103 53.5952 152.789 53.7628 152.508C53.9332 152.224 54.1605 151.998 54.4446 151.83C54.7287 151.66 55.0426 151.575 55.3864 151.575C55.733 151.575 56.0469 151.66 56.3281 151.83C56.6122 151.998 56.8381 152.224 57.0057 152.508C57.1761 152.789 57.2614 153.103 57.2614 153.45C57.2614 153.793 57.1761 154.107 57.0057 154.391C56.8381 154.675 56.6122 154.903 56.3281 155.073C56.0469 155.241 55.733 155.325 55.3864 155.325ZM63.0025 155.325C62.6588 155.325 62.3448 155.241 62.0608 155.073C61.7767 154.903 61.5494 154.675 61.3789 154.391C61.2113 154.107 61.1275 153.793 61.1275 153.45C61.1275 153.103 61.2113 152.789 61.3789 152.508C61.5494 152.224 61.7767 151.998 62.0608 151.83C62.3448 151.66 62.6588 151.575 63.0025 151.575C63.3491 151.575 63.663 151.66 63.9443 151.83C64.2284 151.998 64.4542 152.224 64.6218 152.508C64.7923 152.789 64.8775 153.103 64.8775 153.45C64.8775 153.793 64.7923 154.107 64.6218 154.391C64.4542 154.675 64.2284 154.903 63.9443 155.073C63.663 155.241 63.3491 155.325 63.0025 155.325ZM70.6187 155.325C70.2749 155.325 69.961 155.241 69.6769 155.073C69.3928 154.903 69.1656 154.675 68.9951 154.391C68.8275 154.107 68.7437 153.793 68.7437 153.45C68.7437 153.103 68.8275 152.789 68.9951 152.508C69.1656 152.224 69.3928 151.998 69.6769 151.83C69.961 151.66 70.2749 151.575 70.6187 151.575C70.9653 151.575 71.2792 151.66 71.5604 151.83C71.8445 151.998 72.0704 152.224 72.238 152.508C72.4084 152.789 72.4937 153.103 72.4937 153.45C72.4937 153.793 72.4084 154.107 72.238 154.391C72.0704 154.675 71.8445 154.903 71.5604 155.073C71.2792 155.241 70.9653 155.325 70.6187 155.325ZM78.2348 155.325C77.8911 155.325 77.5772 155.241 77.2931 155.073C77.009 154.903 76.7817 154.675 76.6113 154.391C76.4436 154.107 76.3598 153.793 76.3598 153.45C76.3598 153.103 76.4436 152.789 76.6113 152.508C76.7817 152.224 77.009 151.998 77.2931 151.83C77.5772 151.66 77.8911 151.575 78.2348 151.575C78.5814 151.575 78.8953 151.66 79.1766 151.83C79.4607 151.998 79.6865 152.224 79.8542 152.508C80.0246 152.789 80.1098 153.103 80.1098 153.45C80.1098 153.793 80.0246 154.107 79.8542 154.391C79.6865 154.675 79.4607 154.903 79.1766 155.073C78.8953 155.241 78.5814 155.325 78.2348 155.325Z" fill="white"/>
<path d="M55.2607 17.9512C57.4927 17.9512 59.6345 18.8836 59.6641 18.8965L58.9658 23.5518C56.8707 22.221 52.1025 21.907 52.1025 24.3574C52.1034 26.8075 58.9355 27.3328 58.9355 32.9688C58.9354 38.3955 53.8942 40.3906 50.5537 40.3906C47.2132 40.3906 45.0273 39.165 45.0273 39.165L45.7559 34.2988C47.7601 36.1536 53.8338 36.6801 53.834 33.7393C53.834 30.7982 47.0618 30.7285 47.0615 25.1279C47.0615 19.1765 52.831 17.9513 55.2607 17.9512ZM23.8066 18.3389C25.9299 18.3389 26.1289 20.292 26.1289 20.292L27.7764 30.04L28.3281 33.249L32.9961 18.3389H38.2646L30.4756 40.0176H25.375L21.1211 21.1846C18.3601 19.2722 16 18.7061 16 18.7061L16.0908 18.3389H23.8066ZM42.0107 40.0166H37.1143L40.1748 18.3389H45.0713L42.0107 40.0166ZM76 40.0166H71.5049L70.9307 36.7969H64.707L63.6865 40.0166H58.583L65.8848 19.9541C65.8856 19.951 66.3289 18.3389 68.1445 18.3389H72.0801L76 40.0166ZM66.1172 32.3486H70.1367L68.6895 24.2363L66.1172 32.3486Z" fill="white"/>
<path d="M17.4091 68.3901V56.7538H21.3409C22.2538 56.7538 23 56.9185 23.5795 57.2481C24.1629 57.5738 24.5947 58.0151 24.875 58.572C25.1553 59.1288 25.2955 59.75 25.2955 60.4356C25.2955 61.1212 25.1553 61.7443 24.875 62.3049C24.5985 62.8655 24.1705 63.3125 23.5909 63.6458C23.0114 63.9754 22.2689 64.1401 21.3636 64.1401H18.5455V62.8901H21.3182C21.9432 62.8901 22.4451 62.7822 22.8239 62.5663C23.2027 62.3504 23.4773 62.0587 23.6477 61.6913C23.822 61.3201 23.9091 60.9015 23.9091 60.4356C23.9091 59.9697 23.822 59.553 23.6477 59.1856C23.4773 58.8182 23.2008 58.5303 22.8182 58.322C22.4356 58.1098 21.928 58.0038 21.2955 58.0038H18.8182V68.3901H17.4091ZM29.0284 56.7538V68.3901H27.6875V56.7538H29.0284ZM34.3566 68.5947C33.8035 68.5947 33.3017 68.4905 32.8509 68.2822C32.4001 68.0701 32.0422 67.7651 31.777 67.3674C31.5119 66.9659 31.3793 66.481 31.3793 65.9129C31.3793 65.4129 31.4778 65.0076 31.6748 64.697C31.8717 64.3826 32.135 64.1363 32.4645 63.9583C32.7941 63.7803 33.1577 63.6477 33.5554 63.5606C33.957 63.4697 34.3604 63.3977 34.7657 63.3447C35.296 63.2765 35.7259 63.2254 36.0554 63.1913C36.3888 63.1534 36.6312 63.0909 36.7827 63.0038C36.938 62.9167 37.0157 62.7651 37.0157 62.5492V62.5038C37.0157 61.9432 36.8623 61.5076 36.5554 61.197C36.2524 60.8863 35.7922 60.731 35.1748 60.731C34.5346 60.731 34.0327 60.8712 33.6691 61.1515C33.3054 61.4318 33.0498 61.731 32.902 62.0492L31.6293 61.5947C31.8566 61.0644 32.1596 60.6515 32.5384 60.356C32.921 60.0568 33.3376 59.8485 33.7884 59.731C34.2429 59.6098 34.6899 59.5492 35.1293 59.5492C35.4096 59.5492 35.7316 59.5833 36.0952 59.6515C36.4626 59.7159 36.8168 59.8504 37.1577 60.0549C37.5024 60.2595 37.7884 60.5682 38.0157 60.981C38.2429 61.3939 38.3566 61.947 38.3566 62.6401V68.3901H37.0157V67.2083H36.9475C36.8566 67.3977 36.7051 67.6004 36.4929 67.8163C36.2808 68.0322 35.9986 68.2159 35.6464 68.3674C35.2941 68.5189 34.8642 68.5947 34.3566 68.5947ZM34.5611 67.3901C35.0914 67.3901 35.5384 67.286 35.902 67.0776C36.2695 66.8693 36.546 66.6004 36.7316 66.2708C36.921 65.9413 37.0157 65.5947 37.0157 65.231V64.0038C36.9589 64.072 36.8339 64.1345 36.6407 64.1913C36.4513 64.2443 36.2316 64.2917 35.9816 64.3333C35.7354 64.3712 35.4948 64.4053 35.26 64.4356C35.0289 64.4621 34.8414 64.4848 34.6975 64.5038C34.349 64.5492 34.0232 64.6231 33.7202 64.7254C33.421 64.8238 33.1785 64.9735 32.9929 65.1742C32.8111 65.3712 32.7202 65.6401 32.7202 65.981C32.7202 66.447 32.8926 66.7992 33.2373 67.0379C33.5857 67.2727 34.027 67.3901 34.5611 67.3901ZM44.9035 59.6629V60.7992H40.3808V59.6629H44.9035ZM41.6989 57.572H43.0398V65.8901C43.0398 66.2689 43.0948 66.553 43.2046 66.7424C43.3183 66.928 43.4622 67.053 43.6364 67.1174C43.8145 67.178 44.002 67.2083 44.1989 67.2083C44.3467 67.2083 44.4679 67.2007 44.5626 67.1856C44.6573 67.1667 44.733 67.1515 44.7898 67.1401L45.0626 68.3447C44.9717 68.3788 44.8448 68.4129 44.6819 68.447C44.519 68.4848 44.3126 68.5038 44.0626 68.5038C43.6838 68.5038 43.3126 68.4223 42.9489 68.2595C42.5891 68.0966 42.2898 67.8485 42.0512 67.5151C41.8164 67.1818 41.6989 66.7613 41.6989 66.2538V57.572ZM47.2245 68.3901V59.6629H48.5654V68.3901H47.2245ZM47.9063 58.2083C47.645 58.2083 47.4196 58.1193 47.2302 57.9413C47.0446 57.7632 46.9518 57.5492 46.9518 57.2992C46.9518 57.0492 47.0446 56.8352 47.2302 56.6572C47.4196 56.4792 47.645 56.3901 47.9063 56.3901C48.1677 56.3901 48.3912 56.4792 48.5768 56.6572C48.7662 56.8352 48.8609 57.0492 48.8609 57.2992C48.8609 57.5492 48.7662 57.7632 48.5768 57.9413C48.3912 58.1193 48.1677 58.2083 47.9063 58.2083ZM52.6663 63.1401V68.3901H51.3254V59.6629H52.6209V61.0265H52.7345C52.939 60.5833 53.2496 60.2273 53.6663 59.9583C54.083 59.6856 54.6209 59.5492 55.2799 59.5492C55.8709 59.5492 56.3879 59.6704 56.8311 59.9129C57.2743 60.1515 57.619 60.5151 57.8652 61.0038C58.1114 61.4886 58.2345 62.1023 58.2345 62.8447V68.3901H56.8936V62.9356C56.8936 62.25 56.7156 61.7159 56.3595 61.3333C56.0034 60.947 55.5148 60.7538 54.8936 60.7538C54.4655 60.7538 54.083 60.8466 53.7459 61.0322C53.4125 61.2178 53.1493 61.4886 52.9561 61.8447C52.7629 62.2007 52.6663 62.6326 52.6663 63.1401ZM66.4888 64.822V59.6629H67.8297V68.3901H66.4888V66.9129H66.3979C66.1933 67.356 65.8751 67.7329 65.4433 68.0435C65.0115 68.3504 64.466 68.5038 63.807 68.5038C63.2615 68.5038 62.7767 68.3845 62.3524 68.1458C61.9282 67.9034 61.5948 67.5398 61.3524 67.0549C61.11 66.5663 60.9888 65.9507 60.9888 65.2083V59.6629H62.3297V65.1174C62.3297 65.7538 62.5077 66.2613 62.8638 66.6401C63.2236 67.0189 63.682 67.2083 64.2388 67.2083C64.5721 67.2083 64.9111 67.1231 65.2558 66.9526C65.6043 66.7822 65.896 66.5208 66.1308 66.1685C66.3695 65.8163 66.4888 65.3674 66.4888 64.822ZM70.5896 68.3901V59.6629H71.8851V61.0265H71.9987C72.1806 60.5606 72.4741 60.1988 72.8794 59.9413C73.2847 59.6799 73.7715 59.5492 74.3396 59.5492C74.9154 59.5492 75.3946 59.6799 75.7771 59.9413C76.1635 60.1988 76.4646 60.5606 76.6806 61.0265H76.7715C76.9949 60.5757 77.3302 60.2178 77.7771 59.9526C78.2241 59.6837 78.7601 59.5492 79.3851 59.5492C80.1654 59.5492 80.8037 59.7935 81.2999 60.2822C81.7961 60.767 82.0442 61.5227 82.0442 62.5492V68.3901H80.7033V62.5492C80.7033 61.9053 80.5271 61.4451 80.1749 61.1685C79.8226 60.892 79.4078 60.7538 78.9306 60.7538C78.3169 60.7538 77.8415 60.9394 77.5044 61.3106C77.1673 61.678 76.9987 62.1439 76.9987 62.7083V68.3901H75.6351V62.4129C75.6351 61.9167 75.4741 61.517 75.1521 61.214C74.8302 60.9072 74.4154 60.7538 73.9078 60.7538C73.5593 60.7538 73.2336 60.8466 72.9306 61.0322C72.6313 61.2178 72.3889 61.4754 72.2033 61.8049C72.0215 62.1307 71.9306 62.5076 71.9306 62.9356V68.3901H70.5896Z" fill="white"/>
</svg>
