<svg width="20" height="20" viewBox="0 0 20 20" fill="none" xmlns="http://www.w3.org/2000/svg">
<path d="M16.8751 15.3134H3.12508C2.66484 15.3134 2.29175 15.6865 2.29175 16.1467V16.98C2.29175 17.4403 2.66484 17.8134 3.12508 17.8134H16.8751C17.3353 17.8134 17.7084 17.4403 17.7084 16.98V16.1467C17.7084 15.6865 17.3353 15.3134 16.8751 15.3134Z" stroke="#D1CFCF" stroke-width="1.5" stroke-linecap="round" stroke-linejoin="round"/>
<path d="M4.37508 8.2283V15.32M15.6251 8.2283V15.32M12.0834 8.2283V15.32M7.91675 8.2283V15.32M9.20008 2.62496L2.72508 6.16663C2.59394 6.23838 2.48452 6.34409 2.40828 6.47267C2.33204 6.60125 2.29179 6.74798 2.29175 6.89746V7.7283C2.29175 7.8609 2.34443 7.98808 2.43819 8.08185C2.53196 8.17562 2.65914 8.2283 2.79175 8.2283H17.2084C17.341 8.2283 17.4682 8.17562 17.562 8.08185C17.6557 7.98808 17.7084 7.8609 17.7084 7.7283V6.89746C17.7084 6.74798 17.6681 6.60125 17.5919 6.47267C17.5156 6.34409 17.4062 6.23838 17.2751 6.16663L10.8001 2.62496C10.5548 2.49075 10.2797 2.42041 10.0001 2.42041C9.72048 2.42041 9.44537 2.49075 9.20008 2.62496Z" stroke="#D1CFCF" stroke-width="1.5" stroke-linecap="round" stroke-linejoin="round"/>
</svg>
