<svg width="117" height="40" viewBox="0 0 117 40" fill="none" xmlns="http://www.w3.org/2000/svg">
<g filter="url(#filter0_d_1026_2764)">
<path d="M2.5 19C2.5 9.05888 10.5589 1 20.5 1H96.5C106.441 1 114.5 9.05888 114.5 19C114.5 28.9411 106.441 37 96.5 37H20.5C10.5589 37 2.5 28.9411 2.5 19Z" fill="url(#paint0_linear_1026_2764)"/>
<path d="M20.5 1.5H96.5C106.165 1.5 114 9.33502 114 19C114 28.665 106.165 36.5 96.5 36.5H20.5C10.835 36.5 3 28.665 3 19C3 9.33502 10.835 1.5 20.5 1.5Z" stroke="#E4E4E4"/>
<path d="M25.7178 27.9384L25.6005 28.6792H25.6005L25.7178 27.9384ZM21.5616 23.7822L22.3023 23.6648H22.3023L21.5616 23.7822ZM39.4384 23.7822L40.1792 23.8995V23.8995L39.4384 23.7822ZM35.2822 27.9384L35.3995 28.6792H35.3995L35.2822 27.9384ZM39.1 17.5496C38.8513 17.2184 38.3811 17.1516 38.0499 17.4003C37.7187 17.6491 37.6519 18.1192 37.9007 18.4504L39.1 17.5496ZM23.0993 18.4504C23.3481 18.1192 23.2813 17.6491 22.9501 17.4003C22.6189 17.1516 22.1487 17.2184 21.9 17.5496L23.0993 18.4504ZM29.75 24C29.75 24.4142 30.0858 24.75 30.5 24.75C30.9142 24.75 31.25 24.4142 31.25 24H29.75ZM25.9123 13.534C25.655 13.8586 25.7095 14.3303 26.034 14.5877C26.3586 14.845 26.8303 14.7905 27.0877 14.466L25.9123 13.534ZM27.8978 12.237L27.3102 11.7711L27.8978 12.237ZM33.1022 12.237L33.6898 11.7711L33.1022 12.237ZM33.9123 14.466C34.1697 14.7905 34.6414 14.845 34.966 14.5877C35.2905 14.3303 35.345 13.8586 35.0877 13.534L33.9123 14.466ZM30.2493 10.0199L30.1313 9.27923L30.1313 9.27923L30.2493 10.0199ZM30.7507 10.0199L30.8687 9.27923L30.8687 9.27923L30.7507 10.0199ZM39.5 21H38.75V22H39.5H40.25V21H39.5ZM33.5 28V27.25H27.5V28V28.75H33.5V28ZM21.5 22H22.25V21H21.5H20.75V22H21.5ZM27.5 28V27.25C26.5423 27.25 26.1508 27.2477 25.8352 27.1977L25.7178 27.9384L25.6005 28.6792C26.0622 28.7523 26.5997 28.75 27.5 28.75V28ZM21.5 22H20.75C20.75 22.9003 20.7477 23.4378 20.8208 23.8995L21.5616 23.7822L22.3023 23.6648C22.2523 23.3492 22.25 22.9577 22.25 22H21.5ZM25.7178 27.9384L25.8352 27.1977C24.0166 26.9096 22.5904 25.4834 22.3023 23.6648L21.5616 23.7822L20.8208 23.8995C21.2105 26.3599 23.1401 28.2895 25.6005 28.6792L25.7178 27.9384ZM39.5 22H38.75C38.75 22.9577 38.7477 23.3492 38.6977 23.6648L39.4384 23.7822L40.1792 23.8995C40.2523 23.4378 40.25 22.9003 40.25 22H39.5ZM33.5 28V28.75C34.4003 28.75 34.9378 28.7523 35.3995 28.6792L35.2822 27.9384L35.1648 27.1977C34.8492 27.2477 34.4577 27.25 33.5 27.25V28ZM39.4384 23.7822L38.6977 23.6648C38.4096 25.4834 36.9834 26.9096 35.1648 27.1977L35.2822 27.9384L35.3995 28.6792C37.8599 28.2895 39.7895 26.3599 40.1792 23.8995L39.4384 23.7822ZM39.5 21H40.25C40.25 19.7064 39.8219 18.5106 39.1 17.5496L38.5004 18L37.9007 18.4504C38.4342 19.1607 38.75 20.0424 38.75 21H39.5ZM21.5 21H22.25C22.25 20.0424 22.5658 19.1607 23.0993 18.4504L22.4996 18L21.9 17.5496C21.1781 18.5106 20.75 19.7064 20.75 21H21.5ZM30.5 24H31.25V11H30.5H29.75V24H30.5ZM26.5 14L27.0877 14.466L28.4855 12.703L27.8978 12.237L27.3102 11.7711L25.9123 13.534L26.5 14ZM33.1022 12.237L32.5145 12.703L33.9123 14.466L34.5 14L35.0877 13.534L33.6898 11.7711L33.1022 12.237ZM27.8978 12.237L28.4855 12.703C29.0543 11.9857 29.4418 11.4988 29.7682 11.1711C30.0913 10.8468 30.2612 10.7775 30.3673 10.7605L30.2493 10.0199L30.1313 9.27923C29.5582 9.37055 29.1096 9.70685 28.7055 10.1125C28.3047 10.5148 27.8562 11.0824 27.3102 11.7711L27.8978 12.237ZM33.1022 12.237L33.6898 11.7711C33.1438 11.0825 32.6953 10.5148 32.2945 10.1125C31.8904 9.70685 31.4418 9.37055 30.8687 9.27923L30.7507 10.0199L30.6327 10.7605C30.7388 10.7775 30.9087 10.8468 31.2318 11.1711C31.5582 11.4988 31.9457 11.9857 32.5145 12.703L33.1022 12.237ZM30.2493 10.0199L30.3673 10.7605C30.4117 10.7535 30.4559 10.75 30.5 10.75V10V9.25C30.3766 9.25 30.2534 9.25978 30.1313 9.27923L30.2493 10.0199ZM30.5 10V10.75C30.5441 10.75 30.5883 10.7535 30.6327 10.7605L30.7507 10.0199L30.8687 9.27923C30.7466 9.25978 30.6234 9.25 30.5 9.25V10ZM30.5 11H31.25V10H30.5H29.75V11H30.5Z" fill="#656F77"/>
<path d="M58.8308 14.3182H60.0637V21.0597C60.0637 21.7557 59.8997 22.3771 59.5716 22.924C59.2467 23.4676 58.7877 23.8968 58.1944 24.2116C57.6011 24.5232 56.9051 24.679 56.1064 24.679C55.3076 24.679 54.6116 24.5232 54.0183 24.2116C53.425 23.8968 52.9643 23.4676 52.6362 22.924C52.3114 22.3771 52.149 21.7557 52.149 21.0597V14.3182H53.3819V20.9602C53.3819 21.4574 53.4913 21.8999 53.71 22.2876C53.9288 22.6721 54.2404 22.9754 54.6447 23.1974C55.0524 23.4162 55.5396 23.5256 56.1064 23.5256C56.6731 23.5256 57.1603 23.4162 57.568 23.1974C57.9757 22.9754 58.2872 22.6721 58.5027 22.2876C58.7214 21.8999 58.8308 21.4574 58.8308 20.9602V14.3182ZM62.3668 27.3636V16.8636H63.5004V18.0767H63.6396C63.7257 17.9441 63.8451 17.7751 63.9975 17.5696C64.1533 17.3608 64.3754 17.1752 64.6637 17.0128C64.9554 16.8471 65.3498 16.7642 65.8469 16.7642C66.4899 16.7642 67.0567 16.925 67.5472 17.2464C68.0378 17.5679 68.4206 18.0237 68.6957 18.6136C68.9708 19.2036 69.1083 19.8996 69.1083 20.7017C69.1083 21.5104 68.9708 22.2114 68.6957 22.8047C68.4206 23.3946 68.0394 23.852 67.5522 24.1768C67.065 24.4983 66.5032 24.6591 65.8668 24.6591C65.3763 24.6591 64.9835 24.5779 64.6886 24.4155C64.3936 24.2498 64.1665 24.0625 64.0075 23.8537C63.8484 23.6416 63.7257 23.4659 63.6396 23.3267H63.5401V27.3636H62.3668ZM63.5202 20.6818C63.5202 21.2585 63.6048 21.7673 63.7738 22.2081C63.9428 22.6456 64.1897 22.9886 64.5146 23.2372C64.8394 23.4825 65.2371 23.6051 65.7077 23.6051C66.1983 23.6051 66.6076 23.4759 66.9357 23.2173C67.2672 22.9555 67.5157 22.6042 67.6815 22.1634C67.8505 21.7192 67.935 21.2254 67.935 20.6818C67.935 20.1449 67.8522 19.661 67.6864 19.2301C67.524 18.7959 67.2771 18.4529 66.9457 18.201C66.6175 17.9458 66.2049 17.8182 65.7077 17.8182C65.2305 17.8182 64.8294 17.9392 64.5046 18.1811C64.1798 18.4197 63.9345 18.7545 63.7688 19.1854C63.6031 19.6129 63.5202 20.1117 63.5202 20.6818ZM72.0714 14.3182V24.5H70.8981V14.3182H72.0714ZM77.3226 24.6591C76.6332 24.6591 76.0284 24.495 75.508 24.1669C74.9909 23.8388 74.5866 23.3797 74.2949 22.7898C74.0066 22.1998 73.8624 21.5104 73.8624 20.7216C73.8624 19.9261 74.0066 19.2318 74.2949 18.6385C74.5866 18.0452 74.9909 17.5845 75.508 17.2564C76.0284 16.9283 76.6332 16.7642 77.3226 16.7642C78.012 16.7642 78.6152 16.9283 79.1323 17.2564C79.6526 17.5845 80.057 18.0452 80.3453 18.6385C80.637 19.2318 80.7828 19.9261 80.7828 20.7216C80.7828 21.5104 80.637 22.1998 80.3453 22.7898C80.057 23.3797 79.6526 23.8388 79.1323 24.1669C78.6152 24.495 78.012 24.6591 77.3226 24.6591ZM77.3226 23.6051C77.8463 23.6051 78.2772 23.4709 78.6152 23.2024C78.9533 22.9339 79.2035 22.581 79.3659 22.1435C79.5284 21.706 79.6096 21.232 79.6096 20.7216C79.6096 20.2112 79.5284 19.7356 79.3659 19.2947C79.2035 18.8539 78.9533 18.4976 78.6152 18.2259C78.2772 17.9541 77.8463 17.8182 77.3226 17.8182C76.7989 17.8182 76.3681 17.9541 76.03 18.2259C75.6919 18.4976 75.4417 18.8539 75.2793 19.2947C75.1169 19.7356 75.0357 20.2112 75.0357 20.7216C75.0357 21.232 75.1169 21.706 75.2793 22.1435C75.4417 22.581 75.6919 22.9339 76.03 23.2024C76.3681 23.4709 76.7989 23.6051 77.3226 23.6051ZM84.821 24.679C84.3371 24.679 83.898 24.5878 83.5036 24.4055C83.1091 24.2199 82.7959 23.9531 82.5639 23.6051C82.3319 23.2538 82.2159 22.8295 82.2159 22.3324C82.2159 21.8949 82.3021 21.5402 82.4744 21.2685C82.6468 20.9934 82.8771 20.7779 83.1655 20.6222C83.4538 20.4664 83.772 20.3504 84.12 20.2741C84.4714 20.1946 84.8243 20.1316 85.179 20.0852C85.643 20.0256 86.0192 19.9808 86.3075 19.951C86.5992 19.9179 86.8113 19.8632 86.9439 19.7869C87.0798 19.7107 87.1477 19.5781 87.1477 19.3892V19.3494C87.1477 18.8589 87.0135 18.4777 86.745 18.206C86.4799 17.9342 86.0772 17.7983 85.5369 17.7983C84.9768 17.7983 84.5376 17.9209 84.2195 18.1662C83.9013 18.4115 83.6776 18.6733 83.5483 18.9517L82.4347 18.554C82.6335 18.09 82.8987 17.7287 83.2301 17.4702C83.5649 17.2083 83.9295 17.026 84.3239 16.9233C84.7216 16.8172 85.1127 16.7642 85.4972 16.7642C85.7424 16.7642 86.0241 16.794 86.3423 16.8537C86.6638 16.91 86.9737 17.0277 87.272 17.2067C87.5736 17.3857 87.8239 17.6558 88.0227 18.017C88.2216 18.3783 88.321 18.8622 88.321 19.4688V24.5H87.1477V23.4659H87.0881C87.0085 23.6316 86.8759 23.8089 86.6903 23.9979C86.5047 24.1868 86.2578 24.3475 85.9496 24.4801C85.6413 24.6127 85.2652 24.679 84.821 24.679ZM85 23.625C85.464 23.625 85.8551 23.5339 86.1733 23.3516C86.4948 23.1693 86.7367 22.9339 86.8991 22.6456C87.0649 22.3572 87.1477 22.054 87.1477 21.7358V20.6619C87.098 20.7216 86.9886 20.7763 86.8196 20.826C86.6539 20.8724 86.4616 20.9138 86.2429 20.9503C86.0275 20.9834 85.817 21.0133 85.6115 21.0398C85.4093 21.063 85.2453 21.0829 85.1193 21.0994C84.8144 21.1392 84.5294 21.2038 84.2642 21.2933C84.0024 21.3795 83.7902 21.5104 83.6278 21.6861C83.4688 21.8584 83.3892 22.0937 83.3892 22.392C83.3892 22.7997 83.54 23.108 83.8416 23.3168C84.1465 23.5223 84.5327 23.625 85 23.625ZM93.3461 24.6591C92.7097 24.6591 92.1479 24.4983 91.6607 24.1768C91.1735 23.852 90.7923 23.3946 90.5172 22.8047C90.2421 22.2114 90.1046 21.5104 90.1046 20.7017C90.1046 19.8996 90.2421 19.2036 90.5172 18.6136C90.7923 18.0237 91.1751 17.5679 91.6657 17.2464C92.1562 16.925 92.723 16.7642 93.3659 16.7642C93.8631 16.7642 94.2559 16.8471 94.5442 17.0128C94.8359 17.1752 95.0579 17.3608 95.2104 17.5696C95.3662 17.7751 95.4872 17.9441 95.5733 18.0767H95.6728V14.3182H96.8461V24.5H95.7125V23.3267H95.5733C95.4872 23.4659 95.3645 23.6416 95.2054 23.8537C95.0463 24.0625 94.8193 24.2498 94.5243 24.4155C94.2293 24.5779 93.8366 24.6591 93.3461 24.6591ZM93.5051 23.6051C93.9758 23.6051 94.3735 23.4825 94.6983 23.2372C95.0231 22.9886 95.2701 22.6456 95.4391 22.2081C95.6081 21.7673 95.6926 21.2585 95.6926 20.6818C95.6926 20.1117 95.6098 19.6129 95.4441 19.1854C95.2784 18.7545 95.0331 18.4197 94.7083 18.1811C94.3835 17.9392 93.9824 17.8182 93.5051 17.8182C93.008 17.8182 92.5937 17.9458 92.2623 18.201C91.9341 18.4529 91.6872 18.7959 91.5215 19.2301C91.3591 19.661 91.2779 20.1449 91.2779 20.6818C91.2779 21.2254 91.3607 21.7192 91.5265 22.1634C91.6955 22.6042 91.9441 22.9555 92.2722 23.2173C92.6036 23.4759 93.0146 23.6051 93.5051 23.6051Z" fill="#252525"/>
</g>
<defs>
<filter id="filter0_d_1026_2764" x="0.5" y="0" width="116" height="40" filterUnits="userSpaceOnUse" color-interpolation-filters="sRGB">
<feFlood flood-opacity="0" result="BackgroundImageFix"/>
<feColorMatrix in="SourceAlpha" type="matrix" values="0 0 0 0 0 0 0 0 0 0 0 0 0 0 0 0 0 0 127 0" result="hardAlpha"/>
<feOffset dy="1"/>
<feGaussianBlur stdDeviation="1"/>
<feColorMatrix type="matrix" values="0 0 0 0 0.0627451 0 0 0 0 0.0941176 0 0 0 0 0.156863 0 0 0 0.05 0"/>
<feBlend mode="normal" in2="BackgroundImageFix" result="effect1_dropShadow_1026_2764"/>
<feBlend mode="normal" in="SourceGraphic" in2="effect1_dropShadow_1026_2764" result="shape"/>
</filter>
<linearGradient id="paint0_linear_1026_2764" x1="-80.2826" y1="-83" x2="71.1433" y2="180.199" gradientUnits="userSpaceOnUse">
<stop stop-color="#EFEFEF" stop-opacity="0.6"/>
<stop offset="1" stop-color="white" stop-opacity="0.08"/>
</linearGradient>
</defs>
</svg>
