<svg width="12" height="12" viewBox="0 0 12 12" fill="none" xmlns="http://www.w3.org/2000/svg">
<g clip-path="url(#clip0_833_4101)">
<path d="M6.75 4.125C6.75 3.71079 6.41422 3.375 6 3.375C5.58579 3.375 5.25 3.71079 5.25 4.125H6.75ZM4.4543 7.17116C4.17015 7.47255 4.18412 7.94722 4.4855 8.23137C4.78689 8.51551 5.26156 8.50154 5.5457 8.20016L4.4543 7.17116ZM1.03148 1.03935C0.708032 1.29811 0.655591 1.77007 0.914348 2.09352C1.17311 2.41697 1.64507 2.46941 1.96852 2.21065L1.03148 1.03935ZM3.21852 1.21065C3.54197 0.951894 3.59441 0.479925 3.33565 0.156479C3.07689 -0.166968 2.60493 -0.219409 2.28148 0.0393484L3.21852 1.21065ZM10.0315 2.21065C10.3549 2.46941 10.8269 2.41697 11.0857 2.09352C11.3444 1.77007 11.292 1.29811 10.9685 1.03935L10.0315 2.21065ZM9.71852 0.0393484C9.39507 -0.219409 8.92311 -0.166968 8.66435 0.156479C8.40559 0.479925 8.45803 0.951894 8.78148 1.21065L9.71852 0.0393484ZM5.45521 7.20283L4.90951 6.68834L5.45521 7.20283ZM6 4.125H5.25V5.83084H6H6.75V4.125H6ZM5 7.68566L5.5457 8.20016L6.00092 7.71733L5.45521 7.20283L4.90951 6.68834L4.4543 7.17116L5 7.68566ZM1.5 1.625L1.96852 2.21065L3.21852 1.21065L2.75 0.625L2.28148 0.0393484L1.03148 1.03935L1.5 1.625ZM10.5 1.625L10.9685 1.03935L9.71852 0.0393484L9.25 0.625L8.78148 1.21065L10.0315 2.21065L10.5 1.625ZM11 6.125H10.25C10.25 8.47221 8.34721 10.375 6 10.375V11.125V11.875C9.17564 11.875 11.75 9.30064 11.75 6.125H11ZM6 11.125V10.375C3.65279 10.375 1.75 8.47221 1.75 6.125H1H0.25C0.25 9.30064 2.82436 11.875 6 11.875V11.125ZM1 6.125H1.75C1.75 3.77779 3.65279 1.875 6 1.875V1.125V0.374999C2.82436 0.374999 0.25 2.94936 0.25 6.125H1ZM6 1.125V1.875C8.34721 1.875 10.25 3.77779 10.25 6.125H11H11.75C11.75 2.94936 9.17564 0.374999 6 0.374999V1.125ZM6 5.83084H5.25C5.25 6.14964 5.1282 6.45638 4.90951 6.68834L5.45521 7.20283L6.00092 7.71733C6.48204 7.20703 6.75 6.53219 6.75 5.83084H6Z" fill="#A2A2A2"/>
</g>
<defs>
<clipPath id="clip0_833_4101">
<rect width="12" height="12" fill="white"/>
</clipPath>
</defs>
</svg>
