<svg width="20" height="20" viewBox="0 0 20 20" fill="none" xmlns="http://www.w3.org/2000/svg">
<g clip-path="url(#clip0_1111_10090)">
<path d="M7.04568 15.6293L7.27744 14.916L7.04568 15.6293ZM4.37052 12.9542L5.08381 12.7224L4.37052 12.9542ZM15.6293 12.9542L14.916 12.7224L15.6293 12.9542ZM12.9542 15.6293L12.7224 14.916L12.9542 15.6293ZM12.9542 4.37052L12.7224 5.08381L12.9542 4.37052ZM15.6293 7.04568L14.916 7.27744L15.6293 7.04568ZM7.04568 4.37052L7.27744 5.08381L7.04568 4.37052ZM4.37052 7.04568L5.08381 7.27744L4.37052 7.04568ZM0.833252 9.24992C0.419038 9.24992 0.083252 9.5857 0.083252 9.99992C0.083252 10.4141 0.419038 10.7499 0.833252 10.7499V9.24992ZM10.7499 0.833252C10.7499 0.419038 10.4141 0.083252 9.99992 0.083252C9.5857 0.083252 9.24992 0.419038 9.24992 0.833252H10.7499ZM9.24992 19.1666C9.24992 19.5808 9.5857 19.9166 9.99992 19.9166C10.4141 19.9166 10.7499 19.5808 10.7499 19.1666H9.24992ZM19.1666 10.7499C19.5808 10.7499 19.9166 10.4141 19.9166 9.99992C19.9166 9.5857 19.5808 9.24992 19.1666 9.24992V10.7499ZM9.99992 15.8333V15.0833C8.39047 15.0833 7.76363 15.074 7.27744 14.916L7.04568 15.6293L6.81392 16.3426C7.58301 16.5925 8.50723 16.5833 9.99992 16.5833V15.8333ZM4.16658 9.99992H3.41658C3.41658 11.4926 3.40733 12.4168 3.65722 13.1859L4.37052 12.9542L5.08381 12.7224C4.92584 12.2362 4.91658 11.6094 4.91658 9.99992H4.16658ZM7.04568 15.6293L7.27744 14.916C6.23728 14.5781 5.42178 13.7626 5.08381 12.7224L4.37052 12.9542L3.65722 13.1859C4.14357 14.6827 5.3171 15.8563 6.81392 16.3426L7.04568 15.6293ZM15.8333 9.99992H15.0833C15.0833 11.6094 15.074 12.2362 14.916 12.7224L15.6293 12.9542L16.3426 13.1859C16.5925 12.4168 16.5833 11.4926 16.5833 9.99992H15.8333ZM9.99992 15.8333V16.5833C11.4926 16.5833 12.4168 16.5925 13.1859 16.3426L12.9542 15.6293L12.7224 14.916C12.2362 15.074 11.6094 15.0833 9.99992 15.0833V15.8333ZM15.6293 12.9542L14.916 12.7224C14.5781 13.7626 13.7626 14.5781 12.7224 14.916L12.9542 15.6293L13.1859 16.3426C14.6827 15.8563 15.8563 14.6827 16.3426 13.1859L15.6293 12.9542ZM9.99992 4.16658V4.91658C11.6094 4.91658 12.2362 4.92584 12.7224 5.08381L12.9542 4.37052L13.1859 3.65722C12.4168 3.40733 11.4926 3.41658 9.99992 3.41658V4.16658ZM15.8333 9.99992H16.5833C16.5833 8.50723 16.5925 7.58301 16.3426 6.81392L15.6293 7.04568L14.916 7.27744C15.074 7.76363 15.0833 8.39047 15.0833 9.99992H15.8333ZM12.9542 4.37052L12.7224 5.08381C13.7626 5.42178 14.5781 6.23728 14.916 7.27744L15.6293 7.04568L16.3426 6.81392C15.8563 5.3171 14.6827 4.14357 13.1859 3.65722L12.9542 4.37052ZM9.99992 4.16658V3.41658C8.50722 3.41658 7.58301 3.40733 6.81392 3.65722L7.04568 4.37052L7.27744 5.08381C7.76363 4.92584 8.39048 4.91658 9.99992 4.91658V4.16658ZM4.16658 9.99992H4.91658C4.91658 8.39048 4.92584 7.76363 5.08381 7.27744L4.37052 7.04568L3.65722 6.81392C3.40733 7.58301 3.41658 8.50722 3.41658 9.99992H4.16658ZM7.04568 4.37052L6.81392 3.65722C5.3171 4.14357 4.14357 5.3171 3.65722 6.81392L4.37052 7.04568L5.08381 7.27744C5.42178 6.23728 6.23728 5.42178 7.27744 5.08381L7.04568 4.37052ZM4.16658 9.99992V9.24992H0.833252V9.99992V10.7499H4.16658V9.99992ZM9.99992 4.16658H10.7499V0.833252H9.99992H9.24992V4.16658H9.99992ZM9.99992 19.1666H10.7499V15.8333H9.99992H9.24992V19.1666H9.99992ZM19.1666 9.99992V9.24992H15.8333V9.99992V10.7499H19.1666V9.99992Z" fill="#D1CFCF"/>
<path d="M9.99976 8.41675C10.8741 8.41675 11.5836 9.12545 11.5837 9.99976C11.5837 10.8742 10.8742 11.5837 9.99976 11.5837C9.12545 11.5836 8.41675 10.8741 8.41675 9.99976C8.41692 9.12556 9.12556 8.41692 9.99976 8.41675Z" stroke="#C0C0C0" stroke-width="1.5"/>
</g>
<defs>
<clipPath id="clip0_1111_10090">
<rect width="20" height="20" fill="white"/>
</clipPath>
</defs>
</svg>
