<svg width="34" height="35" viewBox="0 0 34 35" fill="none" xmlns="http://www.w3.org/2000/svg">
<path d="M16.7488 22.0859C19.7875 22.0859 22.2488 19.6247 22.2488 16.5859V9.02344C22.2488 5.98469 19.7875 3.52344 16.7488 3.52344C13.71 3.52344 11.2488 5.98469 11.2488 9.02344V16.5859C11.2488 19.6247 13.71 22.0859 16.7488 22.0859Z" stroke="white" stroke-width="2.0625" stroke-linecap="round" stroke-linejoin="round"/>
<path d="M6.22986 14.042V16.3795C6.22986 22.182 10.9461 26.8982 16.7486 26.8982C22.5511 26.8982 27.2674 22.182 27.2674 16.3795V14.042" stroke="white" stroke-width="2.0625" stroke-linecap="round" stroke-linejoin="round"/>
<path d="M14.8375 9.61473C16.075 9.16098 17.4225 9.16098 18.66 9.61473" stroke="white" stroke-width="2.0625" stroke-linecap="round" stroke-linejoin="round"/>
<path d="M15.6487 12.5296C16.3774 12.3371 17.1337 12.3371 17.8624 12.5296" stroke="white" stroke-width="2.0625" stroke-linecap="round" stroke-linejoin="round"/>
<path d="M16.7488 26.8984V33.3151" stroke="white" stroke-width="2.0625" stroke-linecap="round" stroke-linejoin="round"/>
</svg>