<svg width="21" height="20" viewBox="0 0 21 20" fill="none" xmlns="http://www.w3.org/2000/svg">
<mask id="path-1-inside-1_383_2293" fill="white">
<path d="M12.375 13.2141C12.375 11.5258 13.8033 10.2083 15.5 10.2083C17.1967 10.2083 18.625 11.525 18.625 13.2141C18.625 14.6158 17.8958 15.8258 17.2367 16.6425C16.8676 17.0981 16.4558 17.5172 16.0067 17.8941L15.9167 17.9675L15.8917 17.9875L15.8833 17.9941L15.8808 17.9958H15.88L15.1533 18.02L15.1517 18.0183L15.1492 18.0166L15.1408 18.0108L15.1133 17.9925L15.0208 17.9258C14.5618 17.579 14.1428 17.1821 13.7717 16.7425C13.0967 15.9375 12.3758 14.7275 12.3758 13.2141M15.1533 18.02L15.525 18.2675L15.88 17.9975L15.1533 18.02ZM15.4817 16.6933C15.6975 16.4933 15.9817 16.2075 16.265 15.8575C16.8558 15.1258 17.3758 14.1933 17.3758 13.2141C17.3758 12.2725 16.5658 11.4583 15.5008 11.4583C14.4367 11.4583 13.6258 12.2725 13.6258 13.2141C13.6258 14.32 14.155 15.2533 14.73 15.9375C14.9592 16.2098 15.2106 16.4627 15.4817 16.6933ZM15.5 13.5416C15.5553 13.5416 15.6082 13.5197 15.6473 13.4806C15.6864 13.4416 15.7083 13.3886 15.7083 13.3333C15.7083 13.2781 15.6864 13.2251 15.6473 13.186C15.6082 13.1469 15.5553 13.125 15.5 13.125C15.4447 13.125 15.3918 13.1469 15.3527 13.186C15.3136 13.2251 15.2917 13.2781 15.2917 13.3333C15.2917 13.3886 15.3136 13.4416 15.3527 13.4806C15.3918 13.5197 15.4447 13.5416 15.5 13.5416ZM14.4583 13.3333C14.4583 13.057 14.5681 12.7921 14.7634 12.5967C14.9588 12.4014 15.2237 12.2916 15.5 12.2916C15.7763 12.2916 16.0412 12.4014 16.2366 12.5967C16.4319 12.7921 16.5417 13.057 16.5417 13.3333C16.5417 13.6096 16.4319 13.8745 16.2366 14.0699C16.0412 14.2652 15.7763 14.375 15.5 14.375C15.2237 14.375 14.9588 14.2652 14.7634 14.0699C14.5681 13.8745 14.4583 13.6096 14.4583 13.3333Z"/>
</mask>
<path d="M12.375 13.2141C12.375 11.5258 13.8033 10.2083 15.5 10.2083C17.1967 10.2083 18.625 11.525 18.625 13.2141C18.625 14.6158 17.8958 15.8258 17.2367 16.6425C16.8676 17.0981 16.4558 17.5172 16.0067 17.8941L15.9167 17.9675L15.8917 17.9875L15.8833 17.9941L15.8808 17.9958H15.88L15.1533 18.02L15.1517 18.0183L15.1492 18.0166L15.1408 18.0108L15.1133 17.9925L15.0208 17.9258C14.5618 17.579 14.1428 17.1821 13.7717 16.7425C13.0967 15.9375 12.3758 14.7275 12.3758 13.2141M15.1533 18.02L15.525 18.2675L15.88 17.9975L15.1533 18.02ZM15.4817 16.6933C15.6975 16.4933 15.9817 16.2075 16.265 15.8575C16.8558 15.1258 17.3758 14.1933 17.3758 13.2141C17.3758 12.2725 16.5658 11.4583 15.5008 11.4583C14.4367 11.4583 13.6258 12.2725 13.6258 13.2141C13.6258 14.32 14.155 15.2533 14.73 15.9375C14.9592 16.2098 15.2106 16.4627 15.4817 16.6933ZM15.5 13.5416C15.5553 13.5416 15.6082 13.5197 15.6473 13.4806C15.6864 13.4416 15.7083 13.3886 15.7083 13.3333C15.7083 13.2781 15.6864 13.2251 15.6473 13.186C15.6082 13.1469 15.5553 13.125 15.5 13.125C15.4447 13.125 15.3918 13.1469 15.3527 13.186C15.3136 13.2251 15.2917 13.2781 15.2917 13.3333C15.2917 13.3886 15.3136 13.4416 15.3527 13.4806C15.3918 13.5197 15.4447 13.5416 15.5 13.5416ZM14.4583 13.3333C14.4583 13.057 14.5681 12.7921 14.7634 12.5967C14.9588 12.4014 15.2237 12.2916 15.5 12.2916C15.7763 12.2916 16.0412 12.4014 16.2366 12.5967C16.4319 12.7921 16.5417 13.057 16.5417 13.3333C16.5417 13.6096 16.4319 13.8745 16.2366 14.0699C16.0412 14.2652 15.7763 14.375 15.5 14.375C15.2237 14.375 14.9588 14.2652 14.7634 14.0699C14.5681 13.8745 14.4583 13.6096 14.4583 13.3333Z" fill="#250E45"/>
<path d="M17.2367 16.6425L18.0137 17.2719L18.0148 17.2706L17.2367 16.6425ZM16.0067 17.8941L16.6383 18.6694L16.644 18.6648L16.6496 18.6601L16.0067 17.8941ZM15.9167 17.9675L16.5414 18.7484L16.5483 18.7427L15.9167 17.9675ZM15.8917 17.9875L15.267 17.2066L15.2669 17.2067L15.8917 17.9875ZM15.8833 17.9941L16.438 18.8262L16.4742 18.8021L16.5081 18.775L15.8833 17.9941ZM15.8808 17.9958V18.9958H16.1836L16.4355 18.8279L15.8808 17.9958ZM15.88 17.9958V16.9958H15.8634L15.8468 16.9964L15.88 17.9958ZM15.1533 18.02L14.4459 18.7268L14.5162 18.7972L14.5991 18.8523L15.1533 18.02ZM15.1517 18.0183L15.8591 17.3115L15.7889 17.2412L15.7061 17.1861L15.1517 18.0183ZM15.1492 18.0166L14.5757 18.8359L14.5851 18.8425L14.5947 18.8489L15.1492 18.0166ZM15.1408 18.0108L15.7143 17.1916L15.705 17.1851L15.6955 17.1788L15.1408 18.0108ZM15.1133 17.9925L14.5286 18.8037L14.5434 18.8144L14.5586 18.8245L15.1133 17.9925ZM15.0208 17.9258L14.418 18.7236L14.427 18.7305L14.4361 18.7371L15.0208 17.9258ZM13.7717 16.7425L13.0054 17.385L13.0076 17.3876L13.7717 16.7425ZM15.525 18.2675L14.9707 19.0998L15.5635 19.4946L16.1304 19.0634L15.525 18.2675ZM15.88 17.9975L16.4854 18.7934L18.9733 16.9012L15.8491 16.998L15.88 17.9975ZM15.4817 16.6933L14.8336 17.4549L15.51 18.0304L16.1614 17.4268L15.4817 16.6933ZM16.265 15.8575L17.0422 16.4867L17.043 16.4857L16.265 15.8575ZM14.73 15.9375L13.9645 16.5809L13.9648 16.5813L14.73 15.9375ZM15.5 12.2916V11.2916V12.2916ZM12.375 13.2141H13.375C13.375 12.1263 14.3061 11.2083 15.5 11.2083V10.2083V9.20831C13.3005 9.20831 11.375 10.9253 11.375 13.2141H12.375ZM15.5 10.2083V11.2083C16.694 11.2083 17.625 12.1256 17.625 13.2141H18.625H19.625C19.625 10.9243 17.6993 9.20831 15.5 9.20831V10.2083ZM18.625 13.2141H17.625C17.625 14.2777 17.0627 15.2658 16.4585 16.0144L17.2367 16.6425L18.0148 17.2706C18.729 16.3858 19.625 14.9539 19.625 13.2141H18.625ZM17.2367 16.6425L16.4596 16.0131C16.1308 16.419 15.7639 16.7924 15.3638 17.1282L16.0067 17.8941L16.6496 18.6601C17.1476 18.2421 17.6044 17.7772 18.0137 17.2719L17.2367 16.6425ZM16.0067 17.8941L15.375 17.1189L15.285 17.1923L15.9167 17.9675L16.5483 18.7427L16.6383 18.6694L16.0067 17.8941ZM15.9167 17.9675L15.292 17.1866L15.267 17.2066L15.8917 17.9875L16.5163 18.7684L16.5413 18.7484L15.9167 17.9675ZM15.8917 17.9875L15.2669 17.2067L15.2586 17.2133L15.8833 17.9941L16.5081 18.775L16.5164 18.7683L15.8917 17.9875ZM15.8833 17.9941L15.3286 17.1621L15.3261 17.1638L15.8808 17.9958L16.4355 18.8279L16.438 18.8262L15.8833 17.9941ZM15.8808 17.9958V16.9958H15.88V17.9958V18.9958H15.8808V17.9958ZM15.88 17.9958L15.8468 16.9964L15.1201 17.0205L15.1533 18.02L15.1866 19.0194L15.9132 18.9953L15.88 17.9958ZM15.1533 18.02L15.8608 17.3132L15.8591 17.3115L15.1517 18.0183L14.4442 18.7251L14.4459 18.7268L15.1533 18.02ZM15.1517 18.0183L15.7061 17.1861L15.7036 17.1844L15.1492 18.0166L14.5947 18.8489L14.5972 18.8505L15.1517 18.0183ZM15.1492 18.0166L15.7226 17.1974L15.7143 17.1916L15.1408 18.0108L14.5674 18.8301L14.5757 18.8359L15.1492 18.0166ZM15.1408 18.0108L15.6955 17.1788L15.668 17.1604L15.1133 17.9925L14.5586 18.8245L14.5861 18.8429L15.1408 18.0108ZM15.1133 17.9925L15.698 17.1812L15.6055 17.1146L15.0208 17.9258L14.4361 18.7371L14.5286 18.8037L15.1133 17.9925ZM15.0208 17.9258L15.6237 17.128C15.2239 16.8259 14.859 16.4802 14.5357 16.0973L13.7717 16.7425L13.0076 17.3876C13.4267 17.8839 13.8997 18.332 14.418 18.7236L15.0208 17.9258ZM13.7717 16.7425L14.5379 16.1C13.9427 15.3901 13.3758 14.4014 13.3758 13.2141H12.3758H11.3758C11.3758 15.0535 12.2506 16.4849 13.0054 17.385L13.7717 16.7425ZM15.1533 18.02L14.5991 18.8523L14.9707 19.0998L15.525 18.2675L16.0793 17.4351L15.7076 17.1876L15.1533 18.02ZM15.525 18.2675L16.1304 19.0634L16.4854 18.7934L15.88 17.9975L15.2746 17.2015L14.9196 17.4715L15.525 18.2675ZM15.88 17.9975L15.8491 16.998L15.1224 17.0205L15.1533 18.02L15.1843 19.0195L15.9109 18.997L15.88 17.9975ZM15.4817 16.6933L16.1614 17.4268C16.4031 17.2028 16.7221 16.8822 17.0422 16.4867L16.265 15.8575L15.4878 15.2283C15.2413 15.5328 14.9919 15.7839 14.802 15.9598L15.4817 16.6933ZM16.265 15.8575L17.043 16.4857C17.6894 15.6853 18.3758 14.531 18.3758 13.2141H17.3758H16.3758C16.3758 13.8556 16.0223 14.5664 15.487 15.2292L16.265 15.8575ZM17.3758 13.2141H18.3758C18.3758 11.6794 17.0764 10.4583 15.5008 10.4583V11.4583V12.4583C16.0553 12.4583 16.3758 12.8656 16.3758 13.2141H17.3758ZM15.5008 11.4583V10.4583C13.9264 10.4583 12.6258 11.6791 12.6258 13.2141H13.6258H14.6258C14.6258 12.8659 14.9469 12.4583 15.5008 12.4583V11.4583ZM13.6258 13.2141H12.6258C12.6258 14.6458 13.3087 15.8006 13.9645 16.5809L14.73 15.9375L15.4955 15.2941C15.0013 14.706 14.6258 13.9942 14.6258 13.2141H13.6258ZM14.73 15.9375L13.9648 16.5813C14.2297 16.8961 14.5203 17.1883 14.8336 17.4549L15.4817 16.6933L16.1297 15.9317C15.9009 15.737 15.6886 15.5236 15.4952 15.2937L14.73 15.9375ZM15.5 13.5416V14.5416C15.8205 14.5416 16.1278 14.4143 16.3544 14.1877L15.6473 13.4806L14.9402 12.7735C15.0887 12.6251 15.29 12.5416 15.5 12.5416V13.5416ZM15.6473 13.4806L16.3544 14.1877C16.581 13.9611 16.7083 13.6538 16.7083 13.3333H15.7083H14.7083C14.7083 13.1234 14.7917 12.922 14.9402 12.7735L15.6473 13.4806ZM15.7083 13.3333H16.7083C16.7083 13.0128 16.581 12.7055 16.3544 12.4789L15.6473 13.186L14.9402 13.8931C14.7917 13.7446 14.7083 13.5433 14.7083 13.3333H15.7083ZM15.6473 13.186L16.3544 12.4789C16.1278 12.2523 15.8205 12.125 15.5 12.125V13.125V14.125C15.29 14.125 15.0887 14.0416 14.9402 13.8931L15.6473 13.186ZM15.5 13.125V12.125C15.1795 12.125 14.8722 12.2523 14.6456 12.4789L15.3527 13.186L16.0598 13.8931C15.9113 14.0416 15.71 14.125 15.5 14.125V13.125ZM15.3527 13.186L14.6456 12.4789C14.419 12.7055 14.2917 13.0128 14.2917 13.3333H15.2917H16.2917C16.2917 13.5433 16.2083 13.7446 16.0598 13.8931L15.3527 13.186ZM15.2917 13.3333H14.2917C14.2917 13.6538 14.419 13.9611 14.6456 14.1877L15.3527 13.4806L16.0598 12.7735C16.2083 12.922 16.2917 13.1234 16.2917 13.3333H15.2917ZM15.3527 13.4806L14.6456 14.1877C14.8722 14.4143 15.1795 14.5416 15.5 14.5416V13.5416V12.5416C15.71 12.5416 15.9113 12.6251 16.0598 12.7735L15.3527 13.4806ZM14.4583 13.3333H15.4583C15.4583 13.3223 15.4627 13.3117 15.4705 13.3039L14.7634 12.5967L14.0563 11.8896C13.6734 12.2725 13.4583 12.7918 13.4583 13.3333H14.4583ZM14.7634 12.5967L15.4705 13.3039C15.4783 13.296 15.4889 13.2916 15.5 13.2916V12.2916V11.2916C14.9585 11.2916 14.4392 11.5067 14.0563 11.8896L14.7634 12.5967ZM15.5 12.2916V13.2916C15.5111 13.2916 15.5217 13.296 15.5295 13.3039L16.2366 12.5967L16.9437 11.8896C16.5608 11.5067 16.0415 11.2916 15.5 11.2916V12.2916ZM16.2366 12.5967L15.5295 13.3039C15.5373 13.3117 15.5417 13.3223 15.5417 13.3333H16.5417H17.5417C17.5417 12.7918 17.3266 12.2725 16.9437 11.8896L16.2366 12.5967ZM16.5417 13.3333H15.5417C15.5417 13.3444 15.5373 13.355 15.5295 13.3628L16.2366 14.0699L16.9437 14.777C17.3266 14.3941 17.5417 13.8748 17.5417 13.3333H16.5417ZM16.2366 14.0699L15.5295 13.3628C15.5217 13.3706 15.5111 13.375 15.5 13.375V14.375V15.375C16.0415 15.375 16.5608 15.1599 16.9437 14.777L16.2366 14.0699ZM15.5 14.375V13.375C15.4889 13.375 15.4783 13.3706 15.4705 13.3628L14.7634 14.0699L14.0563 14.777C14.4392 15.1599 14.9585 15.375 15.5 15.375V14.375ZM14.7634 14.0699L15.4705 13.3628C15.4627 13.355 15.4583 13.3444 15.4583 13.3333H14.4583H13.4583C13.4583 13.8748 13.6734 14.3941 14.0563 14.777L14.7634 14.0699Z" fill="#D1CFCF" mask="url(#path-1-inside-1_383_2293)"/>
<mask id="path-3-inside-2_383_2293" fill="white">
<path fill-rule="evenodd" clip-rule="evenodd" d="M8.83422 3.125C7.74838 3.125 6.89505 3.98 6.89505 5C6.89505 6.02 7.74755 6.875 8.83422 6.875C9.92088 6.875 10.7742 6.02 10.7742 5C10.7742 3.98 9.92088 3.125 8.83422 3.125ZM5.64505 5C5.64505 3.25833 7.08838 1.875 8.83588 1.875C10.5825 1.875 12.0259 3.25833 12.0259 5C12.0259 6.74167 10.5825 8.125 8.83588 8.125C7.08922 8.125 5.64255 6.74167 5.64255 5M6.72588 9.97167C6.57338 9.87417 6.45922 9.86833 6.40588 9.8825C6.28588 9.91583 6.16672 9.95139 6.04838 9.98917L5.22838 10.2517C4.94746 10.3382 4.69056 10.4889 4.47807 10.692C4.26558 10.8951 4.10333 11.1449 4.00422 11.4217C3.98202 11.4955 3.96778 11.5715 3.96171 11.6483L3.63588 14.7308L3.63421 14.7417C3.57171 15.1808 3.80588 15.5167 4.16172 15.6C5.05922 15.8083 6.57088 16.0417 8.83338 16.0417C8.99914 16.0417 9.15811 16.1075 9.27532 16.2247C9.39253 16.3419 9.45838 16.5009 9.45838 16.6667C9.45838 16.8324 9.39253 16.9914 9.27532 17.1086C9.15811 17.2258 8.99914 17.2917 8.83338 17.2917C6.48505 17.2917 4.87755 17.0483 3.87922 16.8167C2.80505 16.5675 2.26088 15.5583 2.39505 14.5775L2.71838 11.5167C2.73338 11.3733 2.76005 11.1958 2.82338 11.0133C2.98591 10.5532 3.25337 10.1373 3.60457 9.79856C3.95578 9.4598 4.38106 9.2075 4.84672 9.06167L5.66755 8.79833C5.80255 8.75556 5.9381 8.71528 6.07422 8.6775C6.58338 8.5375 7.06755 8.705 7.40422 8.9225C7.71255 9.1225 8.21588 9.36333 8.83338 9.36333C9.45005 9.36333 9.95338 9.12167 10.2617 8.92167C10.5975 8.705 11.0825 8.5375 11.5917 8.6775C11.7278 8.71528 11.8634 8.75556 11.9984 8.79833L12.8192 9.06167C12.899 9.08536 12.9732 9.12475 13.0376 9.17751C13.1019 9.23028 13.1551 9.29536 13.1939 9.36895C13.2328 9.44253 13.2566 9.52313 13.2638 9.60603C13.2711 9.68892 13.2618 9.77243 13.2364 9.85167C13.211 9.93091 13.17 10.0043 13.1158 10.0675C13.0617 10.1307 12.9955 10.1824 12.9211 10.2197C12.8467 10.2569 12.7656 10.2789 12.6825 10.2844C12.5995 10.2899 12.5162 10.2788 12.4375 10.2517L11.6175 9.98917C11.4988 9.95118 11.3794 9.91562 11.2592 9.8825C11.2067 9.86833 11.0925 9.87417 10.9409 9.97167C10.5134 10.2483 9.77422 10.6133 8.83255 10.6133C7.89088 10.6133 7.15338 10.2483 6.72588 9.97167Z"/>
</mask>
<path fill-rule="evenodd" clip-rule="evenodd" d="M8.83422 3.125C7.74838 3.125 6.89505 3.98 6.89505 5C6.89505 6.02 7.74755 6.875 8.83422 6.875C9.92088 6.875 10.7742 6.02 10.7742 5C10.7742 3.98 9.92088 3.125 8.83422 3.125ZM5.64505 5C5.64505 3.25833 7.08838 1.875 8.83588 1.875C10.5825 1.875 12.0259 3.25833 12.0259 5C12.0259 6.74167 10.5825 8.125 8.83588 8.125C7.08922 8.125 5.64255 6.74167 5.64255 5M6.72588 9.97167C6.57338 9.87417 6.45922 9.86833 6.40588 9.8825C6.28588 9.91583 6.16672 9.95139 6.04838 9.98917L5.22838 10.2517C4.94746 10.3382 4.69056 10.4889 4.47807 10.692C4.26558 10.8951 4.10333 11.1449 4.00422 11.4217C3.98202 11.4955 3.96778 11.5715 3.96171 11.6483L3.63588 14.7308L3.63421 14.7417C3.57171 15.1808 3.80588 15.5167 4.16172 15.6C5.05922 15.8083 6.57088 16.0417 8.83338 16.0417C8.99914 16.0417 9.15811 16.1075 9.27532 16.2247C9.39253 16.3419 9.45838 16.5009 9.45838 16.6667C9.45838 16.8324 9.39253 16.9914 9.27532 17.1086C9.15811 17.2258 8.99914 17.2917 8.83338 17.2917C6.48505 17.2917 4.87755 17.0483 3.87922 16.8167C2.80505 16.5675 2.26088 15.5583 2.39505 14.5775L2.71838 11.5167C2.73338 11.3733 2.76005 11.1958 2.82338 11.0133C2.98591 10.5532 3.25337 10.1373 3.60457 9.79856C3.95578 9.4598 4.38106 9.2075 4.84672 9.06167L5.66755 8.79833C5.80255 8.75556 5.9381 8.71528 6.07422 8.6775C6.58338 8.5375 7.06755 8.705 7.40422 8.9225C7.71255 9.1225 8.21588 9.36333 8.83338 9.36333C9.45005 9.36333 9.95338 9.12167 10.2617 8.92167C10.5975 8.705 11.0825 8.5375 11.5917 8.6775C11.7278 8.71528 11.8634 8.75556 11.9984 8.79833L12.8192 9.06167C12.899 9.08536 12.9732 9.12475 13.0376 9.17751C13.1019 9.23028 13.1551 9.29536 13.1939 9.36895C13.2328 9.44253 13.2566 9.52313 13.2638 9.60603C13.2711 9.68892 13.2618 9.77243 13.2364 9.85167C13.211 9.93091 13.17 10.0043 13.1158 10.0675C13.0617 10.1307 12.9955 10.1824 12.9211 10.2197C12.8467 10.2569 12.7656 10.2789 12.6825 10.2844C12.5995 10.2899 12.5162 10.2788 12.4375 10.2517L11.6175 9.98917C11.4988 9.95118 11.3794 9.91562 11.2592 9.8825C11.2067 9.86833 11.0925 9.87417 10.9409 9.97167C10.5134 10.2483 9.77422 10.6133 8.83255 10.6133C7.89088 10.6133 7.15338 10.2483 6.72588 9.97167Z" fill="#250E45"/>
<path d="M6.72588 9.97167L7.26921 9.13213L7.26454 9.12914L6.72588 9.97167ZM6.40588 9.8825L6.14914 8.91595L6.13824 8.91898L6.40588 9.8825ZM6.04838 9.98917L5.74426 9.03653L5.7435 9.03678L6.04838 9.98917ZM5.22838 10.2517L5.52269 11.2074L5.53326 11.2041L5.22838 10.2517ZM4.00422 11.4217L3.06279 11.0845L3.05402 11.1089L3.04654 11.1338L4.00422 11.4217ZM3.96171 11.6483L4.95617 11.7535L4.95757 11.7402L4.95862 11.727L3.96171 11.6483ZM3.63588 14.7308L4.62425 14.8829L4.62785 14.8595L4.63034 14.836L3.63588 14.7308ZM3.63421 14.7417L2.64578 14.5896L2.64419 14.6008L3.63421 14.7417ZM4.16172 15.6L3.93369 16.5737L3.9356 16.5741L4.16172 15.6ZM3.87922 16.8167L4.10526 15.8426L4.10518 15.8425L3.87922 16.8167ZM2.39505 14.5775L3.38582 14.713L3.3879 14.6978L3.38952 14.6826L2.39505 14.5775ZM2.71838 11.5167L3.71285 11.6217L3.71295 11.6207L2.71838 11.5167ZM2.82338 11.0133L1.88047 10.6803L1.87865 10.6855L2.82338 11.0133ZM4.84672 9.06167L5.14559 10.016L5.15219 10.0139L4.84672 9.06167ZM5.66755 8.79833L5.36548 7.84504L5.36207 7.84613L5.66755 8.79833ZM6.07422 8.6775L5.80909 7.71328L5.80677 7.71393L6.07422 8.6775ZM7.40422 8.9225L7.94841 8.08354L7.94686 8.08254L7.40422 8.9225ZM10.2617 8.92167L9.71959 8.08137L9.71752 8.08271L10.2617 8.92167ZM11.5917 8.6775L11.8592 7.71392L11.8568 7.71328L11.5917 8.6775ZM11.9984 8.79833L12.3039 7.84613L12.3005 7.84505L11.9984 8.79833ZM12.8192 9.06167L12.5137 10.0139L12.5241 10.0172L12.5345 10.0203L12.8192 9.06167ZM12.4375 10.2517L12.7635 9.30627L12.753 9.30266L12.7424 9.29928L12.4375 10.2517ZM11.6175 9.98917L11.9224 9.03678L11.9223 9.03675L11.6175 9.98917ZM11.2592 9.8825L11.5249 8.91843L11.5197 8.91703L11.2592 9.8825ZM10.9409 9.97167L10.4001 9.13048L10.3976 9.13214L10.9409 9.97167ZM8.83422 3.125V2.125C7.21756 2.125 5.89505 3.4065 5.89505 5H6.89505H7.89505C7.89505 4.5535 8.27921 4.125 8.83422 4.125V3.125ZM6.89505 5H5.89505C5.89505 6.59322 7.21644 7.875 8.83422 7.875V6.875V5.875C8.27866 5.875 7.89505 5.44677 7.89505 5H6.89505ZM8.83422 6.875V7.875C10.4514 7.875 11.7742 6.59378 11.7742 5H10.7742H9.77422C9.77422 5.44622 9.39034 5.875 8.83422 5.875V6.875ZM10.7742 5H11.7742C11.7742 3.40622 10.4514 2.125 8.83422 2.125V3.125V4.125C9.39034 4.125 9.77422 4.55378 9.77422 5H10.7742ZM5.64505 5H6.64505C6.64505 3.83639 7.61454 2.875 8.83588 2.875V1.875V0.875C6.56223 0.875 4.64505 2.68028 4.64505 5H5.64505ZM8.83588 1.875V2.875C10.0562 2.875 11.0259 3.83622 11.0259 5H12.0259H13.0259C13.0259 2.68044 11.1089 0.875 8.83588 0.875V1.875ZM12.0259 5H11.0259C11.0259 6.16378 10.0562 7.125 8.83588 7.125V8.125V9.125C11.1089 9.125 13.0259 7.31956 13.0259 5H12.0259ZM8.83588 8.125V7.125C7.61417 7.125 6.64255 6.16244 6.64255 5H5.64255H4.64255C4.64255 7.32089 6.56426 9.125 8.83588 9.125V8.125ZM6.72588 9.97167L7.26454 9.12914C6.95572 8.9317 6.5529 8.80877 6.14916 8.91601L6.40588 9.8825L6.6626 10.849C6.50301 10.8914 6.37953 10.8762 6.31494 10.8621C6.24067 10.8458 6.19848 10.8214 6.18722 10.8142L6.72588 9.97167ZM6.40588 9.8825L6.13824 8.91898C6.00604 8.9557 5.87471 8.99489 5.74426 9.03654L6.04838 9.98917L6.35251 10.9418C6.45872 10.9079 6.56572 10.876 6.67353 10.846L6.40588 9.8825ZM6.04838 9.98917L5.7435 9.03678L4.9235 9.29928L5.22838 10.2517L5.53326 11.2041L6.35326 10.9416L6.04838 9.98917ZM5.22838 10.2517L4.93409 9.29595C4.50466 9.42818 4.11196 9.65867 3.78714 9.96912L4.47807 10.692L5.169 11.415C5.26917 11.3192 5.39026 11.2482 5.52267 11.2074L5.22838 10.2517ZM4.47807 10.692L3.78714 9.96912C3.46231 10.2796 3.2143 10.6614 3.06279 11.0845L4.00422 11.4217L4.94564 11.7589C4.99236 11.6284 5.06884 11.5107 5.169 11.415L4.47807 10.692ZM4.00422 11.4217L3.04654 11.1338C3.00387 11.2758 2.97647 11.4219 2.96481 11.5697L3.96171 11.6483L4.95862 11.727C4.95909 11.721 4.96018 11.7152 4.96189 11.7095L4.00422 11.4217ZM3.96171 11.6483L2.96726 11.5432L2.64142 14.6257L3.63588 14.7308L4.63034 14.836L4.95617 11.7535L3.96171 11.6483ZM3.63588 14.7308L2.64751 14.5788L2.64584 14.5896L3.63421 14.7417L4.62259 14.8937L4.62425 14.8829L3.63588 14.7308ZM3.63421 14.7417L2.64419 14.6008C2.51698 15.4946 3.01836 16.3593 3.93369 16.5737L4.16172 15.6L4.38974 14.6263C4.46239 14.6434 4.53718 14.6928 4.58419 14.7665C4.63065 14.8393 4.62302 14.8911 4.62424 14.8826L3.63421 14.7417ZM4.16172 15.6L3.9356 16.5741C4.91402 16.8012 6.50206 17.0417 8.83338 17.0417V16.0417V15.0417C6.6397 15.0417 5.20441 14.8154 4.38783 14.6259L4.16172 15.6ZM8.83338 16.0417V17.0417C8.73393 17.0417 8.63854 17.0022 8.56822 16.9318L9.27532 16.2247L9.98243 15.5176C9.67768 15.2129 9.26436 15.0417 8.83338 15.0417V16.0417ZM9.27532 16.2247L8.56822 16.9318C8.49789 16.8615 8.45838 16.7661 8.45838 16.6667H9.45838H10.4584C10.4584 16.2357 10.2872 15.8224 9.98243 15.5176L9.27532 16.2247ZM9.45838 16.6667H8.45838C8.45838 16.5672 8.49789 16.4718 8.56822 16.4015L9.27532 17.1086L9.98243 17.8157C10.2872 17.511 10.4584 17.0976 10.4584 16.6667H9.45838ZM9.27532 17.1086L8.56822 16.4015C8.63854 16.3312 8.73393 16.2917 8.83338 16.2917V17.2917V18.2917C9.26436 18.2917 9.67768 18.1205 9.98243 17.8157L9.27532 17.1086ZM8.83338 17.2917V16.2917C6.55432 16.2917 5.02312 16.0555 4.10526 15.8426L3.87922 16.8167L3.65317 17.7908C4.73198 18.0411 6.41577 18.2917 8.83338 18.2917V17.2917ZM3.87922 16.8167L4.10518 15.8425C3.61193 15.7281 3.31034 15.2649 3.38582 14.713L2.39505 14.5775L1.40427 14.442C1.21143 15.8518 1.99817 17.4069 3.65325 17.7908L3.87922 16.8167ZM2.39505 14.5775L3.38952 14.6826L3.71285 11.6217L2.71838 11.5167L1.72391 11.4116L1.40058 14.4724L2.39505 14.5775ZM2.71838 11.5167L3.71295 11.6207C3.72438 11.5116 3.74078 11.4199 3.76811 11.3412L2.82338 11.0133L1.87865 10.6855C1.77932 10.9717 1.74239 11.2351 1.72381 11.4126L2.71838 11.5167ZM2.82338 11.0133L3.76628 11.3464C3.87708 11.0328 4.05941 10.7492 4.29882 10.5183L3.60457 9.79856L2.91033 9.07882C2.44734 9.52541 2.09474 10.0737 1.88048 10.6803L2.82338 11.0133ZM3.60457 9.79856L4.29882 10.5183C4.53823 10.2874 4.82815 10.1154 5.14558 10.016L4.84672 9.06167L4.54785 8.10737C3.93397 8.29963 3.37332 8.63223 2.91033 9.07882L3.60457 9.79856ZM4.84672 9.06167L5.15219 10.0139L5.97303 9.75053L5.66755 8.79833L5.36207 7.84613L4.54124 8.10947L4.84672 9.06167ZM5.66755 8.79833L5.96962 9.75162C6.09317 9.71247 6.21718 9.67562 6.34166 9.64107L6.07422 8.6775L5.80677 7.71393C5.65903 7.75493 5.51193 7.79864 5.36548 7.84505L5.66755 8.79833ZM6.07422 8.6775L6.33934 9.64172C6.4819 9.60252 6.67029 9.63889 6.86157 9.76246L7.40422 8.9225L7.94686 8.08254C7.46481 7.77111 6.68486 7.47248 5.8091 7.71328L6.07422 8.6775ZM7.40422 8.9225L6.86002 9.76146C7.26525 10.0243 7.95751 10.3633 8.83338 10.3633V9.36333V8.36333C8.47426 8.36333 8.15984 8.22069 7.94841 8.08354L7.40422 8.9225ZM8.83338 9.36333V10.3633C9.70946 10.3633 10.4019 10.0227 10.8059 9.76063L10.2617 8.92167L9.71752 8.08271C9.50485 8.22065 9.19064 8.36333 8.83338 8.36333V9.36333ZM10.2617 8.92167L10.8038 9.76196C10.9941 9.63923 11.1835 9.60238 11.3266 9.64172L11.5917 8.6775L11.8568 7.71328C10.9816 7.47262 10.201 7.77077 9.71959 8.08137L10.2617 8.92167ZM11.5917 8.6775L11.3243 9.64107C11.4488 9.67562 11.5728 9.71247 11.6963 9.75162L11.9984 8.79833L12.3005 7.84505C12.154 7.79864 12.0069 7.75493 11.8592 7.71393L11.5917 8.6775ZM11.9984 8.79833L11.6929 9.75053L12.5137 10.0139L12.8192 9.06167L13.1247 8.10947L12.3039 7.84613L11.9984 8.79833ZM12.8192 9.06167L12.5345 10.0203C12.4866 10.0061 12.4421 9.98242 12.4035 9.95076L13.0376 9.17751L13.6717 8.40426C13.5044 8.26707 13.3114 8.16467 13.104 8.10306L12.8192 9.06167ZM13.0376 9.17751L12.4035 9.95076C12.3649 9.9191 12.333 9.88005 12.3096 9.8359L13.1939 9.36895L14.0782 8.90199C13.9772 8.71067 13.839 8.54145 13.6717 8.40426L13.0376 9.17751ZM13.1939 9.36895L12.3096 9.8359C12.2863 9.79175 12.2721 9.74339 12.2677 9.69366L13.2638 9.60603L14.26 9.5184C14.241 9.30287 14.1792 9.09331 14.0782 8.90199L13.1939 9.36895ZM13.2638 9.60603L12.2677 9.69366C12.2633 9.64391 12.2689 9.59381 12.2842 9.54627L13.2364 9.85167L14.1886 10.1571C14.2547 9.95106 14.279 9.73392 14.26 9.5184L13.2638 9.60603ZM13.2364 9.85167L12.2842 9.54627C12.2994 9.49872 12.324 9.45471 12.3565 9.41679L13.1158 10.0675L13.8752 10.7181C14.016 10.5538 14.1225 10.3631 14.1886 10.1571L13.2364 9.85167ZM13.1158 10.0675L12.3565 9.41679C12.389 9.37888 12.4287 9.34783 12.4734 9.32548L12.9211 10.2197L13.3688 11.1138C13.5623 11.017 13.7344 10.8824 13.8752 10.7181L13.1158 10.0675ZM12.9211 10.2197L12.4734 9.32548C12.518 9.30313 12.5667 9.28991 12.6165 9.28661L12.6825 10.2844L12.7486 11.2822C12.9645 11.2679 13.1754 11.2107 13.3688 11.1138L12.9211 10.2197ZM12.6825 10.2844L12.6165 9.28661C12.6663 9.28331 12.7163 9.29 12.7635 9.30627L12.4375 10.2517L12.1116 11.1971C12.3162 11.2676 12.5327 11.2965 12.7486 11.2822L12.6825 10.2844ZM12.4375 10.2517L12.7424 9.29928L11.9224 9.03678L11.6175 9.98917L11.3127 10.9416L12.1327 11.2041L12.4375 10.2517ZM11.6175 9.98917L11.9223 9.03675C11.7907 8.99462 11.6582 8.95517 11.5249 8.91844L11.2592 9.8825L10.9935 10.8466C11.1006 10.8761 11.207 10.9077 11.3128 10.9416L11.6175 9.98917ZM11.2592 9.8825L11.5197 8.91703C11.113 8.80728 10.7076 8.93285 10.4001 9.13049L10.9409 9.97167L11.4816 10.8128C11.4694 10.8207 11.4265 10.8455 11.3518 10.8619C11.2878 10.876 11.162 10.892 10.9987 10.848L11.2592 9.8825ZM10.9409 9.97167L10.3976 9.13214C10.0651 9.34733 9.51482 9.61333 8.83255 9.61333V10.6133V11.6133C10.0336 11.6133 10.9617 11.1493 11.4842 10.8112L10.9409 9.97167ZM8.83255 10.6133V9.61333C8.1507 9.61333 7.60221 9.34766 7.2692 9.13214L6.72588 9.97167L6.18256 10.8112C6.70455 11.149 7.63107 11.6133 8.83255 11.6133V10.6133Z" fill="#D1CFCF" mask="url(#path-3-inside-2_383_2293)"/>
</svg>
