<svg width="15" height="16" viewBox="0 0 15 16" fill="none" xmlns="http://www.w3.org/2000/svg">
<path d="M3.75 8.24994C3.77573 8.24994 3.80117 8.25607 3.82422 8.26752L7.1582 9.93451C7.18571 9.94833 7.2084 9.96986 7.22461 9.99603C7.23274 10.0092 7.23897 10.0233 7.24316 10.038L7.25 10.0839V15.0829C7.25 15.1271 7.23241 15.1699 7.20117 15.2011C7.16992 15.2324 7.12721 15.2499 7.08301 15.2499H0.416992C0.372789 15.2499 0.330084 15.2324 0.298828 15.2011C0.267592 15.1699 0.25 15.1271 0.25 15.0829V10.0839C0.250017 10.053 0.259113 10.0223 0.275391 9.99603C0.291604 9.96986 0.314286 9.94833 0.341797 9.93451L3.67578 8.26752C3.69883 8.25607 3.72427 8.24994 3.75 8.24994ZM3.08301 14.9169H4.41699V11.9169H3.08301V14.9169ZM11.667 3.24994C11.6958 3.25 11.724 3.25811 11.749 3.2724L14.666 4.93842C14.6915 4.95299 14.7128 4.97454 14.7275 4.99994C14.7422 5.02517 14.7499 5.05379 14.75 5.08295V9.24994C14.75 9.29414 14.7324 9.33685 14.7012 9.3681C14.6699 9.39928 14.6271 9.41693 14.583 9.41693H8.75C8.7058 9.41693 8.66309 9.39936 8.63184 9.3681C8.6006 9.33685 8.58301 9.29413 8.58301 9.24994V5.08295C8.5831 5.05384 8.59091 5.02514 8.60547 4.99994C8.6202 4.97457 8.64153 4.95298 8.66699 4.93842L11.584 3.2724C11.6092 3.25802 11.638 3.24994 11.667 3.24994ZM11 9.08295H12.333V6.49994H11V9.08295ZM4.58301 0.749939C4.61593 0.749939 4.64839 0.759986 4.67578 0.778259L7.17578 2.44427C7.1986 2.4595 7.21753 2.48063 7.23047 2.50482C7.24329 2.52886 7.24995 2.55571 7.25 2.58295V5.91693C7.24993 5.96095 7.23224 6.00294 7.20117 6.03412C7.16992 6.06537 7.12721 6.08295 7.08301 6.08295H2.08301C2.03892 6.08286 1.997 6.0653 1.96582 6.03412C1.93465 6.00293 1.91706 5.96102 1.91699 5.91693V2.58295C1.91705 2.55566 1.92366 2.52889 1.93652 2.50482C1.94946 2.48063 1.96839 2.4595 1.99121 2.44427L4.49121 0.778259C4.51848 0.7601 4.55025 0.750003 4.58301 0.749939ZM3.91699 5.74994H5.25V3.58295H3.91699V5.74994ZM6.91699 10.1865L6.77832 10.1171L3.86133 8.65912L3.75 8.60345L3.63867 8.65912L0.72168 10.1171L0.583008 10.1865V14.9169H2.75V11.7499C2.75002 11.7058 2.76759 11.663 2.79883 11.6318C2.83007 11.6006 2.87288 11.5829 2.91699 11.5829H4.58301C4.62712 11.5829 4.66994 11.6006 4.70117 11.6318C4.73241 11.663 4.74998 11.7058 4.75 11.7499V14.9169H6.91699V10.1865ZM14.417 5.17963L14.291 5.10834L11.791 3.67963L11.667 3.60834L11.543 3.67963L9.04297 5.10834L8.91699 5.17963V9.08295H10.667V6.33295C10.6671 6.28888 10.6847 6.24692 10.7158 6.21576C10.747 6.1846 10.7889 6.16702 10.833 6.16693H12.5C12.5442 6.16693 12.5869 6.1845 12.6182 6.21576C12.6491 6.24689 12.6669 6.28902 12.667 6.33295V9.08295H14.417V5.17963ZM6.91699 2.67279L6.80566 2.59857L4.72168 1.2099L4.58301 1.11713L4.44434 1.2099L2.25 2.67279V5.74994H3.58301V3.41693C3.58301 3.37279 3.60066 3.33001 3.63184 3.29877C3.66309 3.26751 3.7058 3.24994 3.75 3.24994H5.41699C5.46099 3.25002 5.50302 3.26771 5.53418 3.29877C5.56543 3.33002 5.58301 3.37273 5.58301 3.41693V5.74994H6.91699V2.67279Z" fill="#250E45" stroke="#D1CFCF" stroke-width="0.5"/>
</svg>
