<svg width="40" height="40" viewBox="0 0 40 40" fill="none" xmlns="http://www.w3.org/2000/svg">
<path d="M0 20C0 8.95431 8.95431 0 20 0C31.0457 0 40 8.95431 40 20C40 31.0457 31.0457 40 20 40C8.95431 40 0 31.0457 0 20Z" fill="#DFF8F1"/>
<mask id="path-2-inside-1_977_8635" fill="white">
<path d="M20.83 11.25H15.17C14.635 11.25 14.19 11.25 13.825 11.28C13.445 11.31 13.089 11.378 12.752 11.55C12.2344 11.8137 11.8137 12.2344 11.55 12.752C11.378 13.089 11.31 13.445 11.28 13.825C11.25 14.19 11.25 14.635 11.25 15.17V24.83C11.25 25.365 11.25 25.81 11.28 26.175C11.31 26.555 11.378 26.911 11.55 27.248C11.8137 27.7656 12.2344 28.1863 12.752 28.45C12.93 28.541 13.151 28.577 13.282 28.596C13.449 28.621 13.65 28.64 13.866 28.656C14.3 28.688 14.841 28.709 15.393 28.723C16.345 28.746 17.298 28.75 18.25 28.75C18.4489 28.75 18.6397 28.671 18.7803 28.5303C18.921 28.3897 19 28.1989 19 28C19 27.8011 18.921 27.6103 18.7803 27.4697C18.6397 27.329 18.4489 27.25 18.25 27.25C17.69 27.25 16.515 27.25 15.43 27.223C14.9449 27.213 14.4601 27.192 13.976 27.16C13.7753 27.1447 13.6167 27.1287 13.5 27.112L13.394 27.094C13.1759 26.973 12.999 26.7894 12.886 26.567C12.84 26.477 12.798 26.34 12.775 26.052C12.751 25.757 12.75 25.372 12.75 24.8V15.2C12.75 14.628 12.75 14.243 12.775 13.947C12.798 13.66 12.84 13.523 12.886 13.433C13.0059 13.1974 13.1974 13.0059 13.433 12.886C13.523 12.84 13.66 12.798 13.947 12.775C14.243 12.751 14.627 12.75 15.2 12.75H20.8C21.372 12.75 21.757 12.75 22.052 12.775C22.34 12.798 22.477 12.84 22.568 12.886C22.803 13.006 22.994 13.197 23.114 13.433C23.16 13.523 23.202 13.66 23.225 13.947C23.249 14.243 23.25 14.627 23.25 15.2V18.25C23.25 18.4489 23.329 18.6397 23.4697 18.7803C23.6103 18.921 23.8011 19 24 19C24.1989 19 24.3897 18.921 24.5303 18.7803C24.671 18.6397 24.75 18.4489 24.75 18.25V15.17C24.75 14.635 24.75 14.19 24.72 13.825C24.69 13.445 24.622 13.089 24.45 12.752C24.1869 12.2348 23.7668 11.814 23.25 11.55C22.912 11.378 22.556 11.31 22.176 11.28C21.811 11.25 21.366 11.25 20.831 11.25"/>
</mask>
<path d="M20.83 11.25H15.17C14.635 11.25 14.19 11.25 13.825 11.28C13.445 11.31 13.089 11.378 12.752 11.55C12.2344 11.8137 11.8137 12.2344 11.55 12.752C11.378 13.089 11.31 13.445 11.28 13.825C11.25 14.19 11.25 14.635 11.25 15.17V24.83C11.25 25.365 11.25 25.81 11.28 26.175C11.31 26.555 11.378 26.911 11.55 27.248C11.8137 27.7656 12.2344 28.1863 12.752 28.45C12.93 28.541 13.151 28.577 13.282 28.596C13.449 28.621 13.65 28.64 13.866 28.656C14.3 28.688 14.841 28.709 15.393 28.723C16.345 28.746 17.298 28.75 18.25 28.75C18.4489 28.75 18.6397 28.671 18.7803 28.5303C18.921 28.3897 19 28.1989 19 28C19 27.8011 18.921 27.6103 18.7803 27.4697C18.6397 27.329 18.4489 27.25 18.25 27.25C17.69 27.25 16.515 27.25 15.43 27.223C14.9449 27.213 14.4601 27.192 13.976 27.16C13.7753 27.1447 13.6167 27.1287 13.5 27.112L13.394 27.094C13.1759 26.973 12.999 26.7894 12.886 26.567C12.84 26.477 12.798 26.34 12.775 26.052C12.751 25.757 12.75 25.372 12.75 24.8V15.2C12.75 14.628 12.75 14.243 12.775 13.947C12.798 13.66 12.84 13.523 12.886 13.433C13.0059 13.1974 13.1974 13.0059 13.433 12.886C13.523 12.84 13.66 12.798 13.947 12.775C14.243 12.751 14.627 12.75 15.2 12.75H20.8C21.372 12.75 21.757 12.75 22.052 12.775C22.34 12.798 22.477 12.84 22.568 12.886C22.803 13.006 22.994 13.197 23.114 13.433C23.16 13.523 23.202 13.66 23.225 13.947C23.249 14.243 23.25 14.627 23.25 15.2V18.25C23.25 18.4489 23.329 18.6397 23.4697 18.7803C23.6103 18.921 23.8011 19 24 19C24.1989 19 24.3897 18.921 24.5303 18.7803C24.671 18.6397 24.75 18.4489 24.75 18.25V15.17C24.75 14.635 24.75 14.19 24.72 13.825C24.69 13.445 24.622 13.089 24.45 12.752C24.1869 12.2348 23.7668 11.814 23.25 11.55C22.912 11.378 22.556 11.31 22.176 11.28C21.811 11.25 21.366 11.25 20.831 11.25" fill="#250E45"/>
<path d="M13.825 11.28L13.9299 12.6092L13.9342 12.6089L13.825 11.28ZM12.752 11.55L13.3573 12.738L13.3581 12.7376L12.752 11.55ZM11.55 12.752L12.7376 13.3581L12.738 13.3573L11.55 12.752ZM11.28 13.825L12.6089 13.9342L12.6092 13.9299L11.28 13.825ZM11.28 26.175L12.6092 26.0701L12.6089 26.0658L11.28 26.175ZM11.55 27.248L12.738 26.6427L12.7376 26.6419L11.55 27.248ZM12.752 28.45L13.3589 27.2628L13.3573 27.262L12.752 28.45ZM13.282 28.596L13.4794 27.2773L13.4734 27.2765L13.282 28.596ZM13.866 28.656L13.7675 29.9857L13.768 29.9857L13.866 28.656ZM15.393 28.723L15.3592 30.0559L15.3608 30.0559L15.393 28.723ZM15.43 27.223L15.4632 25.8901L15.4574 25.8899L15.43 27.223ZM13.976 27.16L13.8744 28.4895L13.888 28.4904L13.976 27.16ZM13.5 27.112L13.2768 28.4265L13.2941 28.4295L13.3114 28.4319L13.5 27.112ZM13.394 27.094L12.747 28.2599L12.9462 28.3704L13.1708 28.4085L13.394 27.094ZM12.886 26.567L14.0748 25.9633L14.0732 25.9602L12.886 26.567ZM12.775 26.052L14.1041 25.9459L14.1039 25.9439L12.775 26.052ZM12.775 13.947L14.1036 14.0592L14.1041 14.0535L12.775 13.947ZM12.886 13.433L14.0732 14.0398L14.0743 14.0378L12.886 13.433ZM13.433 12.886L14.0378 14.0743L14.0398 14.0732L13.433 12.886ZM13.947 12.775L14.0535 14.1041L14.0548 14.104L13.947 12.775ZM22.052 12.775L21.9394 14.1036L21.9459 14.1041L22.052 12.775ZM22.568 12.886L23.1744 11.6985L23.1695 11.6961L22.568 12.886ZM23.114 13.433L21.9255 14.0373L21.9268 14.0398L23.114 13.433ZM23.225 13.947L21.8959 14.0535L21.896 14.0548L23.225 13.947ZM23.25 18.25H21.9167H23.25ZM24.75 18.25H26.0833H24.75ZM24.72 13.825L23.3908 13.9299L23.3911 13.9342L24.72 13.825ZM24.45 12.752L23.2616 13.3566L23.2624 13.3581L24.45 12.752ZM23.25 11.55L23.8566 10.3626L23.8547 10.3617L23.25 11.55ZM22.176 11.28L22.0668 12.6089L22.0711 12.6092L22.176 11.28ZM20.83 11.25V9.91667H15.17V11.25V12.5833H20.83V11.25ZM15.17 11.25V9.91667C14.6544 9.91667 14.1474 9.91567 13.7158 9.95115L13.825 11.28L13.9342 12.6089C14.2326 12.5843 14.6156 12.5833 15.17 12.5833V11.25ZM13.825 11.28L13.7201 9.9508C13.2516 9.98779 12.701 10.0791 12.1459 10.3624L12.752 11.55L13.3581 12.7376C13.477 12.6769 13.6384 12.6322 13.9299 12.6092L13.825 11.28ZM12.752 11.55L12.1467 10.362C11.3783 10.7535 10.7535 11.3783 10.362 12.1467L11.55 12.752L12.738 13.3573C12.8739 13.0906 13.0906 12.8739 13.3573 12.738L12.752 11.55ZM11.55 12.752L10.3624 12.1459C10.0791 12.701 9.98779 13.2516 9.9508 13.7201L11.28 13.825L12.6092 13.9299C12.6322 13.6384 12.6769 13.477 12.7376 13.3581L11.55 12.752ZM11.28 13.825L9.95115 13.7158C9.91567 14.1474 9.91667 14.6544 9.91667 15.17H11.25H12.5833C12.5833 14.6156 12.5843 14.2326 12.6089 13.9342L11.28 13.825ZM11.25 15.17H9.91667V24.83H11.25H12.5833V15.17H11.25ZM11.25 24.83H9.91667C9.91667 25.3456 9.91567 25.8526 9.95115 26.2842L11.28 26.175L12.6089 26.0658C12.5843 25.7674 12.5833 25.3844 12.5833 24.83H11.25ZM11.28 26.175L9.9508 26.2799C9.98779 26.7484 10.0791 27.299 10.3624 27.8541L11.55 27.248L12.7376 26.6419C12.6769 26.523 12.6322 26.3616 12.6092 26.0701L11.28 26.175ZM11.55 27.248L10.362 27.8533C10.7535 28.6217 11.3783 29.2465 12.1467 29.638L12.752 28.45L13.3573 27.262C13.0906 27.1261 12.8739 26.9094 12.738 26.6427L11.55 27.248ZM12.752 28.45L12.1451 29.6372C12.5424 29.8403 12.9673 29.8976 13.0906 29.9155L13.282 28.596L13.4734 27.2765C13.4194 27.2686 13.3807 27.2619 13.3487 27.2542C13.3416 27.2525 13.336 27.251 13.3319 27.2498C13.3299 27.2492 13.3284 27.2488 13.3274 27.2484C13.3263 27.2481 13.3258 27.2479 13.3258 27.2479C13.3259 27.2479 13.3265 27.2482 13.3278 27.2486C13.3291 27.2491 13.331 27.2499 13.3337 27.251C13.3388 27.2531 13.3474 27.2569 13.3589 27.2628L12.752 28.45ZM13.282 28.596L13.0846 29.9146C13.3009 29.947 13.5407 29.9689 13.7675 29.9857L13.866 28.656L13.9645 27.3263C13.7593 27.3111 13.5971 27.295 13.4794 27.2774L13.282 28.596ZM13.866 28.656L13.768 29.9857C14.2339 30.0201 14.7999 30.0417 15.3592 30.0559L15.393 28.723L15.4268 27.3901C14.8821 27.3763 14.3661 27.3559 13.964 27.3263L13.866 28.656ZM15.393 28.723L15.3608 30.0559C16.3294 30.0793 17.2954 30.0833 18.25 30.0833V28.75V27.4167C17.3006 27.4167 16.3606 27.4127 15.4252 27.3901L15.393 28.723ZM18.25 28.75V30.0833C18.8025 30.0833 19.3324 29.8638 19.7231 29.4731L18.7803 28.5303L17.8375 27.5875C17.9469 27.4781 18.0953 27.4167 18.25 27.4167V28.75ZM18.7803 28.5303L19.7231 29.4731C20.1138 29.0824 20.3333 28.5525 20.3333 28H19H17.6667C17.6667 27.8453 17.7281 27.6969 17.8375 27.5875L18.7803 28.5303ZM19 28H20.3333C20.3333 27.4475 20.1138 26.9176 19.7231 26.5269L18.7803 27.4697L17.8375 28.4125C17.7281 28.3031 17.6667 28.1547 17.6667 28H19ZM18.7803 27.4697L19.7231 26.5269C19.3324 26.1362 18.8025 25.9167 18.25 25.9167V27.25V28.5833C18.0953 28.5833 17.9469 28.5219 17.8375 28.4125L18.7803 27.4697ZM18.25 27.25V25.9167C17.6887 25.9167 16.5293 25.9166 15.4632 25.8901L15.43 27.223L15.3968 28.5559C16.5007 28.5834 17.6913 28.5833 18.25 28.5833V27.25ZM15.43 27.223L15.4574 25.8899C14.9925 25.8804 14.5279 25.8603 14.064 25.8296L13.976 27.16L13.888 28.4904C14.3923 28.5238 14.8973 28.5457 15.4026 28.5561L15.43 27.223ZM13.976 27.16L14.0776 25.8305C13.8888 25.8161 13.7632 25.8027 13.6886 25.7921L13.5 27.112L13.3114 28.4319C13.4701 28.4546 13.6619 28.4732 13.8744 28.4895L13.976 27.16ZM13.5 27.112L13.7232 25.7975L13.6172 25.7795L13.394 27.094L13.1708 28.4085L13.2768 28.4265L13.5 27.112ZM13.394 27.094L14.041 25.9281C14.0555 25.9362 14.0673 25.9484 14.0748 25.9633L12.886 26.567L11.6972 27.1707C11.9306 27.6304 12.2963 28.0097 12.747 28.2599L13.394 27.094ZM12.886 26.567L14.0732 25.9602C14.0801 25.9736 14.0866 25.9873 14.0925 26.001C14.0984 26.0147 14.1034 26.0274 14.1075 26.0387C14.1156 26.0615 14.1192 26.0761 14.1199 26.0791C14.1206 26.0818 14.1185 26.0735 14.1153 26.0511C14.112 26.0287 14.108 25.9945 14.1041 25.9459L12.775 26.052L11.4459 26.1581C11.4755 26.5289 11.5397 26.8627 11.6988 27.1738L12.886 26.567ZM12.775 26.052L14.1039 25.9439C14.0853 25.7153 14.0833 25.3932 14.0833 24.8H12.75H11.4167C11.4167 25.3508 11.4167 25.7987 11.4461 26.1601L12.775 26.052ZM12.75 24.8H14.0833V15.2H12.75H11.4167V24.8H12.75ZM12.75 15.2H14.0833C14.0833 14.6024 14.0845 14.2854 14.1036 14.0592L12.775 13.947L11.4464 13.8348C11.4155 14.2006 11.4167 14.6536 11.4167 15.2H12.75ZM12.775 13.947L14.1041 14.0535C14.108 14.0051 14.112 13.9712 14.1152 13.9489C14.1184 13.9267 14.1205 13.9185 14.1198 13.9212C14.1191 13.9243 14.1155 13.9388 14.1074 13.9615C14.1033 13.9728 14.0984 13.9854 14.0925 13.9991C14.0865 14.0128 14.0801 14.0264 14.0732 14.0398L12.886 13.433L11.6988 12.8262C11.5399 13.1369 11.4756 13.4704 11.4459 13.8405L12.775 13.947ZM12.886 13.433L14.0743 14.0378C14.0663 14.0535 14.0535 14.0663 14.0378 14.0743L13.433 12.886L12.8282 11.6977C12.3413 11.9455 11.9455 12.3413 11.6977 12.8282L12.886 13.433ZM13.433 12.886L14.0398 14.0732C14.0264 14.0801 14.0128 14.0865 13.9991 14.0925C13.9854 14.0984 13.9728 14.1033 13.9615 14.1074C13.9388 14.1155 13.9243 14.1191 13.9212 14.1198C13.9185 14.1205 13.9267 14.1184 13.9489 14.1152C13.9712 14.112 14.0051 14.108 14.0535 14.1041L13.947 12.775L13.8405 11.4459C13.4704 11.4756 13.1369 11.5399 12.8262 11.6988L13.433 12.886ZM13.947 12.775L14.0548 14.104C14.2846 14.0853 14.606 14.0833 15.2 14.0833V12.75V11.4167C14.648 11.4167 14.2014 11.4167 13.8392 11.446L13.947 12.775ZM15.2 12.75V14.0833H20.8V12.75V11.4167H15.2V12.75ZM20.8 12.75V14.0833C21.3978 14.0833 21.7144 14.0845 21.9394 14.1036L22.052 12.775L22.1646 11.4464C21.7996 11.4155 21.3462 11.4167 20.8 11.4167V12.75ZM22.052 12.775L21.9459 14.1041C21.9945 14.108 22.0287 14.112 22.0512 14.1153C22.0736 14.1185 22.082 14.1206 22.0797 14.1201C22.0769 14.1194 22.0629 14.116 22.041 14.1081C22.0301 14.1042 22.018 14.0995 22.005 14.0939C21.9919 14.0883 21.979 14.0823 21.9665 14.0759L22.568 12.886L23.1695 11.6961C22.8612 11.5402 22.531 11.4757 22.1581 11.4459L22.052 12.775ZM22.568 12.886L21.9616 14.0735C21.9462 14.0656 21.9333 14.0526 21.9255 14.0373L23.114 13.433L24.3025 12.8287C24.0547 12.3414 23.6598 11.9464 23.1744 11.6985L22.568 12.886ZM23.114 13.433L21.9268 14.0398C21.9199 14.0264 21.9135 14.0128 21.9075 13.9991C21.9016 13.9854 21.8967 13.9728 21.8926 13.9615C21.8845 13.9388 21.8809 13.9243 21.8802 13.9212C21.8795 13.9185 21.8816 13.9267 21.8848 13.9489C21.888 13.9712 21.8921 14.0051 21.8959 14.0535L23.225 13.947L24.5541 13.8405C24.5244 13.4704 24.4601 13.1369 24.3012 12.8262L23.114 13.433ZM23.225 13.947L21.896 14.0548C21.9147 14.2846 21.9167 14.606 21.9167 15.2H23.25H24.5833C24.5833 14.648 24.5833 14.2014 24.554 13.8392L23.225 13.947ZM23.25 15.2H21.9167V18.25H23.25H24.5833V15.2H23.25ZM23.25 18.25H21.9167C21.9167 18.8025 22.1362 19.3324 22.5269 19.7231L23.4697 18.7803L24.4125 17.8375C24.5219 17.9469 24.5833 18.0953 24.5833 18.25H23.25ZM23.4697 18.7803L22.5269 19.7231C22.9176 20.1138 23.4475 20.3333 24 20.3333V19V17.6667C24.1547 17.6667 24.3031 17.7281 24.4125 17.8375L23.4697 18.7803ZM24 19V20.3333C24.5525 20.3333 25.0824 20.1138 25.4731 19.7231L24.5303 18.7803L23.5875 17.8375C23.6969 17.7281 23.8453 17.6667 24 17.6667V19ZM24.5303 18.7803L25.4731 19.7231C25.8638 19.3324 26.0833 18.8025 26.0833 18.25H24.75H23.4167C23.4167 18.0953 23.4781 17.9469 23.5875 17.8375L24.5303 18.7803ZM24.75 18.25H26.0833V15.17H24.75H23.4167V18.25H24.75ZM24.75 15.17H26.0833C26.0833 14.6544 26.0843 14.1474 26.0489 13.7158L24.72 13.825L23.3911 13.9342C23.4157 14.2326 23.4167 14.6156 23.4167 15.17H24.75ZM24.72 13.825L26.0492 13.7201C26.0122 13.2516 25.9209 12.701 25.6376 12.1459L24.45 12.752L23.2624 13.3581C23.3231 13.477 23.3678 13.6384 23.3908 13.9299L24.72 13.825ZM24.45 12.752L25.6384 12.1474C25.2476 11.3794 24.6239 10.7546 23.8566 10.3626L23.25 11.55L22.6434 12.7374C22.9097 12.8734 23.1261 13.0901 23.2616 13.3566L24.45 12.752ZM23.25 11.55L23.8547 10.3617C23.2995 10.0791 22.7498 9.98782 22.2809 9.9508L22.176 11.28L22.0711 12.6092C22.3622 12.6322 22.5245 12.6769 22.6453 12.7383L23.25 11.55ZM22.176 11.28L22.2852 9.95115C21.8536 9.91567 21.3466 9.91667 20.831 9.91667V11.25V12.5833C21.3854 12.5833 21.7684 12.5843 22.0668 12.6089L22.176 11.28Z" fill="#5F25B0" mask="url(#path-2-inside-1_977_8635)"/>
<mask id="path-4-inside-2_977_8635" fill="white">
<path d="M22.371 20.25H26.629C27.024 20.25 27.365 20.25 27.646 20.273C27.943 20.297 28.238 20.351 28.521 20.495C28.945 20.711 29.289 21.055 29.505 21.479C29.649 21.762 29.703 22.057 29.727 22.354C29.75 22.634 29.75 22.976 29.75 23.371V25.629C29.75 26.024 29.75 26.365 29.727 26.646C29.7115 26.9495 29.6361 27.2469 29.505 27.521C29.2895 27.9446 28.9454 28.289 28.522 28.505C28.238 28.649 27.942 28.703 27.646 28.727C27.366 28.75 27.024 28.75 26.629 28.75H22.371C21.976 28.75 21.635 28.75 21.354 28.727C21.0505 28.7115 20.7531 28.6361 20.479 28.505C20.0554 28.2895 19.7109 27.9454 19.495 27.522C19.3638 27.2476 19.2883 26.9498 19.273 26.646C19.25 26.366 19.25 26.024 19.25 25.629V23.37C19.25 22.975 19.25 22.634 19.273 22.353C19.2885 22.0495 19.3639 21.7521 19.495 21.478C19.7108 21.0543 20.0553 20.7098 20.479 20.494C20.7531 20.3629 21.0505 20.2875 21.354 20.272C21.634 20.249 21.976 20.249 22.371 20.249M20.75 23.4V24.25H28.25V23.4C28.25 23.131 28.25 22.921 28.245 22.75H20.755C20.75 22.921 20.75 23.131 20.75 23.4ZM13.75 15C13.75 14.8011 13.829 14.6103 13.9697 14.4697C14.1103 14.329 14.3011 14.25 14.5 14.25H18.5C18.6989 14.25 18.8897 14.329 19.0303 14.4697C19.171 14.6103 19.25 14.8011 19.25 15C19.25 15.1989 19.171 15.3897 19.0303 15.5303C18.8897 15.671 18.6989 15.75 18.5 15.75H14.5C14.3011 15.75 14.1103 15.671 13.9697 15.5303C13.829 15.3897 13.75 15.1989 13.75 15ZM14.5 17.25C14.3011 17.25 14.1103 17.329 13.9697 17.4697C13.829 17.6103 13.75 17.8011 13.75 18C13.75 18.1989 13.829 18.3897 13.9697 18.5303C14.1103 18.671 14.3011 18.75 14.5 18.75H21.5C21.6989 18.75 21.8897 18.671 22.0303 18.5303C22.171 18.3897 22.25 18.1989 22.25 18C22.25 17.8011 22.171 17.6103 22.0303 17.4697C21.8897 17.329 21.6989 17.25 21.5 17.25H14.5ZM13.75 21C13.75 20.8011 13.829 20.6103 13.9697 20.4697C14.1103 20.329 14.3011 20.25 14.5 20.25H18C18.1989 20.25 18.3897 20.329 18.5303 20.4697C18.671 20.6103 18.75 20.8011 18.75 21C18.75 21.1989 18.671 21.3897 18.5303 21.5303C18.3897 21.671 18.1989 21.75 18 21.75H14.5C14.3011 21.75 14.1103 21.671 13.9697 21.5303C13.829 21.3897 13.75 21.1989 13.75 21ZM14.5 24.25C14.3011 24.25 14.1103 24.329 13.9697 24.4697C13.829 24.6103 13.75 24.8011 13.75 25C13.75 25.1989 13.829 25.3897 13.9697 25.5303C14.1103 25.671 14.3011 25.75 14.5 25.75H16.5C16.6989 25.75 16.8897 25.671 17.0303 25.5303C17.171 25.3897 17.25 25.1989 17.25 25C17.25 24.8011 17.171 24.6103 17.0303 24.4697C16.8897 24.329 16.6989 24.25 16.5 24.25H14.5Z"/>
</mask>
<path d="M22.371 20.25H26.629C27.024 20.25 27.365 20.25 27.646 20.273C27.943 20.297 28.238 20.351 28.521 20.495C28.945 20.711 29.289 21.055 29.505 21.479C29.649 21.762 29.703 22.057 29.727 22.354C29.75 22.634 29.75 22.976 29.75 23.371V25.629C29.75 26.024 29.75 26.365 29.727 26.646C29.7115 26.9495 29.6361 27.2469 29.505 27.521C29.2895 27.9446 28.9454 28.289 28.522 28.505C28.238 28.649 27.942 28.703 27.646 28.727C27.366 28.75 27.024 28.75 26.629 28.75H22.371C21.976 28.75 21.635 28.75 21.354 28.727C21.0505 28.7115 20.7531 28.6361 20.479 28.505C20.0554 28.2895 19.7109 27.9454 19.495 27.522C19.3638 27.2476 19.2883 26.9498 19.273 26.646C19.25 26.366 19.25 26.024 19.25 25.629V23.37C19.25 22.975 19.25 22.634 19.273 22.353C19.2885 22.0495 19.3639 21.7521 19.495 21.478C19.7108 21.0543 20.0553 20.7098 20.479 20.494C20.7531 20.3629 21.0505 20.2875 21.354 20.272C21.634 20.249 21.976 20.249 22.371 20.249M20.75 23.4V24.25H28.25V23.4C28.25 23.131 28.25 22.921 28.245 22.75H20.755C20.75 22.921 20.75 23.131 20.75 23.4ZM13.75 15C13.75 14.8011 13.829 14.6103 13.9697 14.4697C14.1103 14.329 14.3011 14.25 14.5 14.25H18.5C18.6989 14.25 18.8897 14.329 19.0303 14.4697C19.171 14.6103 19.25 14.8011 19.25 15C19.25 15.1989 19.171 15.3897 19.0303 15.5303C18.8897 15.671 18.6989 15.75 18.5 15.75H14.5C14.3011 15.75 14.1103 15.671 13.9697 15.5303C13.829 15.3897 13.75 15.1989 13.75 15ZM14.5 17.25C14.3011 17.25 14.1103 17.329 13.9697 17.4697C13.829 17.6103 13.75 17.8011 13.75 18C13.75 18.1989 13.829 18.3897 13.9697 18.5303C14.1103 18.671 14.3011 18.75 14.5 18.75H21.5C21.6989 18.75 21.8897 18.671 22.0303 18.5303C22.171 18.3897 22.25 18.1989 22.25 18C22.25 17.8011 22.171 17.6103 22.0303 17.4697C21.8897 17.329 21.6989 17.25 21.5 17.25H14.5ZM13.75 21C13.75 20.8011 13.829 20.6103 13.9697 20.4697C14.1103 20.329 14.3011 20.25 14.5 20.25H18C18.1989 20.25 18.3897 20.329 18.5303 20.4697C18.671 20.6103 18.75 20.8011 18.75 21C18.75 21.1989 18.671 21.3897 18.5303 21.5303C18.3897 21.671 18.1989 21.75 18 21.75H14.5C14.3011 21.75 14.1103 21.671 13.9697 21.5303C13.829 21.3897 13.75 21.1989 13.75 21ZM14.5 24.25C14.3011 24.25 14.1103 24.329 13.9697 24.4697C13.829 24.6103 13.75 24.8011 13.75 25C13.75 25.1989 13.829 25.3897 13.9697 25.5303C14.1103 25.671 14.3011 25.75 14.5 25.75H16.5C16.6989 25.75 16.8897 25.671 17.0303 25.5303C17.171 25.3897 17.25 25.1989 17.25 25C17.25 24.8011 17.171 24.6103 17.0303 24.4697C16.8897 24.329 16.6989 24.25 16.5 24.25H14.5Z" fill="#250E45"/>
<path d="M27.646 20.273L27.5372 21.6019L27.5386 21.602L27.646 20.273ZM28.521 20.495L29.1262 19.3069L29.1257 19.3067L28.521 20.495ZM29.505 21.479L30.6933 20.8743L30.6931 20.8738L29.505 21.479ZM29.727 22.354L28.398 22.4614L28.3981 22.4632L29.727 22.354ZM29.727 26.646L28.3981 26.5372L28.3964 26.5576L28.3954 26.5781L29.727 26.646ZM29.505 27.521L30.6934 28.1256L30.7008 28.111L30.7079 28.0961L29.505 27.521ZM28.522 28.505L29.125 29.6942L29.1278 29.6927L28.522 28.505ZM27.646 28.727L27.5382 27.398L27.5368 27.3981L27.646 28.727ZM21.354 28.727L21.4628 27.3981L21.4424 27.3964L21.4219 27.3954L21.354 28.727ZM20.479 28.505L19.8744 29.6934L19.889 29.7008L19.9039 29.7079L20.479 28.505ZM19.495 27.522L18.2921 28.0971L18.2995 28.1126L18.3073 28.1278L19.495 27.522ZM19.273 26.646L20.6046 26.5788L20.6036 26.5578L20.6019 26.5368L19.273 26.646ZM19.273 22.353L20.6019 22.4618L20.6036 22.4414L20.6046 22.4209L19.273 22.353ZM19.495 21.478L18.3068 20.873L18.2993 20.8878L18.2921 20.9029L19.495 21.478ZM20.479 20.494L19.9039 19.2911L19.8888 19.2983L19.874 19.3058L20.479 20.494ZM21.354 20.272L21.4219 21.6036L21.4425 21.6026L21.4632 21.6009L21.354 20.272ZM20.75 24.25H19.4167V25.5833H20.75V24.25ZM28.25 24.25V25.5833H29.5833V24.25H28.25ZM28.245 22.75L29.5778 22.711L29.5399 21.4167H28.245V22.75ZM20.755 22.75V21.4167H19.4601L19.4222 22.711L20.755 22.75ZM13.75 15H12.4167H13.75ZM14.5 14.25V12.9167V14.25ZM14.5 15.75V17.0833V15.75ZM13.75 18H12.4167H13.75ZM13.75 21H12.4167H13.75ZM13.75 25H12.4167H13.75ZM22.371 20.25V21.5833H26.629V20.25V18.9167H22.371V20.25ZM26.629 20.25V21.5833C27.0427 21.5833 27.3224 21.5843 27.5372 21.6019L27.646 20.273L27.7548 18.9441C27.4076 18.9157 27.0053 18.9167 26.629 18.9167V20.25ZM27.646 20.273L27.5386 21.602C27.7506 21.6191 27.8515 21.6503 27.9163 21.6833L28.521 20.495L29.1257 19.3067C28.6245 19.0517 28.1354 18.9749 27.7534 18.944L27.646 20.273ZM28.521 20.495L27.9158 21.6831C28.0888 21.7712 28.2288 21.9112 28.3169 22.0842L29.505 21.479L30.6931 20.8738C30.3492 20.1988 29.8012 19.6508 29.1262 19.3069L28.521 20.495ZM29.505 21.479L28.3167 22.0837C28.3497 22.1485 28.3809 22.2494 28.398 22.4614L29.727 22.354L31.056 22.2466C31.0251 21.8646 30.9483 21.3755 30.6933 20.8743L29.505 21.479ZM29.727 22.354L28.3981 22.4632C28.4157 22.6767 28.4167 22.9571 28.4167 23.371H29.75H31.0833C31.0833 22.9949 31.0843 22.5913 31.0559 22.2448L29.727 22.354ZM29.75 23.371H28.4167V25.629H29.75H31.0833V23.371H29.75ZM29.75 25.629H28.4167C28.4167 26.0426 28.4157 26.3224 28.3981 26.5372L29.727 26.646L31.0559 26.7548C31.0843 26.4076 31.0833 26.0054 31.0833 25.629H29.75ZM29.727 26.646L28.3954 26.5781C28.3889 26.7056 28.3572 26.8306 28.3021 26.9459L29.505 27.521L30.7079 28.0961C30.915 27.6631 31.0342 27.1933 31.0586 26.7139L29.727 26.646ZM29.505 27.521L28.3166 26.9164C28.2288 27.0889 28.0886 27.2293 27.9162 27.3173L28.522 28.505L29.1278 29.6927C29.8021 29.3488 30.3501 28.8002 30.6934 28.1256L29.505 27.521ZM28.522 28.505L27.919 27.3158C27.8523 27.3496 27.7495 27.3809 27.5382 27.398L27.646 28.727L27.7538 30.056C28.1344 30.0251 28.6237 29.9484 29.125 29.6942L28.522 28.505ZM27.646 28.727L27.5368 27.3981C27.3233 27.4157 27.0429 27.4167 26.629 27.4167V28.75V30.0833C27.0051 30.0833 27.4087 30.0843 27.7552 30.0559L27.646 28.727ZM26.629 28.75V27.4167H22.371V28.75V30.0833H26.629V28.75ZM22.371 28.75V27.4167C21.9574 27.4167 21.6776 27.4157 21.4628 27.3981L21.354 28.727L21.2452 30.0559C21.5924 30.0843 21.9946 30.0833 22.371 30.0833V28.75ZM21.354 28.727L21.4219 27.3954C21.2944 27.3889 21.1694 27.3572 21.0541 27.3021L20.479 28.505L19.9039 29.7079C20.3369 29.915 20.8067 30.0342 21.2861 30.0586L21.354 28.727ZM20.479 28.505L21.0836 27.3166C20.9111 27.2288 20.7707 27.0886 20.6827 26.9162L19.495 27.522L18.3073 28.1278C18.6512 28.8021 19.1998 29.3501 19.8744 29.6934L20.479 28.505ZM19.495 27.522L20.6979 26.9469C20.6428 26.8316 20.6111 26.7064 20.6046 26.5788L19.273 26.646L17.9414 26.7132C17.9656 27.1932 18.0848 27.6635 18.2921 28.0971L19.495 27.522ZM19.273 26.646L20.6019 26.5368C20.5843 26.3233 20.5833 26.0429 20.5833 25.629H19.25H17.9167C17.9167 26.0051 17.9157 26.4087 17.9441 26.7552L19.273 26.646ZM19.25 25.629H20.5833V23.37H19.25H17.9167V25.629H19.25ZM19.25 23.37H20.5833C20.5833 22.9563 20.5843 22.6766 20.6019 22.4618L19.273 22.353L17.9441 22.2442C17.9157 22.5914 17.9167 22.9937 17.9167 23.37H19.25ZM19.273 22.353L20.6046 22.4209C20.6111 22.2934 20.6428 22.1684 20.6979 22.0531L19.495 21.478L18.2921 20.9029C18.085 21.3359 17.9658 21.8057 17.9414 22.2851L19.273 22.353ZM19.495 21.478L20.6832 22.083C20.7711 21.9104 20.9114 21.7701 21.084 21.6822L20.479 20.494L19.874 19.3058C19.1991 19.6495 18.6505 20.1981 18.3068 20.873L19.495 21.478ZM20.479 20.494L21.0541 21.6969C21.1694 21.6418 21.2944 21.6101 21.4219 21.6036L21.354 20.272L21.2861 18.9404C20.8067 18.9648 20.3369 19.084 19.9039 19.2911L20.479 20.494ZM21.354 20.272L21.4632 21.6009C21.6767 21.5833 21.9571 21.5823 22.371 21.5823V20.249V18.9157C21.9949 18.9157 21.5913 18.9147 21.2448 18.9431L21.354 20.272ZM20.75 23.4H19.4167V24.25H20.75H22.0833V23.4H20.75ZM20.75 24.25V25.5833H28.25V24.25V22.9167H20.75V24.25ZM28.25 24.25H29.5833V23.4H28.25H26.9167V24.25H28.25ZM28.25 23.4H29.5833C29.5833 23.1384 29.5835 22.906 29.5778 22.711L28.245 22.75L26.9122 22.789C26.9165 22.936 26.9167 23.1236 26.9167 23.4H28.25ZM28.245 22.75V21.4167H20.755V22.75V24.0833H28.245V22.75ZM20.755 22.75L19.4222 22.711C19.4165 22.9059 19.4167 23.1384 19.4167 23.4H20.75H22.0833C22.0833 23.1236 22.0835 22.9361 22.0878 22.789L20.755 22.75ZM13.75 15H15.0833C15.0833 15.1547 15.0219 15.3031 14.9125 15.4125L13.9697 14.4697L13.0269 13.5269C12.6362 13.9176 12.4167 14.4475 12.4167 15H13.75ZM13.9697 14.4697L14.9125 15.4125C14.8031 15.5219 14.6547 15.5833 14.5 15.5833V14.25V12.9167C13.9475 12.9167 13.4176 13.1362 13.0269 13.5269L13.9697 14.4697ZM14.5 14.25V15.5833H18.5V14.25V12.9167H14.5V14.25ZM18.5 14.25V15.5833C18.3453 15.5833 18.1969 15.5219 18.0875 15.4125L19.0303 14.4697L19.9731 13.5269C19.5824 13.1362 19.0525 12.9167 18.5 12.9167V14.25ZM19.0303 14.4697L18.0875 15.4125C17.9781 15.3031 17.9167 15.1547 17.9167 15H19.25H20.5833C20.5833 14.4475 20.3638 13.9176 19.9731 13.5269L19.0303 14.4697ZM19.25 15H17.9167C17.9167 14.8453 17.9781 14.6969 18.0875 14.5875L19.0303 15.5303L19.9731 16.4731C20.3638 16.0824 20.5833 15.5525 20.5833 15H19.25ZM19.0303 15.5303L18.0875 14.5875C18.1969 14.4781 18.3453 14.4167 18.5 14.4167V15.75V17.0833C19.0525 17.0833 19.5824 16.8638 19.9731 16.4731L19.0303 15.5303ZM18.5 15.75V14.4167H14.5V15.75V17.0833H18.5V15.75ZM14.5 15.75V14.4167C14.6547 14.4167 14.8031 14.4781 14.9125 14.5875L13.9697 15.5303L13.0269 16.4731C13.4176 16.8638 13.9475 17.0833 14.5 17.0833V15.75ZM13.9697 15.5303L14.9125 14.5875C15.0219 14.6969 15.0833 14.8453 15.0833 15H13.75H12.4167C12.4167 15.5525 12.6362 16.0824 13.0269 16.4731L13.9697 15.5303ZM14.5 17.25V15.9167C13.9475 15.9167 13.4176 16.1362 13.0269 16.5269L13.9697 17.4697L14.9125 18.4125C14.8031 18.5219 14.6547 18.5833 14.5 18.5833V17.25ZM13.9697 17.4697L13.0269 16.5269C12.6362 16.9176 12.4167 17.4475 12.4167 18H13.75H15.0833C15.0833 18.1547 15.0219 18.3031 14.9125 18.4125L13.9697 17.4697ZM13.75 18H12.4167C12.4167 18.5525 12.6362 19.0824 13.0269 19.4731L13.9697 18.5303L14.9125 17.5875C15.0219 17.6969 15.0833 17.8453 15.0833 18H13.75ZM13.9697 18.5303L13.0269 19.4731C13.4176 19.8638 13.9475 20.0833 14.5 20.0833V18.75V17.4167C14.6547 17.4167 14.8031 17.4781 14.9125 17.5875L13.9697 18.5303ZM14.5 18.75V20.0833H21.5V18.75V17.4167H14.5V18.75ZM21.5 18.75V20.0833C22.0525 20.0833 22.5824 19.8638 22.9731 19.4731L22.0303 18.5303L21.0875 17.5875C21.1969 17.4781 21.3453 17.4167 21.5 17.4167V18.75ZM22.0303 18.5303L22.9731 19.4731C23.3638 19.0824 23.5833 18.5525 23.5833 18H22.25H20.9167C20.9167 17.8453 20.9781 17.6969 21.0875 17.5875L22.0303 18.5303ZM22.25 18H23.5833C23.5833 17.4475 23.3638 16.9176 22.9731 16.5269L22.0303 17.4697L21.0875 18.4125C20.9781 18.3031 20.9167 18.1547 20.9167 18H22.25ZM22.0303 17.4697L22.9731 16.5269C22.5824 16.1362 22.0525 15.9167 21.5 15.9167V17.25V18.5833C21.3453 18.5833 21.1969 18.5219 21.0875 18.4125L22.0303 17.4697ZM21.5 17.25V15.9167H14.5V17.25V18.5833H21.5V17.25ZM13.75 21H15.0833C15.0833 21.1547 15.0219 21.3031 14.9125 21.4125L13.9697 20.4697L13.0269 19.5269C12.6362 19.9176 12.4167 20.4475 12.4167 21H13.75ZM13.9697 20.4697L14.9125 21.4125C14.8031 21.5219 14.6547 21.5833 14.5 21.5833V20.25V18.9167C13.9475 18.9167 13.4176 19.1362 13.0269 19.5269L13.9697 20.4697ZM14.5 20.25V21.5833H18V20.25V18.9167H14.5V20.25ZM18 20.25V21.5833C17.8453 21.5833 17.6969 21.5219 17.5875 21.4125L18.5303 20.4697L19.4731 19.5269C19.0824 19.1362 18.5525 18.9167 18 18.9167V20.25ZM18.5303 20.4697L17.5875 21.4125C17.4781 21.3031 17.4167 21.1547 17.4167 21H18.75H20.0833C20.0833 20.4475 19.8638 19.9176 19.4731 19.5269L18.5303 20.4697ZM18.75 21H17.4167C17.4167 20.8453 17.4781 20.6969 17.5875 20.5875L18.5303 21.5303L19.4731 22.4731C19.8638 22.0824 20.0833 21.5525 20.0833 21H18.75ZM18.5303 21.5303L17.5875 20.5875C17.6969 20.4781 17.8453 20.4167 18 20.4167V21.75V23.0833C18.5525 23.0833 19.0824 22.8638 19.4731 22.4731L18.5303 21.5303ZM18 21.75V20.4167H14.5V21.75V23.0833H18V21.75ZM14.5 21.75V20.4167C14.6547 20.4167 14.8031 20.4781 14.9125 20.5875L13.9697 21.5303L13.0269 22.4731C13.4176 22.8638 13.9475 23.0833 14.5 23.0833V21.75ZM13.9697 21.5303L14.9125 20.5875C15.0219 20.6969 15.0833 20.8453 15.0833 21H13.75H12.4167C12.4167 21.5525 12.6362 22.0824 13.0269 22.4731L13.9697 21.5303ZM14.5 24.25V22.9167C13.9475 22.9167 13.4176 23.1362 13.0269 23.5269L13.9697 24.4697L14.9125 25.4125C14.8031 25.5219 14.6547 25.5833 14.5 25.5833V24.25ZM13.9697 24.4697L13.0269 23.5269C12.6362 23.9176 12.4167 24.4475 12.4167 25H13.75H15.0833C15.0833 25.1547 15.0219 25.3031 14.9125 25.4125L13.9697 24.4697ZM13.75 25H12.4167C12.4167 25.5525 12.6362 26.0824 13.0269 26.4731L13.9697 25.5303L14.9125 24.5875C15.0219 24.6969 15.0833 24.8453 15.0833 25H13.75ZM13.9697 25.5303L13.0269 26.4731C13.4176 26.8638 13.9475 27.0833 14.5 27.0833V25.75V24.4167C14.6547 24.4167 14.8031 24.4781 14.9125 24.5875L13.9697 25.5303ZM14.5 25.75V27.0833H16.5V25.75V24.4167H14.5V25.75ZM16.5 25.75V27.0833C17.0525 27.0833 17.5824 26.8638 17.9731 26.4731L17.0303 25.5303L16.0875 24.5875C16.1969 24.4781 16.3453 24.4167 16.5 24.4167V25.75ZM17.0303 25.5303L17.9731 26.4731C18.3638 26.0824 18.5833 25.5525 18.5833 25H17.25H15.9167C15.9167 24.8453 15.9781 24.6969 16.0875 24.5875L17.0303 25.5303ZM17.25 25H18.5833C18.5833 24.4475 18.3638 23.9176 17.9731 23.5269L17.0303 24.4697L16.0875 25.4125C15.9781 25.3031 15.9167 25.1547 15.9167 25H17.25ZM17.0303 24.4697L17.9731 23.5269C17.5824 23.1362 17.0525 22.9167 16.5 22.9167V24.25V25.5833C16.3453 25.5833 16.1969 25.5219 16.0875 25.4125L17.0303 24.4697ZM16.5 24.25V22.9167H14.5V24.25V25.5833H16.5V24.25Z" fill="#5F25B0" mask="url(#path-4-inside-2_977_8635)"/>
</svg>
