<svg width="40" height="40" viewBox="0 0 40 40" fill="none" xmlns="http://www.w3.org/2000/svg">
<path d="M0 20C0 8.95431 8.95431 0 20 0C31.0457 0 40 8.95431 40 20C40 31.0457 31.0457 40 20 40C8.95431 40 0 31.0457 0 20Z" fill="#DFF8F1"/>
<path d="M20 9.5C25.7989 9.5 30.5 14.2011 30.5 20C30.5 25.7989 25.7989 30.5 20 30.5C14.2011 30.5 9.5 25.7989 9.5 20C9.5 14.2011 14.2011 9.5 20 9.5ZM20 10.5C18.7524 10.5 17.5169 10.7452 16.3643 11.2227C15.2117 11.7001 14.1644 12.4001 13.2822 13.2822C12.4001 14.1644 11.7001 15.2117 11.2227 16.3643C10.7452 17.5169 10.5 18.7524 10.5 20C10.5 21.2476 10.7452 22.4831 11.2227 23.6357C11.7001 24.7883 12.4001 25.8356 13.2822 26.7178C14.1644 27.5999 15.2117 28.2999 16.3643 28.7773C17.5169 29.2548 18.7524 29.5 20 29.5C22.5196 29.5 24.9362 28.4994 26.7178 26.7178C28.4994 24.9362 29.5 22.5196 29.5 20C29.5 17.4804 28.4994 15.0638 26.7178 13.2822C24.9362 11.5006 22.5196 10.5 20 10.5Z" fill="#250E45" stroke="#5F25B0"/>
<path d="M24.9004 16.999L17.9141 23.9854L14.6982 20.1484L15.4502 19.4961L17.6006 22.1104L17.9512 22.5361L24.1943 16.293L24.9004 16.999Z" fill="#250E45" stroke="#5F25B0"/>
</svg>
