<svg width="40" height="40" viewBox="0 0 40 40" fill="none" xmlns="http://www.w3.org/2000/svg">
<path d="M0 20C0 8.95431 8.95431 0 20 0C31.0457 0 40 8.95431 40 20C40 31.0457 31.0457 40 20 40C8.95431 40 0 31.0457 0 20Z" fill="#FB3748" fill-opacity="0.1"/>
<mask id="path-2-inside-1_977_10709" fill="white">
<path d="M20.5932 31.2579L20.5822 31.2599L20.5112 31.2949L20.4912 31.2989L20.4772 31.2949L20.4062 31.2599C20.3955 31.2566 20.3875 31.2583 20.3822 31.2649L20.3782 31.2749L20.3612 31.7029L20.3662 31.7229L20.3762 31.7359L20.4802 31.8099L20.4952 31.8139L20.5072 31.8099L20.6112 31.7359L20.6232 31.7199L20.6272 31.7029L20.6102 31.2759C20.6075 31.2653 20.6018 31.2593 20.5932 31.2579ZM20.8582 31.1449L20.8452 31.1469L20.6602 31.2399L20.6502 31.2499L20.6472 31.2609L20.6652 31.6909L20.6702 31.7029L20.6782 31.7099L20.8792 31.8029C20.8918 31.8063 20.9015 31.8036 20.9082 31.7949L20.9122 31.7809L20.8782 31.1669C20.8748 31.1549 20.8682 31.1476 20.8582 31.1449ZM20.1432 31.1469C20.1388 31.1443 20.1335 31.1434 20.1285 31.1445C20.1234 31.1456 20.119 31.1487 20.1162 31.1529L20.1102 31.1669L20.0762 31.7809C20.0768 31.7929 20.0825 31.8009 20.0932 31.8049L20.1082 31.8029L20.3092 31.7099L20.3192 31.7019L20.3232 31.6909L20.3402 31.2609L20.3372 31.2489L20.3272 31.2389L20.1432 31.1469Z"/>
</mask>
<path d="M20.5932 31.2579L20.7452 30.2696L20.5793 30.244L20.4142 30.2741L20.5932 31.2579ZM20.5822 31.2599L20.4032 30.2761L20.2655 30.3011L20.14 30.363L20.5822 31.2599ZM20.5112 31.2949L20.7073 32.2755L20.8358 32.2498L20.9533 32.1919L20.5112 31.2949ZM20.4912 31.2989L20.2165 32.2605L20.4496 32.3271L20.6873 32.2795L20.4912 31.2989ZM20.4772 31.2949L20.035 32.1919L20.1158 32.2317L20.2025 32.2565L20.4772 31.2949ZM20.4062 31.2599L20.8483 30.363L20.7786 30.3286L20.7044 30.3055L20.4062 31.2599ZM20.3822 31.2649L19.6013 30.6402L19.5087 30.756L19.4537 30.8936L20.3822 31.2649ZM20.3782 31.2749L19.4497 30.9036L19.3858 31.0633L19.379 31.2352L20.3782 31.2749ZM20.3612 31.7029L19.362 31.6632L19.3563 31.8064L19.391 31.9455L20.3612 31.7029ZM20.3662 31.7229L19.396 31.9655L19.4465 32.1675L19.5735 32.3326L20.3662 31.7229ZM20.3762 31.7359L19.5835 32.3456L19.6747 32.4641L19.7964 32.5507L20.3762 31.7359ZM20.4802 31.8099L19.9004 32.6247L20.0478 32.7296L20.2225 32.7762L20.4802 31.8099ZM20.4952 31.8139L20.2375 32.7802L20.5271 32.8574L20.8114 32.7626L20.4952 31.8139ZM20.5072 31.8099L20.8234 32.7586L20.9652 32.7114L21.0869 32.6247L20.5072 31.8099ZM20.6112 31.7359L21.1909 32.5507L21.3178 32.4605L21.4112 32.3359L20.6112 31.7359ZM20.6232 31.7199L21.4232 32.3199L21.5487 32.1526L21.5966 31.949L20.6232 31.7199ZM20.6272 31.7029L21.6006 31.932L21.6318 31.7993L21.6264 31.6632L20.6272 31.7029ZM20.6102 31.2759L21.6094 31.2362L21.6053 31.1333L21.5803 31.0334L20.6102 31.2759ZM20.8582 31.1449L21.1158 30.1787L20.9133 30.1247L20.7062 30.1566L20.8582 31.1449ZM20.8452 31.1469L20.6932 30.1586L20.5371 30.1826L20.396 30.2535L20.8452 31.1469ZM20.6602 31.2399L20.211 30.3465L20.067 30.4189L19.9531 30.5328L20.6602 31.2399ZM20.6502 31.2499L19.9431 30.5428L19.7553 30.7306L19.6854 30.9869L20.6502 31.2499ZM20.6472 31.2609L19.6824 30.9979L19.6416 31.1476L19.648 31.3028L20.6472 31.2609ZM20.6652 31.6909L19.666 31.7328L19.6735 31.911L19.7421 32.0756L20.6652 31.6909ZM20.6702 31.7029L19.7471 32.0876L19.8366 32.3023L20.0117 32.4555L20.6702 31.7029ZM20.6782 31.7099L20.0197 32.4625L20.1278 32.5572L20.2583 32.6175L20.6782 31.7099ZM20.8792 31.8029L20.4593 32.7105L20.5393 32.7476L20.6247 32.77L20.8792 31.8029ZM20.9082 31.7949L21.7008 32.4046L21.8172 32.2533L21.8697 32.0696L20.9082 31.7949ZM20.9122 31.7809L21.8737 32.0556L21.92 31.8938L21.9106 31.7256L20.9122 31.7809ZM20.8782 31.1669L21.8766 31.1116L21.8707 31.0036L21.8417 30.8993L20.8782 31.1669ZM20.1432 31.1469L19.6249 32.0021L19.6596 32.0232L19.696 32.0414L20.1432 31.1469ZM20.1162 31.1529L19.2845 30.5977L19.2333 30.6743L19.197 30.759L20.1162 31.1529ZM20.1102 31.1669L19.191 30.773L19.1215 30.9353L19.1117 31.1116L20.1102 31.1669ZM20.0762 31.7809L19.0777 31.7256L19.0746 31.781L19.0777 31.8364L20.0762 31.7809ZM20.0932 31.8049L19.742 32.7413L19.9768 32.8293L20.2254 32.7962L20.0932 31.8049ZM20.1082 31.8029L20.2404 32.7942L20.3906 32.7741L20.5281 32.7105L20.1082 31.8029ZM20.3092 31.7099L20.7291 32.6175L20.8391 32.5666L20.9338 32.4908L20.3092 31.7099ZM20.3192 31.7019L20.9438 32.4828L21.163 32.3075L21.259 32.0437L20.3192 31.7019ZM20.3232 31.6909L21.263 32.0327L21.3162 31.8862L21.3224 31.7304L20.3232 31.6909ZM20.3402 31.2609L21.3394 31.3004L21.345 31.1573L21.3103 31.0184L20.3402 31.2609ZM20.3372 31.2489L21.3073 31.0064L21.2401 30.7377L21.0443 30.5418L20.3372 31.2489ZM20.3272 31.2389L21.0343 30.5318L20.9195 30.4171L20.7744 30.3445L20.3272 31.2389ZM20.5932 31.2579L20.4142 30.2741L20.4032 30.2761L20.5822 31.2599L20.7611 32.2438L20.7721 32.2418L20.5932 31.2579ZM20.5822 31.2599L20.14 30.363L20.069 30.398L20.5112 31.2949L20.9533 32.1919L21.0243 32.1569L20.5822 31.2599ZM20.5112 31.2949L20.3151 30.3144L20.2951 30.3184L20.4912 31.2989L20.6873 32.2795L20.7073 32.2755L20.5112 31.2949ZM20.4912 31.2989L20.7659 30.3374L20.7519 30.3334L20.4772 31.2949L20.2025 32.2565L20.2165 32.2605L20.4912 31.2989ZM20.4772 31.2949L20.9193 30.398L20.8483 30.363L20.4062 31.2599L19.964 32.1569L20.035 32.1919L20.4772 31.2949ZM20.4062 31.2599L20.7044 30.3055C20.5936 30.2708 20.4091 30.2337 20.1883 30.2797C19.9458 30.3302 19.7422 30.4641 19.6013 30.6402L20.3822 31.2649L21.163 31.8896C21.0275 32.0591 20.8305 32.1888 20.5961 32.2377C20.3832 32.282 20.208 32.2457 20.1079 32.2144L20.4062 31.2599ZM20.3822 31.2649L19.4537 30.8936L19.4497 30.9036L20.3782 31.2749L21.3067 31.6463L21.3107 31.6363L20.3822 31.2649ZM20.3782 31.2749L19.379 31.2352L19.362 31.6632L20.3612 31.7029L21.3604 31.7426L21.3774 31.3146L20.3782 31.2749ZM20.3612 31.7029L19.391 31.9455L19.396 31.9655L20.3662 31.7229L21.3363 31.4804L21.3313 31.4604L20.3612 31.7029ZM20.3662 31.7229L19.5735 32.3326L19.5835 32.3456L20.3762 31.7359L21.1688 31.1262L21.1588 31.1132L20.3662 31.7229ZM20.3762 31.7359L19.7964 32.5507L19.9004 32.6247L20.4802 31.8099L21.0599 30.9951L20.9559 30.9211L20.3762 31.7359ZM20.4802 31.8099L20.2225 32.7762L20.2375 32.7802L20.4952 31.8139L20.7528 30.8477L20.7378 30.8437L20.4802 31.8099ZM20.4952 31.8139L20.8114 32.7626L20.8234 32.7586L20.5072 31.8099L20.191 30.8612L20.179 30.8652L20.4952 31.8139ZM20.5072 31.8099L21.0869 32.6247L21.1909 32.5507L20.6112 31.7359L20.0314 30.9211L19.9274 30.9951L20.5072 31.8099ZM20.6112 31.7359L21.4112 32.3359L21.4232 32.3199L20.6232 31.7199L19.8232 31.12L19.8112 31.136L20.6112 31.7359ZM20.6232 31.7199L21.5966 31.949L21.6006 31.932L20.6272 31.7029L19.6538 31.4739L19.6498 31.4909L20.6232 31.7199ZM20.6272 31.7029L21.6264 31.6632L21.6094 31.2362L20.6102 31.2759L19.611 31.3157L19.628 31.7427L20.6272 31.7029ZM20.6102 31.2759L21.5803 31.0334C21.5507 30.915 21.4843 30.7392 21.3309 30.5768C21.1654 30.4016 20.9547 30.3018 20.7452 30.2696L20.5932 31.2579L20.4411 32.2463C20.2403 32.2154 20.0367 32.1193 19.8769 31.95C19.7292 31.7936 19.667 31.6262 19.64 31.5185L20.6102 31.2759ZM20.8582 31.1449L20.7062 30.1566L20.6932 30.1586L20.8452 31.1469L20.9972 32.1353L21.0102 32.1333L20.8582 31.1449ZM20.8452 31.1469L20.396 30.2535L20.211 30.3465L20.6602 31.2399L21.1093 32.1334L21.2943 32.0404L20.8452 31.1469ZM20.6602 31.2399L19.9531 30.5328L19.9431 30.5428L20.6502 31.2499L21.3573 31.957L21.3673 31.947L20.6602 31.2399ZM20.6502 31.2499L19.6854 30.9869L19.6824 30.9979L20.6472 31.2609L21.6119 31.524L21.6149 31.513L20.6502 31.2499ZM20.6472 31.2609L19.648 31.3028L19.666 31.7328L20.6652 31.6909L21.6643 31.6491L21.6463 31.2191L20.6472 31.2609ZM20.6652 31.6909L19.7421 32.0756L19.7471 32.0876L20.6702 31.7029L21.5932 31.3183L21.5882 31.3063L20.6652 31.6909ZM20.6702 31.7029L20.0117 32.4555L20.0197 32.4625L20.6782 31.7099L21.3367 30.9573L21.3287 30.9503L20.6702 31.7029ZM20.6782 31.7099L20.2583 32.6175L20.4593 32.7105L20.8792 31.8029L21.2991 30.8954L21.0981 30.8024L20.6782 31.7099ZM20.8792 31.8029L20.6247 32.77C20.7508 32.8032 20.9424 32.828 21.1618 32.7674C21.3952 32.7031 21.5777 32.5647 21.7008 32.4046L20.9082 31.7949L20.1155 31.1852C20.232 31.0339 20.4063 30.9012 20.63 30.8394C20.8398 30.7816 21.0202 30.806 21.1337 30.8359L20.8792 31.8029ZM20.9082 31.7949L21.8697 32.0696L21.8737 32.0556L20.9122 31.7809L19.9506 31.5062L19.9466 31.5202L20.9082 31.7949ZM20.9122 31.7809L21.9106 31.7256L21.8766 31.1116L20.8782 31.1669L19.8797 31.2222L19.9137 31.8362L20.9122 31.7809ZM20.8782 31.1669L21.8417 30.8993C21.7662 30.6274 21.5429 30.2926 21.1158 30.1787L20.8582 31.1449L20.6005 32.1112C20.4286 32.0653 20.2625 31.9701 20.1308 31.8251C20.0054 31.6873 19.9444 31.5415 19.9147 31.4346L20.8782 31.1669ZM20.1432 31.1469L20.6615 30.2917C20.4366 30.1555 20.1679 30.1114 19.9115 30.1683L20.1285 31.1445L20.3454 32.1207C20.0991 32.1754 19.8409 32.1331 19.6249 32.0021L20.1432 31.1469ZM20.1285 31.1445L19.9115 30.1683C19.6551 30.2253 19.4304 30.3791 19.2845 30.5977L20.1162 31.1529L20.9479 31.7081C20.8077 31.9182 20.5918 32.0659 20.3454 32.1207L20.1285 31.1445ZM20.1162 31.1529L19.197 30.759L19.191 30.773L20.1102 31.1669L21.0293 31.5609L21.0353 31.5469L20.1162 31.1529ZM20.1102 31.1669L19.1117 31.1116L19.0777 31.7256L20.0762 31.7809L21.0746 31.8362L21.1086 31.2222L20.1102 31.1669ZM20.0762 31.7809L19.0777 31.8364C19.0861 31.9878 19.1311 32.185 19.2649 32.374C19.4012 32.5664 19.5806 32.6807 19.742 32.7413L20.0932 31.8049L20.4443 30.8686C20.5951 30.9252 20.7663 31.0335 20.8969 31.2179C21.0251 31.3989 21.0669 31.5861 21.0746 31.7255L20.0762 31.7809ZM20.0932 31.8049L20.2254 32.7962L20.2404 32.7942L20.1082 31.8029L19.9759 30.8117L19.961 30.8137L20.0932 31.8049ZM20.1082 31.8029L20.5281 32.7105L20.7291 32.6175L20.3092 31.7099L19.8893 30.8024L19.6883 30.8954L20.1082 31.8029ZM20.3092 31.7099L20.9338 32.4908L20.9438 32.4828L20.3192 31.7019L19.6945 30.921L19.6845 30.929L20.3092 31.7099ZM20.3192 31.7019L21.259 32.0437L21.263 32.0327L20.3232 31.6909L19.3834 31.3492L19.3794 31.3602L20.3192 31.7019ZM20.3232 31.6909L21.3224 31.7304L21.3394 31.3004L20.3402 31.2609L19.341 31.2214L19.324 31.6514L20.3232 31.6909ZM20.3402 31.2609L21.3103 31.0184L21.3073 31.0064L20.3372 31.2489L19.367 31.4915L19.37 31.5035L20.3402 31.2609ZM20.3372 31.2489L21.0443 30.5418L21.0343 30.5318L20.3272 31.2389L19.6201 31.946L19.6301 31.956L20.3372 31.2489ZM20.3272 31.2389L20.7744 30.3445L20.5904 30.2525L20.1432 31.1469L19.696 32.0414L19.88 32.1334L20.3272 31.2389Z" fill="#D00416" mask="url(#path-2-inside-1_977_10709)"/>
<path d="M20 10C25.523 10 30 14.477 30 20C30 25.523 25.523 30 20 30C14.477 30 10 25.523 10 20C10 14.477 14.477 10 20 10ZM20 12C17.8783 12 15.8434 12.8429 14.3431 14.3431C12.8429 15.8434 12 17.8783 12 20C12 22.1217 12.8429 24.1566 14.3431 25.6569C15.8434 27.1571 17.8783 28 20 28C22.1217 28 24.1566 27.1571 25.6569 25.6569C27.1571 24.1566 28 22.1217 28 20C28 17.8783 27.1571 15.8434 25.6569 14.3431C24.1566 12.8429 22.1217 12 20 12ZM20 23C20.2652 23 20.5196 23.1054 20.7071 23.2929C20.8946 23.4804 21 23.7348 21 24C21 24.2652 20.8946 24.5196 20.7071 24.7071C20.5196 24.8946 20.2652 25 20 25C19.7348 25 19.4804 24.8946 19.2929 24.7071C19.1054 24.5196 19 24.2652 19 24C19 23.7348 19.1054 23.4804 19.2929 23.2929C19.4804 23.1054 19.7348 23 20 23ZM20 14C20.2652 14 20.5196 14.1054 20.7071 14.2929C20.8946 14.4804 21 14.7348 21 15V21C21 21.2652 20.8946 21.5196 20.7071 21.7071C20.5196 21.8946 20.2652 22 20 22C19.7348 22 19.4804 21.8946 19.2929 21.7071C19.1054 21.5196 19 21.2652 19 21V15C19 14.7348 19.1054 14.4804 19.2929 14.2929C19.4804 14.1054 19.7348 14 20 14Z" fill="#D00416"/>
</svg>
