<svg width="40" height="40" viewBox="0 0 40 40" fill="none" xmlns="http://www.w3.org/2000/svg">
<path d="M0 20C0 8.95431 8.95431 0 20 0C31.0457 0 40 8.95431 40 20C40 31.0457 31.0457 40 20 40C8.95431 40 0 31.0457 0 20Z" fill="#DFF8F1"/>
<mask id="path-2-inside-1_977_5294" fill="white">
<path d="M25 14V12H14V14H17.5C18.802 14 19.901 14.838 20.315 16H14V18H20.315C20.1097 18.5832 19.7289 19.0886 19.2249 19.4467C18.7208 19.8048 18.1183 19.9981 17.5 20H14V22.414L19.586 28H22.414L16.414 22H17.5C18.652 21.9985 19.7682 21.5998 20.6604 20.8711C21.5526 20.1424 22.1663 19.1284 22.398 18H25V16H22.398C22.2447 15.2722 21.9288 14.5885 21.474 14H25Z"/>
</mask>
<path d="M25 14V12H14V14H17.5C18.802 14 19.901 14.838 20.315 16H14V18H20.315C20.1097 18.5832 19.7289 19.0886 19.2249 19.4467C18.7208 19.8048 18.1183 19.9981 17.5 20H14V22.414L19.586 28H22.414L16.414 22H17.5C18.652 21.9985 19.7682 21.5998 20.6604 20.8711C21.5526 20.1424 22.1663 19.1284 22.398 18H25V16H22.398C22.2447 15.2722 21.9288 14.5885 21.474 14H25Z" fill="#250E45"/>
<path d="M25 14V47.3333H58.3333V14H25ZM25 12H58.3333V-21.3333H25V12ZM14 12V-21.3333H-19.3333V12H14ZM14 14H-19.3333V47.3333H14V14ZM20.315 16V49.3333H67.5768L51.7149 4.81275L20.315 16ZM14 16V-17.3333H-19.3333V16H14ZM14 18H-19.3333V51.3333H14V18ZM20.315 18L51.7577 29.0664L67.3844 -15.3333H20.315V18ZM17.5 20V53.3333H17.5511L17.6023 53.3332L17.5 20ZM14 20V-13.3333H-19.3333V20H14ZM14 22.414H-19.3333V36.2211L-9.57022 45.9842L14 22.414ZM19.586 28L-3.98422 51.5702L5.77888 61.3333H19.586V28ZM22.414 28V61.3333H102.888L45.9842 4.42977L22.414 28ZM16.414 22V-11.3333H-64.0598L-7.15623 45.5702L16.414 22ZM17.5 22V55.3333H17.5223L17.5446 55.3333L17.5 22ZM22.398 18V-15.3333H-4.78688L-10.2542 11.2961L22.398 18ZM25 18V51.3333H58.3333V18H25ZM25 16H58.3333V-17.3333H25V16ZM22.398 16L-10.2197 22.8699L-4.64604 49.3333H22.398V16ZM21.474 14V-19.3333H-46.418L-4.90005 34.3843L21.474 14ZM25 14H58.3333V12H25H-8.33333V14H25ZM25 12V-21.3333H14V12V45.3333H25V12ZM14 12H-19.3333V14H14H47.3333V12H14ZM14 14V47.3333H17.5V14V-19.3333H14V14ZM17.5 14V47.3333C3.99977 47.3333 -7.00924 38.6268 -11.0849 27.1872L20.315 16L51.7149 4.81275C46.8112 -8.95078 33.6042 -19.3333 17.5 -19.3333V14ZM20.315 16V-17.3333H14V16V49.3333H20.315V16ZM14 16H-19.3333V18H14H47.3333V16H14ZM14 18V51.3333H20.315V18V-15.3333H14V18ZM20.315 18L-11.1277 6.93358C-9.04764 1.02348 -5.1888 -4.0977 -0.0811749 -7.72656L19.2249 19.4467L38.5309 46.62C44.6466 42.2749 49.2671 36.143 51.7577 29.0664L20.315 18ZM19.2249 19.4467L-0.0811749 -7.72656C5.02644 -11.3554 11.1323 -13.314 17.3977 -13.3332L17.5 20L17.6023 53.3332C25.1043 53.3102 32.4153 50.9651 38.5309 46.62L19.2249 19.4467ZM17.5 20V-13.3333H14V20V53.3333H17.5V20ZM14 20H-19.3333V22.414H14H47.3333V20H14ZM14 22.414L-9.57022 45.9842L-3.98422 51.5702L19.586 28L43.1562 4.42977L37.5702 -1.15623L14 22.414ZM19.586 28V61.3333H22.414V28V-5.33333H19.586V28ZM22.414 28L45.9842 4.42977L39.9842 -1.57023L16.414 22L-7.15623 45.5702L-1.15623 51.5702L22.414 28ZM16.414 22V55.3333H17.5V22V-11.3333H16.414V22ZM17.5 22L17.5446 55.3333C26.3655 55.3215 34.9126 52.2685 41.7448 46.6889L20.6604 20.8711L-0.423986 -4.94672C4.62369 -9.06896 10.9384 -11.3246 17.4554 -11.3333L17.5 22ZM20.6604 20.8711L41.7448 46.6889C48.5769 41.1094 53.2762 33.3447 55.0502 24.7039L22.398 18L-10.2542 11.2961C-8.94354 4.91219 -5.47166 -0.824491 -0.423986 -4.94672L20.6604 20.8711ZM22.398 18V51.3333H25V18V-15.3333H22.398V18ZM25 18H58.3333V16H25H-8.33333V18H25ZM25 16V-17.3333H22.398V16V49.3333H25V16ZM22.398 16L55.0157 9.13011C53.8266 3.48442 51.3763 -1.81931 47.8481 -6.38432L21.474 14L-4.90005 34.3843C-7.51864 30.9963 -9.33721 27.06 -10.2197 22.8699L22.398 16ZM21.474 14V47.3333H25V14V-19.3333H21.474V14Z" fill="#5F25B0" mask="url(#path-2-inside-1_977_5294)"/>
</svg>
