<svg width="70" height="70" viewBox="0 0 70 70" fill="none" xmlns="http://www.w3.org/2000/svg">
<path d="M31.4304 47.8182H32.6634V54.5597C32.6634 55.2557 32.4993 55.8771 32.1712 56.424C31.8464 56.9676 31.3873 57.3968 30.794 57.7116C30.2008 58.0232 29.5047 58.179 28.706 58.179C27.9072 58.179 27.2112 58.0232 26.6179 57.7116C26.0246 57.3968 25.5639 56.9676 25.2358 56.424C24.911 55.8771 24.7486 55.2557 24.7486 54.5597V47.8182H25.9815V54.4602C25.9815 54.9574 26.0909 55.3999 26.3097 55.7876C26.5284 56.1721 26.84 56.4754 27.2443 56.6974C27.652 56.9162 28.1392 57.0256 28.706 57.0256C29.2727 57.0256 29.7599 56.9162 30.1676 56.6974C30.5753 56.4754 30.8868 56.1721 31.1023 55.7876C31.321 55.3999 31.4304 54.9574 31.4304 54.4602V47.8182ZM35.1255 58V47.8182H38.5659C39.3646 47.8182 40.0176 47.9624 40.5247 48.2507C41.0351 48.5357 41.4129 48.9219 41.6582 49.4091C41.9035 49.8963 42.0261 50.4399 42.0261 51.0398C42.0261 51.6397 41.9035 52.1849 41.6582 52.6754C41.4163 53.166 41.0417 53.5571 40.5346 53.8487C40.0275 54.1371 39.3779 54.2812 38.5858 54.2812H36.1199V53.1875H38.546C39.0929 53.1875 39.532 53.093 39.8635 52.9041C40.1949 52.7152 40.4352 52.46 40.5843 52.1385C40.7368 51.8137 40.813 51.4474 40.813 51.0398C40.813 50.6321 40.7368 50.2675 40.5843 49.946C40.4352 49.6245 40.1932 49.3726 39.8585 49.1903C39.5237 49.0047 39.0796 48.9119 38.5261 48.9119H36.3585V58H35.1255ZM45.2452 47.8182V58H44.0123V47.8182H45.2452Z" fill="#5F25B0"/>
<rect x="11.4873" y="0.550781" width="47.0243" height="3.86267" fill="#5F25B0"/>
<path d="M26.5625 26C26.5625 28.2378 27.4514 30.3839 29.0338 31.9662C30.6161 33.5486 32.7622 34.4375 35 34.4375C37.2378 34.4375 39.3839 33.5486 40.9662 31.9662C42.5486 30.3839 43.4375 28.2378 43.4375 26C43.4375 23.7622 42.5486 21.6161 40.9662 20.0338C39.3839 18.4514 37.2378 17.5625 35 17.5625C32.7622 17.5625 30.6161 18.4514 29.0338 20.0338C27.4514 21.6161 26.5625 23.7622 26.5625 26Z" stroke="#5F25B0" stroke-linecap="round" stroke-linejoin="round"/>
<path d="M32.1875 21.7812H37.8125M32.1875 24.3856H37.8125M36.1719 31.1562L32.1875 26.99H33.5938C36.7194 26.99 36.7194 21.7812 33.5938 21.7812" stroke="#5F25B0" stroke-linecap="round" stroke-linejoin="round"/>
</svg>
