<svg width="70" height="76" viewBox="0 0 70 76" fill="none" xmlns="http://www.w3.org/2000/svg">
<path d="M31 38.4063C32.0032 38.5279 33.2763 38.5279 35 38.5279C36.7237 38.5279 37.9968 38.5279 39 38.4063M31 38.4063C30.0847 38.2955 29.3941 38.0834 28.7906 37.678C28.6892 37.6098 28.5902 37.5379 28.4941 37.4625C27.2949 36.5222 26.7856 34.9547 25.767 31.8197C24.7483 28.6846 24.239 27.1171 24.6565 25.6516C24.6899 25.534 24.7277 25.4177 24.7697 25.3029C25.2934 23.8719 26.6269 22.9031 29.2937 20.9656C31.9605 19.028 33.2939 18.0592 34.8167 18.0034C34.9389 17.9989 35.0611 17.9989 35.1833 18.0034C36.7061 18.0592 38.0395 19.028 40.7063 20.9656C43.3732 22.9031 44.7066 23.8719 45.2303 25.3029C45.2723 25.4177 45.3101 25.534 45.3436 25.6516C45.761 27.1171 45.2517 28.6846 44.2331 31.8197C43.2144 34.9547 42.7051 36.5222 41.506 37.4625C41.4098 37.5379 41.3108 37.6098 41.2094 37.678C40.606 38.0834 39.9153 38.2955 39 38.4063M31 38.4063V38.3197V34.8197C31 32.6105 32.7909 30.8197 35 30.8197C37.2091 30.8197 39 32.6105 39 34.8197V38.3197V38.4063" stroke="#5F25B0" stroke-width="1.5"/>
<path d="M16.7168 63.6848V53.503H17.9498V58.0371H23.3788V53.503H24.6117V63.6848H23.3788V59.1308H17.9498V63.6848H16.7168ZM30.0233 63.8439C29.3339 63.8439 28.729 63.6798 28.2087 63.3517C27.6916 63.0236 27.2873 62.5645 26.9956 61.9746C26.7073 61.3846 26.5631 60.6952 26.5631 59.9064C26.5631 59.111 26.7073 58.4166 26.9956 57.8233C27.2873 57.23 27.6916 56.7693 28.2087 56.4412C28.729 56.1131 29.3339 55.949 30.0233 55.949C30.7127 55.949 31.3159 56.1131 31.833 56.4412C32.3533 56.7693 32.7577 57.23 33.046 57.8233C33.3377 58.4166 33.4835 59.111 33.4835 59.9064C33.4835 60.6952 33.3377 61.3846 33.046 61.9746C32.7577 62.5645 32.3533 63.0236 31.833 63.3517C31.3159 63.6798 30.7127 63.8439 30.0233 63.8439ZM30.0233 62.7899C30.547 62.7899 30.9778 62.6557 31.3159 62.3872C31.654 62.1188 31.9042 61.7658 32.0666 61.3283C32.229 60.8908 32.3102 60.4168 32.3102 59.9064C32.3102 59.396 32.229 58.9204 32.0666 58.4796C31.9042 58.0387 31.654 57.6824 31.3159 57.4107C30.9778 57.1389 30.547 57.003 30.0233 57.003C29.4996 57.003 29.0688 57.1389 28.7307 57.4107C28.3926 57.6824 28.1424 58.0387 27.98 58.4796C27.8176 58.9204 27.7364 59.396 27.7364 59.9064C27.7364 60.4168 27.8176 60.8908 27.98 61.3283C28.1424 61.7658 28.3926 62.1188 28.7307 62.3872C29.0688 62.6557 29.4996 62.7899 30.0233 62.7899ZM35.2745 63.6848V56.0485H36.4081V57.2416H36.5075C36.6666 56.834 36.9235 56.5174 37.2781 56.2921C37.6327 56.0634 38.0586 55.949 38.5558 55.949C39.0596 55.949 39.4789 56.0634 39.8136 56.2921C40.1517 56.5174 40.4152 56.834 40.6041 57.2416H40.6836C40.8792 56.8472 41.1725 56.534 41.5636 56.302C41.9547 56.0667 42.4237 55.949 42.9706 55.949C43.6533 55.949 44.2118 56.1628 44.646 56.5904C45.0802 57.0146 45.2973 57.6758 45.2973 58.574V63.6848H44.124V58.574C44.124 58.0106 43.9699 57.6079 43.6616 57.3659C43.3534 57.124 42.9905 57.003 42.5728 57.003C42.0359 57.003 41.62 57.1654 41.325 57.4902C41.03 57.8117 40.8825 58.2194 40.8825 58.7132V63.6848H39.6893V58.4547C39.6893 58.0205 39.5485 57.6708 39.2667 57.4057C38.985 57.1372 38.6221 57.003 38.178 57.003C37.873 57.003 37.588 57.0842 37.3228 57.2466C37.061 57.409 36.8489 57.6344 36.6865 57.9227C36.5274 58.2078 36.4478 58.5376 36.4478 58.9121V63.6848H35.2745ZM50.6442 63.8439C49.9084 63.8439 49.2737 63.6815 48.7401 63.3567C48.2098 63.0286 47.8005 62.5712 47.5121 61.9845C47.2271 61.3946 47.0846 60.7085 47.0846 59.9263C47.0846 59.1441 47.2271 58.4547 47.5121 57.8581C47.8005 57.2582 48.2015 56.7909 48.7152 56.4561C49.2323 56.1181 49.8355 55.949 50.5249 55.949C50.9226 55.949 51.3154 56.0153 51.7032 56.1479C52.091 56.2805 52.4439 56.4959 52.7621 56.7942C53.0803 57.0892 53.3339 57.4803 53.5228 57.9675C53.7117 58.4547 53.8062 59.0546 53.8062 59.7672V60.2644H47.9198V59.2502H52.613C52.613 58.8193 52.5268 58.4348 52.3544 58.0967C52.1854 57.7587 51.9435 57.4919 51.6286 57.2963C51.317 57.1008 50.9491 57.003 50.5249 57.003C50.0576 57.003 49.6532 57.119 49.3118 57.351C48.9738 57.5797 48.7136 57.878 48.5313 58.2459C48.349 58.6138 48.2579 59.0082 48.2579 59.4291V60.1053C48.2579 60.682 48.3573 61.1708 48.5562 61.5719C48.7583 61.9696 49.0384 62.2729 49.3964 62.4817C49.7543 62.6872 50.1703 62.7899 50.6442 62.7899C50.9525 62.7899 51.2309 62.7468 51.4794 62.6607C51.7313 62.5712 51.9484 62.4386 52.1307 62.2629C52.313 62.084 52.4539 61.8619 52.5533 61.5967L53.6868 61.9149C53.5675 62.2994 53.367 62.6375 53.0853 62.9291C52.8035 63.2175 52.4555 63.4429 52.0412 63.6053C51.6269 63.7644 51.1613 63.8439 50.6442 63.8439Z" fill="#5F25B0"/>
<rect x="11.8779" width="47.0243" height="3.86267" fill="#5F25B0"/>
</svg>
