<svg width="70" height="60" viewBox="0 0 70 60" fill="none" xmlns="http://www.w3.org/2000/svg">
<path d="M31.4304 37.8182H32.6634V44.5597C32.6634 45.2557 32.4993 45.8771 32.1712 46.424C31.8464 46.9676 31.3873 47.3968 30.794 47.7116C30.2008 48.0232 29.5047 48.179 28.706 48.179C27.9072 48.179 27.2112 48.0232 26.6179 47.7116C26.0246 47.3968 25.5639 46.9676 25.2358 46.424C24.911 45.8771 24.7486 45.2557 24.7486 44.5597V37.8182H25.9815V44.4602C25.9815 44.9574 26.0909 45.3999 26.3097 45.7876C26.5284 46.1721 26.84 46.4754 27.2443 46.6974C27.652 46.9162 28.1392 47.0256 28.706 47.0256C29.2727 47.0256 29.7599 46.9162 30.1676 46.6974C30.5753 46.4754 30.8868 46.1721 31.1023 45.7876C31.321 45.3999 31.4304 44.9574 31.4304 44.4602V37.8182ZM35.1255 48V37.8182H38.5659C39.3646 37.8182 40.0176 37.9624 40.5247 38.2507C41.0351 38.5357 41.4129 38.9219 41.6582 39.4091C41.9035 39.8963 42.0261 40.4399 42.0261 41.0398C42.0261 41.6397 41.9035 42.1849 41.6582 42.6754C41.4163 43.166 41.0417 43.5571 40.5346 43.8487C40.0275 44.1371 39.3779 44.2812 38.5858 44.2812H36.1199V43.1875H38.546C39.0929 43.1875 39.532 43.093 39.8635 42.9041C40.1949 42.7152 40.4352 42.46 40.5843 42.1385C40.7368 41.8137 40.813 41.4474 40.813 41.0398C40.813 40.6321 40.7368 40.2675 40.5843 39.946C40.4352 39.6245 40.1932 39.3726 39.8585 39.1903C39.5237 39.0047 39.0796 38.9119 38.5261 38.9119H36.3585V48H35.1255ZM45.2452 37.8182V48H44.0123V37.8182H45.2452Z" fill="#5F25B0"/>
<path d="M26.5625 16C26.5625 18.2378 27.4514 20.3839 29.0338 21.9662C30.6161 23.5486 32.7622 24.4375 35 24.4375C37.2378 24.4375 39.3839 23.5486 40.9662 21.9662C42.5486 20.3839 43.4375 18.2378 43.4375 16C43.4375 13.7622 42.5486 11.6161 40.9662 10.0338C39.3839 8.45145 37.2378 7.5625 35 7.5625C32.7622 7.5625 30.6161 8.45145 29.0338 10.0338C27.4514 11.6161 26.5625 13.7622 26.5625 16Z" stroke="#5F25B0" stroke-linecap="round" stroke-linejoin="round"/>
<path d="M32.1875 11.7812H37.8125M32.1875 14.3856H37.8125M36.1719 21.1562L32.1875 16.99H33.5938C36.7194 16.99 36.7194 11.7812 33.5938 11.7812" stroke="#5F25B0" stroke-linecap="round" stroke-linejoin="round"/>
</svg>
