<svg width="70" height="60" viewBox="0 0 70 60" fill="none" xmlns="http://www.w3.org/2000/svg">
<path fill-rule="evenodd" clip-rule="evenodd" d="M35 1.25C32.3766 1.25 30.25 3.37665 30.25 6C30.25 8.62335 32.3766 10.75 35 10.75C37.6234 10.75 39.75 8.62335 39.75 6C39.75 3.37665 37.6234 1.25 35 1.25ZM31.75 6C31.75 4.20507 33.2051 2.75 35 2.75C36.7949 2.75 38.25 4.20507 38.25 6C38.25 7.79493 36.7949 9.25 35 9.25C33.2051 9.25 31.75 7.79493 31.75 6Z" fill="#5F25B0"/>
<path fill-rule="evenodd" clip-rule="evenodd" d="M32 12.25C29.3766 12.25 27.25 14.3766 27.25 17C27.25 19.6234 29.3766 21.75 32 21.75H38C40.6234 21.75 42.75 19.6234 42.75 17C42.75 14.3766 40.6234 12.25 38 12.25H32ZM28.75 17C28.75 15.2051 30.2051 13.75 32 13.75H38C39.7949 13.75 41.25 15.2051 41.25 17C41.25 18.7949 39.7949 20.25 38 20.25H32C30.2051 20.25 28.75 18.7949 28.75 17Z" fill="#5F25B0"/>
<path fill-rule="evenodd" clip-rule="evenodd" d="M35 1.25C32.3766 1.25 30.25 3.37665 30.25 6C30.25 8.62335 32.3766 10.75 35 10.75C37.6234 10.75 39.75 8.62335 39.75 6C39.75 3.37665 37.6234 1.25 35 1.25ZM31.75 6C31.75 4.20507 33.2051 2.75 35 2.75C36.7949 2.75 38.25 4.20507 38.25 6C38.25 7.79493 36.7949 9.25 35 9.25C33.2051 9.25 31.75 7.79493 31.75 6Z" stroke="#5F25B0"/>
<path fill-rule="evenodd" clip-rule="evenodd" d="M32 12.25C29.3766 12.25 27.25 14.3766 27.25 17C27.25 19.6234 29.3766 21.75 32 21.75H38C40.6234 21.75 42.75 19.6234 42.75 17C42.75 14.3766 40.6234 12.25 38 12.25H32ZM28.75 17C28.75 15.2051 30.2051 13.75 32 13.75H38C39.7949 13.75 41.25 15.2051 41.25 17C41.25 18.7949 39.7949 20.25 38 20.25H32C30.2051 20.25 28.75 18.7949 28.75 17Z" stroke="#5F25B0"/>
<path d="M15.2061 47.6846V37.5028H18.6464C19.4452 37.5028 20.0981 37.6469 20.6052 37.9353C21.1157 38.2203 21.4935 38.6064 21.7388 39.0937C21.984 39.5809 22.1067 40.1244 22.1067 40.7243C22.1067 41.3242 21.984 41.8695 21.7388 42.36C21.4968 42.8505 21.1223 43.2416 20.6152 43.5333C20.1081 43.8216 19.4585 43.9658 18.6663 43.9658H16.2004V42.8721H18.6266C19.1734 42.8721 19.6126 42.7776 19.944 42.5887C20.2755 42.3998 20.5158 42.1446 20.6649 41.8231C20.8174 41.4983 20.8936 41.132 20.8936 40.7243C20.8936 40.3167 20.8174 39.9521 20.6649 39.6306C20.5158 39.3091 20.2738 39.0572 19.9391 38.8749C19.6043 38.6893 19.1602 38.5965 18.6067 38.5965H16.4391V47.6846H15.2061ZM23.9337 47.6846V40.0482H25.0672V41.2016H25.1468C25.286 40.8238 25.5379 40.5172 25.9025 40.2819C26.2671 40.0465 26.678 39.9289 27.1354 39.9289C27.2216 39.9289 27.3293 39.9305 27.4586 39.9339C27.5878 39.9372 27.6856 39.9421 27.7519 39.9488V41.142C27.7121 41.132 27.621 41.1171 27.4785 41.0972C27.3393 41.074 27.1918 41.0624 27.036 41.0624C26.6648 41.0624 26.3333 41.1403 26.0417 41.2961C25.7533 41.4485 25.5246 41.6607 25.3556 41.9324C25.1899 42.2009 25.107 42.5075 25.107 42.8522V47.6846H23.9337ZM32.0126 47.8437C31.3232 47.8437 30.7183 47.6796 30.1979 47.3515C29.6809 47.0233 29.2765 46.5643 28.9849 45.9743C28.6965 45.3844 28.5523 44.695 28.5523 43.9062C28.5523 43.1107 28.6965 42.4163 28.9849 41.8231C29.2765 41.2298 29.6809 40.7691 30.1979 40.441C30.7183 40.1128 31.3232 39.9488 32.0126 39.9488C32.702 39.9488 33.3052 40.1128 33.8222 40.441C34.3426 40.7691 34.7469 41.2298 35.0353 41.8231C35.327 42.4163 35.4728 43.1107 35.4728 43.9062C35.4728 44.695 35.327 45.3844 35.0353 45.9743C34.7469 46.5643 34.3426 47.0233 33.8222 47.3515C33.3052 47.6796 32.702 47.8437 32.0126 47.8437ZM32.0126 46.7897C32.5362 46.7897 32.9671 46.6555 33.3052 46.387C33.6432 46.1185 33.8935 45.7655 34.0559 45.328C34.2183 44.8905 34.2995 44.4166 34.2995 43.9062C34.2995 43.3957 34.2183 42.9201 34.0559 42.4793C33.8935 42.0385 33.6432 41.6822 33.3052 41.4104C32.9671 41.1386 32.5362 41.0028 32.0126 41.0028C31.4889 41.0028 31.058 41.1386 30.7199 41.4104C30.3819 41.6822 30.1316 42.0385 29.9692 42.4793C29.8068 42.9201 29.7256 43.3957 29.7256 43.9062C29.7256 44.4166 29.8068 44.8905 29.9692 45.328C30.1316 45.7655 30.3819 46.1185 30.7199 46.387C31.058 46.6555 31.4889 46.7897 32.0126 46.7897ZM40.6644 40.0482V41.0425H36.5479V40.0482H40.6644ZM37.7809 47.6846V38.9942C37.7809 38.5567 37.8836 38.1921 38.0891 37.9005C38.2946 37.6088 38.5614 37.3901 38.8895 37.2442C39.2176 37.0984 39.564 37.0255 39.9286 37.0255C40.2169 37.0255 40.4523 37.0487 40.6345 37.0951C40.8168 37.1415 40.9527 37.1846 41.0422 37.2243L40.7041 38.2385C40.6445 38.2187 40.5616 38.1938 40.4556 38.164C40.3528 38.1341 40.2169 38.1192 40.0479 38.1192C39.6601 38.1192 39.38 38.217 39.2077 38.4126C39.0387 38.6081 38.9541 38.8948 38.9541 39.2726V47.6846H37.7809ZM42.3087 47.6846V40.0482H43.482V47.6846H42.3087ZM42.9053 38.7755C42.6766 38.7755 42.4794 38.6976 42.3137 38.5418C42.1513 38.386 42.0701 38.1988 42.0701 37.98C42.0701 37.7613 42.1513 37.574 42.3137 37.4182C42.4794 37.2625 42.6766 37.1846 42.9053 37.1846C43.134 37.1846 43.3296 37.2625 43.492 37.4182C43.6577 37.574 43.7405 37.7613 43.7405 37.98C43.7405 38.1988 43.6577 38.386 43.492 38.5418C43.3296 38.6976 43.134 38.7755 42.9053 38.7755ZM46.8043 37.5028V47.6846H45.631V37.5028H46.8043ZM52.155 47.8437C51.4192 47.8437 50.7845 47.6813 50.2508 47.3564C49.7205 47.0283 49.3112 46.5709 49.0229 45.9843C48.7378 45.3943 48.5953 44.7082 48.5953 43.926C48.5953 43.1439 48.7378 42.4545 49.0229 41.8579C49.3112 41.258 49.7123 40.7906 50.226 40.4559C50.743 40.1178 51.3463 39.9488 52.0356 39.9488C52.4334 39.9488 52.8261 40.0151 53.2139 40.1476C53.6017 40.2802 53.9547 40.4956 54.2729 40.7939C54.591 41.0889 54.8446 41.48 55.0335 41.9672C55.2224 42.4545 55.3169 43.0544 55.3169 43.767V44.2641H49.4305V43.2499H54.1237C54.1237 42.819 54.0375 42.4346 53.8652 42.0965C53.6962 41.7584 53.4542 41.4916 53.1393 41.2961C52.8278 41.1005 52.4599 41.0028 52.0356 41.0028C51.5683 41.0028 51.164 41.1188 50.8226 41.3508C50.4845 41.5795 50.2243 41.8778 50.042 42.2456C49.8597 42.6135 49.7686 43.008 49.7686 43.4289V44.105C49.7686 44.6817 49.868 45.1706 50.0669 45.5716C50.2691 45.9694 50.5491 46.2726 50.9071 46.4814C51.265 46.6869 51.681 46.7897 52.155 46.7897C52.4632 46.7897 52.7416 46.7466 52.9902 46.6604C53.2421 46.5709 53.4592 46.4384 53.6415 46.2627C53.8238 46.0837 53.9646 45.8617 54.0641 45.5965L55.1976 45.9147C55.0783 46.2992 54.8777 46.6372 54.596 46.9289C54.3143 47.2172 53.9663 47.4426 53.552 47.605C53.1377 47.7641 52.672 47.8437 52.155 47.8437Z" fill="#5F25B0"/>
</svg>
