<svg width="70" height="77" viewBox="0 0 70 77" fill="none" xmlns="http://www.w3.org/2000/svg">
<path fill-rule="evenodd" clip-rule="evenodd" d="M35 18.25C32.3766 18.25 30.25 20.3766 30.25 23C30.25 25.6234 32.3766 27.75 35 27.75C37.6234 27.75 39.75 25.6234 39.75 23C39.75 20.3766 37.6234 18.25 35 18.25ZM31.75 23C31.75 21.2051 33.2051 19.75 35 19.75C36.7949 19.75 38.25 21.2051 38.25 23C38.25 24.7949 36.7949 26.25 35 26.25C33.2051 26.25 31.75 24.7949 31.75 23Z" fill="#5F25B0"/>
<path fill-rule="evenodd" clip-rule="evenodd" d="M32 29.25C29.3766 29.25 27.25 31.3766 27.25 34C27.25 36.6234 29.3766 38.75 32 38.75H38C40.6234 38.75 42.75 36.6234 42.75 34C42.75 31.3766 40.6234 29.25 38 29.25H32ZM28.75 34C28.75 32.2051 30.2051 30.75 32 30.75H38C39.7949 30.75 41.25 32.2051 41.25 34C41.25 35.7949 39.7949 37.25 38 37.25H32C30.2051 37.25 28.75 35.7949 28.75 34Z" fill="#5F25B0"/>
<path fill-rule="evenodd" clip-rule="evenodd" d="M35 18.25C32.3766 18.25 30.25 20.3766 30.25 23C30.25 25.6234 32.3766 27.75 35 27.75C37.6234 27.75 39.75 25.6234 39.75 23C39.75 20.3766 37.6234 18.25 35 18.25ZM31.75 23C31.75 21.2051 33.2051 19.75 35 19.75C36.7949 19.75 38.25 21.2051 38.25 23C38.25 24.7949 36.7949 26.25 35 26.25C33.2051 26.25 31.75 24.7949 31.75 23Z" stroke="#5F25B0"/>
<path fill-rule="evenodd" clip-rule="evenodd" d="M32 29.25C29.3766 29.25 27.25 31.3766 27.25 34C27.25 36.6234 29.3766 38.75 32 38.75H38C40.6234 38.75 42.75 36.6234 42.75 34C42.75 31.3766 40.6234 29.25 38 29.25H32ZM28.75 34C28.75 32.2051 30.2051 30.75 32 30.75H38C39.7949 30.75 41.25 32.2051 41.25 34C41.25 35.7949 39.7949 37.25 38 37.25H32C30.2051 37.25 28.75 35.7949 28.75 34Z" stroke="#5F25B0"/>
<path d="M15.2061 64.6848V54.503H18.6464C19.4452 54.503 20.0981 54.6472 20.6052 54.9355C21.1157 55.2206 21.4935 55.6067 21.7388 56.0939C21.984 56.5811 22.1067 57.1247 22.1067 57.7246C22.1067 58.3245 21.984 58.8697 21.7388 59.3602C21.4968 59.8508 21.1223 60.2419 20.6152 60.5335C20.1081 60.8219 19.4585 60.9661 18.6663 60.9661H16.2004V59.8723H18.6266C19.1734 59.8723 19.6126 59.7779 19.944 59.5889C20.2755 59.4 20.5158 59.1448 20.6649 58.8233C20.8174 58.4985 20.8936 58.1323 20.8936 57.7246C20.8936 57.3169 20.8174 56.9523 20.6649 56.6308C20.5158 56.3093 20.2738 56.0574 19.9391 55.8752C19.6043 55.6895 19.1602 55.5967 18.6067 55.5967H16.4391V64.6848H15.2061ZM23.9337 64.6848V57.0485H25.0672V58.2019H25.1468C25.286 57.824 25.5379 57.5174 25.9025 57.2821C26.2671 57.0468 26.678 56.9291 27.1354 56.9291C27.2216 56.9291 27.3293 56.9308 27.4586 56.9341C27.5878 56.9374 27.6856 56.9424 27.7519 56.949V58.1422C27.7121 58.1323 27.621 58.1173 27.4785 58.0975C27.3393 58.0743 27.1918 58.0627 27.036 58.0627C26.6648 58.0627 26.3333 58.1405 26.0417 58.2963C25.7533 58.4488 25.5246 58.6609 25.3556 58.9327C25.1899 59.2011 25.107 59.5077 25.107 59.8524V64.6848H23.9337ZM32.0126 64.8439C31.3232 64.8439 30.7183 64.6798 30.1979 64.3517C29.6809 64.0236 29.2765 63.5645 28.9849 62.9746C28.6965 62.3846 28.5523 61.6952 28.5523 60.9064C28.5523 60.111 28.6965 59.4166 28.9849 58.8233C29.2765 58.23 29.6809 57.7693 30.1979 57.4412C30.7183 57.1131 31.3232 56.949 32.0126 56.949C32.702 56.949 33.3052 57.1131 33.8222 57.4412C34.3426 57.7693 34.7469 58.23 35.0353 58.8233C35.327 59.4166 35.4728 60.111 35.4728 60.9064C35.4728 61.6952 35.327 62.3846 35.0353 62.9746C34.7469 63.5645 34.3426 64.0236 33.8222 64.3517C33.3052 64.6798 32.702 64.8439 32.0126 64.8439ZM32.0126 63.7899C32.5362 63.7899 32.9671 63.6557 33.3052 63.3872C33.6432 63.1188 33.8935 62.7658 34.0559 62.3283C34.2183 61.8908 34.2995 61.4168 34.2995 60.9064C34.2995 60.396 34.2183 59.9204 34.0559 59.4796C33.8935 59.0387 33.6432 58.6824 33.3052 58.4107C32.9671 58.1389 32.5362 58.003 32.0126 58.003C31.4889 58.003 31.058 58.1389 30.7199 58.4107C30.3819 58.6824 30.1316 59.0387 29.9692 59.4796C29.8068 59.9204 29.7256 60.396 29.7256 60.9064C29.7256 61.4168 29.8068 61.8908 29.9692 62.3283C30.1316 62.7658 30.3819 63.1188 30.7199 63.3872C31.058 63.6557 31.4889 63.7899 32.0126 63.7899ZM40.6644 57.0485V58.0428H36.5479V57.0485H40.6644ZM37.7809 64.6848V55.9945C37.7809 55.557 37.8836 55.1924 38.0891 54.9007C38.2946 54.6091 38.5614 54.3903 38.8895 54.2445C39.2176 54.0986 39.564 54.0257 39.9286 54.0257C40.2169 54.0257 40.4523 54.0489 40.6345 54.0953C40.8168 54.1417 40.9527 54.1848 41.0422 54.2246L40.7041 55.2388C40.6445 55.2189 40.5616 55.194 40.4556 55.1642C40.3528 55.1344 40.2169 55.1195 40.0479 55.1195C39.6601 55.1195 39.38 55.2172 39.2077 55.4128C39.0387 55.6083 38.9541 55.895 38.9541 56.2729V64.6848H37.7809ZM42.3087 64.6848V57.0485H43.482V64.6848H42.3087ZM42.9053 55.7757C42.6766 55.7757 42.4794 55.6978 42.3137 55.5421C42.1513 55.3863 42.0701 55.199 42.0701 54.9803C42.0701 54.7615 42.1513 54.5743 42.3137 54.4185C42.4794 54.2627 42.6766 54.1848 42.9053 54.1848C43.134 54.1848 43.3296 54.2627 43.492 54.4185C43.6577 54.5743 43.7405 54.7615 43.7405 54.9803C43.7405 55.199 43.6577 55.3863 43.492 55.5421C43.3296 55.6978 43.134 55.7757 42.9053 55.7757ZM46.8043 54.503V64.6848H45.631V54.503H46.8043ZM52.155 64.8439C51.4192 64.8439 50.7845 64.6815 50.2508 64.3567C49.7205 64.0286 49.3112 63.5712 49.0229 62.9845C48.7378 62.3946 48.5953 61.7085 48.5953 60.9263C48.5953 60.1441 48.7378 59.4547 49.0229 58.8581C49.3112 58.2582 49.7123 57.7909 50.226 57.4561C50.743 57.1181 51.3463 56.949 52.0356 56.949C52.4334 56.949 52.8261 57.0153 53.2139 57.1479C53.6017 57.2805 53.9547 57.4959 54.2729 57.7942C54.591 58.0892 54.8446 58.4803 55.0335 58.9675C55.2224 59.4547 55.3169 60.0546 55.3169 60.7672V61.2644H49.4305V60.2502H54.1237C54.1237 59.8193 54.0375 59.4348 53.8652 59.0967C53.6962 58.7587 53.4542 58.4919 53.1393 58.2963C52.8278 58.1008 52.4599 58.003 52.0356 58.003C51.5683 58.003 51.164 58.119 50.8226 58.351C50.4845 58.5797 50.2243 58.878 50.042 59.2459C49.8597 59.6138 49.7686 60.0082 49.7686 60.4291V61.1053C49.7686 61.682 49.868 62.1708 50.0669 62.5719C50.2691 62.9696 50.5491 63.2729 50.9071 63.4817C51.265 63.6872 51.681 63.7899 52.155 63.7899C52.4632 63.7899 52.7416 63.7468 52.9902 63.6607C53.2421 63.5712 53.4592 63.4386 53.6415 63.2629C53.8238 63.084 53.9646 62.8619 54.0641 62.5967L55.1976 62.9149C55.0783 63.2994 54.8777 63.6375 54.596 63.9291C54.3143 64.2175 53.9663 64.4429 53.552 64.6053C53.1377 64.7644 52.672 64.8439 52.155 64.8439Z" fill="#5F25B0"/>
<rect x="11.8779" y="0.550781" width="47.0243" height="3.86267" fill="#5F25B0"/>
</svg>
