<svg width="70" height="60" viewBox="0 0 70 60" fill="none" xmlns="http://www.w3.org/2000/svg">
<path d="M31 22.4063C32.0032 22.5279 33.2763 22.5279 35 22.5279C36.7237 22.5279 37.9968 22.5279 39 22.4063M31 22.4063C30.0847 22.2955 29.3941 22.0834 28.7906 21.678C28.6892 21.6098 28.5902 21.5379 28.4941 21.4625C27.2949 20.5222 26.7856 18.9547 25.767 15.8197C24.7483 12.6846 24.239 11.1171 24.6565 9.65157C24.6899 9.534 24.7277 9.41771 24.7697 9.30291C25.2934 7.87189 26.6269 6.90311 29.2937 4.96556C31.9605 3.028 33.2939 2.05923 34.8167 2.00336C34.9389 1.99888 35.0611 1.99888 35.1833 2.00336C36.7061 2.05923 38.0395 3.028 40.7063 4.96556C43.3732 6.90311 44.7066 7.87189 45.2303 9.30291C45.2723 9.41771 45.3101 9.534 45.3436 9.65157C45.761 11.1171 45.2517 12.6846 44.2331 15.8197C43.2144 18.9547 42.7051 20.5222 41.506 21.4625C41.4098 21.5379 41.3108 21.6098 41.2094 21.678C40.606 22.0834 39.9153 22.2955 39 22.4063M31 22.4063V22.3197V18.8197C31 16.6105 32.7909 14.8197 35 14.8197C37.2091 14.8197 39 16.6105 39 18.8197V22.3197V22.4063" stroke="#5F25B0" stroke-width="1.5"/>
<path d="M16.7168 47.6846V37.5028H17.9498V42.0368H23.3788V37.5028H24.6117V47.6846H23.3788V43.1306H17.9498V47.6846H16.7168ZM30.0233 47.8437C29.3339 47.8437 28.729 47.6796 28.2087 47.3515C27.6916 47.0233 27.2873 46.5643 26.9956 45.9743C26.7073 45.3844 26.5631 44.695 26.5631 43.9062C26.5631 43.1107 26.7073 42.4163 26.9956 41.8231C27.2873 41.2298 27.6916 40.7691 28.2087 40.441C28.729 40.1128 29.3339 39.9488 30.0233 39.9488C30.7127 39.9488 31.3159 40.1128 31.833 40.441C32.3533 40.7691 32.7577 41.2298 33.046 41.8231C33.3377 42.4163 33.4835 43.1107 33.4835 43.9062C33.4835 44.695 33.3377 45.3844 33.046 45.9743C32.7577 46.5643 32.3533 47.0233 31.833 47.3515C31.3159 47.6796 30.7127 47.8437 30.0233 47.8437ZM30.0233 46.7897C30.547 46.7897 30.9778 46.6555 31.3159 46.387C31.654 46.1185 31.9042 45.7655 32.0666 45.328C32.229 44.8905 32.3102 44.4166 32.3102 43.9062C32.3102 43.3957 32.229 42.9201 32.0666 42.4793C31.9042 42.0385 31.654 41.6822 31.3159 41.4104C30.9778 41.1386 30.547 41.0028 30.0233 41.0028C29.4996 41.0028 29.0688 41.1386 28.7307 41.4104C28.3926 41.6822 28.1424 42.0385 27.98 42.4793C27.8176 42.9201 27.7364 43.3957 27.7364 43.9062C27.7364 44.4166 27.8176 44.8905 27.98 45.328C28.1424 45.7655 28.3926 46.1185 28.7307 46.387C29.0688 46.6555 29.4996 46.7897 30.0233 46.7897ZM35.2745 47.6846V40.0482H36.4081V41.2414H36.5075C36.6666 40.8337 36.9235 40.5172 37.2781 40.2918C37.6327 40.0631 38.0586 39.9488 38.5558 39.9488C39.0596 39.9488 39.4789 40.0631 39.8136 40.2918C40.1517 40.5172 40.4152 40.8337 40.6041 41.2414H40.6836C40.8792 40.847 41.1725 40.5338 41.5636 40.3018C41.9547 40.0664 42.4237 39.9488 42.9706 39.9488C43.6533 39.9488 44.2118 40.1626 44.646 40.5901C45.0802 41.0144 45.2973 41.6756 45.2973 42.5738V47.6846H44.124V42.5738C44.124 42.0103 43.9699 41.6076 43.6616 41.3657C43.3534 41.1237 42.9905 41.0028 42.5728 41.0028C42.0359 41.0028 41.62 41.1652 41.325 41.49C41.03 41.8115 40.8825 42.2191 40.8825 42.713V47.6846H39.6893V42.4545C39.6893 42.0203 39.5485 41.6706 39.2667 41.4055C38.985 41.137 38.6221 41.0028 38.178 41.0028C37.873 41.0028 37.588 41.084 37.3228 41.2464C37.061 41.4088 36.8489 41.6341 36.6865 41.9225C36.5274 42.2075 36.4478 42.5373 36.4478 42.9118V47.6846H35.2745ZM50.6442 47.8437C49.9084 47.8437 49.2737 47.6813 48.7401 47.3564C48.2098 47.0283 47.8005 46.5709 47.5121 45.9843C47.2271 45.3943 47.0846 44.7082 47.0846 43.926C47.0846 43.1439 47.2271 42.4545 47.5121 41.8579C47.8005 41.258 48.2015 40.7906 48.7152 40.4559C49.2323 40.1178 49.8355 39.9488 50.5249 39.9488C50.9226 39.9488 51.3154 40.0151 51.7032 40.1476C52.091 40.2802 52.4439 40.4956 52.7621 40.7939C53.0803 41.0889 53.3339 41.48 53.5228 41.9672C53.7117 42.4545 53.8062 43.0544 53.8062 43.767V44.2641H47.9198V43.2499H52.613C52.613 42.819 52.5268 42.4346 52.3544 42.0965C52.1854 41.7584 51.9435 41.4916 51.6286 41.2961C51.317 41.1005 50.9491 41.0028 50.5249 41.0028C50.0576 41.0028 49.6532 41.1188 49.3118 41.3508C48.9738 41.5795 48.7136 41.8778 48.5313 42.2456C48.349 42.6135 48.2579 43.008 48.2579 43.4289V44.105C48.2579 44.6817 48.3573 45.1706 48.5562 45.5716C48.7583 45.9694 49.0384 46.2726 49.3964 46.4814C49.7543 46.6869 50.1703 46.7897 50.6442 46.7897C50.9525 46.7897 51.2309 46.7466 51.4794 46.6604C51.7313 46.5709 51.9484 46.4384 52.1307 46.2627C52.313 46.0837 52.4539 45.8617 52.5533 45.5965L53.6868 45.9147C53.5675 46.2992 53.367 46.6372 53.0853 46.9289C52.8035 47.2172 52.4555 47.4426 52.0412 47.605C51.6269 47.7641 51.1613 47.8437 50.6442 47.8437Z" fill="#5F25B0"/>
</svg>
