<svg width="70" height="76" viewBox="0 0 70 76" fill="none" xmlns="http://www.w3.org/2000/svg">
<path d="M17.4172 64H16.1246L19.8632 53.8182H21.1359L24.8746 64H23.5819L20.5393 55.429H20.4598L17.4172 64ZM17.8944 60.0227H23.1047V61.1165H17.8944V60.0227ZM31.7105 58.0739L30.6565 58.3722C30.5902 58.1965 30.4925 58.0258 30.3632 57.8601C30.2372 57.6911 30.0649 57.5518 29.8461 57.4425C29.6274 57.3331 29.3473 57.2784 29.0059 57.2784C28.5386 57.2784 28.1492 57.3861 27.8376 57.6016C27.5294 57.8137 27.3753 58.0838 27.3753 58.4119C27.3753 58.7036 27.4813 58.9339 27.6934 59.103C27.9056 59.272 28.237 59.4129 28.6878 59.5256L29.8213 59.804C30.5041 59.9697 31.0128 60.2232 31.3476 60.5646C31.6823 60.9027 31.8497 61.3385 31.8497 61.8722C31.8497 62.3097 31.7238 62.7008 31.4719 63.0455C31.2233 63.3902 30.8753 63.6619 30.4278 63.8608C29.9804 64.0597 29.46 64.1591 28.8667 64.1591C28.0879 64.1591 27.4432 63.9901 26.9328 63.652C26.4224 63.3139 26.0992 62.8201 25.9633 62.1705L27.077 61.892C27.183 62.303 27.3836 62.6113 27.6785 62.8168C27.9768 63.0223 28.3663 63.125 28.8469 63.125C29.3937 63.125 29.8279 63.009 30.1494 62.777C30.4742 62.5417 30.6366 62.2599 30.6366 61.9318C30.6366 61.6667 30.5438 61.4446 30.3582 61.2656C30.1726 61.0833 29.8876 60.9474 29.5031 60.858L28.2304 60.5597C27.531 60.3939 27.0173 60.1371 26.6892 59.7891C26.3644 59.4377 26.202 58.9986 26.202 58.4716C26.202 58.0407 26.3229 57.6596 26.5649 57.3281C26.8102 56.9967 27.1433 56.7365 27.5642 56.5476C27.9884 56.3587 28.469 56.2642 29.0059 56.2642C29.7616 56.2642 30.3549 56.4299 30.7858 56.7614C31.22 57.0928 31.5282 57.5303 31.7105 58.0739ZM34.7096 61.2159L34.6897 59.7642H34.9284L38.2693 56.3636H39.721L36.1613 59.9631H36.0619L34.7096 61.2159ZM33.6159 64V53.8182H34.7892V64H33.6159ZM38.4681 64L35.4852 60.2216L36.3204 59.4062L39.9596 64H38.4681ZM45.7453 64H44.4527L48.1913 53.8182H49.464L53.2027 64H51.9101L48.8675 55.429H48.7879L45.7453 64ZM46.2226 60.0227H51.4328V61.1165H46.2226V60.0227ZM56.0216 53.8182V64H54.7886V53.8182H56.0216Z" fill="#54219D"/>
<path d="M34.2502 31C34.2502 30.5858 34.586 30.25 35.0002 30.25L41.0002 30.25C41.4144 30.25 41.7502 30.5858 41.7502 31C41.7502 31.4142 41.4144 31.75 41.0002 31.75L35.0002 31.75C34.586 31.75 34.2502 31.4142 34.2502 31Z" fill="#5F25B0"/>
<path fill-rule="evenodd" clip-rule="evenodd" d="M42.5862 24.761C42.2513 23.002 41.4035 21.3208 40.0442 19.9598C36.4356 16.3467 30.5846 16.3467 26.9761 19.9598C25.8753 21.062 24.9031 22.6935 24.4779 24.5049C24.0502 26.3272 24.1688 28.3742 25.3241 30.2356C25.3832 30.3309 25.4198 30.3899 25.4457 30.4341C25.4576 30.4545 25.4639 30.4661 25.4665 30.4711C25.4689 30.4775 25.4704 30.4819 25.4713 30.4847C25.4713 30.488 25.4711 30.4936 25.4706 30.5021C25.4698 30.506 25.4682 30.5147 25.4648 30.5295C25.4563 30.5674 25.4433 30.618 25.4201 30.7074L25.4134 30.7334C25.2807 31.2459 25.1717 31.6672 25.1076 32.0076C25.043 32.3502 25.0057 32.696 25.0743 33.0337C25.2701 33.9967 26.0219 34.75 26.9848 34.9462C27.3226 35.015 27.6685 34.9776 28.0108 34.9129C28.3508 34.8487 28.7717 34.7395 29.2835 34.6067L29.3095 34.5999C29.3988 34.5768 29.4493 34.5637 29.4871 34.5552C29.5018 34.5518 29.5104 34.5502 29.5143 34.5495C29.5222 34.5489 29.5275 34.5488 29.5309 34.5487C29.5336 34.5496 29.5378 34.5511 29.5436 34.5532C29.5487 34.5559 29.5604 34.5622 29.581 34.5742C29.6255 34.6002 29.685 34.6369 29.7808 34.6962C30.4007 35.0798 31.0459 35.3479 31.6996 35.5177C31.942 35.8554 32.2147 36.1778 32.5174 36.4808C33.4093 37.3739 34.7716 38.1843 36.2889 38.5478C37.8169 38.9137 39.5577 38.8371 41.1329 37.8624C41.2093 37.8151 41.2559 37.7863 41.2904 37.7661C41.3178 37.7727 41.3556 37.7824 41.4182 37.7986L41.4434 37.8052C41.8616 37.9137 42.2119 38.0046 42.4964 38.0584C42.7831 38.1125 43.0884 38.1473 43.3922 38.0854C44.2374 37.9132 44.8971 37.252 45.0689 36.4071C45.1306 36.1034 45.0959 35.7981 45.0419 35.5112C44.9883 35.2264 44.8975 34.8758 44.7891 34.457L44.7825 34.4318C44.7661 34.3684 44.7564 34.3305 44.7498 34.3029C44.7699 34.2687 44.7986 34.2224 44.8459 34.1461C45.8196 32.5774 45.9177 30.8541 45.5592 29.3267C45.2032 27.8103 44.3901 26.445 43.4667 25.5204C43.1885 25.2419 42.894 24.9887 42.5862 24.761ZM38.9829 21.0198C35.9602 17.9934 31.06 17.9934 28.0374 21.0198C27.1274 21.9309 26.2977 23.3163 25.9382 24.8477C25.5814 26.368 25.6955 27.9895 26.5986 29.4445C26.6071 29.4583 26.6158 29.4722 26.6245 29.4862C26.7106 29.6244 26.8033 29.7733 26.8571 29.9084C26.9525 30.1482 26.9855 30.3652 26.9658 30.6225C26.9547 30.7671 26.9158 30.9161 26.8817 31.0471C26.8785 31.0593 26.8753 31.0714 26.8723 31.0833C26.7312 31.6282 26.6353 32.0004 26.5816 32.2852C26.5273 32.5735 26.5346 32.6875 26.5443 32.735C26.6203 33.109 26.912 33.4005 27.2843 33.4764C27.3312 33.4859 27.4447 33.4933 27.7325 33.439C28.0168 33.3853 28.3884 33.2893 28.9327 33.148C28.9446 33.1449 28.9567 33.1418 28.9689 33.1386C29.0996 33.1044 29.2485 33.0655 29.3927 33.0544C29.6497 33.0345 29.8653 33.0671 30.1049 33.1621C30.2398 33.2156 30.3891 33.3083 30.528 33.3946C30.5422 33.4034 30.5562 33.4121 30.5701 33.4207C30.5974 33.4376 30.6248 33.4542 30.6523 33.4705C29.748 30.7706 30.3692 27.6714 32.5174 25.5204C34.7438 23.2913 37.9879 22.7039 40.7513 23.7572C40.375 22.7593 39.7857 21.8237 38.9829 21.0198ZM41.4797 25.8152C39.0526 24.1738 35.727 24.4295 33.5787 26.5804C31.4548 28.7071 31.1805 31.987 32.759 34.4104C32.9916 34.7675 33.2647 35.1064 33.5787 35.4208C34.2752 36.1181 35.3911 36.7903 36.6383 37.089C37.875 37.3852 39.1851 37.3036 40.3436 36.5868C40.3551 36.5797 40.3669 36.5724 40.379 36.5649C40.4905 36.4955 40.6246 36.4122 40.7475 36.3634C40.9636 36.2777 41.1613 36.2478 41.3931 36.2657C41.5245 36.2759 41.6591 36.3112 41.7644 36.3388C41.7749 36.3415 41.7851 36.3442 41.795 36.3467C42.245 36.4635 42.5459 36.5412 42.7747 36.5844C43.0069 36.6282 43.0798 36.6182 43.0927 36.6156C43.3472 36.5637 43.5469 36.3644 43.5989 36.1083C43.6017 36.0948 43.6116 36.0214 43.5678 35.7888C43.5246 35.5596 43.447 35.2582 43.3304 34.8077C43.3278 34.7978 43.3252 34.7876 43.3224 34.7771C43.2949 34.6716 43.2596 34.5368 43.2496 34.4051C43.2318 34.1731 43.262 33.9742 43.348 33.758C43.3971 33.6348 43.4804 33.5012 43.5496 33.3902C43.5571 33.3782 43.5644 33.3665 43.5715 33.3551C44.2929 32.1927 44.3865 30.8949 44.0989 29.6695C43.8087 28.4331 43.1379 27.3139 42.4054 26.5804C42.1159 26.2906 41.8057 26.0357 41.4797 25.8152Z" fill="#5F25B0"/>
<path d="M34.2502 31C34.2502 30.5858 34.586 30.25 35.0002 30.25L41.0002 30.25C41.4144 30.25 41.7502 30.5858 41.7502 31C41.7502 31.4142 41.4144 31.75 41.0002 31.75L35.0002 31.75C34.586 31.75 34.2502 31.4142 34.2502 31Z" stroke="#5F25B0"/>
<path fill-rule="evenodd" clip-rule="evenodd" d="M42.5862 24.761C42.2513 23.002 41.4035 21.3208 40.0442 19.9598C36.4356 16.3467 30.5846 16.3467 26.9761 19.9598C25.8753 21.062 24.9031 22.6935 24.4779 24.5049C24.0502 26.3272 24.1688 28.3742 25.3241 30.2356C25.3832 30.3309 25.4198 30.3899 25.4457 30.4341C25.4576 30.4545 25.4639 30.4661 25.4665 30.4711C25.4689 30.4775 25.4704 30.4819 25.4713 30.4847C25.4713 30.488 25.4711 30.4936 25.4706 30.5021C25.4698 30.506 25.4682 30.5147 25.4648 30.5295C25.4563 30.5674 25.4433 30.618 25.4201 30.7074L25.4134 30.7334C25.2807 31.2459 25.1717 31.6672 25.1076 32.0076C25.043 32.3502 25.0057 32.696 25.0743 33.0337C25.2701 33.9967 26.0219 34.75 26.9848 34.9462C27.3226 35.015 27.6685 34.9776 28.0108 34.9129C28.3508 34.8487 28.7717 34.7395 29.2835 34.6067L29.3095 34.5999C29.3988 34.5768 29.4493 34.5637 29.4871 34.5552C29.5018 34.5518 29.5104 34.5502 29.5143 34.5495C29.5222 34.5489 29.5275 34.5488 29.5309 34.5487C29.5336 34.5496 29.5378 34.5511 29.5436 34.5532C29.5487 34.5559 29.5604 34.5622 29.581 34.5742C29.6255 34.6002 29.685 34.6369 29.7808 34.6962C30.4007 35.0798 31.0459 35.3479 31.6996 35.5177C31.942 35.8554 32.2147 36.1778 32.5174 36.4808C33.4093 37.3739 34.7716 38.1843 36.2889 38.5478C37.8169 38.9137 39.5577 38.8371 41.1329 37.8624C41.2093 37.8151 41.2559 37.7863 41.2904 37.7661C41.3178 37.7727 41.3556 37.7824 41.4182 37.7986L41.4434 37.8052C41.8616 37.9137 42.2119 38.0046 42.4964 38.0584C42.7831 38.1125 43.0884 38.1473 43.3922 38.0854C44.2374 37.9132 44.8971 37.252 45.0689 36.4071C45.1306 36.1034 45.0959 35.7981 45.0419 35.5112C44.9883 35.2264 44.8975 34.8758 44.7891 34.457L44.7825 34.4318C44.7661 34.3684 44.7564 34.3305 44.7498 34.3029C44.7699 34.2687 44.7986 34.2224 44.8459 34.1461C45.8196 32.5774 45.9177 30.8541 45.5592 29.3267C45.2032 27.8103 44.3901 26.445 43.4667 25.5204C43.1885 25.2419 42.894 24.9887 42.5862 24.761ZM38.9829 21.0198C35.9602 17.9934 31.06 17.9934 28.0374 21.0198C27.1274 21.9309 26.2977 23.3163 25.9382 24.8477C25.5814 26.368 25.6955 27.9895 26.5986 29.4445C26.6071 29.4583 26.6158 29.4722 26.6245 29.4862C26.7106 29.6244 26.8033 29.7733 26.8571 29.9084C26.9525 30.1482 26.9855 30.3652 26.9658 30.6225C26.9547 30.7671 26.9158 30.9161 26.8817 31.0471C26.8785 31.0593 26.8753 31.0714 26.8723 31.0833C26.7312 31.6282 26.6353 32.0004 26.5816 32.2852C26.5273 32.5735 26.5346 32.6875 26.5443 32.735C26.6203 33.109 26.912 33.4005 27.2843 33.4764C27.3312 33.4859 27.4447 33.4933 27.7325 33.439C28.0168 33.3853 28.3884 33.2893 28.9327 33.148C28.9446 33.1449 28.9567 33.1418 28.9689 33.1386C29.0996 33.1044 29.2485 33.0655 29.3927 33.0544C29.6497 33.0345 29.8653 33.0671 30.1049 33.1621C30.2398 33.2156 30.3891 33.3083 30.528 33.3946C30.5422 33.4034 30.5562 33.4121 30.5701 33.4207C30.5974 33.4376 30.6248 33.4542 30.6523 33.4705C29.748 30.7706 30.3692 27.6714 32.5174 25.5204C34.7438 23.2913 37.9879 22.7039 40.7513 23.7572C40.375 22.7593 39.7857 21.8237 38.9829 21.0198ZM41.4797 25.8152C39.0526 24.1738 35.727 24.4295 33.5787 26.5804C31.4548 28.7071 31.1805 31.987 32.759 34.4104C32.9916 34.7675 33.2647 35.1064 33.5787 35.4208C34.2752 36.1181 35.3911 36.7903 36.6383 37.089C37.875 37.3852 39.1851 37.3036 40.3436 36.5868C40.3551 36.5797 40.3669 36.5724 40.379 36.5649C40.4905 36.4955 40.6246 36.4122 40.7475 36.3634C40.9636 36.2777 41.1613 36.2478 41.3931 36.2657C41.5245 36.2759 41.6591 36.3112 41.7644 36.3388C41.7749 36.3415 41.7851 36.3442 41.795 36.3467C42.245 36.4635 42.5459 36.5412 42.7747 36.5844C43.0069 36.6282 43.0798 36.6182 43.0927 36.6156C43.3472 36.5637 43.5469 36.3644 43.5989 36.1083C43.6017 36.0948 43.6116 36.0214 43.5678 35.7888C43.5246 35.5596 43.447 35.2582 43.3304 34.8077C43.3278 34.7978 43.3252 34.7876 43.3224 34.7771C43.2949 34.6716 43.2596 34.5368 43.2496 34.4051C43.2318 34.1731 43.262 33.9742 43.348 33.758C43.3971 33.6348 43.4804 33.5012 43.5496 33.3902C43.5571 33.3782 43.5644 33.3665 43.5715 33.3551C44.2929 32.1927 44.3865 30.8949 44.0989 29.6695C43.8087 28.4331 43.1379 27.3139 42.4054 26.5804C42.1159 26.2906 41.8057 26.0357 41.4797 25.8152Z" stroke="#5F25B0"/>
<rect x="11.4873" width="47.0243" height="3.86267" fill="#5F25B0"/>
</svg>
