<svg width="70" height="60" viewBox="0 0 70 60" fill="none" xmlns="http://www.w3.org/2000/svg">
<path d="M17.4172 48H16.1246L19.8632 37.8182H21.1359L24.8746 48H23.5819L20.5393 39.429H20.4598L17.4172 48ZM17.8944 44.0227H23.1047V45.1165H17.8944V44.0227ZM31.7105 42.0739L30.6565 42.3722C30.5902 42.1965 30.4925 42.0258 30.3632 41.8601C30.2372 41.6911 30.0649 41.5518 29.8461 41.4425C29.6274 41.3331 29.3473 41.2784 29.0059 41.2784C28.5386 41.2784 28.1492 41.3861 27.8376 41.6016C27.5294 41.8137 27.3753 42.0838 27.3753 42.4119C27.3753 42.7036 27.4813 42.9339 27.6934 43.103C27.9056 43.272 28.237 43.4129 28.6878 43.5256L29.8213 43.804C30.5041 43.9697 31.0128 44.2232 31.3476 44.5646C31.6823 44.9027 31.8497 45.3385 31.8497 45.8722C31.8497 46.3097 31.7238 46.7008 31.4719 47.0455C31.2233 47.3902 30.8753 47.6619 30.4278 47.8608C29.9804 48.0597 29.46 48.1591 28.8667 48.1591C28.0879 48.1591 27.4432 47.9901 26.9328 47.652C26.4224 47.3139 26.0992 46.8201 25.9633 46.1705L27.077 45.892C27.183 46.303 27.3836 46.6113 27.6785 46.8168C27.9768 47.0223 28.3663 47.125 28.8469 47.125C29.3937 47.125 29.8279 47.009 30.1494 46.777C30.4742 46.5417 30.6366 46.2599 30.6366 45.9318C30.6366 45.6667 30.5438 45.4446 30.3582 45.2656C30.1726 45.0833 29.8876 44.9474 29.5031 44.858L28.2304 44.5597C27.531 44.3939 27.0173 44.1371 26.6892 43.7891C26.3644 43.4377 26.202 42.9986 26.202 42.4716C26.202 42.0407 26.3229 41.6596 26.5649 41.3281C26.8102 40.9967 27.1433 40.7365 27.5642 40.5476C27.9884 40.3587 28.469 40.2642 29.0059 40.2642C29.7616 40.2642 30.3549 40.4299 30.7858 40.7614C31.22 41.0928 31.5282 41.5303 31.7105 42.0739ZM34.7096 45.2159L34.6897 43.7642H34.9284L38.2693 40.3636H39.721L36.1613 43.9631H36.0619L34.7096 45.2159ZM33.6159 48V37.8182H34.7892V48H33.6159ZM38.4681 48L35.4852 44.2216L36.3204 43.4062L39.9596 48H38.4681ZM45.7453 48H44.4527L48.1913 37.8182H49.464L53.2027 48H51.9101L48.8675 39.429H48.7879L45.7453 48ZM46.2226 44.0227H51.4328V45.1165H46.2226V44.0227ZM56.0216 37.8182V48H54.7886V37.8182H56.0216Z" fill="#54219D"/>
<path d="M34.2501 15C34.2501 14.5858 34.5859 14.25 35.0001 14.25L41.0001 14.25C41.4143 14.25 41.7501 14.5858 41.7501 15C41.7501 15.4142 41.4143 15.75 41.0001 15.75L35.0001 15.75C34.5859 15.75 34.2501 15.4142 34.2501 15Z" fill="#5F25B0"/>
<path fill-rule="evenodd" clip-rule="evenodd" d="M42.5861 8.76099C42.2512 7.00204 41.4033 5.32081 40.0441 3.95982C36.4355 0.346725 30.5845 0.346725 26.9759 3.95982C25.8751 5.06202 24.903 6.69355 24.4778 8.50489C24.0501 10.3272 24.1686 12.3742 25.324 14.2356C25.3831 14.3309 25.4197 14.3899 25.4455 14.4341C25.4575 14.4545 25.4637 14.4661 25.4664 14.4711C25.4688 14.4775 25.4703 14.4819 25.4711 14.4847C25.4711 14.488 25.471 14.4936 25.4704 14.5021C25.4697 14.506 25.4681 14.5147 25.4647 14.5295C25.4562 14.5674 25.4432 14.618 25.42 14.7074L25.4133 14.7334C25.2806 15.2459 25.1715 15.6672 25.1074 16.0076C25.0429 16.3502 25.0056 16.696 25.0742 17.0337C25.2699 17.9967 26.0218 18.75 26.9847 18.9462C27.3225 19.015 27.6684 18.9776 28.0106 18.9129C28.3507 18.8487 28.7715 18.7395 29.2834 18.6067L29.3093 18.5999C29.3987 18.5768 29.4492 18.5637 29.487 18.5552C29.5017 18.5518 29.5103 18.5502 29.5142 18.5495C29.5221 18.5489 29.5274 18.5488 29.5308 18.5487C29.5335 18.5496 29.5377 18.5511 29.5435 18.5532C29.5486 18.5559 29.5603 18.5622 29.5808 18.5742C29.6253 18.6002 29.6849 18.6369 29.7807 18.6962C30.4006 19.0798 31.0458 19.3479 31.6994 19.5177C31.9419 19.8554 32.2146 20.1778 32.5173 20.4808C33.4092 21.3739 34.7714 22.1843 36.2888 22.5478C37.8167 22.9137 39.5576 22.8371 41.1328 21.8624C41.2091 21.8151 41.2558 21.7863 41.2902 21.7661C41.3177 21.7727 41.3555 21.7824 41.418 21.7986L41.4433 21.8052C41.8615 21.9137 42.2118 22.0046 42.4963 22.0584C42.7829 22.1125 43.0883 22.1473 43.3921 22.0854C44.2373 21.9132 44.897 21.252 45.0688 20.4071C45.1305 20.1034 45.0958 19.7981 45.0418 19.5112C44.9881 19.2264 44.8974 18.8758 44.7889 18.457L44.7824 18.4318C44.766 18.3684 44.7563 18.3305 44.7497 18.3029C44.7698 18.2687 44.7985 18.2224 44.8458 18.1461C45.8195 16.5774 45.9176 14.8541 45.5591 13.3267C45.2031 11.8103 44.39 10.445 43.4666 9.52044C43.1883 9.24187 42.8939 8.98867 42.5861 8.76099ZM38.9827 5.01982C35.9601 1.99339 31.0599 1.99339 28.0373 5.01982C27.1273 5.93094 26.2976 7.31632 25.9381 8.84766C25.5812 10.368 25.6953 11.9895 26.5984 13.4445C26.607 13.4583 26.6156 13.4722 26.6244 13.4862C26.7105 13.6244 26.8032 13.7733 26.857 13.9084C26.9523 14.1482 26.9854 14.3652 26.9656 14.6225C26.9546 14.7671 26.9157 14.9161 26.8816 15.0471C26.8784 15.0593 26.8752 15.0714 26.8721 15.0833C26.7311 15.6282 26.6352 16.0004 26.5815 16.2852C26.5272 16.5735 26.5345 16.6875 26.5442 16.735C26.6202 17.109 26.9119 17.4005 27.2842 17.4764C27.3311 17.4859 27.4445 17.4933 27.7324 17.439C28.0167 17.3853 28.3883 17.2893 28.9325 17.148C28.9445 17.1449 28.9566 17.1418 28.9688 17.1386C29.0994 17.1044 29.2484 17.0655 29.3925 17.0544C29.6496 17.0345 29.8652 17.0671 30.1048 17.1621C30.2397 17.2156 30.389 17.3083 30.5279 17.3946C30.542 17.4034 30.5561 17.4121 30.57 17.4207C30.5973 17.4376 30.6247 17.4542 30.6521 17.4705C29.7479 14.7706 30.3691 11.6714 32.5173 9.52044C34.7436 7.2913 37.9878 6.70388 40.7512 7.75716C40.3749 6.75929 39.7856 5.82365 38.9827 5.01982ZM41.4796 9.81521C39.0525 8.17382 35.7269 8.4295 33.5786 10.5804C31.4546 12.7071 31.1804 15.987 32.7589 18.4104C32.9915 18.7675 33.2646 19.1064 33.5786 19.4208C34.275 20.1181 35.391 20.7903 36.6382 21.089C37.8749 21.3852 39.185 21.3036 40.3435 20.5868C40.355 20.5797 40.3668 20.5724 40.3789 20.5649C40.4904 20.4955 40.6244 20.4122 40.7474 20.3634C40.9635 20.2777 41.1612 20.2478 41.393 20.2657C41.5244 20.2759 41.659 20.3112 41.7643 20.3388C41.7748 20.3415 41.785 20.3442 41.7948 20.3467C42.2449 20.4635 42.5458 20.5412 42.7745 20.5844C43.0068 20.6282 43.0797 20.6182 43.0926 20.6156C43.3471 20.5637 43.5468 20.3644 43.5988 20.1083C43.6015 20.0948 43.6115 20.0214 43.5677 19.7888C43.5245 19.5596 43.4469 19.2582 43.3303 18.8077C43.3277 18.7978 43.325 18.7876 43.3223 18.7771C43.2947 18.6716 43.2595 18.5368 43.2494 18.4051C43.2317 18.1731 43.2619 17.9742 43.3479 17.758C43.3969 17.6348 43.4803 17.5012 43.5495 17.3902C43.557 17.3782 43.5643 17.3665 43.5714 17.3551C44.2928 16.1927 44.3864 14.8949 44.0988 13.6695C43.8085 12.4331 43.1378 11.3139 42.4052 10.5804C42.1158 10.2906 41.8056 10.0357 41.4796 9.81521Z" fill="#5F25B0"/>
<path d="M34.2501 15C34.2501 14.5858 34.5859 14.25 35.0001 14.25L41.0001 14.25C41.4143 14.25 41.7501 14.5858 41.7501 15C41.7501 15.4142 41.4143 15.75 41.0001 15.75L35.0001 15.75C34.5859 15.75 34.2501 15.4142 34.2501 15Z" stroke="#5F25B0"/>
<path fill-rule="evenodd" clip-rule="evenodd" d="M42.5861 8.76099C42.2512 7.00204 41.4033 5.32081 40.0441 3.95982C36.4355 0.346725 30.5845 0.346725 26.9759 3.95982C25.8751 5.06202 24.903 6.69355 24.4778 8.50489C24.0501 10.3272 24.1686 12.3742 25.324 14.2356C25.3831 14.3309 25.4197 14.3899 25.4455 14.4341C25.4575 14.4545 25.4637 14.4661 25.4664 14.4711C25.4688 14.4775 25.4703 14.4819 25.4711 14.4847C25.4711 14.488 25.471 14.4936 25.4704 14.5021C25.4697 14.506 25.4681 14.5147 25.4647 14.5295C25.4562 14.5674 25.4432 14.618 25.42 14.7074L25.4133 14.7334C25.2806 15.2459 25.1715 15.6672 25.1074 16.0076C25.0429 16.3502 25.0056 16.696 25.0742 17.0337C25.2699 17.9967 26.0218 18.75 26.9847 18.9462C27.3225 19.015 27.6684 18.9776 28.0106 18.9129C28.3507 18.8487 28.7715 18.7395 29.2834 18.6067L29.3093 18.5999C29.3987 18.5768 29.4492 18.5637 29.487 18.5552C29.5017 18.5518 29.5103 18.5502 29.5142 18.5495C29.5221 18.5489 29.5274 18.5488 29.5308 18.5487C29.5335 18.5496 29.5377 18.5511 29.5435 18.5532C29.5486 18.5559 29.5603 18.5622 29.5808 18.5742C29.6253 18.6002 29.6849 18.6369 29.7807 18.6962C30.4006 19.0798 31.0458 19.3479 31.6994 19.5177C31.9419 19.8554 32.2146 20.1778 32.5173 20.4808C33.4092 21.3739 34.7714 22.1843 36.2888 22.5478C37.8167 22.9137 39.5576 22.8371 41.1328 21.8624C41.2091 21.8151 41.2558 21.7863 41.2902 21.7661C41.3177 21.7727 41.3555 21.7824 41.418 21.7986L41.4433 21.8052C41.8615 21.9137 42.2118 22.0046 42.4963 22.0584C42.7829 22.1125 43.0883 22.1473 43.3921 22.0854C44.2373 21.9132 44.897 21.252 45.0688 20.4071C45.1305 20.1034 45.0958 19.7981 45.0418 19.5112C44.9881 19.2264 44.8974 18.8758 44.7889 18.457L44.7824 18.4318C44.766 18.3684 44.7563 18.3305 44.7497 18.3029C44.7698 18.2687 44.7985 18.2224 44.8458 18.1461C45.8195 16.5774 45.9176 14.8541 45.5591 13.3267C45.2031 11.8103 44.39 10.445 43.4666 9.52044C43.1883 9.24187 42.8939 8.98867 42.5861 8.76099ZM38.9827 5.01982C35.9601 1.99339 31.0599 1.99339 28.0373 5.01982C27.1273 5.93094 26.2976 7.31632 25.9381 8.84766C25.5812 10.368 25.6953 11.9895 26.5984 13.4445C26.607 13.4583 26.6156 13.4722 26.6244 13.4862C26.7105 13.6244 26.8032 13.7733 26.857 13.9084C26.9523 14.1482 26.9854 14.3652 26.9656 14.6225C26.9546 14.7671 26.9157 14.9161 26.8816 15.0471C26.8784 15.0593 26.8752 15.0714 26.8721 15.0833C26.7311 15.6282 26.6352 16.0004 26.5815 16.2852C26.5272 16.5735 26.5345 16.6875 26.5442 16.735C26.6202 17.109 26.9119 17.4005 27.2842 17.4764C27.3311 17.4859 27.4445 17.4933 27.7324 17.439C28.0167 17.3853 28.3883 17.2893 28.9325 17.148C28.9445 17.1449 28.9566 17.1418 28.9688 17.1386C29.0994 17.1044 29.2484 17.0655 29.3925 17.0544C29.6496 17.0345 29.8652 17.0671 30.1048 17.1621C30.2397 17.2156 30.389 17.3083 30.5279 17.3946C30.542 17.4034 30.5561 17.4121 30.57 17.4207C30.5973 17.4376 30.6247 17.4542 30.6521 17.4705C29.7479 14.7706 30.3691 11.6714 32.5173 9.52044C34.7436 7.2913 37.9878 6.70388 40.7512 7.75716C40.3749 6.75929 39.7856 5.82365 38.9827 5.01982ZM41.4796 9.81521C39.0525 8.17382 35.7269 8.4295 33.5786 10.5804C31.4546 12.7071 31.1804 15.987 32.7589 18.4104C32.9915 18.7675 33.2646 19.1064 33.5786 19.4208C34.275 20.1181 35.391 20.7903 36.6382 21.089C37.8749 21.3852 39.185 21.3036 40.3435 20.5868C40.355 20.5797 40.3668 20.5724 40.3789 20.5649C40.4904 20.4955 40.6244 20.4122 40.7474 20.3634C40.9635 20.2777 41.1612 20.2478 41.393 20.2657C41.5244 20.2759 41.659 20.3112 41.7643 20.3388C41.7748 20.3415 41.785 20.3442 41.7948 20.3467C42.2449 20.4635 42.5458 20.5412 42.7745 20.5844C43.0068 20.6282 43.0797 20.6182 43.0926 20.6156C43.3471 20.5637 43.5468 20.3644 43.5988 20.1083C43.6015 20.0948 43.6115 20.0214 43.5677 19.7888C43.5245 19.5596 43.4469 19.2582 43.3303 18.8077C43.3277 18.7978 43.325 18.7876 43.3223 18.7771C43.2947 18.6716 43.2595 18.5368 43.2494 18.4051C43.2317 18.1731 43.2619 17.9742 43.3479 17.758C43.3969 17.6348 43.4803 17.5012 43.5495 17.3902C43.557 17.3782 43.5643 17.3665 43.5714 17.3551C44.2928 16.1927 44.3864 14.8949 44.0988 13.6695C43.8085 12.4331 43.1378 11.3139 42.4052 10.5804C42.1158 10.2906 41.8056 10.0357 41.4796 9.81521Z" stroke="#5F25B0"/>
</svg>
