<svg width="70" height="76" viewBox="0 0 70 76" fill="none" xmlns="http://www.w3.org/2000/svg">
<path d="M29.2937 20.9656C31.9605 19.028 33.2939 18.0592 34.8167 18.0034C34.9389 17.9989 35.0611 17.9989 35.1833 18.0034C36.7061 18.0592 38.0395 19.028 40.7063 20.9656C43.3732 22.9031 44.7066 23.8719 45.2303 25.3029C45.2723 25.4177 45.3101 25.534 45.3436 25.6516C45.761 27.1171 45.2517 28.6846 44.2331 31.8197C43.2144 34.9547 42.7051 36.5222 41.506 37.4625C41.4098 37.5379 41.3108 37.6098 41.2094 37.678C40.606 38.0834 39.9153 38.2955 39 38.4063C37.9968 38.5279 36.7237 38.5279 35 38.5279C33.2763 38.5279 32.0032 38.5279 31 38.4063C30.0847 38.2955 29.3941 38.0834 28.7906 37.678C28.6892 37.6098 28.5902 37.5379 28.4941 37.4625C27.2949 36.5222 26.7856 34.9547 25.767 31.8197C24.7483 28.6846 24.239 27.1171 24.6565 25.6516C24.6899 25.534 24.7277 25.4177 24.7697 25.3029C25.2934 23.8719 26.6269 22.9031 29.2937 20.9656Z" fill="#6929C4"/>
<path d="M31 38.4063C32.0032 38.5279 33.2763 38.5279 35 38.5279C36.7237 38.5279 37.9968 38.5279 39 38.4063M31 38.4063C30.0847 38.2955 29.3941 38.0834 28.7906 37.678C28.6892 37.6098 28.5902 37.5379 28.4941 37.4625C27.2949 36.5222 26.7856 34.9547 25.767 31.8197C24.7483 28.6846 24.239 27.1171 24.6565 25.6516C24.6899 25.534 24.7277 25.4177 24.7697 25.3029C25.2934 23.8719 26.6269 22.9031 29.2937 20.9656C31.9605 19.028 33.2939 18.0592 34.8167 18.0034C34.9389 17.9989 35.0611 17.9989 35.1833 18.0034C36.7061 18.0592 38.0395 19.028 40.7063 20.9656C43.3732 22.9031 44.7066 23.8719 45.2303 25.3029C45.2723 25.4177 45.3101 25.534 45.3436 25.6516C45.761 27.1171 45.2517 28.6846 44.2331 31.8197C43.2144 34.9547 42.7051 36.5222 41.506 37.4625C41.4098 37.5379 41.3108 37.6098 41.2094 37.678C40.606 38.0834 39.9153 38.2955 39 38.4063M31 38.4063V38.3197V34.8197C31 32.6105 32.7909 30.8197 35 30.8197C37.2091 30.8197 39 32.6105 39 34.8197V38.3197V38.4063" stroke="white" stroke-width="2"/>
<path d="M16.7168 63.6846V53.5028H17.9498V58.0368H23.3788V53.5028H24.6117V63.6846H23.3788V59.1306H17.9498V63.6846H16.7168ZM30.0233 63.8437C29.3339 63.8437 28.729 63.6796 28.2087 63.3515C27.6916 63.0233 27.2873 62.5643 26.9956 61.9743C26.7073 61.3844 26.5631 60.695 26.5631 59.9062C26.5631 59.1107 26.7073 58.4163 26.9956 57.8231C27.2873 57.2298 27.6916 56.7691 28.2087 56.441C28.729 56.1128 29.3339 55.9488 30.0233 55.9488C30.7127 55.9488 31.3159 56.1128 31.833 56.441C32.3533 56.7691 32.7577 57.2298 33.046 57.8231C33.3377 58.4163 33.4835 59.1107 33.4835 59.9062C33.4835 60.695 33.3377 61.3844 33.046 61.9743C32.7577 62.5643 32.3533 63.0233 31.833 63.3515C31.3159 63.6796 30.7127 63.8437 30.0233 63.8437ZM30.0233 62.7897C30.547 62.7897 30.9778 62.6555 31.3159 62.387C31.654 62.1185 31.9042 61.7655 32.0666 61.328C32.229 60.8905 32.3102 60.4166 32.3102 59.9062C32.3102 59.3957 32.229 58.9201 32.0666 58.4793C31.9042 58.0385 31.654 57.6822 31.3159 57.4104C30.9778 57.1386 30.547 57.0028 30.0233 57.0028C29.4996 57.0028 29.0688 57.1386 28.7307 57.4104C28.3926 57.6822 28.1424 58.0385 27.98 58.4793C27.8176 58.9201 27.7364 59.3957 27.7364 59.9062C27.7364 60.4166 27.8176 60.8905 27.98 61.328C28.1424 61.7655 28.3926 62.1185 28.7307 62.387C29.0688 62.6555 29.4996 62.7897 30.0233 62.7897ZM35.2745 63.6846V56.0482H36.4081V57.2414H36.5075C36.6666 56.8337 36.9235 56.5172 37.2781 56.2918C37.6327 56.0631 38.0586 55.9488 38.5558 55.9488C39.0596 55.9488 39.4789 56.0631 39.8136 56.2918C40.1517 56.5172 40.4152 56.8337 40.6041 57.2414H40.6836C40.8792 56.847 41.1725 56.5338 41.5636 56.3018C41.9547 56.0664 42.4237 55.9488 42.9706 55.9488C43.6533 55.9488 44.2118 56.1626 44.646 56.5901C45.0802 57.0144 45.2973 57.6756 45.2973 58.5738V63.6846H44.124V58.5738C44.124 58.0103 43.9699 57.6076 43.6616 57.3657C43.3534 57.1237 42.9905 57.0028 42.5728 57.0028C42.0359 57.0028 41.62 57.1652 41.325 57.49C41.03 57.8115 40.8825 58.2191 40.8825 58.713V63.6846H39.6893V58.4545C39.6893 58.0203 39.5485 57.6706 39.2667 57.4055C38.985 57.137 38.6221 57.0028 38.178 57.0028C37.873 57.0028 37.588 57.084 37.3228 57.2464C37.061 57.4088 36.8489 57.6341 36.6865 57.9225C36.5274 58.2075 36.4478 58.5373 36.4478 58.9118V63.6846H35.2745ZM50.6442 63.8437C49.9084 63.8437 49.2737 63.6813 48.7401 63.3564C48.2098 63.0283 47.8005 62.5709 47.5121 61.9843C47.2271 61.3943 47.0846 60.7082 47.0846 59.926C47.0846 59.1439 47.2271 58.4545 47.5121 57.8579C47.8005 57.258 48.2015 56.7906 48.7152 56.4559C49.2323 56.1178 49.8355 55.9488 50.5249 55.9488C50.9226 55.9488 51.3154 56.0151 51.7032 56.1476C52.091 56.2802 52.4439 56.4956 52.7621 56.7939C53.0803 57.0889 53.3339 57.48 53.5228 57.9672C53.7117 58.4545 53.8062 59.0544 53.8062 59.767V60.2641H47.9198V59.2499H52.613C52.613 58.819 52.5268 58.4346 52.3544 58.0965C52.1854 57.7584 51.9435 57.4916 51.6286 57.2961C51.317 57.1005 50.9491 57.0028 50.5249 57.0028C50.0576 57.0028 49.6532 57.1188 49.3118 57.3508C48.9738 57.5795 48.7136 57.8778 48.5313 58.2456C48.349 58.6135 48.2579 59.008 48.2579 59.4289V60.105C48.2579 60.6817 48.3573 61.1706 48.5562 61.5716C48.7583 61.9694 49.0384 62.2726 49.3964 62.4814C49.7543 62.6869 50.1703 62.7897 50.6442 62.7897C50.9525 62.7897 51.2309 62.7466 51.4794 62.6604C51.7313 62.5709 51.9484 62.4384 52.1307 62.2627C52.313 62.0837 52.4539 61.8617 52.5533 61.5965L53.6868 61.9147C53.5675 62.2992 53.367 62.6372 53.0853 62.9289C52.8035 63.2172 52.4555 63.4426 52.0412 63.605C51.6269 63.7641 51.1613 63.8437 50.6442 63.8437Z" fill="#54219D"/>
<rect x="11.8779" width="47.0243" height="3.86267" fill="#54219D"/>
</svg>
