<svg width="71" height="60" viewBox="0 0 71 60" fill="none" xmlns="http://www.w3.org/2000/svg">
<path d="M35.0002 15C35.0002 14.5858 35.336 14.25 35.7502 14.25L41.7502 14.25C42.1644 14.25 42.5002 14.5858 42.5002 15C42.5002 15.4142 42.1644 15.75 41.7502 15.75L35.7502 15.75C35.336 15.75 35.0002 15.4142 35.0002 15Z" fill="#656565"/>
<path fill-rule="evenodd" clip-rule="evenodd" d="M43.3362 8.76099C43.0013 7.00204 42.1535 5.32081 40.7942 3.95982C37.1856 0.346725 31.3346 0.346725 27.7261 3.95982C26.6253 5.06202 25.6531 6.69355 25.2279 8.50489C24.8002 10.3272 24.9188 12.3742 26.0741 14.2356C26.1332 14.3309 26.1698 14.3899 26.1957 14.4341C26.2076 14.4545 26.2139 14.4661 26.2165 14.4711C26.2189 14.4775 26.2204 14.4819 26.2213 14.4847C26.2213 14.488 26.2211 14.4936 26.2206 14.5021C26.2198 14.506 26.2182 14.5147 26.2148 14.5295C26.2063 14.5674 26.1933 14.618 26.1701 14.7074L26.1634 14.7334C26.0307 15.2459 25.9217 15.6672 25.8576 16.0076C25.793 16.3502 25.7557 16.696 25.8243 17.0337C26.0201 17.9967 26.7719 18.75 27.7348 18.9462C28.0726 19.015 28.4185 18.9776 28.7608 18.9129C29.1008 18.8487 29.5217 18.7395 30.0335 18.6067L30.0595 18.5999C30.1488 18.5768 30.1993 18.5637 30.2371 18.5552C30.2518 18.5518 30.2604 18.5502 30.2643 18.5495C30.2722 18.5489 30.2775 18.5488 30.2809 18.5487C30.2836 18.5496 30.2878 18.5511 30.2936 18.5532C30.2987 18.5559 30.3104 18.5622 30.331 18.5742C30.3755 18.6002 30.435 18.6369 30.5308 18.6962C31.1507 19.0798 31.7959 19.3479 32.4496 19.5177C32.692 19.8554 32.9647 20.1778 33.2674 20.4808C34.1593 21.3739 35.5216 22.1843 37.0389 22.5478C38.5669 22.9137 40.3077 22.8371 41.8829 21.8624C41.9593 21.8151 42.0059 21.7863 42.0404 21.7661C42.0678 21.7727 42.1056 21.7824 42.1682 21.7986L42.1934 21.8052C42.6116 21.9137 42.9619 22.0046 43.2464 22.0584C43.5331 22.1125 43.8384 22.1473 44.1422 22.0854C44.9874 21.9132 45.6471 21.252 45.8189 20.4071C45.8806 20.1034 45.8459 19.7981 45.7919 19.5112C45.7383 19.2264 45.6475 18.8758 45.5391 18.457L45.5325 18.4318C45.5161 18.3684 45.5064 18.3305 45.4998 18.3029C45.5199 18.2687 45.5486 18.2224 45.5959 18.1461C46.5696 16.5774 46.6677 14.8541 46.3092 13.3267C45.9532 11.8103 45.1401 10.445 44.2167 9.52044C43.9385 9.24187 43.644 8.98867 43.3362 8.76099ZM39.7329 5.01982C36.7102 1.99339 31.81 1.99339 28.7874 5.01982C27.8774 5.93094 27.0477 7.31632 26.6882 8.84766C26.3314 10.368 26.4455 11.9895 27.3486 13.4445C27.3571 13.4583 27.3658 13.4722 27.3745 13.4862C27.4606 13.6244 27.5533 13.7733 27.6071 13.9084C27.7025 14.1482 27.7355 14.3652 27.7158 14.6225C27.7047 14.7671 27.6658 14.9161 27.6317 15.0471C27.6285 15.0593 27.6253 15.0714 27.6223 15.0833C27.4812 15.6282 27.3853 16.0004 27.3316 16.2852C27.2773 16.5735 27.2846 16.6875 27.2943 16.735C27.3703 17.109 27.662 17.4005 28.0343 17.4764C28.0812 17.4859 28.1947 17.4933 28.4825 17.439C28.7668 17.3853 29.1384 17.2893 29.6827 17.148C29.6946 17.1449 29.7067 17.1418 29.7189 17.1386C29.8496 17.1044 29.9985 17.0655 30.1427 17.0544C30.3997 17.0345 30.6153 17.0671 30.8549 17.1621C30.9898 17.2156 31.1391 17.3083 31.278 17.3946C31.2922 17.4034 31.3062 17.4121 31.3201 17.4207C31.3474 17.4376 31.3748 17.4542 31.4023 17.4705C30.498 14.7706 31.1192 11.6714 33.2674 9.52044C35.4938 7.2913 38.7379 6.70388 41.5013 7.75716C41.125 6.75929 40.5357 5.82365 39.7329 5.01982ZM42.2297 9.81521C39.8026 8.17382 36.477 8.4295 34.3287 10.5804C32.2048 12.7071 31.9305 15.987 33.509 18.4104C33.7416 18.7675 34.0147 19.1064 34.3287 19.4208C35.0252 20.1181 36.1411 20.7903 37.3883 21.089C38.625 21.3852 39.9351 21.3036 41.0936 20.5868C41.1051 20.5797 41.1169 20.5724 41.129 20.5649C41.2405 20.4955 41.3746 20.4122 41.4975 20.3634C41.7136 20.2777 41.9113 20.2478 42.1431 20.2657C42.2745 20.2759 42.4091 20.3112 42.5144 20.3388C42.5249 20.3415 42.5351 20.3442 42.545 20.3467C42.995 20.4635 43.2959 20.5412 43.5247 20.5844C43.7569 20.6282 43.8298 20.6182 43.8427 20.6156C44.0972 20.5637 44.2969 20.3644 44.3489 20.1083C44.3517 20.0948 44.3616 20.0214 44.3178 19.7888C44.2746 19.5596 44.197 19.2582 44.0804 18.8077C44.0778 18.7978 44.0752 18.7876 44.0724 18.7771C44.0449 18.6716 44.0096 18.5368 43.9996 18.4051C43.9818 18.1731 44.012 17.9742 44.098 17.758C44.1471 17.6348 44.2304 17.5012 44.2996 17.3902C44.3071 17.3782 44.3144 17.3665 44.3215 17.3551C45.0429 16.1927 45.1365 14.8949 44.8489 13.6695C44.5587 12.4331 43.8879 11.3139 43.1554 10.5804C42.8659 10.2906 42.5557 10.0357 42.2297 9.81521Z" fill="#656565"/>
<path d="M35.0002 15C35.0002 14.5858 35.336 14.25 35.7502 14.25L41.7502 14.25C42.1644 14.25 42.5002 14.5858 42.5002 15C42.5002 15.4142 42.1644 15.75 41.7502 15.75L35.7502 15.75C35.336 15.75 35.0002 15.4142 35.0002 15Z" stroke="#656565"/>
<path fill-rule="evenodd" clip-rule="evenodd" d="M43.3362 8.76099C43.0013 7.00204 42.1535 5.32081 40.7942 3.95982C37.1856 0.346725 31.3346 0.346725 27.7261 3.95982C26.6253 5.06202 25.6531 6.69355 25.2279 8.50489C24.8002 10.3272 24.9188 12.3742 26.0741 14.2356C26.1332 14.3309 26.1698 14.3899 26.1957 14.4341C26.2076 14.4545 26.2139 14.4661 26.2165 14.4711C26.2189 14.4775 26.2204 14.4819 26.2213 14.4847C26.2213 14.488 26.2211 14.4936 26.2206 14.5021C26.2198 14.506 26.2182 14.5147 26.2148 14.5295C26.2063 14.5674 26.1933 14.618 26.1701 14.7074L26.1634 14.7334C26.0307 15.2459 25.9217 15.6672 25.8576 16.0076C25.793 16.3502 25.7557 16.696 25.8243 17.0337C26.0201 17.9967 26.7719 18.75 27.7348 18.9462C28.0726 19.015 28.4185 18.9776 28.7608 18.9129C29.1008 18.8487 29.5217 18.7395 30.0335 18.6067L30.0595 18.5999C30.1488 18.5768 30.1993 18.5637 30.2371 18.5552C30.2518 18.5518 30.2604 18.5502 30.2643 18.5495C30.2722 18.5489 30.2775 18.5488 30.2809 18.5487C30.2836 18.5496 30.2878 18.5511 30.2936 18.5532C30.2987 18.5559 30.3104 18.5622 30.331 18.5742C30.3755 18.6002 30.435 18.6369 30.5308 18.6962C31.1507 19.0798 31.7959 19.3479 32.4496 19.5177C32.692 19.8554 32.9647 20.1778 33.2674 20.4808C34.1593 21.3739 35.5216 22.1843 37.0389 22.5478C38.5669 22.9137 40.3077 22.8371 41.8829 21.8624C41.9593 21.8151 42.0059 21.7863 42.0404 21.7661C42.0678 21.7727 42.1056 21.7824 42.1682 21.7986L42.1934 21.8052C42.6116 21.9137 42.9619 22.0046 43.2464 22.0584C43.5331 22.1125 43.8384 22.1473 44.1422 22.0854C44.9874 21.9132 45.6471 21.252 45.8189 20.4071C45.8806 20.1034 45.8459 19.7981 45.7919 19.5112C45.7383 19.2264 45.6475 18.8758 45.5391 18.457L45.5325 18.4318C45.5161 18.3684 45.5064 18.3305 45.4998 18.3029C45.5199 18.2687 45.5486 18.2224 45.5959 18.1461C46.5696 16.5774 46.6677 14.8541 46.3092 13.3267C45.9532 11.8103 45.1401 10.445 44.2167 9.52044C43.9385 9.24187 43.644 8.98867 43.3362 8.76099ZM39.7329 5.01982C36.7102 1.99339 31.81 1.99339 28.7874 5.01982C27.8774 5.93094 27.0477 7.31632 26.6882 8.84766C26.3314 10.368 26.4455 11.9895 27.3486 13.4445C27.3571 13.4583 27.3658 13.4722 27.3745 13.4862C27.4606 13.6244 27.5533 13.7733 27.6071 13.9084C27.7025 14.1482 27.7355 14.3652 27.7158 14.6225C27.7047 14.7671 27.6658 14.9161 27.6317 15.0471C27.6285 15.0593 27.6253 15.0714 27.6223 15.0833C27.4812 15.6282 27.3853 16.0004 27.3316 16.2852C27.2773 16.5735 27.2846 16.6875 27.2943 16.735C27.3703 17.109 27.662 17.4005 28.0343 17.4764C28.0812 17.4859 28.1947 17.4933 28.4825 17.439C28.7668 17.3853 29.1384 17.2893 29.6827 17.148C29.6946 17.1449 29.7067 17.1418 29.7189 17.1386C29.8496 17.1044 29.9985 17.0655 30.1427 17.0544C30.3997 17.0345 30.6153 17.0671 30.8549 17.1621C30.9898 17.2156 31.1391 17.3083 31.278 17.3946C31.2922 17.4034 31.3062 17.4121 31.3201 17.4207C31.3474 17.4376 31.3748 17.4542 31.4023 17.4705C30.498 14.7706 31.1192 11.6714 33.2674 9.52044C35.4938 7.2913 38.7379 6.70388 41.5013 7.75716C41.125 6.75929 40.5357 5.82365 39.7329 5.01982ZM42.2297 9.81521C39.8026 8.17382 36.477 8.4295 34.3287 10.5804C32.2048 12.7071 31.9305 15.987 33.509 18.4104C33.7416 18.7675 34.0147 19.1064 34.3287 19.4208C35.0252 20.1181 36.1411 20.7903 37.3883 21.089C38.625 21.3852 39.9351 21.3036 41.0936 20.5868C41.1051 20.5797 41.1169 20.5724 41.129 20.5649C41.2405 20.4955 41.3746 20.4122 41.4975 20.3634C41.7136 20.2777 41.9113 20.2478 42.1431 20.2657C42.2745 20.2759 42.4091 20.3112 42.5144 20.3388C42.5249 20.3415 42.5351 20.3442 42.545 20.3467C42.995 20.4635 43.2959 20.5412 43.5247 20.5844C43.7569 20.6282 43.8298 20.6182 43.8427 20.6156C44.0972 20.5637 44.2969 20.3644 44.3489 20.1083C44.3517 20.0948 44.3616 20.0214 44.3178 19.7888C44.2746 19.5596 44.197 19.2582 44.0804 18.8077C44.0778 18.7978 44.0752 18.7876 44.0724 18.7771C44.0449 18.6716 44.0096 18.5368 43.9996 18.4051C43.9818 18.1731 44.012 17.9742 44.098 17.758C44.1471 17.6348 44.2304 17.5012 44.2996 17.3902C44.3071 17.3782 44.3144 17.3665 44.3215 17.3551C45.0429 16.1927 45.1365 14.8949 44.8489 13.6695C44.5587 12.4331 43.8879 11.3139 43.1554 10.5804C42.8659 10.2906 42.5557 10.0357 42.2297 9.81521Z" stroke="#656565"/>
<path d="M18.1672 48H16.8746L20.6132 37.8182H21.8859L25.6246 48H24.3319L21.2893 39.429H21.2098L18.1672 48ZM18.6444 44.0227H23.8547V45.1165H18.6444V44.0227ZM32.4605 42.0739L31.4065 42.3722C31.3402 42.1965 31.2425 42.0258 31.1132 41.8601C30.9872 41.6911 30.8149 41.5518 30.5961 41.4425C30.3774 41.3331 30.0973 41.2784 29.7559 41.2784C29.2886 41.2784 28.8992 41.3861 28.5876 41.6016C28.2794 41.8137 28.1253 42.0838 28.1253 42.4119C28.1253 42.7036 28.2313 42.9339 28.4434 43.103C28.6556 43.272 28.987 43.4129 29.4378 43.5256L30.5713 43.804C31.2541 43.9697 31.7628 44.2232 32.0976 44.5646C32.4323 44.9027 32.5997 45.3385 32.5997 45.8722C32.5997 46.3097 32.4738 46.7008 32.2219 47.0455C31.9733 47.3902 31.6253 47.6619 31.1778 47.8608C30.7304 48.0597 30.21 48.1591 29.6167 48.1591C28.8379 48.1591 28.1932 47.9901 27.6828 47.652C27.1724 47.3139 26.8492 46.8201 26.7133 46.1705L27.827 45.892C27.933 46.303 28.1336 46.6113 28.4285 46.8168C28.7268 47.0223 29.1163 47.125 29.5969 47.125C30.1437 47.125 30.5779 47.009 30.8994 46.777C31.2242 46.5417 31.3866 46.2599 31.3866 45.9318C31.3866 45.6667 31.2938 45.4446 31.1082 45.2656C30.9226 45.0833 30.6376 44.9474 30.2531 44.858L28.9804 44.5597C28.281 44.3939 27.7673 44.1371 27.4392 43.7891C27.1144 43.4377 26.952 42.9986 26.952 42.4716C26.952 42.0407 27.0729 41.6596 27.3149 41.3281C27.5602 40.9967 27.8933 40.7365 28.3142 40.5476C28.7384 40.3587 29.219 40.2642 29.7559 40.2642C30.5116 40.2642 31.1049 40.4299 31.5358 40.7614C31.97 41.0928 32.2782 41.5303 32.4605 42.0739ZM35.4596 45.2159L35.4397 43.7642H35.6784L39.0193 40.3636H40.471L36.9113 43.9631H36.8119L35.4596 45.2159ZM34.3659 48V37.8182H35.5392V48H34.3659ZM39.2181 48L36.2352 44.2216L37.0704 43.4062L40.7096 48H39.2181ZM46.4953 48H45.2027L48.9413 37.8182H50.214L53.9527 48H52.6601L49.6175 39.429H49.5379L46.4953 48ZM46.9726 44.0227H52.1828V45.1165H46.9726V44.0227ZM56.7716 37.8182V48H55.5386V37.8182H56.7716Z" fill="#656565"/>
</svg>
