<svg width="70" height="60" viewBox="0 0 70 60" fill="none" xmlns="http://www.w3.org/2000/svg">
<path d="M31 22.4063C32.0032 22.5279 33.2763 22.5279 35 22.5279C36.7237 22.5279 37.9968 22.5279 39 22.4063M31 22.4063C30.0847 22.2955 29.3941 22.0834 28.7906 21.678C28.6892 21.6098 28.5902 21.5379 28.4941 21.4625C27.2949 20.5222 26.7856 18.9547 25.767 15.8197C24.7483 12.6846 24.239 11.1171 24.6565 9.65157C24.6899 9.534 24.7277 9.41771 24.7697 9.30291C25.2934 7.87189 26.6269 6.90311 29.2937 4.96556C31.9605 3.028 33.2939 2.05923 34.8167 2.00336C34.9389 1.99888 35.0611 1.99888 35.1833 2.00336C36.7061 2.05923 38.0395 3.028 40.7063 4.96556C43.3732 6.90311 44.7066 7.87189 45.2303 9.30291C45.2723 9.41771 45.3101 9.534 45.3436 9.65157C45.761 11.1171 45.2517 12.6846 44.2331 15.8197C43.2144 18.9547 42.7051 20.5222 41.506 21.4625C41.4098 21.5379 41.3108 21.6098 41.2094 21.678C40.606 22.0834 39.9153 22.2955 39 22.4063M31 22.4063V22.3197V18.8197C31 16.6105 32.7909 14.8197 35 14.8197C37.2091 14.8197 39 16.6105 39 18.8197V22.3197V22.4063" stroke="#656565" stroke-width="1.5"/>
<path d="M17.2022 48V37.8182H18.4351V42.3523H23.8641V37.8182H25.0971V48H23.8641V43.446H18.4351V48H17.2022ZM30.5087 48.1591C29.8193 48.1591 29.2144 47.995 28.694 47.6669C28.177 47.3388 27.7726 46.8797 27.481 46.2898C27.1926 45.6998 27.0484 45.0104 27.0484 44.2216C27.0484 43.4261 27.1926 42.7318 27.481 42.1385C27.7726 41.5452 28.177 41.0845 28.694 40.7564C29.2144 40.4283 29.8193 40.2642 30.5087 40.2642C31.198 40.2642 31.8013 40.4283 32.3183 40.7564C32.8387 41.0845 33.243 41.5452 33.5314 42.1385C33.8231 42.7318 33.9689 43.4261 33.9689 44.2216C33.9689 45.0104 33.8231 45.6998 33.5314 46.2898C33.243 46.8797 32.8387 47.3388 32.3183 47.6669C31.8013 47.995 31.198 48.1591 30.5087 48.1591ZM30.5087 47.1051C31.0323 47.1051 31.4632 46.9709 31.8013 46.7024C32.1393 46.4339 32.3896 46.081 32.552 45.6435C32.7144 45.206 32.7956 44.732 32.7956 44.2216C32.7956 43.7112 32.7144 43.2356 32.552 42.7947C32.3896 42.3539 32.1393 41.9976 31.8013 41.7259C31.4632 41.4541 31.0323 41.3182 30.5087 41.3182C29.985 41.3182 29.5541 41.4541 29.216 41.7259C28.878 41.9976 28.6277 42.3539 28.4653 42.7947C28.3029 43.2356 28.2217 43.7112 28.2217 44.2216C28.2217 44.732 28.3029 45.206 28.4653 45.6435C28.6277 46.081 28.878 46.4339 29.216 46.7024C29.5541 46.9709 29.985 47.1051 30.5087 47.1051ZM35.7599 48V40.3636H36.8934V41.5568H36.9929C37.1519 41.1491 37.4088 40.8326 37.7634 40.6072C38.1181 40.3786 38.544 40.2642 39.0411 40.2642C39.5449 40.2642 39.9642 40.3786 40.299 40.6072C40.637 40.8326 40.9005 41.1491 41.0894 41.5568H41.169C41.3645 41.1624 41.6579 40.8492 42.049 40.6172C42.4401 40.3819 42.909 40.2642 43.4559 40.2642C44.1387 40.2642 44.6972 40.478 45.1313 40.9055C45.5655 41.3298 45.7826 41.991 45.7826 42.8892V48H44.6093V42.8892C44.6093 42.3258 44.4552 41.9231 44.147 41.6811C43.8387 41.4392 43.4758 41.3182 43.0582 41.3182C42.5213 41.3182 42.1053 41.4806 41.8103 41.8054C41.5153 42.1269 41.3679 42.5346 41.3679 43.0284V48H40.1747V42.7699C40.1747 42.3357 40.0338 41.986 39.7521 41.7209C39.4704 41.4524 39.1074 41.3182 38.6633 41.3182C38.3584 41.3182 38.0733 41.3994 37.8082 41.5618C37.5464 41.7242 37.3342 41.9496 37.1718 42.2379C37.0127 42.523 36.9332 42.8527 36.9332 43.2273V48H35.7599ZM51.1296 48.1591C50.3938 48.1591 49.7591 47.9967 49.2255 47.6719C48.6951 47.3438 48.2858 46.8864 47.9975 46.2997C47.7124 45.7098 47.5699 45.0237 47.5699 44.2415C47.5699 43.4593 47.7124 42.7699 47.9975 42.1733C48.2858 41.5734 48.6869 41.1061 49.2006 40.7713C49.7176 40.4332 50.3209 40.2642 51.0103 40.2642C51.408 40.2642 51.8007 40.3305 52.1885 40.4631C52.5763 40.5956 52.9293 40.8111 53.2475 41.1094C53.5657 41.4044 53.8192 41.7955 54.0081 42.2827C54.197 42.7699 54.2915 43.3698 54.2915 44.0824V44.5795H48.4051V43.5653H53.0983C53.0983 43.1345 53.0121 42.75 52.8398 42.4119C52.6708 42.0739 52.4288 41.8071 52.1139 41.6115C51.8024 41.416 51.4345 41.3182 51.0103 41.3182C50.5429 41.3182 50.1386 41.4342 49.7972 41.6662C49.4591 41.8949 49.1989 42.1932 49.0166 42.5611C48.8344 42.929 48.7432 43.3234 48.7432 43.7443V44.4205C48.7432 44.9972 48.8426 45.486 49.0415 45.8871C49.2437 46.2848 49.5237 46.5881 49.8817 46.7969C50.2397 47.0024 50.6556 47.1051 51.1296 47.1051C51.4378 47.1051 51.7162 47.062 51.9648 46.9759C52.2167 46.8864 52.4338 46.7538 52.6161 46.5781C52.7984 46.3991 52.9392 46.1771 53.0387 45.9119L54.1722 46.2301C54.0529 46.6146 53.8523 46.9527 53.5706 47.2443C53.2889 47.5327 52.9409 47.758 52.5266 47.9205C52.1123 48.0795 51.6466 48.1591 51.1296 48.1591Z" fill="#656565"/>
</svg>
