<svg width="70" height="60" viewBox="0 0 70 60" fill="none" xmlns="http://www.w3.org/2000/svg">
<path fill-rule="evenodd" clip-rule="evenodd" d="M35 1.25C32.3766 1.25 30.25 3.37665 30.25 6C30.25 8.62335 32.3766 10.75 35 10.75C37.6234 10.75 39.75 8.62335 39.75 6C39.75 3.37665 37.6234 1.25 35 1.25ZM31.75 6C31.75 4.20507 33.2051 2.75 35 2.75C36.7949 2.75 38.25 4.20507 38.25 6C38.25 7.79493 36.7949 9.25 35 9.25C33.2051 9.25 31.75 7.79493 31.75 6Z" fill="#656565"/>
<path fill-rule="evenodd" clip-rule="evenodd" d="M32 12.25C29.3766 12.25 27.25 14.3766 27.25 17C27.25 19.6234 29.3766 21.75 32 21.75H38C40.6234 21.75 42.75 19.6234 42.75 17C42.75 14.3766 40.6234 12.25 38 12.25H32ZM28.75 17C28.75 15.2051 30.2051 13.75 32 13.75H38C39.7949 13.75 41.25 15.2051 41.25 17C41.25 18.7949 39.7949 20.25 38 20.25H32C30.2051 20.25 28.75 18.7949 28.75 17Z" fill="#656565"/>
<path fill-rule="evenodd" clip-rule="evenodd" d="M35 1.25C32.3766 1.25 30.25 3.37665 30.25 6C30.25 8.62335 32.3766 10.75 35 10.75C37.6234 10.75 39.75 8.62335 39.75 6C39.75 3.37665 37.6234 1.25 35 1.25ZM31.75 6C31.75 4.20507 33.2051 2.75 35 2.75C36.7949 2.75 38.25 4.20507 38.25 6C38.25 7.79493 36.7949 9.25 35 9.25C33.2051 9.25 31.75 7.79493 31.75 6Z" stroke="#656565"/>
<path fill-rule="evenodd" clip-rule="evenodd" d="M32 12.25C29.3766 12.25 27.25 14.3766 27.25 17C27.25 19.6234 29.3766 21.75 32 21.75H38C40.6234 21.75 42.75 19.6234 42.75 17C42.75 14.3766 40.6234 12.25 38 12.25H32ZM28.75 17C28.75 15.2051 30.2051 13.75 32 13.75H38C39.7949 13.75 41.25 15.2051 41.25 17C41.25 18.7949 39.7949 20.25 38 20.25H32C30.2051 20.25 28.75 18.7949 28.75 17Z" stroke="#656565"/>
<path d="M15.2061 47.6848V37.503H18.6464C19.4452 37.503 20.0981 37.6472 20.6052 37.9355C21.1157 38.2206 21.4935 38.6067 21.7388 39.0939C21.984 39.5811 22.1067 40.1247 22.1067 40.7246C22.1067 41.3245 21.984 41.8697 21.7388 42.3602C21.4968 42.8508 21.1223 43.2419 20.6152 43.5335C20.1081 43.8219 19.4585 43.9661 18.6663 43.9661H16.2004V42.8723H18.6266C19.1734 42.8723 19.6126 42.7779 19.944 42.5889C20.2755 42.4 20.5158 42.1448 20.6649 41.8233C20.8174 41.4985 20.8936 41.1323 20.8936 40.7246C20.8936 40.3169 20.8174 39.9523 20.6649 39.6308C20.5158 39.3093 20.2738 39.0574 19.9391 38.8752C19.6043 38.6895 19.1602 38.5967 18.6067 38.5967H16.4391V47.6848H15.2061ZM23.9337 47.6848V40.0485H25.0672V41.2019H25.1468C25.286 40.824 25.5379 40.5174 25.9025 40.2821C26.2671 40.0468 26.678 39.9291 27.1354 39.9291C27.2216 39.9291 27.3293 39.9308 27.4586 39.9341C27.5878 39.9374 27.6856 39.9424 27.7519 39.949V41.1422C27.7121 41.1323 27.621 41.1173 27.4785 41.0975C27.3393 41.0743 27.1918 41.0627 27.036 41.0627C26.6648 41.0627 26.3333 41.1405 26.0417 41.2963C25.7533 41.4488 25.5246 41.6609 25.3556 41.9327C25.1899 42.2011 25.107 42.5077 25.107 42.8524V47.6848H23.9337ZM32.0126 47.8439C31.3232 47.8439 30.7183 47.6798 30.1979 47.3517C29.6809 47.0236 29.2765 46.5645 28.9849 45.9746C28.6965 45.3846 28.5523 44.6952 28.5523 43.9064C28.5523 43.111 28.6965 42.4166 28.9849 41.8233C29.2765 41.23 29.6809 40.7693 30.1979 40.4412C30.7183 40.1131 31.3232 39.949 32.0126 39.949C32.702 39.949 33.3052 40.1131 33.8222 40.4412C34.3426 40.7693 34.7469 41.23 35.0353 41.8233C35.327 42.4166 35.4728 43.111 35.4728 43.9064C35.4728 44.6952 35.327 45.3846 35.0353 45.9746C34.7469 46.5645 34.3426 47.0236 33.8222 47.3517C33.3052 47.6798 32.702 47.8439 32.0126 47.8439ZM32.0126 46.7899C32.5362 46.7899 32.9671 46.6557 33.3052 46.3872C33.6432 46.1188 33.8935 45.7658 34.0559 45.3283C34.2183 44.8908 34.2995 44.4168 34.2995 43.9064C34.2995 43.396 34.2183 42.9204 34.0559 42.4796C33.8935 42.0387 33.6432 41.6824 33.3052 41.4107C32.9671 41.1389 32.5362 41.003 32.0126 41.003C31.4889 41.003 31.058 41.1389 30.7199 41.4107C30.3819 41.6824 30.1316 42.0387 29.9692 42.4796C29.8068 42.9204 29.7256 43.396 29.7256 43.9064C29.7256 44.4168 29.8068 44.8908 29.9692 45.3283C30.1316 45.7658 30.3819 46.1188 30.7199 46.3872C31.058 46.6557 31.4889 46.7899 32.0126 46.7899ZM40.6644 40.0485V41.0428H36.5479V40.0485H40.6644ZM37.7809 47.6848V38.9945C37.7809 38.557 37.8836 38.1924 38.0891 37.9007C38.2946 37.6091 38.5614 37.3903 38.8895 37.2445C39.2176 37.0986 39.564 37.0257 39.9286 37.0257C40.2169 37.0257 40.4523 37.0489 40.6345 37.0953C40.8168 37.1417 40.9527 37.1848 41.0422 37.2246L40.7041 38.2388C40.6445 38.2189 40.5616 38.194 40.4556 38.1642C40.3528 38.1344 40.2169 38.1195 40.0479 38.1195C39.6601 38.1195 39.38 38.2172 39.2077 38.4128C39.0387 38.6083 38.9541 38.895 38.9541 39.2729V47.6848H37.7809ZM42.3087 47.6848V40.0485H43.482V47.6848H42.3087ZM42.9053 38.7757C42.6766 38.7757 42.4794 38.6978 42.3137 38.5421C42.1513 38.3863 42.0701 38.199 42.0701 37.9803C42.0701 37.7615 42.1513 37.5743 42.3137 37.4185C42.4794 37.2627 42.6766 37.1848 42.9053 37.1848C43.134 37.1848 43.3296 37.2627 43.492 37.4185C43.6577 37.5743 43.7405 37.7615 43.7405 37.9803C43.7405 38.199 43.6577 38.3863 43.492 38.5421C43.3296 38.6978 43.134 38.7757 42.9053 38.7757ZM46.8043 37.503V47.6848H45.631V37.503H46.8043ZM52.155 47.8439C51.4192 47.8439 50.7845 47.6815 50.2508 47.3567C49.7205 47.0286 49.3112 46.5712 49.0229 45.9845C48.7378 45.3946 48.5953 44.7085 48.5953 43.9263C48.5953 43.1441 48.7378 42.4547 49.0229 41.8581C49.3112 41.2582 49.7123 40.7909 50.226 40.4561C50.743 40.1181 51.3463 39.949 52.0356 39.949C52.4334 39.949 52.8261 40.0153 53.2139 40.1479C53.6017 40.2805 53.9547 40.4959 54.2729 40.7942C54.591 41.0892 54.8446 41.4803 55.0335 41.9675C55.2224 42.4547 55.3169 43.0546 55.3169 43.7672V44.2644H49.4305V43.2502H54.1237C54.1237 42.8193 54.0375 42.4348 53.8652 42.0967C53.6962 41.7587 53.4542 41.4919 53.1393 41.2963C52.8278 41.1008 52.4599 41.003 52.0356 41.003C51.5683 41.003 51.164 41.119 50.8226 41.351C50.4845 41.5797 50.2243 41.878 50.042 42.2459C49.8597 42.6138 49.7686 43.0082 49.7686 43.4291V44.1053C49.7686 44.682 49.868 45.1708 50.0669 45.5719C50.2691 45.9696 50.5491 46.2729 50.9071 46.4817C51.265 46.6872 51.681 46.7899 52.155 46.7899C52.4632 46.7899 52.7416 46.7468 52.9902 46.6607C53.2421 46.5712 53.4592 46.4386 53.6415 46.2629C53.8238 46.084 53.9646 45.8619 54.0641 45.5967L55.1976 45.9149C55.0783 46.2994 54.8777 46.6375 54.596 46.9291C54.3143 47.2175 53.9663 47.4429 53.552 47.6053C53.1377 47.7644 52.672 47.8439 52.155 47.8439Z" fill="#656565"/>
</svg>
