<svg width="62" height="62" viewBox="0 0 62 62" fill="none" xmlns="http://www.w3.org/2000/svg">
<rect x="0.142822" width="61.2857" height="61.2857" rx="30.6429" fill="#6929C4"/>
<path d="M20.0722 28.3216C19.5731 28.3216 19.1785 27.927 19.1785 27.4279V24.7466C19.1785 21.6011 21.7436 19.0359 24.8892 19.0359H27.5704C28.0695 19.0359 28.4642 19.4305 28.4642 19.9296C28.4642 20.4287 28.0695 20.8234 27.5704 20.8234H24.8892C22.7186 20.8234 20.966 22.5877 20.966 24.7466V27.4279C20.966 27.927 20.5597 28.3216 20.0722 28.3216Z" fill="white"/>
<path d="M41.499 28.3216C41.0115 28.3216 40.6053 27.927 40.6053 27.4279V24.7466C40.6053 22.5761 38.841 20.8234 36.6821 20.8234H34.0008C33.5017 20.8234 33.1071 20.4171 33.1071 19.9296C33.1071 19.4421 33.5017 19.0359 34.0008 19.0359H36.6821C39.8276 19.0359 42.3928 21.6011 42.3928 24.7466V27.4279C42.3928 27.927 41.9981 28.3216 41.499 28.3216Z" fill="white"/>
<path d="M36.6821 42.25H35.0687C34.5812 42.25 34.1749 41.8553 34.1749 41.3562C34.1749 40.8687 34.5696 40.4625 35.0687 40.4625H36.6821C38.8526 40.4625 40.6053 38.6982 40.6053 36.5392V34.9375C40.6053 34.45 40.9999 34.0437 41.499 34.0437C41.9865 34.0437 42.3928 34.4383 42.3928 34.9375V36.5392C42.3928 39.6848 39.8276 42.25 36.6821 42.25Z" fill="white"/>
<path d="M27.5704 42.2501H24.8892C21.7436 42.2501 19.1785 39.6849 19.1785 36.5394V33.8581C19.1785 33.359 19.5731 32.9644 20.0722 32.9644C20.5713 32.9644 20.966 33.359 20.966 33.8581V36.5394C20.966 38.7099 22.7303 40.4626 24.8892 40.4626H27.5704C28.0579 40.4626 28.4642 40.8572 28.4642 41.3563C28.4642 41.8554 28.0695 42.2501 27.5704 42.2501Z" fill="white"/>
<path d="M38.2839 29.7493H36.7053H24.866H23.2874C22.7883 29.7493 22.3937 30.1555 22.3937 30.643C22.3937 31.1305 22.7883 31.5368 23.2874 31.5368H24.866H36.7053H38.2839C38.783 31.5368 39.1776 31.1305 39.1776 30.643C39.1776 30.1555 38.783 29.7493 38.2839 29.7493Z" fill="white"/>
<path d="M24.866 32.8946V33.2777C24.866 35.2045 26.4213 36.7598 28.3481 36.7598H33.2231C35.1499 36.7598 36.7053 35.2045 36.7053 33.2777V32.8946C36.7053 32.7553 36.6008 32.6509 36.4615 32.6509H25.1097C24.9704 32.6509 24.866 32.7553 24.866 32.8946Z" fill="white"/>
<path d="M24.866 28.3913V28.0083C24.866 26.0815 26.4213 24.5261 28.3481 24.5261H33.2231C35.1499 24.5261 36.7053 26.0815 36.7053 28.0083V28.3913C36.7053 28.5306 36.6008 28.6351 36.4615 28.6351H25.1097C24.9704 28.6351 24.866 28.5306 24.866 28.3913Z" fill="white"/>
</svg>
