<svg width="71" height="60" viewBox="0 0 71 60" fill="none" xmlns="http://www.w3.org/2000/svg">
<path d="M31.6804 37.8182H32.9134V44.5597C32.9134 45.2557 32.7493 45.8771 32.4212 46.424C32.0964 46.9676 31.6373 47.3968 31.044 47.7116C30.4508 48.0232 29.7547 48.179 28.956 48.179C28.1572 48.179 27.4612 48.0232 26.8679 47.7116C26.2746 47.3968 25.8139 46.9676 25.4858 46.424C25.161 45.8771 24.9986 45.2557 24.9986 44.5597V37.8182H26.2315V44.4602C26.2315 44.9574 26.3409 45.3999 26.5597 45.7876C26.7784 46.1721 27.09 46.4754 27.4943 46.6974C27.902 46.9162 28.3892 47.0256 28.956 47.0256C29.5227 47.0256 30.0099 46.9162 30.4176 46.6974C30.8253 46.4754 31.1368 46.1721 31.3523 45.7876C31.571 45.3999 31.6804 44.9574 31.6804 44.4602V37.8182ZM35.3755 48V37.8182H38.8159C39.6146 37.8182 40.2676 37.9624 40.7747 38.2507C41.2851 38.5357 41.6629 38.9219 41.9082 39.4091C42.1535 39.8963 42.2761 40.4399 42.2761 41.0398C42.2761 41.6397 42.1535 42.1849 41.9082 42.6754C41.6663 43.166 41.2917 43.5571 40.7846 43.8487C40.2775 44.1371 39.6279 44.2812 38.8358 44.2812H36.3699V43.1875H38.796C39.3429 43.1875 39.782 43.093 40.1135 42.9041C40.4449 42.7152 40.6852 42.46 40.8343 42.1385C40.9868 41.8137 41.063 41.4474 41.063 41.0398C41.063 40.6321 40.9868 40.2675 40.8343 39.946C40.6852 39.6245 40.4432 39.3726 40.1085 39.1903C39.7737 39.0047 39.3296 38.9119 38.7761 38.9119H36.6085V48H35.3755ZM45.4952 37.8182V48H44.2623V37.8182H45.4952Z" fill="#656565"/>
<path d="M26.8125 16C26.8125 18.2378 27.7014 20.3839 29.2838 21.9662C30.8661 23.5486 33.0122 24.4375 35.25 24.4375C37.4878 24.4375 39.6339 23.5486 41.2162 21.9662C42.7986 20.3839 43.6875 18.2378 43.6875 16C43.6875 13.7622 42.7986 11.6161 41.2162 10.0338C39.6339 8.45145 37.4878 7.5625 35.25 7.5625C33.0122 7.5625 30.8661 8.45145 29.2838 10.0338C27.7014 11.6161 26.8125 13.7622 26.8125 16Z" stroke="#656565" stroke-linecap="round" stroke-linejoin="round"/>
<path d="M32.4375 11.7812H38.0625M32.4375 14.3856H38.0625M36.4219 21.1562L32.4375 16.99H33.8438C36.9694 16.99 36.9694 11.7812 33.8438 11.7812" stroke="#656565" stroke-linecap="round" stroke-linejoin="round"/>
</svg>
