<svg width="71" height="60" viewBox="0 0 71 60" fill="none" xmlns="http://www.w3.org/2000/svg">
<path d="M31.6804 38.8182H32.9134V45.5597C32.9134 46.2557 32.7493 46.8771 32.4212 47.424C32.0964 47.9676 31.6373 48.3968 31.044 48.7116C30.4508 49.0232 29.7547 49.179 28.956 49.179C28.1572 49.179 27.4612 49.0232 26.8679 48.7116C26.2746 48.3968 25.8139 47.9676 25.4858 47.424C25.161 46.8771 24.9986 46.2557 24.9986 45.5597V38.8182H26.2315V45.4602C26.2315 45.9574 26.3409 46.3999 26.5597 46.7876C26.7784 47.1721 27.09 47.4754 27.4943 47.6974C27.902 47.9162 28.3892 48.0256 28.956 48.0256C29.5227 48.0256 30.0099 47.9162 30.4176 47.6974C30.8253 47.4754 31.1368 47.1721 31.3523 46.7876C31.571 46.3999 31.6804 45.9574 31.6804 45.4602V38.8182ZM35.3755 49V38.8182H38.8159C39.6146 38.8182 40.2676 38.9624 40.7747 39.2507C41.2851 39.5357 41.6629 39.9219 41.9082 40.4091C42.1535 40.8963 42.2761 41.4399 42.2761 42.0398C42.2761 42.6397 42.1535 43.1849 41.9082 43.6754C41.6663 44.166 41.2917 44.5571 40.7846 44.8487C40.2775 45.1371 39.6279 45.2812 38.8358 45.2812H36.3699V44.1875H38.796C39.3429 44.1875 39.782 44.093 40.1135 43.9041C40.4449 43.7152 40.6852 43.46 40.8343 43.1385C40.9868 42.8137 41.063 42.4474 41.063 42.0398C41.063 41.6321 40.9868 41.2675 40.8343 40.946C40.6852 40.6245 40.4432 40.3726 40.1085 40.1903C39.7737 40.0047 39.3296 39.9119 38.7761 39.9119H36.6085V49H35.3755ZM45.4952 38.8182V49H44.2623V38.8182H45.4952Z" fill="#656565"/>
<path d="M31.75 9.99984H38.75M31.75 6.5H38.75M37.25 18.0002L31.75 13.5002L33.25 13.5C37.6947 13.5 37.6947 6.5 33.25 6.5M45.25 12C45.25 17.5228 40.7728 22 35.25 22C29.7272 22 25.25 17.5228 25.25 12C25.25 6.47715 29.7272 2 35.25 2C40.7728 2 45.25 6.47715 45.25 12Z" stroke="#656565" stroke-width="2" stroke-linecap="round" stroke-linejoin="round"/>
</svg>
