<svg width="24" height="25" viewBox="0 0 24 25" fill="none" xmlns="http://www.w3.org/2000/svg">
<path d="M20.569 10.3662L21.5 12.0667L19.543 13.7704L20.569 10.3662Z" fill="#2B8B4B"/>
<path d="M19.9166 10.3662L20.8476 12.0667L18.8906 13.7704L19.9166 10.3662Z" fill="#D9782D"/>
<path d="M7.04954 13.6564C7.14137 13.5899 7.20154 13.5107 7.23004 13.4157L7.54037 12.396C7.56887 12.3042 7.5562 12.225 7.50237 12.1617C7.44854 12.0984 7.37254 12.0667 7.26804 12.0667C7.36937 12.0667 7.46754 12.035 7.55937 11.9685C7.6512 11.9052 7.71137 11.826 7.7367 11.731L8.04704 10.7114C8.07554 10.6132 8.06604 10.5309 8.01537 10.4644C7.9647 10.3979 7.88554 10.3662 7.78104 10.3662H3.7467L2.7207 13.745H6.7582C6.85954 13.7545 6.9577 13.7229 7.04954 13.6564ZM4.2787 11.0344H6.2072H6.81204H6.9387C7.01154 11.0502 7.0717 11.0945 7.10654 11.1547C7.1192 11.1959 7.12554 11.2402 7.12554 11.2845C7.12554 11.3099 7.12237 11.332 7.1192 11.3542L7.11287 11.3764L7.08754 11.4619C7.01787 11.6107 6.86904 11.7184 6.68854 11.7374H6.56504H4.06654L4.2787 11.0344ZM6.6727 12.8362C6.59987 12.9755 6.45737 13.0737 6.2832 13.0959H6.15654H3.65487L3.86704 12.3992H5.79554H6.39087H6.5207C6.61887 12.4214 6.6917 12.491 6.71387 12.5797C6.71704 12.5987 6.7202 12.6209 6.7202 12.6399C6.7202 12.6494 6.7202 12.662 6.71704 12.6715V12.6842L6.6727 12.8362ZM13.0029 10.3789L11.9959 13.7482H11.2707L11.676 12.396H8.7627L8.35737 13.7482H7.63537L8.64237 10.3789H9.36754L8.9622 11.7374H11.8755L12.2809 10.3789H13.0029ZM13.215 13.7577H12.4867L13.5 10.3915H14.2284L13.215 13.7577ZM19.2982 10.3852L18.9974 11.3859L18.2912 13.7419H17.566L18.0442 12.1332L16.1315 13.745L14.9757 11.9242L14.431 13.7419H13.7059L14.4849 11.1484L14.7129 10.382H14.7255L15.2132 11.1262L16.2677 12.738L19.2982 10.3852Z" fill="#6D6E71"/>
<path d="M2.5 14.6602L2.62983 14.163H2.7755C2.81667 14.163 2.84833 14.163 2.86417 14.1694C2.88317 14.1725 2.899 14.1789 2.9085 14.1884C2.92433 14.201 2.93383 14.2137 2.937 14.2327C2.94333 14.2517 2.94333 14.2707 2.937 14.2929C2.93067 14.3182 2.918 14.3404 2.899 14.3594C2.88 14.3784 2.85783 14.391 2.82933 14.3974C2.861 14.4005 2.88317 14.4164 2.899 14.4385C2.91167 14.4607 2.91483 14.4892 2.90533 14.5209C2.899 14.5399 2.89267 14.5589 2.87683 14.5779C2.86417 14.5969 2.84833 14.6127 2.82933 14.6254C2.81033 14.638 2.78817 14.6475 2.76283 14.6539C2.7375 14.6602 2.6995 14.6634 2.6425 14.6634H2.5V14.6602ZM2.60767 14.5937H2.63933C2.671 14.5937 2.69633 14.5937 2.71217 14.5905C2.728 14.5874 2.74383 14.5842 2.75333 14.5779C2.766 14.5715 2.77867 14.562 2.78817 14.5525C2.79767 14.5399 2.804 14.5304 2.80717 14.5145C2.81033 14.4987 2.81033 14.486 2.80717 14.4734C2.804 14.4607 2.7945 14.4512 2.78183 14.4449C2.77233 14.4417 2.76283 14.4385 2.75333 14.4354C2.74067 14.4354 2.728 14.4322 2.709 14.4322H2.6805H2.64883L2.60767 14.5937ZM2.66467 14.372H2.6995C2.74383 14.372 2.7755 14.3657 2.79767 14.3562C2.81983 14.3467 2.8325 14.3277 2.83883 14.3024C2.84517 14.2739 2.842 14.2549 2.82933 14.2454C2.8135 14.2359 2.785 14.2295 2.7375 14.2295H2.70267L2.66467 14.372ZM3.298 14.6602L3.36133 14.4195H3.64317L3.57983 14.6602H3.67167L3.8015 14.163H3.70967L3.66217 14.3467H3.38033L3.42783 14.163H3.336L3.20617 14.6602H3.298ZM4.4285 14.6602L4.39683 14.5304H4.16883L4.07067 14.6602H3.9725L4.38417 14.1409L4.52667 14.6602H4.4285ZM4.2195 14.4639H4.381L4.3525 14.3499C4.3525 14.3435 4.34933 14.334 4.34933 14.3245C4.34933 14.315 4.34617 14.3055 4.34617 14.2929C4.33983 14.3024 4.3335 14.315 4.32717 14.3245C4.32083 14.334 4.3145 14.3435 4.30817 14.3499L4.2195 14.4639ZM4.96683 14.4385L4.90983 14.6602H4.82117L4.951 14.163H5.08083C5.11883 14.163 5.14733 14.1662 5.1695 14.1694C5.1885 14.1725 5.20433 14.182 5.217 14.1915C5.23283 14.2042 5.24233 14.22 5.2455 14.239C5.24867 14.258 5.24867 14.2802 5.24233 14.3024C5.23283 14.3435 5.21383 14.372 5.18533 14.3974C5.15683 14.4195 5.122 14.4354 5.07767 14.4385L5.217 14.6665H5.1125L4.9795 14.4449H4.96683V14.4385ZM4.989 14.3752H5.00483C5.05233 14.3752 5.08717 14.3689 5.10617 14.3594C5.12517 14.3499 5.13783 14.3309 5.14417 14.3055C5.1505 14.277 5.14733 14.258 5.13467 14.2485C5.11883 14.2359 5.09033 14.2327 5.04283 14.2327H5.027L4.989 14.3752ZM5.8915 14.6602L5.85983 14.5304H5.63183L5.5305 14.6602H5.43233L5.844 14.1409L5.9865 14.6602H5.8915ZM5.68567 14.4639H5.84717L5.81867 14.3499C5.8155 14.3435 5.8155 14.334 5.8155 14.3245C5.8155 14.315 5.81233 14.3055 5.81233 14.2929C5.806 14.3024 5.79967 14.315 5.7965 14.3245C5.79017 14.334 5.78383 14.3435 5.7775 14.3499L5.68567 14.4639ZM6.69267 14.2295L6.71167 14.1599H6.31267L6.29367 14.2295H6.44567L6.33483 14.6602H6.42667L6.5375 14.2295H6.69267ZM7.47483 14.6602L7.60467 14.163H7.50967L7.37983 14.6602H7.47483ZM7.93717 14.6602L8.029 14.315C8.03533 14.3245 8.04167 14.334 8.048 14.3435C8.05433 14.353 8.06383 14.3625 8.07017 14.3689L8.3615 14.6792L8.49767 14.163H8.41217L8.3235 14.5082C8.314 14.4955 8.30767 14.486 8.30133 14.4734C8.295 14.4639 8.2855 14.4544 8.27917 14.4449L7.99417 14.1409L7.858 14.6602H7.93717ZM9.188 14.2295L9.20383 14.1599H8.808L8.789 14.2295H8.941L8.83017 14.6602H8.92517L9.036 14.2295H9.188ZM9.7105 14.6602L9.7295 14.5874H9.5015L9.54267 14.4259H9.77067L9.78967 14.3562H9.56167L9.59333 14.2295H9.82133L9.84033 14.1599H9.51733L9.3875 14.657H9.7105V14.6602ZM10.2045 14.4385L10.1475 14.6602H10.0588L10.1887 14.163H10.3185C10.3565 14.163 10.385 14.1662 10.404 14.1694C10.423 14.1725 10.4388 14.182 10.4515 14.1915C10.4673 14.2042 10.4768 14.22 10.48 14.239C10.4832 14.258 10.4832 14.2802 10.4768 14.3024C10.4673 14.3435 10.4483 14.372 10.4198 14.3974C10.3913 14.4195 10.3565 14.4354 10.3122 14.4385L10.4515 14.6665H10.347L10.214 14.4449H10.2045V14.4385ZM10.2267 14.3752H10.2425C10.2932 14.3752 10.3248 14.3689 10.3438 14.3594C10.3628 14.3499 10.3755 14.3309 10.3818 14.3055C10.3882 14.277 10.385 14.258 10.3723 14.2485C10.3565 14.2359 10.328 14.2327 10.2805 14.2327H10.2647L10.2267 14.3752ZM10.8442 14.6602L10.9043 14.4259H11.1323L11.1513 14.3562H10.9233L10.955 14.2327H11.183L11.202 14.163H10.8822L10.7523 14.6602H10.8442ZM11.7657 14.6602L11.734 14.5304H11.506L11.4047 14.6602H11.3065L11.7182 14.1409L11.8607 14.6602H11.7657ZM11.5567 14.4639H11.7182L11.6897 14.3499C11.6865 14.3435 11.6865 14.334 11.6865 14.3245C11.6865 14.315 11.6833 14.3055 11.6833 14.2929C11.677 14.3024 11.6707 14.315 11.6643 14.3245C11.658 14.334 11.6517 14.3435 11.6485 14.3499L11.5567 14.4639ZM12.7315 14.201C12.7062 14.1852 12.6808 14.1725 12.6523 14.163C12.6238 14.1535 12.5922 14.1504 12.5573 14.1504C12.5162 14.1504 12.475 14.1567 12.4338 14.1694C12.3927 14.182 12.3547 14.201 12.323 14.2264C12.2882 14.2517 12.2597 14.2802 12.2343 14.3119C12.2122 14.3435 12.1932 14.3784 12.1837 14.4132C12.1742 14.4512 12.1742 14.4829 12.1805 14.5177C12.1868 14.5494 12.2027 14.5779 12.2217 14.6032C12.2438 14.6285 12.2723 14.6444 12.3072 14.657C12.342 14.6697 12.38 14.676 12.4243 14.676C12.4592 14.676 12.4908 14.6729 12.5225 14.6634C12.5542 14.657 12.5858 14.6444 12.6143 14.6285L12.6365 14.5367C12.6017 14.5589 12.57 14.5747 12.5352 14.5842C12.5003 14.5937 12.4687 14.6 12.4338 14.6C12.3768 14.6 12.3325 14.581 12.304 14.5462C12.2755 14.5114 12.266 14.467 12.2818 14.4132C12.2977 14.3562 12.3293 14.3119 12.3768 14.277C12.4243 14.2422 12.4813 14.2232 12.5447 14.2232C12.5763 14.2232 12.608 14.2295 12.6333 14.239C12.6587 14.2485 12.684 14.2644 12.7062 14.2834L12.7315 14.201ZM13.2857 14.6602L13.3047 14.5874H13.0767L13.1178 14.4259H13.3458L13.3648 14.3562H13.1368L13.1685 14.2295H13.3965L13.4155 14.1599H13.0957L12.9658 14.657H13.2857V14.6602ZM14.2135 14.6602L14.2737 14.4259H14.5017L14.5207 14.3562H14.2927L14.3243 14.2327H14.5523L14.5713 14.163H14.2515L14.1217 14.6602H14.2135ZM15.4358 14.4132C15.4263 14.448 15.4105 14.4829 15.3852 14.5145C15.363 14.5462 15.3313 14.5747 15.2965 14.6C15.2617 14.6254 15.2237 14.6444 15.1825 14.657C15.1413 14.6697 15.1002 14.676 15.0622 14.676C15.021 14.676 14.983 14.6697 14.9482 14.657C14.9133 14.6444 14.8848 14.6254 14.8627 14.6C14.8405 14.5747 14.8247 14.5462 14.8183 14.5177C14.812 14.486 14.812 14.4512 14.8215 14.4164C14.831 14.3815 14.8468 14.3467 14.869 14.315C14.8912 14.2834 14.9228 14.2549 14.9577 14.2295C14.9925 14.2042 15.0305 14.1852 15.0717 14.1725C15.1128 14.1599 15.154 14.1535 15.1952 14.1535C15.2363 14.1535 15.2743 14.1599 15.3092 14.1725C15.344 14.1852 15.3693 14.2042 15.3947 14.2295C15.4168 14.2549 15.4327 14.2834 15.439 14.315C15.4453 14.3435 15.4453 14.3784 15.4358 14.4132ZM15.3377 14.4132C15.344 14.3879 15.344 14.3625 15.3408 14.3404C15.3377 14.3182 15.3282 14.296 15.3123 14.2802C15.2965 14.2612 15.2775 14.2485 15.2553 14.239C15.2332 14.2295 15.2078 14.2264 15.1793 14.2264C15.1508 14.2264 15.1223 14.2295 15.097 14.239C15.0685 14.2485 15.0432 14.2612 15.0178 14.2802C14.9925 14.296 14.9735 14.3182 14.9577 14.3404C14.9418 14.3625 14.9292 14.3879 14.9228 14.4132C14.9165 14.4385 14.9165 14.4639 14.9197 14.486C14.9228 14.5082 14.9355 14.5304 14.9482 14.5462C14.964 14.5652 14.983 14.5779 15.0052 14.5874C15.0273 14.5969 15.0527 14.6 15.0812 14.6C15.1097 14.6 15.1382 14.5937 15.1635 14.5874C15.192 14.5779 15.2173 14.5652 15.2427 14.5462C15.268 14.5272 15.287 14.5082 15.306 14.486C15.3187 14.4607 15.3313 14.4385 15.3377 14.4132ZM15.8665 14.4385L15.8095 14.6602H15.7208L15.8507 14.163H15.9805C16.0185 14.163 16.047 14.1662 16.0692 14.1694C16.0882 14.1725 16.104 14.182 16.1167 14.1915C16.1325 14.2042 16.142 14.22 16.1452 14.239C16.1483 14.258 16.1483 14.2802 16.142 14.3024C16.1325 14.3435 16.1135 14.372 16.085 14.3974C16.0565 14.4195 16.0217 14.4354 15.9773 14.4385L16.1167 14.6665H16.0122L15.8792 14.4449H15.8665V14.4385ZM15.8887 14.3752H15.9045C15.9552 14.3752 15.9868 14.3689 16.0058 14.3594C16.0248 14.3499 16.0375 14.3309 16.0438 14.3055C16.0502 14.277 16.047 14.258 16.0343 14.2485C16.0185 14.2359 15.99 14.2327 15.9425 14.2327H15.9267L15.8887 14.3752ZM17.4277 14.6602H17.5132L17.51 14.1409L17.263 14.4544L17.2535 14.467C17.2345 14.4892 17.2218 14.5082 17.2123 14.5209C17.2092 14.505 17.206 14.4892 17.2028 14.4765C17.1997 14.4639 17.1997 14.4575 17.1965 14.4512L17.111 14.1377L16.8387 14.657H16.9242L17.0508 14.41C17.0572 14.3974 17.0635 14.3847 17.0667 14.3752C17.0698 14.3625 17.0762 14.353 17.0793 14.3435C17.0793 14.353 17.0825 14.3657 17.0825 14.3752C17.0857 14.3847 17.0857 14.3974 17.0888 14.4069L17.168 14.6792L17.3865 14.4132C17.396 14.4005 17.4055 14.391 17.4118 14.3784C17.4182 14.3657 17.4245 14.3562 17.4308 14.3435C17.4308 14.353 17.4277 14.3657 17.4277 14.3784C17.4245 14.3974 17.4245 14.4069 17.4245 14.41V14.6602H17.4277ZM18.4853 14.4132C18.4758 14.448 18.46 14.4829 18.4378 14.5145C18.4157 14.5462 18.384 14.5747 18.3492 14.6C18.3143 14.6254 18.2763 14.6444 18.2352 14.657C18.194 14.6697 18.1528 14.676 18.1117 14.676C18.0705 14.676 18.0325 14.6697 17.9977 14.657C17.9628 14.6444 17.9343 14.6254 17.9122 14.6C17.89 14.5747 17.8742 14.5462 17.8678 14.5177C17.8615 14.486 17.8615 14.4512 17.871 14.4164C17.8805 14.3815 17.8963 14.3467 17.9185 14.315C17.9407 14.2834 17.9723 14.2549 18.0072 14.2295C18.042 14.2042 18.08 14.1852 18.1212 14.1725C18.1623 14.1599 18.2035 14.1535 18.2447 14.1535C18.2858 14.1535 18.3238 14.1599 18.3555 14.1725C18.3903 14.1852 18.4188 14.2042 18.441 14.2295C18.4632 14.2549 18.479 14.2834 18.4853 14.315C18.4948 14.3435 18.4948 14.3784 18.4853 14.4132ZM18.3872 14.4132C18.3935 14.3879 18.3935 14.3625 18.3903 14.3404C18.3872 14.3182 18.3745 14.296 18.3618 14.2802C18.346 14.2612 18.327 14.2485 18.3048 14.239C18.2827 14.2295 18.2573 14.2264 18.2288 14.2264C18.2003 14.2264 18.1718 14.2295 18.1433 14.239C18.1148 14.2485 18.0895 14.2612 18.0642 14.2802C18.0388 14.296 18.0198 14.3182 18.004 14.3404C17.9882 14.3625 17.9755 14.3879 17.9692 14.4132C17.9628 14.4385 17.9628 14.4639 17.966 14.486C17.9723 14.5082 17.9818 14.5304 17.9945 14.5462C18.0103 14.5652 18.0293 14.5779 18.0515 14.5874C18.0737 14.5969 18.099 14.6 18.1275 14.6C18.156 14.6 18.1845 14.5937 18.213 14.5874C18.2415 14.5779 18.2668 14.5652 18.2922 14.5462C18.3175 14.5272 18.3365 14.5082 18.3523 14.486C18.3682 14.4607 18.3808 14.4385 18.3872 14.4132ZM18.8558 14.6602L18.9445 14.315C18.9508 14.3245 18.9572 14.334 18.9635 14.3435C18.9698 14.353 18.9762 14.3625 18.9857 14.3689L19.277 14.6792L19.4132 14.163H19.3277L19.239 14.5082C19.2295 14.4955 19.2232 14.486 19.2137 14.4734C19.2073 14.4639 19.1978 14.4544 19.1915 14.4449L18.9065 14.1409L18.7703 14.6602H18.8558ZM19.9768 14.6602L19.9958 14.5874H19.7678L19.809 14.4259H20.037L20.056 14.3562H19.828L19.8597 14.2295H20.0877L20.1067 14.1599H19.7868L19.657 14.657H19.9768V14.6602ZM20.5437 14.6602L20.6038 14.4322L20.873 14.163H20.778L20.6102 14.3309C20.6038 14.3372 20.5975 14.3435 20.5912 14.3499C20.5848 14.3562 20.5785 14.3657 20.5722 14.372C20.569 14.3625 20.569 14.3562 20.5658 14.3499C20.5627 14.3435 20.5595 14.3372 20.5595 14.334L20.4835 14.1662H20.3853L20.5088 14.4354L20.4487 14.6634H20.5437V14.6602Z" fill="#6D6E71"/>
</svg>
