<svg width="28" height="28" viewBox="0 0 28 28" fill="none" xmlns="http://www.w3.org/2000/svg">
<path d="M18.6673 15.0499V19.9499C18.6673 24.0333 17.034 25.6666 12.9507 25.6666H8.05065C3.96732 25.6666 2.33398 24.0333 2.33398 19.9499V15.0499C2.33398 10.9666 3.96732 9.33325 8.05065 9.33325H12.9507C17.034 9.33325 18.6673 10.9666 18.6673 15.0499Z" stroke="white" stroke-width="1.5" stroke-linecap="round" stroke-linejoin="round"/>
<path d="M25.6673 8.04992V12.9499C25.6673 17.0333 24.034 18.6666 19.9507 18.6666H18.6673V15.0499C18.6673 10.9666 17.034 9.33325 12.9507 9.33325H9.33398V8.04992C9.33398 3.96659 10.9673 2.33325 15.0507 2.33325H19.9507C24.034 2.33325 25.6673 3.96659 25.6673 8.04992Z" stroke="white" stroke-width="1.5" stroke-linecap="round" stroke-linejoin="round"/>
</svg>
