<svg width="24" height="25" viewBox="0 0 24 25" fill="none" xmlns="http://www.w3.org/2000/svg">
<g clip-path="url(#clip0_1323_14036)">
<g clip-path="url(#clip1_1323_14036)">
<path d="M20.7364 4.87977C19.2013 4.51036 16.7263 4.01075 16.0348 5.72935C13.9215 10.0829 12.7082 14.6392 11.7949 16.5942C11.8908 16.6601 16.1001 19.5647 16.3979 19.7365C17.3442 20.2827 18.9241 20.0369 19.5971 18.5932C21.4642 14.5882 20.9896 15.6309 22.9735 11.5443C24.2554 8.90342 22.6526 5.34085 20.7364 4.87977Z" fill="#EA4335"/>
<path d="M7.45564 22.5537C6.4249 21.1512 5.6688 18.3454 6.5745 16.774C9.22033 11.3235 11.3384 8.02391 13.0041 4.71655C13.8874 5.32312 17.4266 7.71074 17.6622 7.95675C18.453 8.78172 19.108 10.3581 18.3933 11.7731C16.4105 15.6988 15.597 17.4754 13.5817 21.6269C12.2995 24.2685 8.74331 24.3057 7.45564 22.5537Z" fill="#FDBD00"/>
<path d="M16.9452 2.10097C14.8833 0.667942 13.8234 0.855754 12.7146 1.06726C11.7065 1.36698 10.3434 2.2383 9.76878 3.3577C8.31923 6.18144 6.94627 8.97562 5.16765 12.7621C4.61984 13.9283 5.02647 15.3611 5.53202 15.9297C5.87463 16.3153 8.39553 17.9695 8.86066 18.2073C9.51861 18.5437 10.5042 18.3097 11.0987 17.5819C11.2629 17.3808 15.0236 9.69823 16.0827 7.43229C16.5297 6.4761 16.9324 5.94693 17.6009 5.43686C18.8923 4.63086 19.9006 4.52689 21.445 5.19856C21.445 5.19856 18.0837 2.88132 16.9452 2.10097Z" fill="#2DA94F"/>
<path d="M3.67792 20.1308C1.60339 18.7235 1.2102 17.538 0.809766 16.29C0.524015 15.1019 0.476921 13.2622 1.00472 12.1105C2.33619 9.20579 2.32662 9.19107 4.19449 5.46576C4.76977 4.31842 6.01644 4.02088 6.68329 4.25723C7.13527 4.41732 9.60017 6.18676 10.0059 6.54698C10.5799 7.05647 10.9023 8.18864 10.6696 9.16496C10.6053 9.43455 8.24897 14.3529 7.12869 16.5768C6.65582 17.5153 6.4719 18.1946 6.43476 19.1381C6.49356 20.8713 6.92194 21.9619 8.18331 23.2169C8.18331 23.2169 4.81531 20.9132 3.67792 20.1308Z" fill="#297AEC"/>
</g>
</g>
<defs>
<clipPath id="clip0_1323_14036">
<rect width="24" height="24" fill="white" transform="translate(0 0.5)"/>
</clipPath>
<clipPath id="clip1_1323_14036">
<rect width="24" height="24" fill="white" transform="translate(0 0.20874)"/>
</clipPath>
</defs>
</svg>
