<svg width="30" height="25" viewBox="0 0 30 25" fill="none" xmlns="http://www.w3.org/2000/svg">
<g clip-path="url(#clip0_1323_14069)">
<path d="M28.9047 10.1594C28.6505 9.33183 27.9578 8.73757 27.1444 8.73757H27.1273C26.5985 8.73757 26.1218 8.98821 25.7825 9.39064C25.4427 8.98821 24.9661 8.73757 24.4378 8.73757H24.4207C23.9558 8.73757 23.5309 8.93145 23.2045 9.25224V9.0891C23.1933 8.9266 23.076 8.79893 22.931 8.79893H21.6831C21.5305 8.79893 21.4073 8.93936 21.4073 9.11372V16.8313C21.4073 17.0058 21.5306 17.1461 21.6831 17.1461H22.931C23.0701 17.1461 23.1846 17.0278 23.2029 16.8747L23.2023 11.3344C23.2023 11.315 23.2029 11.297 23.2046 11.2789C23.2246 11.0316 23.3836 10.8284 23.6349 10.8029H23.865C23.9701 10.8136 24.0588 10.8557 24.1285 10.9192C24.2372 11.0174 24.2975 11.1686 24.2975 11.3344L24.3022 16.8474C24.3022 17.0219 24.4261 17.163 24.5781 17.163H25.826C25.9733 17.163 26.0931 17.0293 26.1002 16.8628L26.0996 11.3271C26.0991 11.1452 26.173 10.9808 26.3027 10.8832C26.3666 10.8364 26.4436 10.805 26.5322 10.7956H26.7622C27.0322 10.8224 27.1954 11.0557 27.1949 11.3271L27.1996 16.8327C27.1996 17.0072 27.3234 17.1475 27.4754 17.1475H28.7233C28.8753 17.1475 28.9992 17.0071 28.9992 16.8327V10.9114C28.9992 10.5076 28.9593 10.3358 28.9047 10.1594ZM20.4565 8.81908H19.7427V7.49816C19.7427 7.33974 19.6301 7.21143 19.4909 7.21143C19.4745 7.21143 19.4587 7.2141 19.4433 7.21742C18.6521 7.46474 18.8105 8.71283 17.3661 8.81908H17.2257C17.2046 8.81908 17.1846 8.8224 17.1653 8.82711H17.1641L17.1653 8.82775C17.042 8.85913 16.9492 8.98349 16.9492 9.13324V10.5545C16.9492 10.7276 17.0731 10.8687 17.2256 10.8687H17.9787L17.9776 16.8951C17.9776 17.0669 18.0997 17.2059 18.2505 17.2059H19.4843C19.6346 17.2059 19.7567 17.0669 19.7567 16.8951L19.7573 10.8687H20.4564C20.6084 10.8687 20.7322 10.7276 20.7322 10.5545V9.13336C20.7325 8.96015 20.6086 8.81908 20.4565 8.81908Z" fill="#54C1F0"/>
<path d="M15.9675 8.8191H14.7196C14.5676 8.8191 14.4443 8.96017 14.4443 9.13326V12.0719C14.4413 12.2538 14.3122 12.3995 14.1519 12.3995H13.6296C13.4676 12.3995 13.3367 12.2511 13.3367 12.0666L13.332 9.13326C13.332 8.96017 13.2081 8.8191 13.0561 8.8191H11.8081C11.6555 8.8191 11.5323 8.96017 11.5323 9.13326V12.3541C11.5323 13.5774 12.2982 14.4497 13.373 14.4497C13.373 14.4497 14.1795 14.4497 14.2041 14.4551C14.3497 14.4738 14.463 14.6129 14.463 14.784C14.463 14.9532 14.352 15.0916 14.2082 15.1122C14.2011 15.1135 14.1946 15.1155 14.187 15.1169L12.3621 15.1243C12.2094 15.1243 12.0862 15.2654 12.0862 15.4385V16.859C12.0862 17.0329 12.2095 17.1732 12.3621 17.1732H14.4024C15.4777 17.1732 16.2431 16.3015 16.2431 15.0775V9.13339C16.2433 8.96017 16.1201 8.8191 15.9675 8.8191ZM3.99824 8.81885H1.27059C1.12096 8.81885 1 8.95711 1 9.12701V10.5195C1 10.5222 1.00056 10.5248 1.00056 10.5275C1.00056 10.5342 1 10.5409 1 10.5469V16.8492C1 17.0204 1.11267 17.16 1.25245 17.164H2.52387C2.67586 17.164 2.79973 17.0236 2.79973 16.8498L2.80443 14.69H3.99835C4.99739 14.69 5.69358 13.9006 5.69358 12.7581V10.7534C5.69347 9.61094 4.99728 8.81885 3.99824 8.81885ZM3.88848 12.3002C3.88848 12.484 3.75755 12.6338 3.59616 12.6338L2.80432 12.6344V10.877H3.59616C3.75755 10.877 3.88848 11.0254 3.88848 11.2099V12.3002ZM8.86789 8.82688H7.13637C6.98315 8.82688 6.85928 8.95928 6.85928 9.12165V9.67446C6.85928 9.67778 6.85984 9.68186 6.85984 9.68517C6.85984 9.68913 6.85928 9.69321 6.85928 9.69716V10.4546C6.85928 10.6264 6.99077 10.7667 7.15272 10.7667H8.80158C8.93184 10.79 9.03522 10.8983 9.04989 11.0674V11.2506C9.03522 11.4117 8.93307 11.5293 8.80864 11.5427H7.99216C6.90621 11.5427 6.13262 12.3643 6.13262 13.5181V15.1705C6.13262 16.3176 6.79768 17.1338 7.8759 17.1338H10.1388C10.545 17.1338 10.8743 16.7835 10.8743 16.3523V10.96C10.8743 9.65252 10.2826 8.82688 8.86789 8.82688ZM9.06635 14.9816C9.06635 14.9997 9.064 15.0171 9.06165 15.0338C9.05871 15.0495 9.05478 15.0649 9.04989 15.0799C9.01114 15.2043 8.90194 15.2945 8.77224 15.2945H8.25278C8.09083 15.2945 7.95867 15.1541 7.95867 14.9816V14.7135C7.95867 14.7102 7.95811 14.7069 7.95811 14.7034L7.95867 13.9901V13.7669L7.95923 13.7649C7.95979 13.5931 8.09072 13.4541 8.25267 13.4541H8.77213C8.93475 13.4541 9.06624 13.5937 9.06624 13.7669V14.9816H9.06635Z" fill="#233266"/>
</g>
<defs>
<clipPath id="clip0_1323_14069">
<rect width="28" height="10" fill="white" transform="translate(1 7.20874)"/>
</clipPath>
</defs>
</svg>
