<svg width="24" height="25" viewBox="0 0 24 25" fill="none" xmlns="http://www.w3.org/2000/svg">
<path d="M12 22.5C17.5228 22.5 22 18.0228 22 12.5C22 6.97715 17.5228 2.5 12 2.5C6.47715 2.5 2 6.97715 2 12.5C2 18.0228 6.47715 22.5 12 22.5Z" fill="#5F259F"/>
<path d="M16.5382 9.89025C16.5382 9.49933 16.2029 9.16409 15.812 9.16409H14.4713L11.3988 5.64468C11.1196 5.30944 10.6727 5.19779 10.2258 5.30944L9.16439 5.64468C8.99677 5.70065 8.9408 5.92395 9.05274 6.03559L12.4045 9.22006H7.32028C7.15266 9.22006 7.04102 9.33171 7.04102 9.49933V10.0579C7.04102 10.4488 7.37625 10.784 7.76717 10.784H8.54929V13.4656C8.54929 15.4768 9.61069 16.6501 11.3985 16.6501C11.9571 16.6501 12.4042 16.5941 12.9628 16.3708V18.1587C12.9628 18.6615 13.3537 19.0524 13.8565 19.0524H14.6387C14.8063 19.0524 14.9739 18.8848 14.9739 18.7172V10.7283H16.2589C16.4265 10.7283 16.5382 10.6167 16.5382 10.4491V9.89025ZM12.9628 14.6946C12.6275 14.8623 12.1806 14.9182 11.8454 14.9182C10.9516 14.9182 10.5048 14.4713 10.5048 13.4656V10.784H12.9628V14.6946Z" fill="white"/>
</svg>
