<svg width="25" height="24" viewBox="0 0 25 24" fill="none" xmlns="http://www.w3.org/2000/svg">
<path d="M3.84315 9.17222C4.36558 9.17222 4.64673 8.88079 4.64673 8.34851V5.97851C4.64673 4.93365 5.20901 4.40136 6.21358 4.40136H8.64444C9.16687 4.40136 9.45787 4.10994 9.45787 3.58751C9.45787 3.07536 9.16644 2.78394 8.64444 2.78394H6.18358C4.0943 2.78394 3.0293 3.81851 3.0293 5.88765V8.34894C3.0293 8.88122 3.32073 9.17222 3.84315 9.17222ZM20.6577 9.17222C21.19 9.17222 21.4716 8.88079 21.4716 8.34851V5.88765C21.4716 3.81851 20.4267 2.78394 18.3173 2.78394H15.8663C15.334 2.78394 15.043 3.07536 15.043 3.58751C15.043 4.10994 15.3344 4.40136 15.8663 4.40136H18.2972C19.2816 4.40136 19.8542 4.93365 19.8542 5.97851V8.34851C19.8542 8.88122 20.1456 9.17222 20.6577 9.17222ZM11.8184 11.1308V7.62551C11.8184 7.38465 11.6277 7.18365 11.3766 7.18365H7.88115C7.63001 7.18365 7.43887 7.38422 7.43887 7.62551V11.1312C7.43887 11.3721 7.63001 11.5632 7.88115 11.5632H11.3766C11.6277 11.5632 11.8184 11.3716 11.8184 11.1308ZM13.5563 8.05794H16.1877V10.6894H13.5563V8.05794ZM15.4249 9.92651V8.83108H14.3299V9.92608L15.4249 9.92651ZM10.1813 9.92651V8.83108H9.07644V9.92608L10.1813 9.92651ZM8.31273 13.3114H10.9446V15.9428H8.31315L8.31273 13.3114ZM16.9313 13.6525V12.5579H15.8363V13.6529L16.9313 13.6525ZM13.9077 13.6525V12.5579H12.8127V13.6529L13.9077 13.6525ZM10.1813 15.1697V14.0742H9.07644V15.1688L10.1813 15.1697ZM15.4244 15.1697V14.0742H14.3196V15.1688L15.4244 15.1697ZM15.8663 21.2164H18.3177C20.4267 21.2164 21.4716 20.1715 21.4716 18.1024V15.6514C21.4716 15.1187 21.1802 14.8277 20.6577 14.8277C20.1353 14.8277 19.8542 15.1191 19.8542 15.6514V18.0214C19.8542 19.0662 19.2816 19.5985 18.2972 19.5985H15.8663C15.334 19.5985 15.043 19.8899 15.043 20.4124C15.043 20.9245 15.3344 21.2164 15.8663 21.2164ZM6.18358 21.2159H8.64444C9.16687 21.2159 9.45787 20.9245 9.45787 20.4124C9.45787 19.8899 9.16644 19.5989 8.64444 19.5989H6.21358C5.20901 19.5989 4.64673 19.0662 4.64673 18.0218V15.6514C4.64673 15.1187 4.3553 14.8277 3.84315 14.8277C3.31087 14.8277 3.0293 15.1191 3.0293 15.6514V18.1019C3.0293 20.1814 4.0943 21.2159 6.18358 21.2159ZM13.9077 16.6859V15.5909H12.8127V16.6859H13.9077ZM16.9313 16.6859V15.5909H15.8363V16.6859H16.9313ZM17.062 11.1312V7.62551C17.062 7.38465 16.8709 7.18365 16.6197 7.18365H13.1247C12.8736 7.18365 12.6829 7.38422 12.6829 7.62551V11.1312C12.6829 11.3721 12.8736 11.5632 13.1243 11.5632H16.6202C16.8713 11.5632 17.062 11.3721 17.062 11.1312ZM8.31273 8.05708H10.9446V10.6885H8.31315L8.31273 8.05708ZM11.8184 16.3739V12.8682C11.8184 12.6274 11.6277 12.4366 11.3766 12.4366H7.88115C7.63001 12.4366 7.43887 12.6274 7.43887 12.8682V16.3739C7.43887 16.6152 7.63001 16.8158 7.88115 16.8158H11.3766C11.6277 16.8158 11.8184 16.6152 11.8184 16.3739Z" fill="white"/>
</svg>
