<svg width="25" height="24" viewBox="0 0 25 24" fill="none" xmlns="http://www.w3.org/2000/svg">
<path d="M9.75 12C9.75 12.663 9.48661 13.2989 9.01777 13.7678C8.54893 14.2366 7.91304 14.5 7.25 14.5C6.58696 14.5 5.95107 14.2366 5.48223 13.7678C5.01339 13.2989 4.75 12.663 4.75 12C4.75 11.337 5.01339 10.7011 5.48223 10.2322C5.95107 9.76339 6.58696 9.5 7.25 9.5C7.91304 9.5 8.54893 9.76339 9.01777 10.2322C9.48661 10.7011 9.75 11.337 9.75 12Z" stroke="white" stroke-width="1.5"/>
<path d="M14.75 6.5L9.75 10M14.75 17.5L9.75 14" stroke="white" stroke-width="1.5" stroke-linecap="round"/>
<path d="M19.75 18.5C19.75 19.163 19.4866 19.7989 19.0178 20.2678C18.5489 20.7366 17.913 21 17.25 21C16.587 21 15.9511 20.7366 15.4822 20.2678C15.0134 19.7989 14.75 19.163 14.75 18.5C14.75 17.837 15.0134 17.2011 15.4822 16.7322C15.9511 16.2634 16.587 16 17.25 16C17.913 16 18.5489 16.2634 19.0178 16.7322C19.4866 17.2011 19.75 17.837 19.75 18.5ZM19.75 5.5C19.75 6.16304 19.4866 6.79893 19.0178 7.26777C18.5489 7.73661 17.913 8 17.25 8C16.587 8 15.9511 7.73661 15.4822 7.26777C15.0134 6.79893 14.75 6.16304 14.75 5.5C14.75 4.83696 15.0134 4.20107 15.4822 3.73223C15.9511 3.26339 16.587 3 17.25 3C17.913 3 18.5489 3.26339 19.0178 3.73223C19.4866 4.20107 19.75 4.83696 19.75 5.5Z" stroke="white" stroke-width="1.5"/>
</svg>
