<svg width="25" height="24" viewBox="0 0 25 24" fill="none" xmlns="http://www.w3.org/2000/svg">
<path d="M17.8314 19.1568H7.16992C5.2843 19.1568 4.34149 19.1568 3.75571 18.571C3.16992 17.9852 3.16992 17.0424 3.16992 15.1568V10.2259C3.16992 9.33169 3.16992 8.88459 3.31032 8.52992C3.51361 8.01636 3.92024 7.60974 4.4338 7.40644C4.78847 7.26605 5.23556 7.26605 6.12975 7.26605C6.56984 7.26605 6.78988 7.26605 6.99612 7.22207C7.2943 7.15848 7.574 7.02757 7.81384 6.83932C7.97972 6.70913 8.12067 6.54016 8.40258 6.20222L8.52574 6.05459C8.92878 5.57145 9.1303 5.32987 9.38387 5.16535C9.53822 5.0652 9.70565 4.98684 9.88142 4.93247C10.1702 4.84314 10.4848 4.84314 11.114 4.84314H14.045C14.3354 4.84314 14.4806 4.84314 14.6159 4.86169C15.1166 4.93036 15.5727 5.18603 15.8926 5.5773C15.979 5.68299 16.0547 5.80686 16.2063 6.05459C16.3578 6.30233 16.4336 6.42619 16.52 6.53189C16.8399 6.92315 17.296 7.17882 17.7967 7.24749C17.9319 7.26605 18.0771 7.26605 18.3676 7.26605H18.7017C19.7556 7.26605 20.2825 7.26605 20.6899 7.45966C21.1055 7.65718 21.4403 7.99196 21.6378 8.40757C21.8314 8.81497 21.8314 9.34191 21.8314 10.3958V15.1568C21.8314 17.0424 21.8314 17.9852 21.2457 18.571C20.6599 19.1568 19.7171 19.1568 17.8314 19.1568Z" stroke="#0A0A0A" stroke-width="1.5"/>
<circle cx="12.5006" cy="12.8354" r="3.55722" stroke="#0A0A0A" stroke-width="1.5"/>
<circle cx="19.2017" cy="10.2424" r="1.08448" fill="#0A0A0A"/>
<rect x="4.57031" y="9.15796" width="3.23547" height="1.34916" rx="0.67458" fill="#0A0A0A"/>
</svg>
