<svg width="20" height="20" viewBox="0 0 20 20" fill="none" xmlns="http://www.w3.org/2000/svg">
<path d="M10 20L9 17H2C1.45 17 0.979333 16.8043 0.588 16.413C0.196667 16.0217 0.000666667 15.5507 0 15V2C0 1.45 0.196 0.979333 0.588 0.588C0.98 0.196667 1.45067 0.000666667 2 0H8L8.875 3H18C18.5833 3 19.0627 3.18767 19.438 3.563C19.8133 3.93833 20.0007 4.41733 20 5V18C20 18.55 19.8127 19.021 19.438 19.413C19.0633 19.805 18.584 20.0007 18 20H10ZM5.15 12.6C6.3 12.6 7.246 12.2293 7.988 11.488C8.73 10.7467 9.10067 9.784 9.1 8.6C9.1 8.46667 9.096 8.346 9.088 8.238C9.08 8.13 9.059 8.01733 9.025 7.9H5.075V9.45H7.3C7.16667 9.91667 6.91233 10.2793 6.537 10.538C6.16167 10.7967 5.70767 10.9257 5.175 10.925C4.525 10.925 3.96667 10.6917 3.5 10.225C3.03333 9.75833 2.8 9.18333 2.8 8.5C2.8 7.81667 3.03333 7.24167 3.5 6.775C3.96667 6.30833 4.525 6.075 5.175 6.075C5.475 6.075 5.75833 6.12933 6.025 6.238C6.29167 6.34667 6.53333 6.509 6.75 6.725L7.975 5.55C7.625 5.18333 7.204 4.9 6.712 4.7C6.22 4.5 5.69933 4.4 5.15 4.4C4.03333 4.4 3.079 4.796 2.287 5.588C1.495 6.38 1.09933 7.35067 1.1 8.5C1.10067 9.64933 1.49667 10.6203 2.288 11.413C3.07933 12.2057 4.03333 12.6013 5.15 12.6ZM11.85 13.1L12.4 12.575C12.1667 12.2917 11.9543 12.0167 11.763 11.75C11.5717 11.4833 11.384 11.2 11.2 10.9L11.85 13.1ZM13.1 11.825C13.5667 11.275 13.921 10.75 14.163 10.25C14.405 9.75 14.5673 9.35833 14.65 9.075H10.675L10.975 10.125H11.975C12.1083 10.375 12.2667 10.646 12.45 10.938C12.6333 11.23 12.85 11.5257 13.1 11.825ZM11 19H18C18.3 19 18.5417 18.904 18.725 18.712C18.9083 18.52 19 18.2827 19 18V5C19 4.7 18.9083 4.45833 18.725 4.275C18.5417 4.09167 18.3 4 18 4H9.175L10.35 8.05H12.325V7H13.35V8.05H17V9.075H15.725C15.5583 9.70833 15.3083 10.325 14.975 10.925C14.6417 11.525 14.25 12.0833 13.8 12.6L16.525 15.275L15.8 16L13.1 13.3L12.2 14.225L13 17L11 19Z" fill="#656F77"/>
</svg>
